%TF.GenerationSoftware,KiCad,Pcbnew,(6.0.5)*%
%TF.CreationDate,2022-06-21T13:53:18+02:00*%
%TF.ProjectId,usb-c_demo1,7573622d-635f-4646-956d-6f312e6b6963,rev?*%
%TF.SameCoordinates,Original*%
%TF.FileFunction,Copper,L1,Top*%
%TF.FilePolarity,Positive*%
%FSLAX46Y46*%
G04 Gerber Fmt 4.6, Leading zero omitted, Abs format (unit mm)*
G04 Created by KiCad (PCBNEW (6.0.5)) date 2022-06-21 13:53:18*
%MOMM*%
%LPD*%
G01*
G04 APERTURE LIST*
G04 Aperture macros list*
%AMRoundRect*
0 Rectangle with rounded corners*
0 $1 Rounding radius*
0 $2 $3 $4 $5 $6 $7 $8 $9 X,Y pos of 4 corners*
0 Add a 4 corners polygon primitive as box body*
4,1,4,$2,$3,$4,$5,$6,$7,$8,$9,$2,$3,0*
0 Add four circle primitives for the rounded corners*
1,1,$1+$1,$2,$3*
1,1,$1+$1,$4,$5*
1,1,$1+$1,$6,$7*
1,1,$1+$1,$8,$9*
0 Add four rect primitives between the rounded corners*
20,1,$1+$1,$2,$3,$4,$5,0*
20,1,$1+$1,$4,$5,$6,$7,0*
20,1,$1+$1,$6,$7,$8,$9,0*
20,1,$1+$1,$8,$9,$2,$3,0*%
G04 Aperture macros list end*
%TA.AperFunction,SMDPad,CuDef*%
%ADD10RoundRect,0.225000X-0.225000X-0.250000X0.225000X-0.250000X0.225000X0.250000X-0.225000X0.250000X0*%
%TD*%
%TA.AperFunction,SMDPad,CuDef*%
%ADD11R,1.450000X0.600000*%
%TD*%
%TA.AperFunction,SMDPad,CuDef*%
%ADD12R,1.450000X0.300000*%
%TD*%
%TA.AperFunction,ComponentPad*%
%ADD13O,1.600000X1.000000*%
%TD*%
%TA.AperFunction,ComponentPad*%
%ADD14O,2.100000X1.000000*%
%TD*%
%TA.AperFunction,SMDPad,CuDef*%
%ADD15RoundRect,0.225000X-0.250000X0.225000X-0.250000X-0.225000X0.250000X-0.225000X0.250000X0.225000X0*%
%TD*%
%TA.AperFunction,SMDPad,CuDef*%
%ADD16RoundRect,0.200000X0.200000X0.275000X-0.200000X0.275000X-0.200000X-0.275000X0.200000X-0.275000X0*%
%TD*%
%TA.AperFunction,ComponentPad*%
%ADD17R,1.700000X1.700000*%
%TD*%
%TA.AperFunction,ComponentPad*%
%ADD18O,1.700000X1.700000*%
%TD*%
%TA.AperFunction,SMDPad,CuDef*%
%ADD19C,1.800000*%
%TD*%
%TA.AperFunction,SMDPad,CuDef*%
%ADD20RoundRect,0.150000X-0.512500X-0.150000X0.512500X-0.150000X0.512500X0.150000X-0.512500X0.150000X0*%
%TD*%
%TA.AperFunction,SMDPad,CuDef*%
%ADD21RoundRect,0.218750X0.381250X-0.218750X0.381250X0.218750X-0.381250X0.218750X-0.381250X-0.218750X0*%
%TD*%
%TA.AperFunction,SMDPad,CuDef*%
%ADD22RoundRect,0.218750X-0.256250X0.218750X-0.256250X-0.218750X0.256250X-0.218750X0.256250X0.218750X0*%
%TD*%
%TA.AperFunction,ComponentPad*%
%ADD23R,2.200000X2.200000*%
%TD*%
%TA.AperFunction,ComponentPad*%
%ADD24C,2.200000*%
%TD*%
%TA.AperFunction,ComponentPad*%
%ADD25C,6.400000*%
%TD*%
%TA.AperFunction,ComponentPad*%
%ADD26C,0.800000*%
%TD*%
%TA.AperFunction,SMDPad,CuDef*%
%ADD27RoundRect,0.218750X0.256250X-0.218750X0.256250X0.218750X-0.256250X0.218750X-0.256250X-0.218750X0*%
%TD*%
%TA.AperFunction,SMDPad,CuDef*%
%ADD28RoundRect,0.125000X-0.625000X-0.125000X0.625000X-0.125000X0.625000X0.125000X-0.625000X0.125000X0*%
%TD*%
%TA.AperFunction,SMDPad,CuDef*%
%ADD29RoundRect,0.125000X-0.125000X-0.625000X0.125000X-0.625000X0.125000X0.625000X-0.125000X0.625000X0*%
%TD*%
%TA.AperFunction,SMDPad,CuDef*%
%ADD30RoundRect,0.225000X0.225000X0.250000X-0.225000X0.250000X-0.225000X-0.250000X0.225000X-0.250000X0*%
%TD*%
%TA.AperFunction,SMDPad,CuDef*%
%ADD31RoundRect,0.250000X-0.625000X0.375000X-0.625000X-0.375000X0.625000X-0.375000X0.625000X0.375000X0*%
%TD*%
%TA.AperFunction,SMDPad,CuDef*%
%ADD32RoundRect,0.237500X0.250000X0.237500X-0.250000X0.237500X-0.250000X-0.237500X0.250000X-0.237500X0*%
%TD*%
%TA.AperFunction,SMDPad,CuDef*%
%ADD33R,1.000000X1.300000*%
%TD*%
%TA.AperFunction,SMDPad,CuDef*%
%ADD34RoundRect,0.200000X-0.200000X-0.275000X0.200000X-0.275000X0.200000X0.275000X-0.200000X0.275000X0*%
%TD*%
%TA.AperFunction,SMDPad,CuDef*%
%ADD35RoundRect,0.200000X0.275000X-0.200000X0.275000X0.200000X-0.275000X0.200000X-0.275000X-0.200000X0*%
%TD*%
%TA.AperFunction,SMDPad,CuDef*%
%ADD36RoundRect,0.150000X0.150000X-0.512500X0.150000X0.512500X-0.150000X0.512500X-0.150000X-0.512500X0*%
%TD*%
%TA.AperFunction,ViaPad*%
%ADD37C,0.600000*%
%TD*%
%TA.AperFunction,Conductor*%
%ADD38C,0.500000*%
%TD*%
%TA.AperFunction,Conductor*%
%ADD39C,0.300000*%
%TD*%
%TA.AperFunction,Conductor*%
%ADD40C,1.000000*%
%TD*%
%TA.AperFunction,Conductor*%
%ADD41C,0.261112*%
%TD*%
%TA.AperFunction,Conductor*%
%ADD42C,0.750000*%
%TD*%
G04 APERTURE END LIST*
D10*
%TO.P,C3,1*%
%TO.N,+3V3*%
X54343000Y-68326000D03*
%TO.P,C3,2*%
%TO.N,GND*%
X55893000Y-68326000D03*
%TD*%
D11*
%TO.P,J1,A1,GND*%
%TO.N,GND*%
X64535000Y-66750000D03*
%TO.P,J1,A4,VBUS*%
%TO.N,/VBUS*%
X64535000Y-65950000D03*
D12*
%TO.P,J1,A5,CC1*%
%TO.N,/CC1*%
X64535000Y-64750000D03*
%TO.P,J1,A6,D+*%
%TO.N,/D+*%
X64535000Y-63750000D03*
%TO.P,J1,A7,D-*%
%TO.N,/D-*%
X64535000Y-63250000D03*
%TO.P,J1,A8,SBU1*%
%TO.N,unconnected-(J1-PadA8)*%
X64535000Y-62250000D03*
D11*
%TO.P,J1,A9,VBUS*%
%TO.N,/VBUS*%
X64535000Y-61050000D03*
%TO.P,J1,A12,GND*%
%TO.N,GND*%
X64535000Y-60250000D03*
%TO.P,J1,B1,GND*%
X64535000Y-60250000D03*
%TO.P,J1,B4,VBUS*%
%TO.N,/VBUS*%
X64535000Y-61050000D03*
D12*
%TO.P,J1,B5,CC2*%
%TO.N,/CC2*%
X64535000Y-61750000D03*
%TO.P,J1,B6,D+*%
%TO.N,/D+*%
X64535000Y-62750000D03*
%TO.P,J1,B7,D-*%
%TO.N,/D-*%
X64535000Y-64250000D03*
%TO.P,J1,B8,SBU2*%
%TO.N,unconnected-(J1-PadB8)*%
X64535000Y-65250000D03*
D11*
%TO.P,J1,B9,VBUS*%
%TO.N,/VBUS*%
X64535000Y-65950000D03*
%TO.P,J1,B12,GND*%
%TO.N,GND*%
X64535000Y-66750000D03*
D13*
%TO.P,J1,S1,SHIELD*%
%TO.N,unconnected-(J1-PadS1)*%
X69630000Y-67820000D03*
D14*
X65450000Y-59180000D03*
D13*
X69630000Y-59180000D03*
D14*
X65450000Y-67820000D03*
%TD*%
D15*
%TO.P,C10,1*%
%TO.N,NRST*%
X38735000Y-65265000D03*
%TO.P,C10,2*%
%TO.N,GND*%
X38735000Y-66815000D03*
%TD*%
D16*
%TO.P,R4,1*%
%TO.N,/BOOT0*%
X36639000Y-56134000D03*
%TO.P,R4,2*%
%TO.N,GND*%
X34989000Y-56134000D03*
%TD*%
D17*
%TO.P,J4,1,Pin_1*%
%TO.N,GND*%
X36830000Y-74930000D03*
D18*
%TO.P,J4,2,Pin_2*%
%TO.N,+3V3*%
X39370000Y-74930000D03*
%TO.P,J4,3,Pin_3*%
%TO.N,PA4*%
X41910000Y-74930000D03*
%TO.P,J4,4,Pin_4*%
%TO.N,PA5*%
X44450000Y-74930000D03*
%TO.P,J4,5,Pin_5*%
%TO.N,PA6*%
X46990000Y-74930000D03*
%TO.P,J4,6,Pin_6*%
%TO.N,PA7*%
X49530000Y-74930000D03*
%TD*%
D15*
%TO.P,C6,1*%
%TO.N,+3.3VA*%
X47498000Y-70091000D03*
%TO.P,C6,2*%
%TO.N,GND*%
X47498000Y-71641000D03*
%TD*%
D10*
%TO.P,C9,1*%
%TO.N,+3V3*%
X61201000Y-47879000D03*
%TO.P,C9,2*%
%TO.N,GND*%
X62751000Y-47879000D03*
%TD*%
%TO.P,C8,1*%
%TO.N,+5V*%
X61201000Y-54229000D03*
%TO.P,C8,2*%
%TO.N,GND*%
X62751000Y-54229000D03*
%TD*%
D19*
%TO.P,J2,1,Pin_1*%
%TO.N,+3V3*%
X52070000Y-49530000D03*
%TO.P,J2,2,Pin_2*%
%TO.N,SWDIO*%
X52070000Y-52070000D03*
%TO.P,J2,3,Pin_3*%
%TO.N,NRST*%
X49530000Y-49530000D03*
%TO.P,J2,4,Pin_4*%
%TO.N,SWCLK*%
X49530000Y-52070000D03*
%TO.P,J2,5,Pin_5*%
%TO.N,GND*%
X46990000Y-49530000D03*
%TO.P,J2,6,Pin_6*%
%TO.N,SWO*%
X46990000Y-52070000D03*
%TD*%
D17*
%TO.P,J5,1,Pin_1*%
%TO.N,GND*%
X29210000Y-54610000D03*
D18*
%TO.P,J5,2,Pin_2*%
%TO.N,+3V3*%
X29210000Y-57150000D03*
%TO.P,J5,3,Pin_3*%
%TO.N,PA0*%
X29210000Y-59690000D03*
%TO.P,J5,4,Pin_4*%
%TO.N,PA1*%
X29210000Y-62230000D03*
%TO.P,J5,5,Pin_5*%
%TO.N,PA2*%
X29210000Y-64770000D03*
%TO.P,J5,6,Pin_6*%
%TO.N,PA3*%
X29210000Y-67310000D03*
%TD*%
D20*
%TO.P,U2,1,I/O1*%
%TO.N,/STM_D+*%
X58552500Y-62550000D03*
%TO.P,U2,2,GND*%
%TO.N,GND*%
X58552500Y-63500000D03*
%TO.P,U2,3,I/O2*%
%TO.N,/STM_D-*%
X58552500Y-64450000D03*
%TO.P,U2,4,I/O2*%
%TO.N,/D-*%
X60827500Y-64450000D03*
%TO.P,U2,5,VBUS*%
%TO.N,/VBUS*%
X60827500Y-63500000D03*
%TO.P,U2,6,I/O1*%
%TO.N,/D+*%
X60827500Y-62550000D03*
%TD*%
D21*
%TO.P,FB1,1*%
%TO.N,/VBUS*%
X70358000Y-55926500D03*
%TO.P,FB1,2*%
%TO.N,Net-(F1-Pad1)*%
X70358000Y-53801500D03*
%TD*%
D15*
%TO.P,C7,1*%
%TO.N,+3.3VA*%
X49530000Y-70091000D03*
%TO.P,C7,2*%
%TO.N,GND*%
X49530000Y-71641000D03*
%TD*%
D22*
%TO.P,D1,1,K*%
%TO.N,Net-(D1-Pad1)*%
X36068000Y-50266500D03*
%TO.P,D1,2,A*%
%TO.N,+3V3*%
X36068000Y-51841500D03*
%TD*%
D23*
%TO.P,J3,1,Pin_1*%
%TO.N,/VBUS*%
X55880000Y-73660000D03*
D24*
%TO.P,J3,2,Pin_2*%
%TO.N,PIXEL*%
X58420000Y-73660000D03*
%TO.P,J3,3,Pin_3*%
%TO.N,GND*%
X60960000Y-73660000D03*
%TD*%
D25*
%TO.P,H3,1,1*%
%TO.N,GND*%
X30480000Y-48260000D03*
D26*
X30480000Y-45860000D03*
X28080000Y-48260000D03*
X28782944Y-49957056D03*
X32177056Y-49957056D03*
X30480000Y-50660000D03*
X28782944Y-46562944D03*
X32177056Y-46562944D03*
X32880000Y-48260000D03*
%TD*%
D27*
%TO.P,L1,1*%
%TO.N,+3V3*%
X51562000Y-71653500D03*
%TO.P,L1,2*%
%TO.N,+3.3VA*%
X51562000Y-70078500D03*
%TD*%
D25*
%TO.P,H1,1,1*%
%TO.N,GND*%
X68580000Y-48260000D03*
D26*
X68580000Y-50660000D03*
X70980000Y-48260000D03*
X70277056Y-46562944D03*
X70277056Y-49957056D03*
X66180000Y-48260000D03*
X68580000Y-45860000D03*
X66882944Y-49957056D03*
X66882944Y-46562944D03*
%TD*%
D28*
%TO.P,U1,1,VDD*%
%TO.N,+3V3*%
X43323000Y-60700000D03*
%TO.P,U1,2,PF0-OSC_IN*%
%TO.N,/OSC_IN*%
X43323000Y-61500000D03*
%TO.P,U1,3,PF1-OSC_OUT*%
%TO.N,/OSC_OUT*%
X43323000Y-62300000D03*
%TO.P,U1,4,PG10/NRST*%
%TO.N,NRST*%
X43323000Y-63100000D03*
%TO.P,U1,5,PA0*%
%TO.N,PA0*%
X43323000Y-63900000D03*
%TO.P,U1,6,PA1*%
%TO.N,PA1*%
X43323000Y-64700000D03*
%TO.P,U1,7,PA2*%
%TO.N,PA2*%
X43323000Y-65500000D03*
%TO.P,U1,8,PA3*%
%TO.N,PA3*%
X43323000Y-66300000D03*
D29*
%TO.P,U1,9,PA4*%
%TO.N,PA4*%
X44698000Y-67675000D03*
%TO.P,U1,10,PA5*%
%TO.N,PA5*%
X45498000Y-67675000D03*
%TO.P,U1,11,PA6*%
%TO.N,PA6*%
X46298000Y-67675000D03*
%TO.P,U1,12,PA7*%
%TO.N,PA7*%
X47098000Y-67675000D03*
%TO.P,U1,13,PB0*%
%TO.N,unconnected-(U1-Pad13)*%
X47898000Y-67675000D03*
%TO.P,U1,14,VSSA*%
%TO.N,GND*%
X48698000Y-67675000D03*
%TO.P,U1,15,VDDA*%
%TO.N,+3.3VA*%
X49498000Y-67675000D03*
%TO.P,U1,16,VSS*%
%TO.N,GND*%
X50298000Y-67675000D03*
D28*
%TO.P,U1,17,VDD*%
%TO.N,+3V3*%
X51673000Y-66300000D03*
%TO.P,U1,18,PA8*%
%TO.N,PIXEL*%
X51673000Y-65500000D03*
%TO.P,U1,19,PA9*%
%TO.N,unconnected-(U1-Pad19)*%
X51673000Y-64700000D03*
%TO.P,U1,20,PA10*%
%TO.N,unconnected-(U1-Pad20)*%
X51673000Y-63900000D03*
%TO.P,U1,21,PA11*%
%TO.N,/STM_D-*%
X51673000Y-63100000D03*
%TO.P,U1,22,PA12*%
%TO.N,/STM_D+*%
X51673000Y-62300000D03*
%TO.P,U1,23,PA13*%
%TO.N,SWDIO*%
X51673000Y-61500000D03*
%TO.P,U1,24,PA14*%
%TO.N,SWCLK*%
X51673000Y-60700000D03*
D29*
%TO.P,U1,25,PA15*%
%TO.N,unconnected-(U1-Pad25)*%
X50298000Y-59325000D03*
%TO.P,U1,26,PB3*%
%TO.N,SWO*%
X49498000Y-59325000D03*
%TO.P,U1,27,PB4*%
%TO.N,unconnected-(U1-Pad27)*%
X48698000Y-59325000D03*
%TO.P,U1,28,PB5*%
%TO.N,unconnected-(U1-Pad28)*%
X47898000Y-59325000D03*
%TO.P,U1,29,PB6*%
%TO.N,unconnected-(U1-Pad29)*%
X47098000Y-59325000D03*
%TO.P,U1,30,PB7*%
%TO.N,STATUS_LED*%
X46298000Y-59325000D03*
%TO.P,U1,31,PB8-BOOT*%
%TO.N,/BOOT0*%
X45498000Y-59325000D03*
%TO.P,U1,32,VSS*%
%TO.N,GND*%
X44698000Y-59325000D03*
%TD*%
D26*
%TO.P,H2,1,1*%
%TO.N,GND*%
X28080000Y-73660000D03*
X32177056Y-71962944D03*
X28782944Y-71962944D03*
X32177056Y-75357056D03*
X30480000Y-76060000D03*
X28782944Y-75357056D03*
X32880000Y-73660000D03*
D25*
X30480000Y-73660000D03*
D26*
X30480000Y-71260000D03*
%TD*%
D30*
%TO.P,C1,1*%
%TO.N,GND*%
X36589000Y-58166000D03*
%TO.P,C1,2*%
%TO.N,/OSC_IN*%
X35039000Y-58166000D03*
%TD*%
D31*
%TO.P,F1,1*%
%TO.N,Net-(F1-Pad1)*%
X66802000Y-53464000D03*
%TO.P,F1,2*%
%TO.N,+5V*%
X66802000Y-56264000D03*
%TD*%
D10*
%TO.P,C2,1*%
%TO.N,GND*%
X35039000Y-64770000D03*
%TO.P,C2,2*%
%TO.N,Net-(C2-Pad2)*%
X36589000Y-64770000D03*
%TD*%
D32*
%TO.P,R5,1*%
%TO.N,/CC1*%
X60602500Y-66548000D03*
%TO.P,R5,2*%
%TO.N,GND*%
X58777500Y-66548000D03*
%TD*%
D33*
%TO.P,Y1,1,1*%
%TO.N,Net-(C2-Pad2)*%
X36714000Y-62568000D03*
%TO.P,Y1,2,2*%
%TO.N,GND*%
X36714000Y-60368000D03*
%TO.P,Y1,3,3*%
%TO.N,/OSC_IN*%
X34914000Y-60368000D03*
%TO.P,Y1,4,4*%
%TO.N,GND*%
X34914000Y-62568000D03*
%TD*%
D30*
%TO.P,C4,1*%
%TO.N,+3V3*%
X40653000Y-60198000D03*
%TO.P,C4,2*%
%TO.N,GND*%
X39103000Y-60198000D03*
%TD*%
D34*
%TO.P,R1,1*%
%TO.N,Net-(C2-Pad2)*%
X39053000Y-62484000D03*
%TO.P,R1,2*%
%TO.N,/OSC_OUT*%
X40703000Y-62484000D03*
%TD*%
D30*
%TO.P,C5,1*%
%TO.N,+3V3*%
X40653000Y-58166000D03*
%TO.P,C5,2*%
%TO.N,GND*%
X39103000Y-58166000D03*
%TD*%
D35*
%TO.P,R3,1*%
%TO.N,Net-(D2-Pad1)*%
X38354000Y-48069000D03*
%TO.P,R3,2*%
%TO.N,GND*%
X38354000Y-46419000D03*
%TD*%
D36*
%TO.P,U3,1,VIN*%
%TO.N,+5V*%
X61026000Y-52191500D03*
%TO.P,U3,2,GND*%
%TO.N,GND*%
X61976000Y-52191500D03*
%TO.P,U3,3,~{SHDN}*%
%TO.N,+5V*%
X62926000Y-52191500D03*
%TO.P,U3,4,NC*%
%TO.N,unconnected-(U3-Pad4)*%
X62926000Y-49916500D03*
%TO.P,U3,5,VOUT*%
%TO.N,+3V3*%
X61026000Y-49916500D03*
%TD*%
D22*
%TO.P,D2,1,K*%
%TO.N,Net-(D2-Pad1)*%
X38354000Y-50266500D03*
%TO.P,D2,2,A*%
%TO.N,STATUS_LED*%
X38354000Y-51841500D03*
%TD*%
D26*
%TO.P,H4,1,1*%
%TO.N,GND*%
X66882944Y-75357056D03*
X70277056Y-75357056D03*
X68580000Y-71260000D03*
X66882944Y-71962944D03*
X70277056Y-71962944D03*
D25*
X68580000Y-73660000D03*
D26*
X66180000Y-73660000D03*
X68580000Y-76060000D03*
X70980000Y-73660000D03*
%TD*%
D35*
%TO.P,R2,1*%
%TO.N,Net-(D1-Pad1)*%
X36068000Y-48069000D03*
%TO.P,R2,2*%
%TO.N,GND*%
X36068000Y-46419000D03*
%TD*%
D32*
%TO.P,R6,1*%
%TO.N,/CC2*%
X60602500Y-60452000D03*
%TO.P,R6,2*%
%TO.N,GND*%
X58777500Y-60452000D03*
%TD*%
D37*
%TO.N,GND*%
X47752000Y-61468000D03*
X50927000Y-67691000D03*
X48641000Y-66548000D03*
X63500000Y-66802000D03*
X56769000Y-68326000D03*
X57912000Y-66548000D03*
X63500000Y-47879000D03*
X37338000Y-58166000D03*
X47498000Y-72390000D03*
X53213000Y-73914000D03*
X35052000Y-65659000D03*
X38354000Y-60198000D03*
X33020000Y-54229000D03*
X51943000Y-54229000D03*
X37846000Y-66802000D03*
X34036000Y-62611000D03*
X57023000Y-46482000D03*
X31623000Y-65913000D03*
X31877000Y-62992000D03*
X49530000Y-72390000D03*
X63500000Y-54229000D03*
X57785000Y-53721000D03*
X34290000Y-56134000D03*
X36068000Y-45720000D03*
X47879000Y-48641000D03*
X70104000Y-61595000D03*
X48133000Y-53975000D03*
X61976000Y-51181000D03*
X63500000Y-60198000D03*
X59690000Y-61468000D03*
X38227000Y-71628000D03*
X38354000Y-58166000D03*
X46482000Y-65278000D03*
X38354000Y-45720000D03*
X56007000Y-58674000D03*
X57912000Y-60452000D03*
X37592000Y-60325000D03*
X44704000Y-58166000D03*
%TO.N,/VBUS*%
X59690000Y-69723000D03*
X61722000Y-63500000D03*
%TO.N,NRST*%
X44450000Y-63119000D03*
X50419000Y-48641000D03*
%TO.N,+3V3*%
X41402000Y-60198000D03*
X36068000Y-52578000D03*
X53594000Y-68326000D03*
X44704000Y-60706000D03*
X41402000Y-58166000D03*
X50292000Y-66294000D03*
X61087000Y-48768000D03*
X52959000Y-48641000D03*
X61214000Y-47117000D03*
X51562000Y-72390000D03*
%TO.N,PIXEL*%
X54102000Y-65532000D03*
%TD*%
D38*
%TO.N,GND*%
X34871000Y-62611000D02*
X34914000Y-62568000D01*
X63500000Y-54229000D02*
X62751000Y-54229000D01*
X63500000Y-66802000D02*
X64483000Y-66802000D01*
X59690000Y-63119000D02*
X59690000Y-61468000D01*
X64483000Y-66802000D02*
X64535000Y-66750000D01*
X38354000Y-45720000D02*
X38354000Y-46419000D01*
X57912000Y-66548000D02*
X58777500Y-66548000D01*
X63552000Y-60250000D02*
X63500000Y-60198000D01*
X59309000Y-63500000D02*
X59690000Y-63119000D01*
D39*
X34914000Y-64645000D02*
X35039000Y-64770000D01*
D38*
X47498000Y-72390000D02*
X47498000Y-71641000D01*
D39*
X48698000Y-67675000D02*
X48698000Y-66605000D01*
D38*
X34036000Y-62611000D02*
X34871000Y-62611000D01*
X56769000Y-68326000D02*
X55893000Y-68326000D01*
X38354000Y-58166000D02*
X39103000Y-58166000D01*
X37338000Y-58166000D02*
X36589000Y-58166000D01*
X47879000Y-48641000D02*
X46990000Y-49530000D01*
X35052000Y-64783000D02*
X35039000Y-64770000D01*
X64535000Y-60250000D02*
X63552000Y-60250000D01*
D39*
X44704000Y-58166000D02*
X44704000Y-59319000D01*
D38*
X49530000Y-72390000D02*
X49530000Y-71641000D01*
X36757000Y-60325000D02*
X36714000Y-60368000D01*
D39*
X44704000Y-59319000D02*
X44698000Y-59325000D01*
X34914000Y-62568000D02*
X34914000Y-64645000D01*
D38*
X34290000Y-56134000D02*
X34989000Y-56134000D01*
D39*
X50911000Y-67675000D02*
X50927000Y-67691000D01*
D38*
X37846000Y-66802000D02*
X38722000Y-66802000D01*
X38354000Y-60198000D02*
X39103000Y-60198000D01*
X61976000Y-51181000D02*
X61976000Y-52191500D01*
D39*
X48698000Y-66605000D02*
X48641000Y-66548000D01*
X36714000Y-58291000D02*
X36589000Y-58166000D01*
D38*
X57912000Y-60452000D02*
X58777500Y-60452000D01*
X35052000Y-65659000D02*
X35052000Y-64783000D01*
X63500000Y-47879000D02*
X62751000Y-47879000D01*
D39*
X50298000Y-67675000D02*
X50911000Y-67675000D01*
D38*
X38722000Y-66802000D02*
X38735000Y-66815000D01*
X58552500Y-63500000D02*
X59309000Y-63500000D01*
D39*
X36714000Y-60368000D02*
X36714000Y-58291000D01*
D38*
X36068000Y-45720000D02*
X36068000Y-46419000D01*
X37592000Y-60325000D02*
X36757000Y-60325000D01*
D40*
%TO.N,/VBUS*%
X61468000Y-69723000D02*
X66548000Y-69723000D01*
D38*
X63246000Y-57785000D02*
X67564000Y-57785000D01*
X69850000Y-57785000D02*
X70358000Y-57277000D01*
X64535000Y-61050000D02*
X63209000Y-61050000D01*
X70358000Y-57277000D02*
X70358000Y-55926500D01*
X62611000Y-58420000D02*
X63246000Y-57785000D01*
X62611000Y-66421000D02*
X63082000Y-65950000D01*
D40*
X55880000Y-71755000D02*
X57912000Y-69723000D01*
D38*
X63082000Y-65950000D02*
X64535000Y-65950000D01*
X63209000Y-61050000D02*
X62611000Y-60452000D01*
X61722000Y-63500000D02*
X60827500Y-63500000D01*
D40*
X62611000Y-68580000D02*
X62611000Y-67691000D01*
X61468000Y-69723000D02*
X62611000Y-68580000D01*
X55880000Y-73660000D02*
X55880000Y-71755000D01*
X57912000Y-69723000D02*
X61468000Y-69723000D01*
D38*
X67564000Y-57785000D02*
X69850000Y-57785000D01*
X62611000Y-60452000D02*
X62611000Y-58420000D01*
D40*
X66548000Y-69723000D02*
X67691000Y-68580000D01*
D38*
X62611000Y-66421000D02*
X62611000Y-67691000D01*
D39*
%TO.N,/CC1*%
X61468000Y-66548000D02*
X60602500Y-66548000D01*
X63266000Y-64750000D02*
X61468000Y-66548000D01*
X64535000Y-64750000D02*
X63266000Y-64750000D01*
D41*
%TO.N,/D+*%
X63159680Y-62750000D02*
X62641837Y-63267843D01*
X64535000Y-63750000D02*
X65790000Y-63750000D01*
X62380893Y-63267843D02*
X61982974Y-62869924D01*
X64535000Y-62750000D02*
X63159680Y-62750000D01*
X65790000Y-63750000D02*
X66040000Y-63500000D01*
X66040000Y-62992000D02*
X65798000Y-62750000D01*
X65798000Y-62750000D02*
X64535000Y-62750000D01*
X62641837Y-63267843D02*
X62380893Y-63267843D01*
X61982974Y-62869924D02*
X61147424Y-62869924D01*
X61147424Y-62869924D02*
X60827500Y-62550000D01*
X66040000Y-63500000D02*
X66040000Y-62992000D01*
%TO.N,/D-*%
X62834163Y-63732157D02*
X62380893Y-63732157D01*
X63352006Y-64250000D02*
X62834163Y-63732157D01*
X61982974Y-64130076D02*
X61147424Y-64130076D01*
X62380893Y-63732157D02*
X61982974Y-64130076D01*
X63311112Y-63250000D02*
X62834163Y-63726949D01*
X64535000Y-64250000D02*
X63352006Y-64250000D01*
X64535000Y-63250000D02*
X63311112Y-63250000D01*
X62834163Y-63726949D02*
X62834163Y-63732157D01*
X61147424Y-64130076D02*
X60827500Y-64450000D01*
D39*
%TO.N,/CC2*%
X61341000Y-60452000D02*
X60602500Y-60452000D01*
X64535000Y-61750000D02*
X62639000Y-61750000D01*
X62639000Y-61750000D02*
X61341000Y-60452000D01*
%TO.N,/OSC_IN*%
X43323000Y-61500000D02*
X43291000Y-61468000D01*
X35306000Y-61468000D02*
X34914000Y-61076000D01*
X34914000Y-58291000D02*
X35039000Y-58166000D01*
X34914000Y-60368000D02*
X34914000Y-58291000D01*
X43291000Y-61468000D02*
X35306000Y-61468000D01*
X34914000Y-61076000D02*
X34914000Y-60368000D01*
%TO.N,Net-(C2-Pad2)*%
X36798000Y-62484000D02*
X36714000Y-62568000D01*
X39053000Y-62484000D02*
X36798000Y-62484000D01*
X36714000Y-62568000D02*
X36714000Y-64645000D01*
X36714000Y-64645000D02*
X36589000Y-64770000D01*
%TO.N,NRST*%
X39764000Y-65265000D02*
X38735000Y-65265000D01*
X41929000Y-63100000D02*
X39764000Y-65265000D01*
D38*
X50419000Y-48641000D02*
X49530000Y-49530000D01*
D39*
X44431000Y-63100000D02*
X44450000Y-63119000D01*
X43323000Y-63100000D02*
X41929000Y-63100000D01*
X43323000Y-63100000D02*
X44431000Y-63100000D01*
%TO.N,PA4*%
X41910000Y-70463000D02*
X44698000Y-67675000D01*
X41910000Y-74930000D02*
X41910000Y-70463000D01*
%TO.N,PA5*%
X45498000Y-68675000D02*
X45498000Y-67675000D01*
X44450000Y-69723000D02*
X45498000Y-68675000D01*
X44450000Y-74930000D02*
X44450000Y-69723000D01*
%TO.N,PA6*%
X45720000Y-69342000D02*
X46298000Y-68764000D01*
X46990000Y-74930000D02*
X45720000Y-73660000D01*
X46298000Y-68764000D02*
X46298000Y-67675000D01*
X45720000Y-73660000D02*
X45720000Y-69342000D01*
%TO.N,PA7*%
X47752000Y-73152000D02*
X47117000Y-73152000D01*
X47098000Y-68853000D02*
X47098000Y-67675000D01*
X46482000Y-72517000D02*
X46482000Y-69469000D01*
X47117000Y-73152000D02*
X46482000Y-72517000D01*
X46482000Y-69469000D02*
X47098000Y-68853000D01*
X49530000Y-74930000D02*
X47752000Y-73152000D01*
D38*
%TO.N,Net-(D1-Pad1)*%
X36068000Y-48069000D02*
X36068000Y-50266500D01*
D41*
%TO.N,/STM_D-*%
X51840843Y-62932157D02*
X53459837Y-62932157D01*
X53459837Y-62932157D02*
X54259836Y-63732156D01*
X54259836Y-63732156D02*
X57443228Y-63732157D01*
X51673000Y-63100000D02*
X51840843Y-62932157D01*
X57841147Y-64130076D02*
X58232576Y-64130076D01*
X58232576Y-64130076D02*
X58552500Y-64450000D01*
X57443228Y-63732157D02*
X57841147Y-64130076D01*
%TO.N,/STM_D+*%
X57841147Y-62869924D02*
X58232576Y-62869924D01*
X53652163Y-62467843D02*
X54452164Y-63267844D01*
X54452164Y-63267844D02*
X57443228Y-63267843D01*
X58232576Y-62869924D02*
X58552500Y-62550000D01*
X51673000Y-62300000D02*
X51840843Y-62467843D01*
X51840843Y-62467843D02*
X53652163Y-62467843D01*
X57443228Y-63267843D02*
X57841147Y-62869924D01*
D39*
%TO.N,STATUS_LED*%
X46298000Y-59325000D02*
X46298000Y-56458000D01*
X38354000Y-53594000D02*
X38354000Y-51841500D01*
X40005000Y-55245000D02*
X38354000Y-53594000D01*
X45085000Y-55245000D02*
X40005000Y-55245000D01*
X46298000Y-56458000D02*
X45085000Y-55245000D01*
D42*
%TO.N,Net-(F1-Pad1)*%
X68450000Y-53464000D02*
X66802000Y-53464000D01*
X68787500Y-53801500D02*
X68450000Y-53464000D01*
X70358000Y-53801500D02*
X68787500Y-53801500D01*
D39*
%TO.N,SWDIO*%
X53340000Y-60960000D02*
X53340000Y-53340000D01*
X52800000Y-61500000D02*
X53340000Y-60960000D01*
X51673000Y-61500000D02*
X52800000Y-61500000D01*
X53340000Y-53340000D02*
X52070000Y-52070000D01*
%TO.N,SWCLK*%
X51673000Y-57769000D02*
X49530000Y-55626000D01*
X49530000Y-55626000D02*
X49530000Y-52070000D01*
X51673000Y-60700000D02*
X51673000Y-57769000D01*
%TO.N,SWO*%
X49498000Y-58388000D02*
X46990000Y-55880000D01*
X46990000Y-55880000D02*
X46990000Y-52070000D01*
X49498000Y-59325000D02*
X49498000Y-58388000D01*
%TO.N,/OSC_OUT*%
X40887000Y-62300000D02*
X40703000Y-62484000D01*
X43323000Y-62300000D02*
X40887000Y-62300000D01*
%TO.N,+3V3*%
X43329000Y-60706000D02*
X43323000Y-60700000D01*
D38*
X52959000Y-48641000D02*
X52070000Y-49530000D01*
D39*
X44704000Y-60706000D02*
X43329000Y-60706000D01*
D38*
X61201000Y-48654000D02*
X61087000Y-48768000D01*
D39*
X50298000Y-66300000D02*
X50292000Y-66294000D01*
X54356000Y-67056000D02*
X54356000Y-68313000D01*
D38*
X40653000Y-60198000D02*
X40653000Y-58166000D01*
X36068000Y-51841500D02*
X36068000Y-52578000D01*
D39*
X51673000Y-66300000D02*
X50298000Y-66300000D01*
X54356000Y-68313000D02*
X54343000Y-68326000D01*
D38*
X61214000Y-47117000D02*
X61214000Y-47866000D01*
X41402000Y-60198000D02*
X40653000Y-60198000D01*
D39*
X41155000Y-60700000D02*
X40653000Y-60198000D01*
X53600000Y-66300000D02*
X54356000Y-67056000D01*
X51673000Y-66300000D02*
X53600000Y-66300000D01*
D38*
X61201000Y-47879000D02*
X61201000Y-48654000D01*
D39*
X43323000Y-60700000D02*
X41155000Y-60700000D01*
D38*
X61026000Y-49916500D02*
X61026000Y-48829000D01*
X40653000Y-58166000D02*
X41402000Y-58166000D01*
X61026000Y-48829000D02*
X61087000Y-48768000D01*
X61214000Y-47866000D02*
X61201000Y-47879000D01*
D39*
%TO.N,+3.3VA*%
X49498000Y-67675000D02*
X49498000Y-69805000D01*
D38*
X51549500Y-70091000D02*
X51562000Y-70078500D01*
X47498000Y-70091000D02*
X51549500Y-70091000D01*
%TO.N,+5V*%
X62106000Y-56264000D02*
X61201000Y-55359000D01*
X61026000Y-52191500D02*
X61026000Y-54054000D01*
X65024000Y-55632000D02*
X65656000Y-56264000D01*
X65024000Y-52959000D02*
X65024000Y-55632000D01*
X64256500Y-52191500D02*
X65024000Y-52959000D01*
X62926000Y-52191500D02*
X64256500Y-52191500D01*
X65656000Y-56264000D02*
X62106000Y-56264000D01*
X66802000Y-56264000D02*
X65656000Y-56264000D01*
X61026000Y-54054000D02*
X61201000Y-54229000D01*
X61201000Y-55359000D02*
X61201000Y-54229000D01*
%TO.N,Net-(D2-Pad1)*%
X38354000Y-50266500D02*
X38354000Y-48069000D01*
D39*
%TO.N,PIXEL*%
X54070000Y-65500000D02*
X54102000Y-65532000D01*
X51673000Y-65500000D02*
X54070000Y-65500000D01*
%TO.N,PA0*%
X36195000Y-68072000D02*
X39624000Y-68072000D01*
X32893000Y-64770000D02*
X36195000Y-68072000D01*
X39624000Y-68072000D02*
X40386000Y-67310000D01*
X40386000Y-67310000D02*
X40386000Y-65659000D01*
X31496000Y-59690000D02*
X32893000Y-61087000D01*
X42145000Y-63900000D02*
X40386000Y-65659000D01*
X29210000Y-59690000D02*
X31496000Y-59690000D01*
X32893000Y-61087000D02*
X32893000Y-64770000D01*
X43323000Y-63900000D02*
X42145000Y-63900000D01*
%TO.N,PA1*%
X35814000Y-68834000D02*
X40132000Y-68834000D01*
X42361000Y-64700000D02*
X43323000Y-64700000D01*
X29210000Y-62230000D02*
X35814000Y-68834000D01*
X41148000Y-67818000D02*
X41148000Y-65913000D01*
X41148000Y-65913000D02*
X42361000Y-64700000D01*
X40132000Y-68834000D02*
X41148000Y-67818000D01*
%TO.N,PA2*%
X41910000Y-66167000D02*
X41910000Y-68381572D01*
X34036000Y-69596000D02*
X29210000Y-64770000D01*
X40695572Y-69596000D02*
X34036000Y-69596000D01*
X42577000Y-65500000D02*
X43323000Y-65500000D01*
X41910000Y-68381572D02*
X40695572Y-69596000D01*
X41910000Y-66167000D02*
X42577000Y-65500000D01*
%TO.N,PA3*%
X33782000Y-70358000D02*
X41021000Y-70358000D01*
X43323000Y-68056000D02*
X43323000Y-66300000D01*
X41021000Y-70358000D02*
X43323000Y-68056000D01*
X30734000Y-67310000D02*
X33782000Y-70358000D01*
X29210000Y-67310000D02*
X30734000Y-67310000D01*
%TO.N,/BOOT0*%
X36639000Y-56134000D02*
X44450000Y-56134000D01*
X44450000Y-56134000D02*
X45498000Y-57182000D01*
X45498000Y-57182000D02*
X45498000Y-59325000D01*
%TD*%
%TA.AperFunction,Conductor*%
%TO.N,GND*%
G36*
X66498437Y-44978502D02*
G01*
X66544930Y-45032158D01*
X66555034Y-45102432D01*
X66525540Y-45167012D01*
X66498940Y-45190173D01*
X66400265Y-45254253D01*
X66394939Y-45258123D01*
X66156165Y-45451478D01*
X66147700Y-45463733D01*
X66154034Y-45474824D01*
X71364310Y-50685100D01*
X71377386Y-50692241D01*
X71387753Y-50684784D01*
X71581877Y-50445061D01*
X71585747Y-50439735D01*
X71649827Y-50341060D01*
X71703704Y-50294823D01*
X71774025Y-50285053D01*
X71838465Y-50314853D01*
X71876564Y-50374761D01*
X71881500Y-50409684D01*
X71881500Y-71510316D01*
X71861498Y-71578437D01*
X71807842Y-71624930D01*
X71737568Y-71635034D01*
X71672988Y-71605540D01*
X71649827Y-71578940D01*
X71585747Y-71480265D01*
X71581877Y-71474939D01*
X71388522Y-71236165D01*
X71376267Y-71227700D01*
X71365176Y-71234034D01*
X66154900Y-76444310D01*
X66147759Y-76457386D01*
X66155216Y-76467753D01*
X66394935Y-76661874D01*
X66400272Y-76665751D01*
X66498941Y-76729828D01*
X66545178Y-76783704D01*
X66554947Y-76854025D01*
X66525147Y-76918465D01*
X66465238Y-76956564D01*
X66430316Y-76961500D01*
X61962999Y-76961500D01*
X61894878Y-76941498D01*
X61848385Y-76887842D01*
X61838281Y-76817568D01*
X61852162Y-76775575D01*
X61940514Y-76612170D01*
X62001898Y-76413871D01*
X62003429Y-76399303D01*
X62022952Y-76213554D01*
X62022952Y-76213552D01*
X62023596Y-76207425D01*
X62009200Y-76049242D01*
X62005341Y-76006836D01*
X62005340Y-76006833D01*
X62004782Y-76000697D01*
X62002298Y-75992255D01*
X61952974Y-75824669D01*
X61946173Y-75801560D01*
X61850001Y-75617600D01*
X61825380Y-75586977D01*
X61766385Y-75513603D01*
X61719929Y-75455823D01*
X61715209Y-75451862D01*
X61583688Y-75341503D01*
X61544361Y-75282393D01*
X61543235Y-75211405D01*
X61580666Y-75151078D01*
X61616461Y-75128572D01*
X61687700Y-75099064D01*
X61696494Y-75094583D01*
X61891167Y-74975287D01*
X61900627Y-74964830D01*
X61896844Y-74956054D01*
X60972812Y-74032022D01*
X60958868Y-74024408D01*
X60957035Y-74024539D01*
X60950420Y-74028790D01*
X60026200Y-74953010D01*
X60019440Y-74965390D01*
X60025167Y-74973040D01*
X60223506Y-75094583D01*
X60232300Y-75099064D01*
X60304503Y-75128971D01*
X60359784Y-75173519D01*
X60382205Y-75240883D01*
X60364647Y-75309674D01*
X60335921Y-75343023D01*
X60215311Y-75441390D01*
X60215308Y-75441393D01*
X60210536Y-75445285D01*
X60206608Y-75450033D01*
X60206607Y-75450034D01*
X60154018Y-75513603D01*
X60078217Y-75605230D01*
X60075288Y-75610647D01*
X60075286Y-75610650D01*
X59982416Y-75782410D01*
X59982414Y-75782415D01*
X59979486Y-75787830D01*
X59918102Y-75986129D01*
X59917458Y-75992254D01*
X59917458Y-75992255D01*
X59899704Y-76161181D01*
X59896404Y-76192575D01*
X59915218Y-76399303D01*
X59916956Y-76405209D01*
X59916957Y-76405213D01*
X59935364Y-76467753D01*
X59973827Y-76598440D01*
X59976681Y-76603899D01*
X60067241Y-76777125D01*
X60081075Y-76846761D01*
X60055065Y-76912821D01*
X59997469Y-76954333D01*
X59955579Y-76961500D01*
X59422999Y-76961500D01*
X59354878Y-76941498D01*
X59308385Y-76887842D01*
X59298281Y-76817568D01*
X59312162Y-76775575D01*
X59400514Y-76612170D01*
X59461898Y-76413871D01*
X59463429Y-76399303D01*
X59482952Y-76213554D01*
X59482952Y-76213552D01*
X59483596Y-76207425D01*
X59469200Y-76049242D01*
X59465341Y-76006836D01*
X59465340Y-76006833D01*
X59464782Y-76000697D01*
X59462298Y-75992255D01*
X59412974Y-75824669D01*
X59406173Y-75801560D01*
X59310001Y-75617600D01*
X59285380Y-75586977D01*
X59226385Y-75513603D01*
X59179929Y-75455823D01*
X59175210Y-75451863D01*
X59175209Y-75451862D01*
X59044119Y-75341864D01*
X59004793Y-75282755D01*
X59003667Y-75211767D01*
X59041098Y-75151439D01*
X59076892Y-75128935D01*
X59107919Y-75116083D01*
X59147928Y-75099511D01*
X59147932Y-75099509D01*
X59152502Y-75097616D01*
X59368376Y-74965328D01*
X59560898Y-74800898D01*
X59725328Y-74608376D01*
X59832936Y-74432776D01*
X59851274Y-74409516D01*
X60587978Y-73672812D01*
X60594356Y-73661132D01*
X61324408Y-73661132D01*
X61324539Y-73662965D01*
X61328790Y-73669580D01*
X62253010Y-74593800D01*
X62265390Y-74600560D01*
X62273040Y-74594833D01*
X62394583Y-74396494D01*
X62399064Y-74387700D01*
X62492134Y-74163009D01*
X62495183Y-74153624D01*
X62551959Y-73917137D01*
X62553502Y-73907390D01*
X62572584Y-73664930D01*
X62572584Y-73663301D01*
X64867084Y-73663301D01*
X64887080Y-74044833D01*
X64887766Y-74051371D01*
X64947535Y-74428734D01*
X64948906Y-74435184D01*
X65047788Y-74804216D01*
X65049829Y-74810498D01*
X65186740Y-75167164D01*
X65189422Y-75173189D01*
X65362872Y-75513603D01*
X65366169Y-75519313D01*
X65574253Y-75839735D01*
X65578123Y-75845061D01*
X65771478Y-76083835D01*
X65783733Y-76092300D01*
X65794824Y-76085966D01*
X68207978Y-73672812D01*
X68215592Y-73658868D01*
X68215461Y-73657035D01*
X68211210Y-73650420D01*
X65795690Y-71234900D01*
X65782614Y-71227759D01*
X65772247Y-71235216D01*
X65578123Y-71474939D01*
X65574253Y-71480265D01*
X65366169Y-71800687D01*
X65362872Y-71806397D01*
X65189422Y-72146811D01*
X65186740Y-72152836D01*
X65049829Y-72509502D01*
X65047788Y-72515784D01*
X64948906Y-72884816D01*
X64947535Y-72891266D01*
X64887766Y-73268629D01*
X64887080Y-73275167D01*
X64867084Y-73656699D01*
X64867084Y-73663301D01*
X62572584Y-73663301D01*
X62572584Y-73655070D01*
X62553502Y-73412610D01*
X62551959Y-73402863D01*
X62495183Y-73166376D01*
X62492134Y-73156991D01*
X62399064Y-72932300D01*
X62394583Y-72923506D01*
X62275287Y-72728833D01*
X62264830Y-72719373D01*
X62256054Y-72723156D01*
X61332022Y-73647188D01*
X61324408Y-73661132D01*
X60594356Y-73661132D01*
X60595592Y-73658868D01*
X60595461Y-73657035D01*
X60591210Y-73650420D01*
X59851274Y-72910484D01*
X59832936Y-72887224D01*
X59741060Y-72737297D01*
X59725328Y-72711624D01*
X59560898Y-72519102D01*
X59368959Y-72355170D01*
X60019373Y-72355170D01*
X60023156Y-72363946D01*
X60947188Y-73287978D01*
X60961132Y-73295592D01*
X60962965Y-73295461D01*
X60969580Y-73291210D01*
X61893800Y-72366990D01*
X61900560Y-72354610D01*
X61894833Y-72346960D01*
X61696494Y-72225417D01*
X61687700Y-72220936D01*
X61463009Y-72127866D01*
X61453624Y-72124817D01*
X61217137Y-72068041D01*
X61207390Y-72066498D01*
X60964930Y-72047416D01*
X60955070Y-72047416D01*
X60712610Y-72066498D01*
X60702863Y-72068041D01*
X60466376Y-72124817D01*
X60456991Y-72127866D01*
X60232300Y-72220936D01*
X60223506Y-72225417D01*
X60028833Y-72344713D01*
X60019373Y-72355170D01*
X59368959Y-72355170D01*
X59368376Y-72354672D01*
X59152502Y-72222384D01*
X59147932Y-72220491D01*
X59147928Y-72220489D01*
X58923164Y-72127389D01*
X58923162Y-72127388D01*
X58918591Y-72125495D01*
X58825458Y-72103136D01*
X58677216Y-72067546D01*
X58677210Y-72067545D01*
X58672403Y-72066391D01*
X58420000Y-72046526D01*
X58167597Y-72066391D01*
X58162790Y-72067545D01*
X58162784Y-72067546D01*
X58014542Y-72103136D01*
X57921409Y-72125495D01*
X57916838Y-72127388D01*
X57916836Y-72127389D01*
X57692072Y-72220489D01*
X57692068Y-72220491D01*
X57687498Y-72222384D01*
X57683278Y-72224970D01*
X57562614Y-72298913D01*
X57494080Y-72317451D01*
X57426404Y-72295995D01*
X57395953Y-72267046D01*
X57364754Y-72225417D01*
X57343261Y-72196739D01*
X57226705Y-72109385D01*
X57214383Y-72104766D01*
X57210037Y-72103136D01*
X57153274Y-72060492D01*
X57128576Y-71993930D01*
X57143785Y-71924582D01*
X57165175Y-71896060D01*
X58292829Y-70768405D01*
X58355141Y-70734380D01*
X58381924Y-70731500D01*
X61406157Y-70731500D01*
X61419764Y-70732237D01*
X61451262Y-70735659D01*
X61451267Y-70735659D01*
X61457388Y-70736324D01*
X61507053Y-70731979D01*
X61518034Y-70731500D01*
X66021304Y-70731500D01*
X66089425Y-70751502D01*
X66135918Y-70805158D01*
X66147234Y-70861699D01*
X66147196Y-70862849D01*
X66154034Y-70874824D01*
X68567188Y-73287978D01*
X68581132Y-73295592D01*
X68582965Y-73295461D01*
X68589580Y-73291210D01*
X71005100Y-70875690D01*
X71012241Y-70862614D01*
X71004784Y-70852247D01*
X70765065Y-70658126D01*
X70759728Y-70654249D01*
X70439315Y-70446170D01*
X70433606Y-70442873D01*
X70093189Y-70269422D01*
X70087164Y-70266740D01*
X69730498Y-70129829D01*
X69724216Y-70127788D01*
X69355184Y-70028906D01*
X69348734Y-70027535D01*
X68971371Y-69967766D01*
X68964833Y-69967080D01*
X68583301Y-69947084D01*
X68576699Y-69947084D01*
X68195167Y-69967080D01*
X68188629Y-69967766D01*
X68026071Y-69993513D01*
X67955660Y-69984413D01*
X67901346Y-69938691D01*
X67880373Y-69870863D01*
X67899400Y-69802464D01*
X67917265Y-69779969D01*
X68439309Y-69257925D01*
X68453291Y-69240904D01*
X68489602Y-69196698D01*
X68533103Y-69143739D01*
X68610152Y-69000042D01*
X68623649Y-68974870D01*
X68623649Y-68974869D01*
X68626562Y-68969437D01*
X68669743Y-68828200D01*
X68682068Y-68787888D01*
X68721113Y-68728592D01*
X68786017Y-68699818D01*
X68856175Y-68710702D01*
X68863262Y-68714312D01*
X68925387Y-68748465D01*
X68925392Y-68748467D01*
X68930787Y-68751433D01*
X68936654Y-68753294D01*
X68936656Y-68753295D01*
X69113436Y-68809373D01*
X69119306Y-68811235D01*
X69273227Y-68828500D01*
X69979769Y-68828500D01*
X69982825Y-68828200D01*
X69982832Y-68828200D01*
X70041736Y-68822424D01*
X70126833Y-68814080D01*
X70132734Y-68812298D01*
X70132736Y-68812298D01*
X70232328Y-68782229D01*
X70316169Y-68756916D01*
X70490796Y-68664066D01*
X70591822Y-68581671D01*
X70639287Y-68542960D01*
X70639290Y-68542957D01*
X70644062Y-68539065D01*
X70674854Y-68501844D01*
X70766201Y-68391425D01*
X70766203Y-68391421D01*
X70770130Y-68386675D01*
X70864198Y-68212701D01*
X70922682Y-68023768D01*
X70932333Y-67931943D01*
X70942711Y-67833204D01*
X70942711Y-67833202D01*
X70943355Y-67827075D01*
X70930413Y-67684862D01*
X70925989Y-67636251D01*
X70925988Y-67636248D01*
X70925430Y-67630112D01*
X70923581Y-67623827D01*
X70888586Y-67504925D01*
X70869590Y-67440381D01*
X70859210Y-67420525D01*
X70798726Y-67304831D01*
X70777960Y-67265110D01*
X70654032Y-67110975D01*
X70646882Y-67104975D01*
X70591494Y-67058499D01*
X70502526Y-66983846D01*
X70497128Y-66980879D01*
X70497123Y-66980875D01*
X70334608Y-66891533D01*
X70334609Y-66891533D01*
X70329213Y-66888567D01*
X70323346Y-66886706D01*
X70323344Y-66886705D01*
X70146564Y-66830627D01*
X70146563Y-66830627D01*
X70140694Y-66828765D01*
X69986773Y-66811500D01*
X69280231Y-66811500D01*
X69277175Y-66811800D01*
X69277168Y-66811800D01*
X69218660Y-66817537D01*
X69133167Y-66825920D01*
X69127266Y-66827702D01*
X69127264Y-66827702D01*
X69060094Y-66847982D01*
X68943831Y-66883084D01*
X68938392Y-66885976D01*
X68897653Y-66907637D01*
X68828115Y-66921956D01*
X68761875Y-66896408D01*
X68719962Y-66839103D01*
X68712500Y-66796385D01*
X68712500Y-60204484D01*
X68732502Y-60136363D01*
X68786158Y-60089870D01*
X68856432Y-60079766D01*
X68899199Y-60094069D01*
X68925382Y-60108463D01*
X68925394Y-60108468D01*
X68930787Y-60111433D01*
X68936654Y-60113294D01*
X68936656Y-60113295D01*
X69099424Y-60164928D01*
X69119306Y-60171235D01*
X69273227Y-60188500D01*
X69979769Y-60188500D01*
X69982825Y-60188200D01*
X69982832Y-60188200D01*
X70041340Y-60182463D01*
X70126833Y-60174080D01*
X70132734Y-60172298D01*
X70132736Y-60172298D01*
X70246935Y-60137819D01*
X70316169Y-60116916D01*
X70490796Y-60024066D01*
X70588567Y-59944326D01*
X70639287Y-59902960D01*
X70639290Y-59902957D01*
X70644062Y-59899065D01*
X70647991Y-59894316D01*
X70766201Y-59751425D01*
X70766203Y-59751421D01*
X70770130Y-59746675D01*
X70864198Y-59572701D01*
X70922682Y-59383768D01*
X70923684Y-59374234D01*
X70942711Y-59193204D01*
X70942711Y-59193202D01*
X70943355Y-59187075D01*
X70933155Y-59075000D01*
X70925989Y-58996251D01*
X70925988Y-58996248D01*
X70925430Y-58990112D01*
X70920671Y-58973940D01*
X70878936Y-58832138D01*
X70869590Y-58800381D01*
X70834950Y-58734120D01*
X70800137Y-58667530D01*
X70777960Y-58625110D01*
X70654032Y-58470975D01*
X70532447Y-58368952D01*
X70493121Y-58309843D01*
X70491995Y-58238856D01*
X70524344Y-58183337D01*
X70846911Y-57860770D01*
X70861323Y-57848384D01*
X70872918Y-57839851D01*
X70872923Y-57839846D01*
X70878818Y-57835508D01*
X70883557Y-57829930D01*
X70883560Y-57829927D01*
X70913035Y-57795232D01*
X70919965Y-57787716D01*
X70925660Y-57782021D01*
X70938143Y-57766243D01*
X70943281Y-57759749D01*
X70946072Y-57756345D01*
X70988591Y-57706297D01*
X70988592Y-57706295D01*
X70993333Y-57700715D01*
X70996661Y-57694199D01*
X71000020Y-57689162D01*
X71003194Y-57684023D01*
X71007734Y-57678284D01*
X71010834Y-57671651D01*
X71038636Y-57612163D01*
X71040569Y-57608209D01*
X71046514Y-57596567D01*
X71073769Y-57543192D01*
X71075510Y-57536076D01*
X71077604Y-57530446D01*
X71079523Y-57524679D01*
X71082621Y-57518050D01*
X71086671Y-57498582D01*
X71097482Y-57446604D01*
X71098453Y-57442315D01*
X71100747Y-57432939D01*
X71115808Y-57371390D01*
X71116500Y-57360236D01*
X71116536Y-57360238D01*
X71116775Y-57356248D01*
X71117150Y-57352050D01*
X71118640Y-57344885D01*
X71116546Y-57267496D01*
X71116500Y-57264088D01*
X71116500Y-56837266D01*
X71136502Y-56769145D01*
X71176198Y-56730121D01*
X71187830Y-56722923D01*
X71187829Y-56722923D01*
X71194055Y-56719071D01*
X71210399Y-56702699D01*
X71308693Y-56604233D01*
X71313864Y-56599053D01*
X71402849Y-56454692D01*
X71446657Y-56322617D01*
X71454072Y-56300262D01*
X71454072Y-56300260D01*
X71456238Y-56293731D01*
X71466500Y-56193572D01*
X71466500Y-55659428D01*
X71455978Y-55558018D01*
X71402308Y-55397151D01*
X71313071Y-55252945D01*
X71193053Y-55133136D01*
X71048692Y-55044151D01*
X71021531Y-55035142D01*
X70894262Y-54992928D01*
X70894260Y-54992928D01*
X70887731Y-54990762D01*
X70873344Y-54989288D01*
X70807617Y-54962446D01*
X70766836Y-54904331D01*
X70763948Y-54833393D01*
X70799870Y-54772155D01*
X70863198Y-54740059D01*
X70873186Y-54738617D01*
X70882124Y-54737690D01*
X70882128Y-54737689D01*
X70888982Y-54736978D01*
X71049849Y-54683308D01*
X71194055Y-54594071D01*
X71313864Y-54474053D01*
X71402849Y-54329692D01*
X71419214Y-54280353D01*
X71454072Y-54175262D01*
X71454072Y-54175260D01*
X71456238Y-54168731D01*
X71466500Y-54068572D01*
X71466500Y-53534428D01*
X71465712Y-53526827D01*
X71459748Y-53469350D01*
X71455978Y-53433018D01*
X71402308Y-53272151D01*
X71313071Y-53127945D01*
X71193053Y-53008136D01*
X71048692Y-52919151D01*
X71041743Y-52916846D01*
X70894262Y-52867928D01*
X70894260Y-52867928D01*
X70887731Y-52865762D01*
X70787572Y-52855500D01*
X69928428Y-52855500D01*
X69925182Y-52855837D01*
X69925178Y-52855837D01*
X69833876Y-52865310D01*
X69833872Y-52865311D01*
X69827018Y-52866022D01*
X69820476Y-52868205D01*
X69820474Y-52868205D01*
X69690634Y-52911523D01*
X69650757Y-52918000D01*
X69208965Y-52918000D01*
X69140844Y-52897998D01*
X69115330Y-52876312D01*
X69114068Y-52874910D01*
X69110185Y-52869566D01*
X69060816Y-52825114D01*
X69056031Y-52820573D01*
X69041986Y-52806528D01*
X69039409Y-52804441D01*
X69026554Y-52794031D01*
X69021538Y-52789747D01*
X68977080Y-52749717D01*
X68977075Y-52749713D01*
X68972169Y-52745296D01*
X68960552Y-52738589D01*
X68944259Y-52727391D01*
X68938971Y-52723109D01*
X68933839Y-52718953D01*
X68874637Y-52688787D01*
X68868867Y-52685654D01*
X68817055Y-52655740D01*
X68817050Y-52655738D01*
X68811331Y-52652436D01*
X68805051Y-52650395D01*
X68805043Y-52650392D01*
X68798579Y-52648292D01*
X68780317Y-52640728D01*
X68774251Y-52637637D01*
X68774242Y-52637634D01*
X68768363Y-52634638D01*
X68746915Y-52628891D01*
X68704196Y-52617444D01*
X68697894Y-52615578D01*
X68634702Y-52595046D01*
X68621372Y-52593645D01*
X68601929Y-52590042D01*
X68588971Y-52586570D01*
X68582381Y-52586225D01*
X68582377Y-52586224D01*
X68538427Y-52583921D01*
X68522628Y-52583093D01*
X68516069Y-52582577D01*
X68496306Y-52580500D01*
X68476445Y-52580500D01*
X68469850Y-52580327D01*
X68410098Y-52577195D01*
X68410094Y-52577195D01*
X68403507Y-52576850D01*
X68390253Y-52578949D01*
X68370544Y-52580500D01*
X68043393Y-52580500D01*
X67975272Y-52560498D01*
X67954375Y-52543673D01*
X67905483Y-52494866D01*
X67900303Y-52489695D01*
X67892018Y-52484588D01*
X67755968Y-52400725D01*
X67755966Y-52400724D01*
X67749738Y-52396885D01*
X67650309Y-52363906D01*
X67588389Y-52343368D01*
X67588387Y-52343368D01*
X67581861Y-52341203D01*
X67575025Y-52340503D01*
X67575022Y-52340502D01*
X67531969Y-52336091D01*
X67477400Y-52330500D01*
X66126600Y-52330500D01*
X66123354Y-52330837D01*
X66123350Y-52330837D01*
X66027692Y-52340762D01*
X66027688Y-52340763D01*
X66020834Y-52341474D01*
X66014298Y-52343655D01*
X66014296Y-52343655D01*
X65929810Y-52371842D01*
X65853054Y-52397450D01*
X65768007Y-52450079D01*
X65742683Y-52465750D01*
X65674231Y-52484588D01*
X65606462Y-52463427D01*
X65589727Y-52450079D01*
X65553617Y-52415872D01*
X65551175Y-52413494D01*
X64840270Y-51702589D01*
X64827884Y-51688177D01*
X64819351Y-51676582D01*
X64819346Y-51676577D01*
X64815008Y-51670682D01*
X64809430Y-51665943D01*
X64809427Y-51665940D01*
X64774732Y-51636465D01*
X64767216Y-51629535D01*
X64761521Y-51623840D01*
X64743771Y-51609797D01*
X64739249Y-51606219D01*
X64735845Y-51603428D01*
X64685797Y-51560909D01*
X64685795Y-51560908D01*
X64680215Y-51556167D01*
X64673699Y-51552839D01*
X64668650Y-51549472D01*
X64663521Y-51546305D01*
X64657784Y-51541766D01*
X64591625Y-51510845D01*
X64587725Y-51508939D01*
X64522692Y-51475731D01*
X64515584Y-51473992D01*
X64509941Y-51471893D01*
X64504178Y-51469976D01*
X64497550Y-51466878D01*
X64426083Y-51452013D01*
X64421799Y-51451043D01*
X64350890Y-51433692D01*
X64345288Y-51433344D01*
X64345285Y-51433344D01*
X64339736Y-51433000D01*
X64339738Y-51432964D01*
X64335745Y-51432725D01*
X64331553Y-51432351D01*
X64324385Y-51430860D01*
X64258175Y-51432651D01*
X64246979Y-51432954D01*
X64243572Y-51433000D01*
X63767423Y-51433000D01*
X63699302Y-51412998D01*
X63658970Y-51371140D01*
X63656890Y-51367623D01*
X63600453Y-51272193D01*
X63482807Y-51154547D01*
X63478998Y-51152294D01*
X63438345Y-51096004D01*
X63436247Y-51057386D01*
X66147759Y-51057386D01*
X66155216Y-51067753D01*
X66394935Y-51261874D01*
X66400272Y-51265751D01*
X66720685Y-51473830D01*
X66726394Y-51477127D01*
X67066811Y-51650578D01*
X67072836Y-51653260D01*
X67429502Y-51790171D01*
X67435784Y-51792212D01*
X67804816Y-51891094D01*
X67811266Y-51892465D01*
X68188629Y-51952234D01*
X68195167Y-51952920D01*
X68576699Y-51972916D01*
X68583301Y-51972916D01*
X68964833Y-51952920D01*
X68971371Y-51952234D01*
X69348734Y-51892465D01*
X69355184Y-51891094D01*
X69724216Y-51792212D01*
X69730498Y-51790171D01*
X70087164Y-51653260D01*
X70093189Y-51650578D01*
X70433606Y-51477127D01*
X70439315Y-51473830D01*
X70759728Y-51265751D01*
X70765065Y-51261874D01*
X71003835Y-51068522D01*
X71012300Y-51056267D01*
X71005966Y-51045176D01*
X68592812Y-48632022D01*
X68578868Y-48624408D01*
X68577035Y-48624539D01*
X68570420Y-48628790D01*
X66154900Y-51044310D01*
X66147759Y-51057386D01*
X63436247Y-51057386D01*
X63434494Y-51025112D01*
X63469582Y-50963391D01*
X63477276Y-50956724D01*
X63482807Y-50953453D01*
X63600453Y-50835807D01*
X63604489Y-50828983D01*
X63604491Y-50828980D01*
X63681108Y-50699427D01*
X63685145Y-50692601D01*
X63687521Y-50684425D01*
X63705509Y-50622508D01*
X63731562Y-50532831D01*
X63734500Y-50495502D01*
X63734500Y-49337498D01*
X63731562Y-49300169D01*
X63692426Y-49165461D01*
X63687357Y-49148012D01*
X63687356Y-49148010D01*
X63685145Y-49140399D01*
X63654347Y-49088323D01*
X63604491Y-49004020D01*
X63604488Y-49004016D01*
X63600453Y-48997193D01*
X63482807Y-48879547D01*
X63475980Y-48875509D01*
X63470771Y-48871469D01*
X63429205Y-48813913D01*
X63425355Y-48743021D01*
X63458824Y-48682893D01*
X63549985Y-48591572D01*
X63558998Y-48580160D01*
X63641004Y-48447120D01*
X63647151Y-48433939D01*
X63696491Y-48285186D01*
X63699358Y-48271810D01*
X63700230Y-48263301D01*
X64867084Y-48263301D01*
X64887080Y-48644833D01*
X64887766Y-48651371D01*
X64947535Y-49028734D01*
X64948906Y-49035184D01*
X65047788Y-49404216D01*
X65049829Y-49410498D01*
X65186740Y-49767164D01*
X65189422Y-49773189D01*
X65362872Y-50113603D01*
X65366169Y-50119313D01*
X65574253Y-50439735D01*
X65578123Y-50445061D01*
X65771478Y-50683835D01*
X65783733Y-50692300D01*
X65794824Y-50685966D01*
X68207978Y-48272812D01*
X68215592Y-48258868D01*
X68215461Y-48257035D01*
X68211210Y-48250420D01*
X65795690Y-45834900D01*
X65782614Y-45827759D01*
X65772247Y-45835216D01*
X65578123Y-46074939D01*
X65574253Y-46080265D01*
X65366169Y-46400687D01*
X65362872Y-46406397D01*
X65189422Y-46746811D01*
X65186740Y-46752836D01*
X65049829Y-47109502D01*
X65047788Y-47115784D01*
X64948906Y-47484816D01*
X64947535Y-47491266D01*
X64887766Y-47868629D01*
X64887080Y-47875167D01*
X64867084Y-48256699D01*
X64867084Y-48263301D01*
X63700230Y-48263301D01*
X63708672Y-48180903D01*
X63709000Y-48174487D01*
X63709000Y-48151115D01*
X63704525Y-48135876D01*
X63703135Y-48134671D01*
X63695452Y-48133000D01*
X62623000Y-48133000D01*
X62554879Y-48112998D01*
X62508386Y-48059342D01*
X62497000Y-48007000D01*
X62497000Y-47606885D01*
X63005000Y-47606885D01*
X63009475Y-47622124D01*
X63010865Y-47623329D01*
X63018548Y-47625000D01*
X63690885Y-47625000D01*
X63706124Y-47620525D01*
X63707329Y-47619135D01*
X63709000Y-47611452D01*
X63709000Y-47583562D01*
X63708663Y-47577047D01*
X63699106Y-47484943D01*
X63696212Y-47471544D01*
X63646619Y-47322893D01*
X63640445Y-47309714D01*
X63558212Y-47176827D01*
X63549176Y-47165426D01*
X63438571Y-47055014D01*
X63427160Y-47046002D01*
X63294120Y-46963996D01*
X63280939Y-46957849D01*
X63132186Y-46908509D01*
X63118810Y-46905642D01*
X63027903Y-46896328D01*
X63022874Y-46896071D01*
X63007876Y-46900475D01*
X63006671Y-46901865D01*
X63005000Y-46909548D01*
X63005000Y-47606885D01*
X62497000Y-47606885D01*
X62497000Y-46914115D01*
X62492525Y-46898876D01*
X62491135Y-46897671D01*
X62483452Y-46896000D01*
X62480562Y-46896000D01*
X62474047Y-46896337D01*
X62381943Y-46905894D01*
X62368544Y-46908788D01*
X62219893Y-46958381D01*
X62206719Y-46964552D01*
X62184321Y-46978413D01*
X62115869Y-46997251D01*
X62048099Y-46976090D01*
X62002528Y-46921650D01*
X61999026Y-46912706D01*
X61950064Y-46772106D01*
X61950062Y-46772103D01*
X61947745Y-46765448D01*
X61896410Y-46683294D01*
X61855359Y-46617598D01*
X61851626Y-46611624D01*
X61837941Y-46597843D01*
X61728778Y-46487915D01*
X61728774Y-46487912D01*
X61723815Y-46482918D01*
X61712697Y-46475862D01*
X61664538Y-46445300D01*
X61570666Y-46385727D01*
X61541463Y-46375328D01*
X61406425Y-46327243D01*
X61406420Y-46327242D01*
X61399790Y-46324881D01*
X61392802Y-46324048D01*
X61392799Y-46324047D01*
X61269698Y-46309368D01*
X61219680Y-46303404D01*
X61212677Y-46304140D01*
X61212676Y-46304140D01*
X61046288Y-46321628D01*
X61046286Y-46321629D01*
X61039288Y-46322364D01*
X60867579Y-46380818D01*
X60861575Y-46384512D01*
X60719095Y-46472166D01*
X60719092Y-46472168D01*
X60713088Y-46475862D01*
X60708053Y-46480793D01*
X60708050Y-46480795D01*
X60588525Y-46597843D01*
X60583493Y-46602771D01*
X60485235Y-46755238D01*
X60482826Y-46761858D01*
X60482824Y-46761861D01*
X60425606Y-46919066D01*
X60423197Y-46925685D01*
X60400463Y-47105640D01*
X60401150Y-47112648D01*
X60401150Y-47112661D01*
X60401322Y-47114411D01*
X60401110Y-47115524D01*
X60401052Y-47119699D01*
X60400318Y-47119689D01*
X60388060Y-47184158D01*
X60383183Y-47192817D01*
X60324710Y-47287678D01*
X60306698Y-47316899D01*
X60252851Y-47479243D01*
X60242500Y-47580268D01*
X60242500Y-48177732D01*
X60242837Y-48180978D01*
X60242837Y-48180982D01*
X60244127Y-48193411D01*
X60253113Y-48280019D01*
X60255295Y-48286559D01*
X60303910Y-48432274D01*
X60307230Y-48442225D01*
X60307230Y-48442227D01*
X60307244Y-48442268D01*
X60307237Y-48442270D01*
X60317558Y-48509444D01*
X60311075Y-48535807D01*
X60296197Y-48576685D01*
X60290244Y-48623804D01*
X60285745Y-48659414D01*
X60283130Y-48673561D01*
X60268192Y-48734610D01*
X60267500Y-48745764D01*
X60267464Y-48745762D01*
X60267225Y-48749755D01*
X60266851Y-48753947D01*
X60265360Y-48761115D01*
X60266762Y-48812927D01*
X60267454Y-48838521D01*
X60267500Y-48841928D01*
X60267500Y-49120246D01*
X60262497Y-49155398D01*
X60222233Y-49293989D01*
X60222232Y-49293993D01*
X60220438Y-49300169D01*
X60217500Y-49337498D01*
X60217500Y-50495502D01*
X60220438Y-50532831D01*
X60246491Y-50622508D01*
X60264480Y-50684425D01*
X60266855Y-50692601D01*
X60270892Y-50699427D01*
X60347509Y-50828980D01*
X60347511Y-50828983D01*
X60351547Y-50835807D01*
X60469193Y-50953453D01*
X60473002Y-50955706D01*
X60513655Y-51011996D01*
X60517506Y-51082888D01*
X60482418Y-51144609D01*
X60474724Y-51151276D01*
X60469193Y-51154547D01*
X60351547Y-51272193D01*
X60347511Y-51279017D01*
X60347509Y-51279020D01*
X60313465Y-51336586D01*
X60266855Y-51415399D01*
X60264644Y-51423010D01*
X60264643Y-51423012D01*
X60256347Y-51451569D01*
X60220438Y-51575169D01*
X60219934Y-51581574D01*
X60219933Y-51581579D01*
X60217693Y-51610042D01*
X60217500Y-51612498D01*
X60217500Y-52770502D01*
X60217693Y-52772950D01*
X60217693Y-52772958D01*
X60219658Y-52797917D01*
X60220438Y-52807831D01*
X60222232Y-52814007D01*
X60222233Y-52814011D01*
X60262497Y-52952602D01*
X60267500Y-52987754D01*
X60267500Y-53764726D01*
X60261093Y-53804393D01*
X60252851Y-53829243D01*
X60252151Y-53836076D01*
X60252150Y-53836080D01*
X60248488Y-53871828D01*
X60242500Y-53930268D01*
X60242500Y-54527732D01*
X60253113Y-54630019D01*
X60255295Y-54636559D01*
X60300948Y-54773396D01*
X60307244Y-54792268D01*
X60311096Y-54798492D01*
X60311096Y-54798493D01*
X60329736Y-54828615D01*
X60397248Y-54937713D01*
X60402431Y-54942887D01*
X60405520Y-54945971D01*
X60406958Y-54948599D01*
X60406977Y-54948623D01*
X60406973Y-54948626D01*
X60439598Y-55008254D01*
X60442500Y-55035142D01*
X60442500Y-55291930D01*
X60441067Y-55310880D01*
X60437801Y-55332349D01*
X60438394Y-55339641D01*
X60438394Y-55339644D01*
X60442085Y-55385018D01*
X60442500Y-55395233D01*
X60442500Y-55403293D01*
X60442925Y-55406937D01*
X60445789Y-55431507D01*
X60446222Y-55435882D01*
X60450959Y-55494114D01*
X60452140Y-55508637D01*
X60454395Y-55515598D01*
X60455581Y-55521533D01*
X60456970Y-55527409D01*
X60457818Y-55534681D01*
X60482729Y-55603307D01*
X60484143Y-55607426D01*
X60504393Y-55669937D01*
X60504395Y-55669942D01*
X60506649Y-55676899D01*
X60510444Y-55683153D01*
X60512951Y-55688628D01*
X60515670Y-55694058D01*
X60518167Y-55700937D01*
X60522180Y-55707057D01*
X60522180Y-55707058D01*
X60558186Y-55761976D01*
X60560523Y-55765680D01*
X60598405Y-55828107D01*
X60602121Y-55832315D01*
X60602122Y-55832316D01*
X60605803Y-55836484D01*
X60605776Y-55836508D01*
X60608429Y-55839500D01*
X60611132Y-55842733D01*
X60615144Y-55848852D01*
X60644988Y-55877124D01*
X60671383Y-55902128D01*
X60673825Y-55904506D01*
X61522230Y-56752911D01*
X61534616Y-56767323D01*
X61543149Y-56778918D01*
X61543154Y-56778923D01*
X61547492Y-56784818D01*
X61553070Y-56789557D01*
X61553073Y-56789560D01*
X61587768Y-56819035D01*
X61595284Y-56825965D01*
X61600979Y-56831660D01*
X61603861Y-56833940D01*
X61623251Y-56849281D01*
X61626655Y-56852072D01*
X61676703Y-56894591D01*
X61682285Y-56899333D01*
X61688801Y-56902661D01*
X61693850Y-56906028D01*
X61698979Y-56909195D01*
X61704716Y-56913734D01*
X61770875Y-56944655D01*
X61774769Y-56946558D01*
X61839808Y-56979769D01*
X61846916Y-56981508D01*
X61852559Y-56983607D01*
X61858322Y-56985524D01*
X61864950Y-56988622D01*
X61872112Y-56990112D01*
X61872113Y-56990112D01*
X61936412Y-57003486D01*
X61940696Y-57004456D01*
X62011610Y-57021808D01*
X62017212Y-57022156D01*
X62017215Y-57022156D01*
X62022764Y-57022500D01*
X62022762Y-57022536D01*
X62026755Y-57022775D01*
X62030947Y-57023149D01*
X62038115Y-57024640D01*
X62115520Y-57022546D01*
X62118928Y-57022500D01*
X62630563Y-57022500D01*
X62698684Y-57042502D01*
X62745177Y-57096158D01*
X62755281Y-57166432D01*
X62722036Y-57235153D01*
X62702872Y-57255383D01*
X62700494Y-57257825D01*
X62122089Y-57836230D01*
X62107677Y-57848616D01*
X62096082Y-57857149D01*
X62096077Y-57857154D01*
X62090182Y-57861492D01*
X62085443Y-57867070D01*
X62085440Y-57867073D01*
X62055965Y-57901768D01*
X62049035Y-57909284D01*
X62043340Y-57914979D01*
X62041060Y-57917861D01*
X62025719Y-57937251D01*
X62022928Y-57940655D01*
X61985652Y-57984532D01*
X61975667Y-57996285D01*
X61972339Y-58002801D01*
X61968972Y-58007850D01*
X61965805Y-58012979D01*
X61961266Y-58018716D01*
X61930345Y-58084875D01*
X61928442Y-58088769D01*
X61895231Y-58153808D01*
X61893492Y-58160916D01*
X61891393Y-58166559D01*
X61889476Y-58172322D01*
X61886378Y-58178950D01*
X61884888Y-58186112D01*
X61884888Y-58186113D01*
X61871514Y-58250412D01*
X61870544Y-58254696D01*
X61853192Y-58325610D01*
X61852500Y-58336764D01*
X61852464Y-58336762D01*
X61852225Y-58340755D01*
X61851851Y-58344947D01*
X61850360Y-58352115D01*
X61850610Y-58361366D01*
X61852454Y-58429521D01*
X61852500Y-58432928D01*
X61852500Y-59764016D01*
X61832498Y-59832137D01*
X61778842Y-59878630D01*
X61708568Y-59888734D01*
X61676459Y-59879653D01*
X61636465Y-59862346D01*
X61625805Y-59857124D01*
X61592284Y-59838695D01*
X61592282Y-59838694D01*
X61585337Y-59834876D01*
X61564559Y-59829541D01*
X61545869Y-59823142D01*
X61526176Y-59814620D01*
X61519579Y-59813575D01*
X61460211Y-59775662D01*
X61448051Y-59759176D01*
X61444966Y-59754190D01*
X61444964Y-59754188D01*
X61441116Y-59747969D01*
X61391659Y-59698598D01*
X61323184Y-59630242D01*
X61323179Y-59630238D01*
X61318003Y-59625071D01*
X61236773Y-59575000D01*
X61176150Y-59537631D01*
X61176148Y-59537630D01*
X61169920Y-59533791D01*
X61004809Y-59479026D01*
X60997973Y-59478326D01*
X60997970Y-59478325D01*
X60946474Y-59473049D01*
X60902072Y-59468500D01*
X60302928Y-59468500D01*
X60299682Y-59468837D01*
X60299678Y-59468837D01*
X60205765Y-59478581D01*
X60205761Y-59478582D01*
X60198907Y-59479293D01*
X60192371Y-59481474D01*
X60192369Y-59481474D01*
X60075185Y-59520570D01*
X60033893Y-59534346D01*
X59885969Y-59625884D01*
X59778899Y-59733141D01*
X59716618Y-59767220D01*
X59645798Y-59762217D01*
X59600709Y-59733296D01*
X59497871Y-59630637D01*
X59486460Y-59621625D01*
X59350937Y-59538088D01*
X59337759Y-59531944D01*
X59186234Y-59481685D01*
X59172868Y-59478819D01*
X59080230Y-59469328D01*
X59073815Y-59469000D01*
X59049615Y-59469000D01*
X59034376Y-59473475D01*
X59033171Y-59474865D01*
X59031500Y-59482548D01*
X59031500Y-61416885D01*
X59035975Y-61432124D01*
X59037365Y-61433329D01*
X59045048Y-61435000D01*
X59073766Y-61435000D01*
X59080282Y-61434663D01*
X59174132Y-61424925D01*
X59187528Y-61422032D01*
X59338953Y-61371512D01*
X59352115Y-61365347D01*
X59487492Y-61281574D01*
X59498890Y-61272540D01*
X59600393Y-61170860D01*
X59662676Y-61136781D01*
X59733496Y-61141784D01*
X59778583Y-61170704D01*
X59886997Y-61278929D01*
X59893227Y-61282769D01*
X59893228Y-61282770D01*
X60027926Y-61365799D01*
X60035080Y-61370209D01*
X60200191Y-61424974D01*
X60207027Y-61425674D01*
X60207030Y-61425675D01*
X60254370Y-61430525D01*
X60302928Y-61435500D01*
X60902072Y-61435500D01*
X60905318Y-61435163D01*
X60905322Y-61435163D01*
X60999235Y-61425419D01*
X60999239Y-61425418D01*
X61006093Y-61424707D01*
X61012629Y-61422526D01*
X61012631Y-61422526D01*
X61157838Y-61374081D01*
X61171107Y-61369654D01*
X61182810Y-61362412D01*
X61251262Y-61343577D01*
X61319031Y-61364741D01*
X61338204Y-61380464D01*
X61484145Y-61526405D01*
X61518171Y-61588717D01*
X61513106Y-61659532D01*
X61470559Y-61716368D01*
X61404039Y-61741179D01*
X61395050Y-61741500D01*
X60248498Y-61741500D01*
X60246050Y-61741693D01*
X60246042Y-61741693D01*
X60217579Y-61743933D01*
X60217574Y-61743934D01*
X60211169Y-61744438D01*
X60111231Y-61773472D01*
X60059012Y-61788643D01*
X60059010Y-61788644D01*
X60051399Y-61790855D01*
X60022589Y-61807893D01*
X59915020Y-61871509D01*
X59915017Y-61871511D01*
X59908193Y-61875547D01*
X59790547Y-61993193D01*
X59788294Y-61997002D01*
X59732004Y-62037655D01*
X59661112Y-62041506D01*
X59599391Y-62006418D01*
X59592724Y-61998724D01*
X59589453Y-61993193D01*
X59471807Y-61875547D01*
X59464983Y-61871511D01*
X59464980Y-61871509D01*
X59357411Y-61807893D01*
X59328601Y-61790855D01*
X59320990Y-61788644D01*
X59320988Y-61788643D01*
X59268769Y-61773472D01*
X59168831Y-61744438D01*
X59162426Y-61743934D01*
X59162421Y-61743933D01*
X59133958Y-61741693D01*
X59133950Y-61741693D01*
X59131502Y-61741500D01*
X57973498Y-61741500D01*
X57971050Y-61741693D01*
X57971042Y-61741693D01*
X57942579Y-61743933D01*
X57942574Y-61743934D01*
X57936169Y-61744438D01*
X57836231Y-61773472D01*
X57784012Y-61788643D01*
X57784010Y-61788644D01*
X57776399Y-61790855D01*
X57747589Y-61807893D01*
X57640020Y-61871509D01*
X57640017Y-61871511D01*
X57633193Y-61875547D01*
X57515547Y-61993193D01*
X57511511Y-62000017D01*
X57511509Y-62000020D01*
X57462361Y-62083125D01*
X57430855Y-62136399D01*
X57428644Y-62144010D01*
X57428643Y-62144012D01*
X57420198Y-62173080D01*
X57384438Y-62296169D01*
X57383934Y-62302574D01*
X57383933Y-62302579D01*
X57381693Y-62331042D01*
X57381500Y-62333498D01*
X57381500Y-62373619D01*
X57361498Y-62441740D01*
X57344595Y-62462714D01*
X57215427Y-62591882D01*
X57153115Y-62625908D01*
X57126332Y-62628787D01*
X55947708Y-62628787D01*
X54769061Y-62628788D01*
X54700940Y-62608786D01*
X54679966Y-62591884D01*
X54160257Y-62072176D01*
X54152620Y-62063783D01*
X54148478Y-62057256D01*
X54098365Y-62010197D01*
X54095524Y-62007443D01*
X54075615Y-61987534D01*
X54072351Y-61985003D01*
X54063328Y-61977296D01*
X54036555Y-61952154D01*
X54030776Y-61946727D01*
X54023830Y-61942908D01*
X54023828Y-61942907D01*
X54012792Y-61936840D01*
X53996268Y-61925986D01*
X53986317Y-61918267D01*
X53986316Y-61918266D01*
X53980054Y-61913409D01*
X53949068Y-61900000D01*
X53939076Y-61895676D01*
X53928416Y-61890454D01*
X53896232Y-61872760D01*
X53896231Y-61872759D01*
X53889285Y-61868941D01*
X53869395Y-61863834D01*
X53850709Y-61857436D01*
X53831871Y-61849284D01*
X53824041Y-61848044D01*
X53824038Y-61848043D01*
X53801894Y-61844536D01*
X53787760Y-61842298D01*
X53776153Y-61839894D01*
X53746499Y-61832280D01*
X53740572Y-61830758D01*
X53740571Y-61830758D01*
X53732895Y-61828787D01*
X53712373Y-61828787D01*
X53692654Y-61827234D01*
X53687725Y-61826453D01*
X53623574Y-61796037D01*
X53586051Y-61735767D01*
X53587069Y-61664777D01*
X53618349Y-61612910D01*
X53747606Y-61483654D01*
X53756383Y-61475667D01*
X53756388Y-61475663D01*
X53763080Y-61471416D01*
X53811620Y-61419726D01*
X53814374Y-61416885D01*
X53834926Y-61396333D01*
X53837638Y-61392837D01*
X53845349Y-61383808D01*
X53858119Y-61370209D01*
X53876972Y-61350133D01*
X53887301Y-61331345D01*
X53898158Y-61314816D01*
X53906447Y-61304131D01*
X53906448Y-61304129D01*
X53911304Y-61297869D01*
X53929657Y-61255456D01*
X53934868Y-61244819D01*
X53957124Y-61204337D01*
X53962457Y-61183566D01*
X53968859Y-61164864D01*
X53977379Y-61145177D01*
X53984605Y-61099552D01*
X53987013Y-61087926D01*
X53996529Y-61050865D01*
X53996529Y-61050864D01*
X53998500Y-61043188D01*
X53998500Y-61021742D01*
X54000051Y-61002031D01*
X54002166Y-60988678D01*
X54003406Y-60980849D01*
X54000514Y-60950252D01*
X53999059Y-60934864D01*
X53998500Y-60923006D01*
X53998500Y-60735766D01*
X57782000Y-60735766D01*
X57782337Y-60742282D01*
X57792075Y-60836132D01*
X57794968Y-60849528D01*
X57845488Y-61000953D01*
X57851653Y-61014115D01*
X57935426Y-61149492D01*
X57944460Y-61160890D01*
X58057129Y-61273363D01*
X58068540Y-61282375D01*
X58204063Y-61365912D01*
X58217241Y-61372056D01*
X58368766Y-61422315D01*
X58382132Y-61425181D01*
X58474770Y-61434672D01*
X58481185Y-61435000D01*
X58505385Y-61435000D01*
X58520624Y-61430525D01*
X58521829Y-61429135D01*
X58523500Y-61421452D01*
X58523500Y-60724115D01*
X58519025Y-60708876D01*
X58517635Y-60707671D01*
X58509952Y-60706000D01*
X57800115Y-60706000D01*
X57784876Y-60710475D01*
X57783671Y-60711865D01*
X57782000Y-60719548D01*
X57782000Y-60735766D01*
X53998500Y-60735766D01*
X53998500Y-60179885D01*
X57782000Y-60179885D01*
X57786475Y-60195124D01*
X57787865Y-60196329D01*
X57795548Y-60198000D01*
X58505385Y-60198000D01*
X58520624Y-60193525D01*
X58521829Y-60192135D01*
X58523500Y-60184452D01*
X58523500Y-59487115D01*
X58519025Y-59471876D01*
X58517635Y-59470671D01*
X58509952Y-59469000D01*
X58481234Y-59469000D01*
X58474718Y-59469337D01*
X58380868Y-59479075D01*
X58367472Y-59481968D01*
X58216047Y-59532488D01*
X58202885Y-59538653D01*
X58067508Y-59622426D01*
X58056110Y-59631460D01*
X57943637Y-59744129D01*
X57934625Y-59755540D01*
X57851088Y-59891063D01*
X57844944Y-59904241D01*
X57794685Y-60055766D01*
X57791819Y-60069132D01*
X57782328Y-60161770D01*
X57782000Y-60168185D01*
X57782000Y-60179885D01*
X53998500Y-60179885D01*
X53998500Y-53422056D01*
X53999059Y-53410200D01*
X53999059Y-53410197D01*
X54000788Y-53402463D01*
X53998562Y-53331631D01*
X53998500Y-53327673D01*
X53998500Y-53298568D01*
X53997944Y-53294168D01*
X53997012Y-53282330D01*
X53996911Y-53279094D01*
X53995562Y-53236169D01*
X53989580Y-53215579D01*
X53985570Y-53196216D01*
X53983875Y-53182796D01*
X53983875Y-53182795D01*
X53982882Y-53174936D01*
X53979966Y-53167571D01*
X53979965Y-53167567D01*
X53965874Y-53131979D01*
X53962035Y-53120769D01*
X53949145Y-53076400D01*
X53938229Y-53057943D01*
X53929534Y-53040193D01*
X53921635Y-53020244D01*
X53912838Y-53008136D01*
X53894477Y-52982864D01*
X53887960Y-52972943D01*
X53882321Y-52963408D01*
X53864452Y-52933193D01*
X53849291Y-52918032D01*
X53836449Y-52902997D01*
X53832817Y-52897998D01*
X53823841Y-52885643D01*
X53788242Y-52856193D01*
X53779463Y-52848204D01*
X53469539Y-52538280D01*
X53435513Y-52475968D01*
X53438075Y-52412558D01*
X53449904Y-52373621D01*
X53451408Y-52368671D01*
X53481640Y-52139041D01*
X53481747Y-52134673D01*
X53483245Y-52073365D01*
X53483245Y-52073361D01*
X53483327Y-52070000D01*
X53472098Y-51933420D01*
X53464773Y-51844318D01*
X53464772Y-51844312D01*
X53464349Y-51839167D01*
X53416979Y-51650578D01*
X53409184Y-51619544D01*
X53409183Y-51619540D01*
X53407925Y-51614533D01*
X53403715Y-51604850D01*
X53317630Y-51406868D01*
X53317628Y-51406865D01*
X53315570Y-51402131D01*
X53189764Y-51207665D01*
X53159282Y-51174165D01*
X53095025Y-51103548D01*
X53033887Y-51036358D01*
X53029836Y-51033159D01*
X53029832Y-51033155D01*
X52857077Y-50896722D01*
X52816014Y-50838805D01*
X52812782Y-50767882D01*
X52832779Y-50733411D01*
X54467977Y-50733411D01*
X54468177Y-50738740D01*
X54468177Y-50738741D01*
X54470278Y-50794692D01*
X54476945Y-50972274D01*
X54478040Y-50977492D01*
X54521544Y-51184829D01*
X54526030Y-51206211D01*
X54613829Y-51428533D01*
X54737832Y-51632883D01*
X54741329Y-51636913D01*
X54883020Y-51800197D01*
X54894493Y-51813419D01*
X54898619Y-51816802D01*
X54898623Y-51816806D01*
X54932177Y-51844318D01*
X55079333Y-51964978D01*
X55083969Y-51967617D01*
X55083972Y-51967619D01*
X55206467Y-52037347D01*
X55287066Y-52083227D01*
X55511753Y-52164784D01*
X55517002Y-52165733D01*
X55517005Y-52165734D01*
X55742885Y-52206580D01*
X55742893Y-52206581D01*
X55746969Y-52207318D01*
X55765359Y-52208185D01*
X55770544Y-52208430D01*
X55770551Y-52208430D01*
X55772032Y-52208500D01*
X55940012Y-52208500D01*
X56118175Y-52193383D01*
X56123339Y-52192043D01*
X56123343Y-52192042D01*
X56344375Y-52134673D01*
X56344380Y-52134671D01*
X56349540Y-52133332D01*
X56490132Y-52070000D01*
X56562619Y-52037347D01*
X56562622Y-52037346D01*
X56567480Y-52035157D01*
X56765762Y-51901666D01*
X56776845Y-51891094D01*
X56934861Y-51740353D01*
X56938718Y-51736674D01*
X57081402Y-51544900D01*
X57098704Y-51510871D01*
X57187314Y-51336586D01*
X57187314Y-51336585D01*
X57189733Y-51331828D01*
X57240620Y-51167945D01*
X57259032Y-51108651D01*
X57259033Y-51108645D01*
X57260616Y-51103548D01*
X57280510Y-50953453D01*
X57291323Y-50871873D01*
X57291323Y-50871869D01*
X57292023Y-50866589D01*
X57283055Y-50627726D01*
X57254440Y-50491349D01*
X57235067Y-50399016D01*
X57235066Y-50399013D01*
X57233970Y-50393789D01*
X57146171Y-50171467D01*
X57022168Y-49967117D01*
X57005092Y-49947439D01*
X56869007Y-49790614D01*
X56869005Y-49790612D01*
X56865507Y-49786581D01*
X56861381Y-49783198D01*
X56861377Y-49783194D01*
X56684795Y-49638407D01*
X56680667Y-49635022D01*
X56676031Y-49632383D01*
X56676028Y-49632381D01*
X56477577Y-49519416D01*
X56472934Y-49516773D01*
X56248247Y-49435216D01*
X56242998Y-49434267D01*
X56242995Y-49434266D01*
X56017115Y-49393420D01*
X56017107Y-49393419D01*
X56013031Y-49392682D01*
X55994641Y-49391815D01*
X55989456Y-49391570D01*
X55989449Y-49391570D01*
X55987968Y-49391500D01*
X55819988Y-49391500D01*
X55641825Y-49406617D01*
X55636661Y-49407957D01*
X55636657Y-49407958D01*
X55415625Y-49465327D01*
X55415620Y-49465329D01*
X55410460Y-49466668D01*
X55405594Y-49468860D01*
X55197381Y-49562653D01*
X55197378Y-49562654D01*
X55192520Y-49564843D01*
X54994238Y-49698334D01*
X54990381Y-49702013D01*
X54990379Y-49702015D01*
X54959293Y-49731670D01*
X54821282Y-49863326D01*
X54678598Y-50055100D01*
X54676182Y-50059851D01*
X54676180Y-50059855D01*
X54619434Y-50171467D01*
X54570267Y-50268172D01*
X54541656Y-50360313D01*
X54500968Y-50491349D01*
X54500967Y-50491355D01*
X54499384Y-50496452D01*
X54493744Y-50539008D01*
X54470058Y-50717713D01*
X54467977Y-50733411D01*
X52832779Y-50733411D01*
X52848407Y-50706470D01*
X52862001Y-50695261D01*
X52862157Y-50695150D01*
X52982243Y-50609494D01*
X53146303Y-50446005D01*
X53150809Y-50439735D01*
X53221352Y-50341563D01*
X53281458Y-50257917D01*
X53384078Y-50050280D01*
X53451408Y-49828671D01*
X53481640Y-49599041D01*
X53481747Y-49594673D01*
X53483245Y-49533365D01*
X53483245Y-49533361D01*
X53483327Y-49530000D01*
X53480218Y-49492178D01*
X53467539Y-49337967D01*
X53481892Y-49268437D01*
X53506223Y-49236397D01*
X53552428Y-49192396D01*
X53582266Y-49163982D01*
X53682643Y-49012902D01*
X53731170Y-48885156D01*
X53744555Y-48849920D01*
X53744556Y-48849918D01*
X53747055Y-48843338D01*
X53750131Y-48821449D01*
X53771748Y-48667639D01*
X53771748Y-48667636D01*
X53772299Y-48663717D01*
X53772616Y-48641000D01*
X53752397Y-48460745D01*
X53747652Y-48447120D01*
X53695064Y-48296106D01*
X53695062Y-48296103D01*
X53692745Y-48289448D01*
X53608643Y-48154855D01*
X53600359Y-48141598D01*
X53596626Y-48135624D01*
X53587835Y-48126771D01*
X53473778Y-48011915D01*
X53473774Y-48011912D01*
X53468815Y-48006918D01*
X53457697Y-47999862D01*
X53381252Y-47951349D01*
X53315666Y-47909727D01*
X53286463Y-47899328D01*
X53151425Y-47851243D01*
X53151420Y-47851242D01*
X53144790Y-47848881D01*
X53137802Y-47848048D01*
X53137799Y-47848047D01*
X53014698Y-47833368D01*
X52964680Y-47827404D01*
X52957677Y-47828140D01*
X52957676Y-47828140D01*
X52791288Y-47845628D01*
X52791286Y-47845629D01*
X52784288Y-47846364D01*
X52612579Y-47904818D01*
X52606575Y-47908512D01*
X52464095Y-47996166D01*
X52464092Y-47996168D01*
X52458088Y-47999862D01*
X52358849Y-48097044D01*
X52296185Y-48130413D01*
X52248597Y-48131066D01*
X52208095Y-48123851D01*
X52208089Y-48123850D01*
X52203006Y-48122945D01*
X52130096Y-48122054D01*
X51976581Y-48120179D01*
X51976579Y-48120179D01*
X51971411Y-48120116D01*
X51742464Y-48155150D01*
X51522314Y-48227106D01*
X51317371Y-48333792D01*
X51247712Y-48347504D01*
X51181697Y-48321379D01*
X51152338Y-48288797D01*
X51146065Y-48278757D01*
X51056626Y-48135624D01*
X51047835Y-48126771D01*
X50933778Y-48011915D01*
X50933774Y-48011912D01*
X50928815Y-48006918D01*
X50917697Y-47999862D01*
X50841252Y-47951349D01*
X50775666Y-47909727D01*
X50746463Y-47899328D01*
X50611425Y-47851243D01*
X50611420Y-47851242D01*
X50604790Y-47848881D01*
X50597802Y-47848048D01*
X50597799Y-47848047D01*
X50474698Y-47833368D01*
X50424680Y-47827404D01*
X50417677Y-47828140D01*
X50417676Y-47828140D01*
X50251288Y-47845628D01*
X50251286Y-47845629D01*
X50244288Y-47846364D01*
X50072579Y-47904818D01*
X50066575Y-47908512D01*
X49924095Y-47996166D01*
X49924092Y-47996168D01*
X49918088Y-47999862D01*
X49818849Y-48097044D01*
X49756185Y-48130413D01*
X49708597Y-48131066D01*
X49668095Y-48123851D01*
X49668089Y-48123850D01*
X49663006Y-48122945D01*
X49590096Y-48122054D01*
X49436581Y-48120179D01*
X49436579Y-48120179D01*
X49431411Y-48120116D01*
X49202464Y-48155150D01*
X48982314Y-48227106D01*
X48977726Y-48229494D01*
X48977722Y-48229496D01*
X48798608Y-48322737D01*
X48776872Y-48334052D01*
X48772739Y-48337155D01*
X48772736Y-48337157D01*
X48598811Y-48467744D01*
X48591655Y-48473117D01*
X48431639Y-48640564D01*
X48409127Y-48673566D01*
X48364002Y-48739716D01*
X48309090Y-48784718D01*
X48238565Y-48792889D01*
X48174819Y-48761634D01*
X48164979Y-48749994D01*
X48148538Y-48735835D01*
X48138973Y-48740238D01*
X47362021Y-49517189D01*
X47354408Y-49531132D01*
X47354539Y-49532966D01*
X47358790Y-49539580D01*
X48136307Y-50317096D01*
X48148313Y-50323652D01*
X48174948Y-50303304D01*
X48175827Y-50304454D01*
X48212672Y-50275734D01*
X48283376Y-50269289D01*
X48346340Y-50302092D01*
X48366432Y-50327074D01*
X48386800Y-50360313D01*
X48386806Y-50360321D01*
X48389501Y-50364719D01*
X48541147Y-50539784D01*
X48719349Y-50687730D01*
X48723819Y-50690342D01*
X48727511Y-50692500D01*
X48776232Y-50744140D01*
X48789301Y-50813924D01*
X48762566Y-50879694D01*
X48739589Y-50902045D01*
X48632308Y-50982594D01*
X48591655Y-51013117D01*
X48588083Y-51016855D01*
X48447691Y-51163767D01*
X48431639Y-51180564D01*
X48364306Y-51279271D01*
X48309397Y-51324271D01*
X48238872Y-51332442D01*
X48175125Y-51301188D01*
X48154428Y-51276705D01*
X48147881Y-51266584D01*
X48109764Y-51207665D01*
X48079282Y-51174165D01*
X48015025Y-51103548D01*
X47953887Y-51036358D01*
X47949836Y-51033159D01*
X47949832Y-51033155D01*
X47776669Y-50896400D01*
X47735606Y-50838483D01*
X47732374Y-50767560D01*
X47767999Y-50706148D01*
X47773487Y-50701623D01*
X47783497Y-50688874D01*
X47776510Y-50675721D01*
X47002811Y-49902021D01*
X46988868Y-49894408D01*
X46987034Y-49894539D01*
X46980420Y-49898790D01*
X46200180Y-50679031D01*
X46193423Y-50691406D01*
X46212730Y-50717197D01*
X46212040Y-50717713D01*
X46236627Y-50743737D01*
X46249743Y-50813511D01*
X46223055Y-50879300D01*
X46200023Y-50901719D01*
X46092308Y-50982594D01*
X46051655Y-51013117D01*
X46048083Y-51016855D01*
X45907691Y-51163767D01*
X45891639Y-51180564D01*
X45888730Y-51184829D01*
X45888724Y-51184837D01*
X45874144Y-51206211D01*
X45761119Y-51371899D01*
X45663602Y-51581981D01*
X45601707Y-51805169D01*
X45577095Y-52035469D01*
X45577392Y-52040622D01*
X45577392Y-52040625D01*
X45587085Y-52208731D01*
X45590427Y-52266697D01*
X45591564Y-52271743D01*
X45591565Y-52271749D01*
X45621218Y-52403326D01*
X45641346Y-52492642D01*
X45643288Y-52497424D01*
X45643289Y-52497428D01*
X45707573Y-52655740D01*
X45728484Y-52707237D01*
X45849501Y-52904719D01*
X46001147Y-53079784D01*
X46100789Y-53162508D01*
X46173463Y-53222843D01*
X46179349Y-53227730D01*
X46266645Y-53278741D01*
X46269070Y-53280158D01*
X46317794Y-53331796D01*
X46331500Y-53388946D01*
X46331500Y-55256050D01*
X46311498Y-55324171D01*
X46257842Y-55370664D01*
X46187568Y-55380768D01*
X46122988Y-55351274D01*
X46116405Y-55345145D01*
X45608655Y-54837395D01*
X45600665Y-54828615D01*
X45600663Y-54828613D01*
X45596416Y-54821920D01*
X45544742Y-54773395D01*
X45541901Y-54770641D01*
X45521333Y-54750073D01*
X45517826Y-54747353D01*
X45508804Y-54739647D01*
X45480913Y-54713456D01*
X45475133Y-54708028D01*
X45468181Y-54704206D01*
X45456342Y-54697697D01*
X45439818Y-54686843D01*
X45429132Y-54678555D01*
X45422868Y-54673696D01*
X45415596Y-54670549D01*
X45415594Y-54670548D01*
X45380465Y-54655346D01*
X45369805Y-54650124D01*
X45336284Y-54631695D01*
X45336282Y-54631694D01*
X45329337Y-54627876D01*
X45308559Y-54622541D01*
X45289869Y-54616142D01*
X45270176Y-54607620D01*
X45224552Y-54600394D01*
X45212929Y-54597987D01*
X45177508Y-54588893D01*
X45168188Y-54586500D01*
X45146741Y-54586500D01*
X45127031Y-54584949D01*
X45125358Y-54584684D01*
X45105848Y-54581594D01*
X45059859Y-54585941D01*
X45048004Y-54586500D01*
X44228562Y-54586500D01*
X44160441Y-54566498D01*
X44113948Y-54512842D01*
X44103844Y-54442568D01*
X44133338Y-54377988D01*
X44141590Y-54369330D01*
X44234861Y-54280353D01*
X44238718Y-54276674D01*
X44381402Y-54084900D01*
X44388078Y-54071771D01*
X44487314Y-53876586D01*
X44487314Y-53876585D01*
X44489733Y-53871828D01*
X44538328Y-53715328D01*
X44559032Y-53648651D01*
X44559033Y-53648645D01*
X44560616Y-53643548D01*
X44583705Y-53469350D01*
X44591323Y-53411873D01*
X44591323Y-53411869D01*
X44592023Y-53406589D01*
X44590589Y-53368380D01*
X44586859Y-53269050D01*
X44583055Y-53167726D01*
X44562462Y-53069579D01*
X44535067Y-52939016D01*
X44535066Y-52939013D01*
X44533970Y-52933789D01*
X44446171Y-52711467D01*
X44322168Y-52507117D01*
X44229846Y-52400725D01*
X44169007Y-52330614D01*
X44169005Y-52330612D01*
X44165507Y-52326581D01*
X44161381Y-52323198D01*
X44161377Y-52323194D01*
X43984795Y-52178407D01*
X43980667Y-52175022D01*
X43976031Y-52172383D01*
X43976028Y-52172381D01*
X43777577Y-52059416D01*
X43772934Y-52056773D01*
X43548247Y-51975216D01*
X43542998Y-51974267D01*
X43542995Y-51974266D01*
X43317115Y-51933420D01*
X43317107Y-51933419D01*
X43313031Y-51932682D01*
X43294641Y-51931815D01*
X43289456Y-51931570D01*
X43289449Y-51931570D01*
X43287968Y-51931500D01*
X43119988Y-51931500D01*
X42941825Y-51946617D01*
X42936661Y-51947957D01*
X42936657Y-51947958D01*
X42715625Y-52005327D01*
X42715620Y-52005329D01*
X42710460Y-52006668D01*
X42705594Y-52008860D01*
X42497381Y-52102653D01*
X42497378Y-52102654D01*
X42492520Y-52104843D01*
X42294238Y-52238334D01*
X42121282Y-52403326D01*
X42118099Y-52407603D01*
X42118099Y-52407604D01*
X42098375Y-52434114D01*
X41978598Y-52595100D01*
X41976182Y-52599851D01*
X41976180Y-52599855D01*
X41903912Y-52741996D01*
X41870267Y-52808172D01*
X41844221Y-52892055D01*
X41800968Y-53031349D01*
X41800967Y-53031355D01*
X41799384Y-53036452D01*
X41787257Y-53127945D01*
X41768969Y-53265930D01*
X41767977Y-53273411D01*
X41768177Y-53278740D01*
X41768177Y-53278741D01*
X41768922Y-53298588D01*
X41776945Y-53512274D01*
X41782279Y-53537694D01*
X41819551Y-53715331D01*
X41826030Y-53746211D01*
X41913829Y-53968533D01*
X42037832Y-54172883D01*
X42041329Y-54176913D01*
X42189357Y-54347500D01*
X42194493Y-54353419D01*
X42206260Y-54363067D01*
X42246253Y-54421727D01*
X42248184Y-54492698D01*
X42211438Y-54553446D01*
X42147683Y-54584684D01*
X42126367Y-54586500D01*
X40329950Y-54586500D01*
X40261829Y-54566498D01*
X40240855Y-54549595D01*
X39049405Y-53358145D01*
X39015379Y-53295833D01*
X39012500Y-53269050D01*
X39012500Y-52735554D01*
X39032502Y-52667433D01*
X39059734Y-52637364D01*
X39065055Y-52634071D01*
X39184864Y-52514053D01*
X39189140Y-52507117D01*
X39247426Y-52412558D01*
X39273849Y-52369692D01*
X39283209Y-52341474D01*
X39325072Y-52215262D01*
X39325072Y-52215260D01*
X39327238Y-52208731D01*
X39337500Y-52108572D01*
X39337500Y-51574428D01*
X39326978Y-51473018D01*
X39273308Y-51312151D01*
X39184071Y-51167945D01*
X39159195Y-51143113D01*
X39125116Y-51080832D01*
X39130118Y-51010012D01*
X39159040Y-50964922D01*
X39179693Y-50944233D01*
X39184864Y-50939053D01*
X39273849Y-50794692D01*
X39282742Y-50767882D01*
X39325072Y-50640262D01*
X39325072Y-50640260D01*
X39327238Y-50633731D01*
X39337500Y-50533572D01*
X39337500Y-49999428D01*
X39326978Y-49898018D01*
X39273308Y-49737151D01*
X39184071Y-49592945D01*
X39149482Y-49558416D01*
X39115403Y-49496133D01*
X39112500Y-49469243D01*
X39112500Y-48839710D01*
X39132502Y-48771589D01*
X39149405Y-48750615D01*
X39190639Y-48709381D01*
X39279472Y-48562699D01*
X39330753Y-48399062D01*
X39337500Y-48325635D01*
X39337500Y-48193411D01*
X41767977Y-48193411D01*
X41776945Y-48432274D01*
X41793137Y-48509444D01*
X41821572Y-48644962D01*
X41826030Y-48666211D01*
X41913829Y-48888533D01*
X42037832Y-49092883D01*
X42041329Y-49096913D01*
X42183092Y-49260280D01*
X42194493Y-49273419D01*
X42198619Y-49276802D01*
X42198623Y-49276806D01*
X42297629Y-49357985D01*
X42379333Y-49424978D01*
X42383969Y-49427617D01*
X42383972Y-49427619D01*
X42557930Y-49526642D01*
X42587066Y-49543227D01*
X42811753Y-49624784D01*
X42817002Y-49625733D01*
X42817005Y-49625734D01*
X43042885Y-49666580D01*
X43042893Y-49666581D01*
X43046969Y-49667318D01*
X43065359Y-49668185D01*
X43070544Y-49668430D01*
X43070551Y-49668430D01*
X43072032Y-49668500D01*
X43240012Y-49668500D01*
X43418175Y-49653383D01*
X43423339Y-49652043D01*
X43423343Y-49652042D01*
X43644375Y-49594673D01*
X43644380Y-49594671D01*
X43649540Y-49593332D01*
X43717645Y-49562653D01*
X43855313Y-49500638D01*
X45577893Y-49500638D01*
X45590627Y-49721468D01*
X45592061Y-49731670D01*
X45640685Y-49947439D01*
X45643773Y-49957292D01*
X45726986Y-50162220D01*
X45731634Y-50171421D01*
X45820097Y-50315781D01*
X45830553Y-50325242D01*
X45839331Y-50321458D01*
X46617979Y-49542811D01*
X46625592Y-49528868D01*
X46625461Y-49527034D01*
X46621210Y-49520420D01*
X45843862Y-48743073D01*
X45832330Y-48736776D01*
X45820048Y-48746399D01*
X45764467Y-48827877D01*
X45759379Y-48836833D01*
X45666252Y-49037459D01*
X45662689Y-49047146D01*
X45603581Y-49260280D01*
X45601650Y-49270400D01*
X45578145Y-49490349D01*
X45577893Y-49500638D01*
X43855313Y-49500638D01*
X43862619Y-49497347D01*
X43862622Y-49497346D01*
X43867480Y-49495157D01*
X44065762Y-49361666D01*
X44088508Y-49339968D01*
X44141464Y-49289450D01*
X44238718Y-49196674D01*
X44381402Y-49004900D01*
X44385321Y-48997193D01*
X44487314Y-48796586D01*
X44487314Y-48796585D01*
X44489733Y-48791828D01*
X44536014Y-48642779D01*
X44559032Y-48568651D01*
X44559033Y-48568645D01*
X44560616Y-48563548D01*
X44583299Y-48392408D01*
X44586175Y-48370711D01*
X46195508Y-48370711D01*
X46202251Y-48383040D01*
X46977189Y-49157979D01*
X46991132Y-49165592D01*
X46992966Y-49165461D01*
X46999580Y-49161210D01*
X47778994Y-48381795D01*
X47786011Y-48368944D01*
X47778237Y-48358274D01*
X47775902Y-48356430D01*
X47767320Y-48350729D01*
X47573678Y-48243833D01*
X47564272Y-48239606D01*
X47355772Y-48165772D01*
X47345809Y-48163140D01*
X47128047Y-48124350D01*
X47117796Y-48123381D01*
X46896616Y-48120679D01*
X46886332Y-48121399D01*
X46667693Y-48154855D01*
X46657666Y-48157244D01*
X46447426Y-48225961D01*
X46437916Y-48229958D01*
X46241725Y-48332089D01*
X46233007Y-48337578D01*
X46203961Y-48359386D01*
X46195508Y-48370711D01*
X44586175Y-48370711D01*
X44591323Y-48331873D01*
X44591323Y-48331869D01*
X44592023Y-48326589D01*
X44589472Y-48258629D01*
X44587023Y-48193411D01*
X44583055Y-48087726D01*
X44544677Y-47904818D01*
X44535067Y-47859016D01*
X44535066Y-47859013D01*
X44533970Y-47853789D01*
X44446171Y-47631467D01*
X44322168Y-47427117D01*
X44262033Y-47357817D01*
X44169007Y-47250614D01*
X44169005Y-47250612D01*
X44165507Y-47246581D01*
X44161381Y-47243198D01*
X44161377Y-47243194D01*
X44010763Y-47119699D01*
X43980667Y-47095022D01*
X43976031Y-47092383D01*
X43976028Y-47092381D01*
X43777577Y-46979416D01*
X43772934Y-46976773D01*
X43548247Y-46895216D01*
X43542998Y-46894267D01*
X43542995Y-46894266D01*
X43317115Y-46853420D01*
X43317107Y-46853419D01*
X43313031Y-46852682D01*
X43294641Y-46851815D01*
X43289456Y-46851570D01*
X43289449Y-46851570D01*
X43287968Y-46851500D01*
X43119988Y-46851500D01*
X42941825Y-46866617D01*
X42936661Y-46867957D01*
X42936657Y-46867958D01*
X42715625Y-46925327D01*
X42715620Y-46925329D01*
X42710460Y-46926668D01*
X42705594Y-46928860D01*
X42497381Y-47022653D01*
X42497378Y-47022654D01*
X42492520Y-47024843D01*
X42294238Y-47158334D01*
X42290381Y-47162013D01*
X42290379Y-47162015D01*
X42256514Y-47194321D01*
X42121282Y-47323326D01*
X41978598Y-47515100D01*
X41976182Y-47519851D01*
X41976180Y-47519855D01*
X41922722Y-47625000D01*
X41870267Y-47728172D01*
X41839455Y-47827404D01*
X41800968Y-47951349D01*
X41800967Y-47951355D01*
X41799384Y-47956452D01*
X41792033Y-48011915D01*
X41772771Y-48157244D01*
X41767977Y-48193411D01*
X39337500Y-48193411D01*
X39337499Y-47812366D01*
X39337234Y-47809474D01*
X39331364Y-47745592D01*
X39330753Y-47738938D01*
X39298631Y-47636436D01*
X39281744Y-47582550D01*
X39281743Y-47582548D01*
X39279472Y-47575301D01*
X39190639Y-47428619D01*
X39094761Y-47332741D01*
X39060735Y-47270429D01*
X39065800Y-47199614D01*
X39094761Y-47154551D01*
X39184869Y-47064443D01*
X39194176Y-47052574D01*
X39275079Y-46918988D01*
X39281285Y-46905243D01*
X39328256Y-46755356D01*
X39330869Y-46742306D01*
X39335913Y-46687414D01*
X39332525Y-46675876D01*
X39331135Y-46674671D01*
X39323452Y-46673000D01*
X37389116Y-46673000D01*
X37373877Y-46677475D01*
X37372672Y-46678865D01*
X37371709Y-46683294D01*
X37377132Y-46742315D01*
X37379743Y-46755351D01*
X37426715Y-46905243D01*
X37432921Y-46918988D01*
X37513824Y-47052574D01*
X37523131Y-47064443D01*
X37613239Y-47154551D01*
X37647265Y-47216863D01*
X37642200Y-47287678D01*
X37613239Y-47332741D01*
X37517361Y-47428619D01*
X37428528Y-47575301D01*
X37426257Y-47582548D01*
X37426256Y-47582550D01*
X37409369Y-47636436D01*
X37377247Y-47738938D01*
X37370500Y-47812365D01*
X37370501Y-48325634D01*
X37370764Y-48328492D01*
X37370764Y-48328501D01*
X37373330Y-48356430D01*
X37377247Y-48399062D01*
X37379246Y-48405440D01*
X37379246Y-48405441D01*
X37400455Y-48473117D01*
X37428528Y-48562699D01*
X37517361Y-48709381D01*
X37558595Y-48750615D01*
X37592621Y-48812927D01*
X37595500Y-48839710D01*
X37595500Y-49469330D01*
X37575498Y-49537451D01*
X37558673Y-49558348D01*
X37523136Y-49593947D01*
X37434151Y-49738308D01*
X37431846Y-49745256D01*
X37431846Y-49745257D01*
X37404179Y-49828671D01*
X37380762Y-49899269D01*
X37370500Y-49999428D01*
X37370500Y-50533572D01*
X37370837Y-50536818D01*
X37370837Y-50536822D01*
X37371487Y-50543086D01*
X37381022Y-50634982D01*
X37434692Y-50795849D01*
X37523929Y-50940055D01*
X37548805Y-50964887D01*
X37582884Y-51027168D01*
X37577882Y-51097988D01*
X37548960Y-51143078D01*
X37523136Y-51168947D01*
X37434151Y-51313308D01*
X37431846Y-51320256D01*
X37431846Y-51320257D01*
X37383214Y-51466878D01*
X37380762Y-51474269D01*
X37370500Y-51574428D01*
X37370500Y-52108572D01*
X37370837Y-52111818D01*
X37370837Y-52111822D01*
X37373069Y-52133332D01*
X37381022Y-52209982D01*
X37434692Y-52370849D01*
X37523929Y-52515055D01*
X37643947Y-52634864D01*
X37648157Y-52637459D01*
X37688656Y-52694583D01*
X37695500Y-52735545D01*
X37695500Y-53511944D01*
X37694941Y-53523800D01*
X37693212Y-53531537D01*
X37693461Y-53539459D01*
X37695438Y-53602369D01*
X37695500Y-53606327D01*
X37695500Y-53635432D01*
X37696056Y-53639832D01*
X37696988Y-53651664D01*
X37698438Y-53697831D01*
X37703523Y-53715331D01*
X37704419Y-53718416D01*
X37708430Y-53737782D01*
X37711118Y-53759064D01*
X37714034Y-53766429D01*
X37714035Y-53766433D01*
X37728126Y-53802021D01*
X37731965Y-53813231D01*
X37744855Y-53857600D01*
X37755775Y-53876065D01*
X37764466Y-53893805D01*
X37772365Y-53913756D01*
X37784362Y-53930268D01*
X37799516Y-53951126D01*
X37806033Y-53961048D01*
X37825507Y-53993977D01*
X37825510Y-53993981D01*
X37829547Y-54000807D01*
X37844711Y-54015971D01*
X37857551Y-54031004D01*
X37870159Y-54048357D01*
X37894595Y-54068572D01*
X37905752Y-54077802D01*
X37914532Y-54085792D01*
X39089145Y-55260405D01*
X39123171Y-55322717D01*
X39118106Y-55393532D01*
X39075559Y-55450368D01*
X39009039Y-55475179D01*
X39000050Y-55475500D01*
X37505398Y-55475500D01*
X37437277Y-55455498D01*
X37406246Y-55427249D01*
X37404575Y-55425118D01*
X37400639Y-55418619D01*
X37279381Y-55297361D01*
X37132699Y-55208528D01*
X37125452Y-55206257D01*
X37125450Y-55206256D01*
X37059164Y-55185483D01*
X36969062Y-55157247D01*
X36895635Y-55150500D01*
X36892737Y-55150500D01*
X36638335Y-55150501D01*
X36382366Y-55150501D01*
X36379508Y-55150764D01*
X36379499Y-55150764D01*
X36345619Y-55153877D01*
X36308938Y-55157247D01*
X36302560Y-55159246D01*
X36302559Y-55159246D01*
X36152550Y-55206256D01*
X36152548Y-55206257D01*
X36145301Y-55208528D01*
X35998619Y-55297361D01*
X35902741Y-55393239D01*
X35840429Y-55427265D01*
X35769614Y-55422200D01*
X35724551Y-55393239D01*
X35634443Y-55303131D01*
X35622574Y-55293824D01*
X35488988Y-55212921D01*
X35475243Y-55206715D01*
X35325356Y-55159744D01*
X35312306Y-55157131D01*
X35257414Y-55152087D01*
X35245876Y-55155475D01*
X35244671Y-55156865D01*
X35243000Y-55164548D01*
X35243000Y-56262000D01*
X35222998Y-56330121D01*
X35169342Y-56376614D01*
X35117000Y-56388000D01*
X34099116Y-56388000D01*
X34083877Y-56392475D01*
X34082672Y-56393865D01*
X34081001Y-56401548D01*
X34081001Y-56462705D01*
X34081264Y-56468454D01*
X34087132Y-56532315D01*
X34089743Y-56545351D01*
X34136715Y-56695243D01*
X34142921Y-56708988D01*
X34223824Y-56842574D01*
X34233131Y-56854443D01*
X34343557Y-56964869D01*
X34355426Y-56974176D01*
X34475830Y-57047096D01*
X34523736Y-57099494D01*
X34535709Y-57169474D01*
X34507948Y-57234817D01*
X34476862Y-57262015D01*
X34355287Y-57337248D01*
X34350114Y-57342430D01*
X34319550Y-57373047D01*
X34234448Y-57458298D01*
X34230608Y-57464528D01*
X34230607Y-57464529D01*
X34149218Y-57596567D01*
X34144698Y-57603899D01*
X34090851Y-57766243D01*
X34090151Y-57773080D01*
X34090150Y-57773082D01*
X34085917Y-57814401D01*
X34080500Y-57867268D01*
X34080500Y-58464732D01*
X34091113Y-58567019D01*
X34093295Y-58573559D01*
X34134571Y-58697276D01*
X34145244Y-58729268D01*
X34149096Y-58735492D01*
X34149096Y-58735493D01*
X34235248Y-58874713D01*
X34232948Y-58876136D01*
X34254882Y-58930312D01*
X34255500Y-58942777D01*
X34255500Y-59146991D01*
X34235498Y-59215112D01*
X34181842Y-59261605D01*
X34176306Y-59263903D01*
X34175704Y-59264232D01*
X34167295Y-59267385D01*
X34050739Y-59354739D01*
X33963385Y-59471295D01*
X33912255Y-59607684D01*
X33905500Y-59669866D01*
X33905500Y-61066134D01*
X33912255Y-61128316D01*
X33963385Y-61264705D01*
X34050739Y-61381261D01*
X34052248Y-61382392D01*
X34084565Y-61441574D01*
X34079500Y-61512389D01*
X34050539Y-61557452D01*
X34045715Y-61562276D01*
X33969214Y-61664351D01*
X33960676Y-61679946D01*
X33915522Y-61800394D01*
X33911895Y-61815649D01*
X33906369Y-61866514D01*
X33906000Y-61873328D01*
X33906000Y-62295885D01*
X33910475Y-62311124D01*
X33911865Y-62312329D01*
X33919548Y-62314000D01*
X35042000Y-62314000D01*
X35110121Y-62334002D01*
X35156614Y-62387658D01*
X35168000Y-62440000D01*
X35168000Y-63707884D01*
X35172475Y-63723123D01*
X35173865Y-63724328D01*
X35193781Y-63728660D01*
X35256094Y-63762684D01*
X35290120Y-63824996D01*
X35293000Y-63851781D01*
X35293000Y-65734885D01*
X35297475Y-65750124D01*
X35298865Y-65751329D01*
X35306548Y-65753000D01*
X35309438Y-65753000D01*
X35315953Y-65752663D01*
X35408057Y-65743106D01*
X35421456Y-65740212D01*
X35570107Y-65690619D01*
X35583286Y-65684445D01*
X35716173Y-65602212D01*
X35733311Y-65588629D01*
X35734841Y-65590559D01*
X35786880Y-65562097D01*
X35857699Y-65567113D01*
X35894617Y-65590799D01*
X35895372Y-65589843D01*
X35901118Y-65594381D01*
X35906298Y-65599552D01*
X35912528Y-65603392D01*
X35912529Y-65603393D01*
X36044020Y-65684445D01*
X36051899Y-65689302D01*
X36214243Y-65743149D01*
X36221080Y-65743849D01*
X36221082Y-65743850D01*
X36262401Y-65748083D01*
X36315268Y-65753500D01*
X36862732Y-65753500D01*
X36865978Y-65753163D01*
X36865982Y-65753163D01*
X36900083Y-65749625D01*
X36965019Y-65742887D01*
X37040738Y-65717625D01*
X37120324Y-65691073D01*
X37120326Y-65691072D01*
X37127268Y-65688756D01*
X37174452Y-65659558D01*
X37266485Y-65602606D01*
X37272713Y-65598752D01*
X37281607Y-65589843D01*
X37388381Y-65482882D01*
X37393552Y-65477702D01*
X37411778Y-65448134D01*
X37479462Y-65338331D01*
X37479463Y-65338329D01*
X37483302Y-65332101D01*
X37505907Y-65263949D01*
X37546338Y-65205589D01*
X37611902Y-65178352D01*
X37681783Y-65190885D01*
X37733795Y-65239210D01*
X37751500Y-65303616D01*
X37751500Y-65538732D01*
X37751837Y-65541978D01*
X37751837Y-65541982D01*
X37754260Y-65565337D01*
X37762113Y-65641019D01*
X37764295Y-65647559D01*
X37808405Y-65779771D01*
X37816244Y-65803268D01*
X37820096Y-65809492D01*
X37820096Y-65809493D01*
X37878518Y-65903902D01*
X37906248Y-65948713D01*
X37911430Y-65953886D01*
X37915977Y-65959623D01*
X37914170Y-65961055D01*
X37942902Y-66013575D01*
X37937892Y-66084395D01*
X37914501Y-66120853D01*
X37915552Y-66121683D01*
X37902002Y-66138840D01*
X37819996Y-66271880D01*
X37813849Y-66285061D01*
X37764509Y-66433814D01*
X37761642Y-66447190D01*
X37752328Y-66538097D01*
X37752071Y-66543126D01*
X37756475Y-66558124D01*
X37757865Y-66559329D01*
X37765548Y-66561000D01*
X38863000Y-66561000D01*
X38931121Y-66581002D01*
X38977614Y-66634658D01*
X38989000Y-66687000D01*
X38989000Y-66943000D01*
X38968998Y-67011121D01*
X38915342Y-67057614D01*
X38863000Y-67069000D01*
X37770115Y-67069000D01*
X37754876Y-67073475D01*
X37753671Y-67074865D01*
X37752000Y-67082548D01*
X37752000Y-67085438D01*
X37752337Y-67091953D01*
X37761894Y-67184057D01*
X37764788Y-67197456D01*
X37781525Y-67247624D01*
X37784109Y-67318574D01*
X37747925Y-67379658D01*
X37684461Y-67411482D01*
X37662001Y-67413500D01*
X36519949Y-67413500D01*
X36451828Y-67393498D01*
X36430854Y-67376595D01*
X34821905Y-65767645D01*
X34787879Y-65705333D01*
X34785000Y-65678550D01*
X34785000Y-65042115D01*
X34780525Y-65026876D01*
X34779135Y-65025671D01*
X34771452Y-65024000D01*
X34130450Y-65024000D01*
X34062329Y-65003998D01*
X34041355Y-64987095D01*
X33588405Y-64534145D01*
X33554379Y-64471833D01*
X33551500Y-64445050D01*
X33551500Y-63262669D01*
X33906001Y-63262669D01*
X33906371Y-63269490D01*
X33911895Y-63320352D01*
X33915521Y-63335604D01*
X33960676Y-63456054D01*
X33969214Y-63471649D01*
X34045715Y-63573724D01*
X34058276Y-63586285D01*
X34160351Y-63662786D01*
X34175946Y-63671324D01*
X34296399Y-63716480D01*
X34308927Y-63719459D01*
X34370573Y-63754677D01*
X34403392Y-63817632D01*
X34396965Y-63888337D01*
X34358042Y-63940788D01*
X34350426Y-63946824D01*
X34240014Y-64057429D01*
X34231002Y-64068840D01*
X34148996Y-64201880D01*
X34142849Y-64215061D01*
X34093509Y-64363814D01*
X34090642Y-64377190D01*
X34081328Y-64468097D01*
X34081000Y-64474514D01*
X34081000Y-64497885D01*
X34085475Y-64513124D01*
X34086865Y-64514329D01*
X34094548Y-64516000D01*
X34766885Y-64516000D01*
X34782124Y-64511525D01*
X34783329Y-64510135D01*
X34785000Y-64502452D01*
X34785000Y-63805115D01*
X34780525Y-63789876D01*
X34779135Y-63788671D01*
X34759219Y-63784339D01*
X34696906Y-63750315D01*
X34662880Y-63688003D01*
X34660000Y-63661218D01*
X34660000Y-62840115D01*
X34655525Y-62824876D01*
X34654135Y-62823671D01*
X34646452Y-62822000D01*
X33924116Y-62822000D01*
X33908877Y-62826475D01*
X33907672Y-62827865D01*
X33906001Y-62835548D01*
X33906001Y-63262669D01*
X33551500Y-63262669D01*
X33551500Y-61169057D01*
X33552059Y-61157201D01*
X33552059Y-61157196D01*
X33553788Y-61149463D01*
X33551562Y-61078624D01*
X33551500Y-61074667D01*
X33551500Y-61045568D01*
X33550943Y-61041157D01*
X33550013Y-61029336D01*
X33548811Y-60991094D01*
X33548562Y-60983169D01*
X33542580Y-60962579D01*
X33538570Y-60943216D01*
X33536875Y-60929796D01*
X33536875Y-60929795D01*
X33535882Y-60921936D01*
X33532966Y-60914571D01*
X33532965Y-60914567D01*
X33518874Y-60878979D01*
X33515035Y-60867769D01*
X33502145Y-60823400D01*
X33491229Y-60804943D01*
X33482534Y-60787193D01*
X33474635Y-60767244D01*
X33447477Y-60729864D01*
X33440960Y-60719943D01*
X33417452Y-60680193D01*
X33402291Y-60665032D01*
X33389449Y-60649997D01*
X33384818Y-60643623D01*
X33376841Y-60632643D01*
X33341242Y-60603193D01*
X33332463Y-60595204D01*
X32019655Y-59282396D01*
X32011663Y-59273613D01*
X32011663Y-59273612D01*
X32007416Y-59266920D01*
X31955741Y-59218394D01*
X31952900Y-59215640D01*
X31932333Y-59195073D01*
X31928826Y-59192353D01*
X31919804Y-59184647D01*
X31901151Y-59167131D01*
X31886133Y-59153028D01*
X31879181Y-59149206D01*
X31867342Y-59142697D01*
X31850818Y-59131843D01*
X31840132Y-59123555D01*
X31833868Y-59118696D01*
X31826596Y-59115549D01*
X31826594Y-59115548D01*
X31791465Y-59100346D01*
X31780805Y-59095124D01*
X31747284Y-59076695D01*
X31747282Y-59076694D01*
X31740337Y-59072876D01*
X31719559Y-59067541D01*
X31700869Y-59061142D01*
X31681176Y-59052620D01*
X31635552Y-59045394D01*
X31623929Y-59042987D01*
X31595928Y-59035798D01*
X31579188Y-59031500D01*
X31557741Y-59031500D01*
X31538031Y-59029949D01*
X31524677Y-59027834D01*
X31516848Y-59026594D01*
X31470859Y-59030941D01*
X31459004Y-59031500D01*
X30470632Y-59031500D01*
X30402511Y-59011498D01*
X30364840Y-58973940D01*
X30292822Y-58862617D01*
X30292820Y-58862614D01*
X30290014Y-58858277D01*
X30139670Y-58693051D01*
X30135619Y-58689852D01*
X30135615Y-58689848D01*
X29968414Y-58557800D01*
X29968410Y-58557798D01*
X29964359Y-58554598D01*
X29923053Y-58531796D01*
X29873084Y-58481364D01*
X29858312Y-58411921D01*
X29883428Y-58345516D01*
X29910780Y-58318909D01*
X29954603Y-58287650D01*
X30089860Y-58191173D01*
X30096299Y-58184757D01*
X30186112Y-58095257D01*
X30248096Y-58033489D01*
X30258712Y-58018716D01*
X30375435Y-57856277D01*
X30378453Y-57852077D01*
X30384496Y-57839851D01*
X30475136Y-57656453D01*
X30475137Y-57656451D01*
X30477430Y-57651811D01*
X30542370Y-57438069D01*
X30571529Y-57216590D01*
X30572184Y-57189802D01*
X30573074Y-57153365D01*
X30573074Y-57153361D01*
X30573156Y-57150000D01*
X30554852Y-56927361D01*
X30500431Y-56710702D01*
X30411354Y-56505840D01*
X30371906Y-56444862D01*
X30292822Y-56322617D01*
X30292820Y-56322614D01*
X30290014Y-56318277D01*
X30286540Y-56314459D01*
X30286533Y-56314450D01*
X30142435Y-56156088D01*
X30111383Y-56092242D01*
X30119779Y-56021744D01*
X30164956Y-55966976D01*
X30191400Y-55953307D01*
X30298052Y-55913325D01*
X30313649Y-55904786D01*
X30370892Y-55861885D01*
X34081000Y-55861885D01*
X34085475Y-55877124D01*
X34086865Y-55878329D01*
X34094548Y-55880000D01*
X34716885Y-55880000D01*
X34732124Y-55875525D01*
X34733329Y-55874135D01*
X34735000Y-55866452D01*
X34735000Y-55169116D01*
X34730525Y-55153877D01*
X34729135Y-55152672D01*
X34724706Y-55151709D01*
X34665685Y-55157132D01*
X34652649Y-55159743D01*
X34502757Y-55206715D01*
X34489012Y-55212921D01*
X34355426Y-55293824D01*
X34343557Y-55303131D01*
X34233131Y-55413557D01*
X34223824Y-55425426D01*
X34142921Y-55559012D01*
X34136715Y-55572757D01*
X34089744Y-55722644D01*
X34087131Y-55735694D01*
X34081266Y-55799521D01*
X34081000Y-55805309D01*
X34081000Y-55861885D01*
X30370892Y-55861885D01*
X30415724Y-55828285D01*
X30428285Y-55815724D01*
X30504786Y-55713649D01*
X30513324Y-55698054D01*
X30558478Y-55577606D01*
X30562105Y-55562351D01*
X30567631Y-55511486D01*
X30568000Y-55504672D01*
X30568000Y-54882115D01*
X30563525Y-54866876D01*
X30562135Y-54865671D01*
X30554452Y-54864000D01*
X27870116Y-54864000D01*
X27854877Y-54868475D01*
X27853672Y-54869865D01*
X27852001Y-54877548D01*
X27852001Y-55504669D01*
X27852371Y-55511490D01*
X27857895Y-55562352D01*
X27861521Y-55577604D01*
X27906676Y-55698054D01*
X27915214Y-55713649D01*
X27991715Y-55815724D01*
X28004276Y-55828285D01*
X28106351Y-55904786D01*
X28121946Y-55913324D01*
X28230827Y-55954142D01*
X28287591Y-55996784D01*
X28312291Y-56063345D01*
X28297083Y-56132694D01*
X28277691Y-56159175D01*
X28155648Y-56286886D01*
X28150629Y-56292138D01*
X28024743Y-56476680D01*
X27930688Y-56679305D01*
X27870989Y-56894570D01*
X27847251Y-57116695D01*
X27847548Y-57121848D01*
X27847548Y-57121851D01*
X27859812Y-57334547D01*
X27860110Y-57339715D01*
X27861247Y-57344761D01*
X27861248Y-57344767D01*
X27874136Y-57401952D01*
X27909222Y-57557639D01*
X27962476Y-57688789D01*
X27990033Y-57756653D01*
X27993266Y-57764616D01*
X28034230Y-57831463D01*
X28099057Y-57937251D01*
X28109987Y-57955088D01*
X28256250Y-58123938D01*
X28428126Y-58266632D01*
X28476068Y-58294647D01*
X28501445Y-58309476D01*
X28550169Y-58361114D01*
X28563240Y-58430897D01*
X28536509Y-58496669D01*
X28496055Y-58530027D01*
X28483607Y-58536507D01*
X28479474Y-58539610D01*
X28479471Y-58539612D01*
X28309100Y-58667530D01*
X28304965Y-58670635D01*
X28301393Y-58674373D01*
X28172539Y-58809211D01*
X28150629Y-58832138D01*
X28147715Y-58836410D01*
X28147714Y-58836411D01*
X28118270Y-58879574D01*
X28024743Y-59016680D01*
X27988331Y-59095124D01*
X27933672Y-59212877D01*
X27930688Y-59219305D01*
X27870989Y-59434570D01*
X27847251Y-59656695D01*
X27847548Y-59661848D01*
X27847548Y-59661851D01*
X27859812Y-59874547D01*
X27860110Y-59879715D01*
X27861247Y-59884761D01*
X27861248Y-59884767D01*
X27882497Y-59979054D01*
X27909222Y-60097639D01*
X27993266Y-60304616D01*
X28109987Y-60495088D01*
X28256250Y-60663938D01*
X28428126Y-60806632D01*
X28490522Y-60843093D01*
X28501445Y-60849476D01*
X28550169Y-60901114D01*
X28563240Y-60970897D01*
X28536509Y-61036669D01*
X28496055Y-61070027D01*
X28483607Y-61076507D01*
X28479474Y-61079610D01*
X28479471Y-61079612D01*
X28313353Y-61204337D01*
X28304965Y-61210635D01*
X28301393Y-61214373D01*
X28154988Y-61367577D01*
X28150629Y-61372138D01*
X28147715Y-61376410D01*
X28147714Y-61376411D01*
X28113423Y-61426680D01*
X28024743Y-61556680D01*
X28009872Y-61588717D01*
X27936756Y-61746233D01*
X27930688Y-61759305D01*
X27870989Y-61974570D01*
X27847251Y-62196695D01*
X27847548Y-62201848D01*
X27847548Y-62201851D01*
X27858716Y-62395536D01*
X27860110Y-62419715D01*
X27861247Y-62424761D01*
X27861248Y-62424767D01*
X27874804Y-62484918D01*
X27909222Y-62637639D01*
X27993266Y-62844616D01*
X28109987Y-63035088D01*
X28256250Y-63203938D01*
X28428126Y-63346632D01*
X28443408Y-63355562D01*
X28501445Y-63389476D01*
X28550169Y-63441114D01*
X28563240Y-63510897D01*
X28536509Y-63576669D01*
X28496055Y-63610027D01*
X28483607Y-63616507D01*
X28479474Y-63619610D01*
X28479471Y-63619612D01*
X28334233Y-63728660D01*
X28304965Y-63750635D01*
X28301393Y-63754373D01*
X28170149Y-63891712D01*
X28150629Y-63912138D01*
X28147715Y-63916410D01*
X28147714Y-63916411D01*
X28078434Y-64017972D01*
X28024743Y-64096680D01*
X28002886Y-64143768D01*
X27938846Y-64281731D01*
X27930688Y-64299305D01*
X27870989Y-64514570D01*
X27847251Y-64736695D01*
X27847548Y-64741848D01*
X27847548Y-64741851D01*
X27856329Y-64894143D01*
X27860110Y-64959715D01*
X27861247Y-64964761D01*
X27861248Y-64964767D01*
X27876535Y-65032598D01*
X27909222Y-65177639D01*
X27960376Y-65303616D01*
X27982761Y-65358744D01*
X27993266Y-65384616D01*
X28032190Y-65448134D01*
X28104012Y-65565337D01*
X28109987Y-65575088D01*
X28256250Y-65743938D01*
X28428126Y-65886632D01*
X28451003Y-65900000D01*
X28501445Y-65929476D01*
X28550169Y-65981114D01*
X28563240Y-66050897D01*
X28536509Y-66116669D01*
X28496055Y-66150027D01*
X28483607Y-66156507D01*
X28479474Y-66159610D01*
X28479471Y-66159612D01*
X28309100Y-66287530D01*
X28304965Y-66290635D01*
X28301393Y-66294373D01*
X28157205Y-66445257D01*
X28150629Y-66452138D01*
X28147715Y-66456410D01*
X28147714Y-66456411D01*
X28099626Y-66526905D01*
X28024743Y-66636680D01*
X27987684Y-66716518D01*
X27937496Y-66824639D01*
X27930688Y-66839305D01*
X27870989Y-67054570D01*
X27847251Y-67276695D01*
X27847548Y-67281848D01*
X27847548Y-67281851D01*
X27858991Y-67480306D01*
X27860110Y-67499715D01*
X27861247Y-67504761D01*
X27861248Y-67504767D01*
X27877753Y-67578002D01*
X27909222Y-67717639D01*
X27993266Y-67924616D01*
X27997756Y-67931943D01*
X28079989Y-68066135D01*
X28109987Y-68115088D01*
X28256250Y-68283938D01*
X28428126Y-68426632D01*
X28621000Y-68539338D01*
X28625825Y-68541180D01*
X28625826Y-68541181D01*
X28676192Y-68560414D01*
X28829692Y-68619030D01*
X28834760Y-68620061D01*
X28834763Y-68620062D01*
X28916901Y-68636773D01*
X29048597Y-68663567D01*
X29053772Y-68663757D01*
X29053774Y-68663757D01*
X29266673Y-68671564D01*
X29266677Y-68671564D01*
X29271837Y-68671753D01*
X29276957Y-68671097D01*
X29276959Y-68671097D01*
X29488288Y-68644025D01*
X29488289Y-68644025D01*
X29493416Y-68643368D01*
X29532904Y-68631521D01*
X29702429Y-68580661D01*
X29702434Y-68580659D01*
X29707384Y-68579174D01*
X29907994Y-68480896D01*
X30089860Y-68351173D01*
X30119484Y-68321653D01*
X30236463Y-68205081D01*
X30248096Y-68193489D01*
X30304433Y-68115088D01*
X30344743Y-68058990D01*
X30400738Y-68015342D01*
X30471441Y-68008896D01*
X30536161Y-68043421D01*
X33258345Y-70765605D01*
X33266335Y-70774385D01*
X33270584Y-70781080D01*
X33276362Y-70786506D01*
X33276363Y-70786507D01*
X33322257Y-70829604D01*
X33325099Y-70832359D01*
X33345667Y-70852927D01*
X33349170Y-70855644D01*
X33358195Y-70863352D01*
X33391867Y-70894972D01*
X33398818Y-70898793D01*
X33398819Y-70898794D01*
X33410658Y-70905303D01*
X33427182Y-70916157D01*
X33437271Y-70923982D01*
X33444132Y-70929304D01*
X33451404Y-70932451D01*
X33451406Y-70932452D01*
X33486535Y-70947654D01*
X33497196Y-70952876D01*
X33537663Y-70975124D01*
X33558441Y-70980459D01*
X33577131Y-70986858D01*
X33596824Y-70995380D01*
X33631563Y-71000882D01*
X33642448Y-71002606D01*
X33654071Y-71005013D01*
X33682072Y-71012202D01*
X33698812Y-71016500D01*
X33720259Y-71016500D01*
X33739969Y-71018051D01*
X33761152Y-71021406D01*
X33807141Y-71017059D01*
X33818996Y-71016500D01*
X40938944Y-71016500D01*
X40950800Y-71017059D01*
X40950803Y-71017059D01*
X40958537Y-71018788D01*
X41029369Y-71016562D01*
X41033327Y-71016500D01*
X41062432Y-71016500D01*
X41066832Y-71015944D01*
X41078662Y-71015013D01*
X41121544Y-71013665D01*
X41190259Y-71031518D01*
X41238413Y-71083687D01*
X41251500Y-71139603D01*
X41251500Y-73664705D01*
X41231498Y-73732826D01*
X41191441Y-73769572D01*
X41192570Y-73771364D01*
X41188200Y-73774116D01*
X41183607Y-73776507D01*
X41179465Y-73779617D01*
X41009287Y-73907390D01*
X41004965Y-73910635D01*
X40850629Y-74072138D01*
X40743201Y-74229621D01*
X40688293Y-74274621D01*
X40617768Y-74282792D01*
X40554021Y-74251538D01*
X40533324Y-74227054D01*
X40452822Y-74102617D01*
X40452820Y-74102614D01*
X40450014Y-74098277D01*
X40299670Y-73933051D01*
X40295619Y-73929852D01*
X40295615Y-73929848D01*
X40128414Y-73797800D01*
X40128410Y-73797798D01*
X40124359Y-73794598D01*
X39928789Y-73686638D01*
X39923920Y-73684914D01*
X39923916Y-73684912D01*
X39723087Y-73613795D01*
X39723083Y-73613794D01*
X39718212Y-73612069D01*
X39713119Y-73611162D01*
X39713116Y-73611161D01*
X39503373Y-73573800D01*
X39503367Y-73573799D01*
X39498284Y-73572894D01*
X39424452Y-73571992D01*
X39280081Y-73570228D01*
X39280079Y-73570228D01*
X39274911Y-73570165D01*
X39054091Y-73603955D01*
X38841756Y-73673357D01*
X38811443Y-73689137D01*
X38653487Y-73771364D01*
X38643607Y-73776507D01*
X38639474Y-73779610D01*
X38639471Y-73779612D01*
X38469100Y-73907530D01*
X38464965Y-73910635D01*
X38461393Y-73914373D01*
X38383898Y-73995466D01*
X38322374Y-74030895D01*
X38251462Y-74027438D01*
X38193676Y-73986192D01*
X38174823Y-73952644D01*
X38133324Y-73841946D01*
X38124786Y-73826351D01*
X38048285Y-73724276D01*
X38035724Y-73711715D01*
X37933649Y-73635214D01*
X37918054Y-73626676D01*
X37797606Y-73581522D01*
X37782351Y-73577895D01*
X37731486Y-73572369D01*
X37724672Y-73572000D01*
X37102115Y-73572000D01*
X37086876Y-73576475D01*
X37085671Y-73577865D01*
X37084000Y-73585548D01*
X37084000Y-76269884D01*
X37088475Y-76285123D01*
X37089865Y-76286328D01*
X37097548Y-76287999D01*
X37724669Y-76287999D01*
X37731490Y-76287629D01*
X37782352Y-76282105D01*
X37797604Y-76278479D01*
X37918054Y-76233324D01*
X37933649Y-76224786D01*
X38035724Y-76148285D01*
X38048285Y-76135724D01*
X38124786Y-76033649D01*
X38133324Y-76018054D01*
X38174225Y-75908952D01*
X38216867Y-75852188D01*
X38283428Y-75827488D01*
X38352777Y-75842696D01*
X38387444Y-75870684D01*
X38412865Y-75900031D01*
X38412869Y-75900035D01*
X38416250Y-75903938D01*
X38588126Y-76046632D01*
X38781000Y-76159338D01*
X38989692Y-76239030D01*
X38994760Y-76240061D01*
X38994763Y-76240062D01*
X39102017Y-76261883D01*
X39208597Y-76283567D01*
X39213772Y-76283757D01*
X39213774Y-76283757D01*
X39426673Y-76291564D01*
X39426677Y-76291564D01*
X39431837Y-76291753D01*
X39436957Y-76291097D01*
X39436959Y-76291097D01*
X39648288Y-76264025D01*
X39648289Y-76264025D01*
X39653416Y-76263368D01*
X39658366Y-76261883D01*
X39862429Y-76200661D01*
X39862434Y-76200659D01*
X39867384Y-76199174D01*
X40067994Y-76100896D01*
X40249860Y-75971173D01*
X40408096Y-75813489D01*
X40420591Y-75796101D01*
X40538453Y-75632077D01*
X40539776Y-75633028D01*
X40586645Y-75589857D01*
X40656580Y-75577625D01*
X40722026Y-75605144D01*
X40749875Y-75636994D01*
X40809987Y-75735088D01*
X40956250Y-75903938D01*
X41128126Y-76046632D01*
X41321000Y-76159338D01*
X41529692Y-76239030D01*
X41534760Y-76240061D01*
X41534763Y-76240062D01*
X41642017Y-76261883D01*
X41748597Y-76283567D01*
X41753772Y-76283757D01*
X41753774Y-76283757D01*
X41966673Y-76291564D01*
X41966677Y-76291564D01*
X41971837Y-76291753D01*
X41976957Y-76291097D01*
X41976959Y-76291097D01*
X42188288Y-76264025D01*
X42188289Y-76264025D01*
X42193416Y-76263368D01*
X42198366Y-76261883D01*
X42402429Y-76200661D01*
X42402434Y-76200659D01*
X42407384Y-76199174D01*
X42607994Y-76100896D01*
X42789860Y-75971173D01*
X42948096Y-75813489D01*
X42960591Y-75796101D01*
X43078453Y-75632077D01*
X43079776Y-75633028D01*
X43126645Y-75589857D01*
X43196580Y-75577625D01*
X43262026Y-75605144D01*
X43289875Y-75636994D01*
X43349987Y-75735088D01*
X43496250Y-75903938D01*
X43668126Y-76046632D01*
X43861000Y-76159338D01*
X44069692Y-76239030D01*
X44074760Y-76240061D01*
X44074763Y-76240062D01*
X44182017Y-76261883D01*
X44288597Y-76283567D01*
X44293772Y-76283757D01*
X44293774Y-76283757D01*
X44506673Y-76291564D01*
X44506677Y-76291564D01*
X44511837Y-76291753D01*
X44516957Y-76291097D01*
X44516959Y-76291097D01*
X44728288Y-76264025D01*
X44728289Y-76264025D01*
X44733416Y-76263368D01*
X44738366Y-76261883D01*
X44942429Y-76200661D01*
X44942434Y-76200659D01*
X44947384Y-76199174D01*
X45147994Y-76100896D01*
X45329860Y-75971173D01*
X45488096Y-75813489D01*
X45500591Y-75796101D01*
X45618453Y-75632077D01*
X45619776Y-75633028D01*
X45666645Y-75589857D01*
X45736580Y-75577625D01*
X45802026Y-75605144D01*
X45829875Y-75636994D01*
X45889987Y-75735088D01*
X46036250Y-75903938D01*
X46208126Y-76046632D01*
X46401000Y-76159338D01*
X46609692Y-76239030D01*
X46614760Y-76240061D01*
X46614763Y-76240062D01*
X46722017Y-76261883D01*
X46828597Y-76283567D01*
X46833772Y-76283757D01*
X46833774Y-76283757D01*
X47046673Y-76291564D01*
X47046677Y-76291564D01*
X47051837Y-76291753D01*
X47056957Y-76291097D01*
X47056959Y-76291097D01*
X47268288Y-76264025D01*
X47268289Y-76264025D01*
X47273416Y-76263368D01*
X47278366Y-76261883D01*
X47482429Y-76200661D01*
X47482434Y-76200659D01*
X47487384Y-76199174D01*
X47687994Y-76100896D01*
X47869860Y-75971173D01*
X48028096Y-75813489D01*
X48040591Y-75796101D01*
X48158453Y-75632077D01*
X48159776Y-75633028D01*
X48206645Y-75589857D01*
X48276580Y-75577625D01*
X48342026Y-75605144D01*
X48369875Y-75636994D01*
X48429987Y-75735088D01*
X48576250Y-75903938D01*
X48748126Y-76046632D01*
X48941000Y-76159338D01*
X49149692Y-76239030D01*
X49154760Y-76240061D01*
X49154763Y-76240062D01*
X49262017Y-76261883D01*
X49368597Y-76283567D01*
X49373772Y-76283757D01*
X49373774Y-76283757D01*
X49586673Y-76291564D01*
X49586677Y-76291564D01*
X49591837Y-76291753D01*
X49596957Y-76291097D01*
X49596959Y-76291097D01*
X49808288Y-76264025D01*
X49808289Y-76264025D01*
X49813416Y-76263368D01*
X49818366Y-76261883D01*
X50022429Y-76200661D01*
X50022434Y-76200659D01*
X50027384Y-76199174D01*
X50227994Y-76100896D01*
X50409860Y-75971173D01*
X50568096Y-75813489D01*
X50580591Y-75796101D01*
X50695435Y-75636277D01*
X50698453Y-75632077D01*
X50702910Y-75623060D01*
X50795136Y-75436453D01*
X50795137Y-75436451D01*
X50797430Y-75431811D01*
X50862370Y-75218069D01*
X50891529Y-74996590D01*
X50891611Y-74993240D01*
X50893074Y-74933365D01*
X50893074Y-74933361D01*
X50893156Y-74930000D01*
X50874852Y-74707361D01*
X50820431Y-74490702D01*
X50731354Y-74285840D01*
X50610014Y-74098277D01*
X50459670Y-73933051D01*
X50455619Y-73929852D01*
X50455615Y-73929848D01*
X50288414Y-73797800D01*
X50288410Y-73797798D01*
X50284359Y-73794598D01*
X50088789Y-73686638D01*
X50083920Y-73684914D01*
X50083916Y-73684912D01*
X49883087Y-73613795D01*
X49883083Y-73613794D01*
X49878212Y-73612069D01*
X49873119Y-73611162D01*
X49873116Y-73611161D01*
X49663373Y-73573800D01*
X49663367Y-73573799D01*
X49658284Y-73572894D01*
X49584452Y-73571992D01*
X49440081Y-73570228D01*
X49440079Y-73570228D01*
X49434911Y-73570165D01*
X49214091Y-73603955D01*
X49213928Y-73602891D01*
X49148329Y-73599488D01*
X49100948Y-73569688D01*
X48275655Y-72744395D01*
X48267665Y-72735615D01*
X48267663Y-72735613D01*
X48263416Y-72728920D01*
X48253250Y-72719373D01*
X48211743Y-72680396D01*
X48208901Y-72677641D01*
X48188333Y-72657073D01*
X48185199Y-72654642D01*
X48182232Y-72652026D01*
X48183305Y-72650810D01*
X48145622Y-72598621D01*
X48141778Y-72527728D01*
X48176872Y-72466012D01*
X48198115Y-72449485D01*
X48200176Y-72448209D01*
X48211574Y-72439176D01*
X48321986Y-72328571D01*
X48331000Y-72317157D01*
X48406671Y-72194395D01*
X48459443Y-72146901D01*
X48529514Y-72135477D01*
X48594638Y-72163751D01*
X48621075Y-72194207D01*
X48697788Y-72318173D01*
X48706824Y-72329574D01*
X48817429Y-72439986D01*
X48828840Y-72448998D01*
X48961880Y-72531004D01*
X48975061Y-72537151D01*
X49123814Y-72586491D01*
X49137190Y-72589358D01*
X49228097Y-72598672D01*
X49234513Y-72599000D01*
X49257885Y-72599000D01*
X49273124Y-72594525D01*
X49274329Y-72593135D01*
X49276000Y-72585452D01*
X49276000Y-71913115D01*
X49271525Y-71897876D01*
X49270135Y-71896671D01*
X49262452Y-71895000D01*
X48565115Y-71895000D01*
X48554411Y-71898143D01*
X48492131Y-71900368D01*
X48467453Y-71895000D01*
X47370000Y-71895000D01*
X47301879Y-71874998D01*
X47255386Y-71821342D01*
X47244000Y-71769000D01*
X47244000Y-71513000D01*
X47264002Y-71444879D01*
X47317658Y-71398386D01*
X47370000Y-71387000D01*
X48462885Y-71387000D01*
X48473589Y-71383857D01*
X48535869Y-71381632D01*
X48560547Y-71387000D01*
X49658000Y-71387000D01*
X49726121Y-71407002D01*
X49772614Y-71460658D01*
X49784000Y-71513000D01*
X49784000Y-72580885D01*
X49788475Y-72596124D01*
X49789865Y-72597329D01*
X49797548Y-72599000D01*
X49825438Y-72599000D01*
X49831953Y-72598663D01*
X49924057Y-72589106D01*
X49937456Y-72586212D01*
X50086107Y-72536619D01*
X50099286Y-72530445D01*
X50232173Y-72448212D01*
X50243574Y-72439176D01*
X50353986Y-72328571D01*
X50362998Y-72317160D01*
X50436997Y-72197111D01*
X50489769Y-72149618D01*
X50559841Y-72138194D01*
X50624965Y-72166468D01*
X50651401Y-72196924D01*
X50730213Y-72324283D01*
X50745336Y-72378947D01*
X50748463Y-72378640D01*
X50766163Y-72559160D01*
X50823418Y-72731273D01*
X50827065Y-72737295D01*
X50827066Y-72737297D01*
X50837978Y-72755314D01*
X50917380Y-72886424D01*
X50922269Y-72891487D01*
X50922270Y-72891488D01*
X50943027Y-72912982D01*
X51043382Y-73016902D01*
X51195159Y-73116222D01*
X51201763Y-73118678D01*
X51201765Y-73118679D01*
X51358558Y-73176990D01*
X51358560Y-73176990D01*
X51365168Y-73179448D01*
X51448995Y-73190633D01*
X51537980Y-73202507D01*
X51537984Y-73202507D01*
X51544961Y-73203438D01*
X51551972Y-73202800D01*
X51551976Y-73202800D01*
X51694459Y-73189832D01*
X51725600Y-73186998D01*
X51732302Y-73184820D01*
X51732304Y-73184820D01*
X51891409Y-73133124D01*
X51891412Y-73133123D01*
X51898108Y-73130947D01*
X52053912Y-73038069D01*
X52185266Y-72912982D01*
X52285643Y-72761902D01*
X52347175Y-72599920D01*
X52347555Y-72598920D01*
X52347556Y-72598918D01*
X52350055Y-72592338D01*
X52351691Y-72580696D01*
X52374748Y-72416639D01*
X52374748Y-72416636D01*
X52375299Y-72412717D01*
X52375616Y-72390000D01*
X52377216Y-72390022D01*
X52394254Y-72323798D01*
X52443294Y-72244240D01*
X52481849Y-72181692D01*
X52497178Y-72135477D01*
X52533072Y-72027262D01*
X52533072Y-72027260D01*
X52535238Y-72020731D01*
X52545500Y-71920572D01*
X52545500Y-71386428D01*
X52545003Y-71381632D01*
X52535689Y-71291874D01*
X52534978Y-71285018D01*
X52481308Y-71124151D01*
X52392071Y-70979945D01*
X52367195Y-70955113D01*
X52333116Y-70892832D01*
X52338118Y-70822012D01*
X52367040Y-70776922D01*
X52387693Y-70756233D01*
X52392864Y-70751053D01*
X52481849Y-70606692D01*
X52535238Y-70445731D01*
X52545500Y-70345572D01*
X52545500Y-69811428D01*
X52534978Y-69710018D01*
X52481308Y-69549151D01*
X52392071Y-69404945D01*
X52272053Y-69285136D01*
X52254995Y-69274621D01*
X52211168Y-69247606D01*
X52127692Y-69196151D01*
X52120743Y-69193846D01*
X51973262Y-69144928D01*
X51973260Y-69144928D01*
X51966731Y-69142762D01*
X51866572Y-69132500D01*
X51257428Y-69132500D01*
X51254182Y-69132837D01*
X51254178Y-69132837D01*
X51220397Y-69136342D01*
X51156018Y-69143022D01*
X50995151Y-69196692D01*
X50850945Y-69285929D01*
X50845777Y-69291106D01*
X50845772Y-69291110D01*
X50841374Y-69295516D01*
X50779092Y-69329597D01*
X50752200Y-69332500D01*
X50335961Y-69332500D01*
X50267840Y-69312498D01*
X50246943Y-69295673D01*
X50242882Y-69291619D01*
X50237702Y-69286448D01*
X50230616Y-69282080D01*
X50216383Y-69273306D01*
X50168890Y-69220533D01*
X50156500Y-69166047D01*
X50156500Y-68904743D01*
X50548000Y-68904743D01*
X50551973Y-68918274D01*
X50559871Y-68919409D01*
X50668780Y-68887768D01*
X50683217Y-68881520D01*
X50807227Y-68808181D01*
X50819665Y-68798532D01*
X50921532Y-68696665D01*
X50931181Y-68684227D01*
X51004520Y-68560217D01*
X51010768Y-68545780D01*
X51051382Y-68405987D01*
X51053680Y-68393400D01*
X51055807Y-68366384D01*
X51056000Y-68361458D01*
X51056000Y-67943115D01*
X51051525Y-67927876D01*
X51050135Y-67926671D01*
X51042452Y-67925000D01*
X50566115Y-67925000D01*
X50550876Y-67929475D01*
X50549671Y-67930865D01*
X50548000Y-67938548D01*
X50548000Y-68904743D01*
X50156500Y-68904743D01*
X50156500Y-68676867D01*
X50174046Y-68612728D01*
X50195237Y-68576895D01*
X50209018Y-68553593D01*
X50245146Y-68429242D01*
X50251878Y-68406072D01*
X50251879Y-68406069D01*
X50253674Y-68399889D01*
X50255264Y-68379688D01*
X50256307Y-68366436D01*
X50256307Y-68366427D01*
X50256500Y-68363979D01*
X50256499Y-67550999D01*
X50276501Y-67482879D01*
X50330157Y-67436386D01*
X50382499Y-67425000D01*
X51037884Y-67425000D01*
X51053123Y-67420525D01*
X51054328Y-67419135D01*
X51055999Y-67411452D01*
X51055999Y-67184500D01*
X51076001Y-67116379D01*
X51129657Y-67069886D01*
X51181999Y-67058500D01*
X52344971Y-67058499D01*
X52361978Y-67058499D01*
X52369766Y-67057886D01*
X52391474Y-67056179D01*
X52391477Y-67056178D01*
X52397889Y-67055674D01*
X52502469Y-67025290D01*
X52543983Y-67013229D01*
X52551593Y-67011018D01*
X52610728Y-66976046D01*
X52674867Y-66958500D01*
X53275049Y-66958500D01*
X53343170Y-66978502D01*
X53364144Y-66995404D01*
X53660595Y-67291854D01*
X53694620Y-67354167D01*
X53697500Y-67380950D01*
X53697500Y-67388672D01*
X53677498Y-67456793D01*
X53623842Y-67503286D01*
X53584672Y-67513981D01*
X53478553Y-67525135D01*
X53426289Y-67530628D01*
X53426288Y-67530628D01*
X53419288Y-67531364D01*
X53247579Y-67589818D01*
X53191689Y-67624202D01*
X53099095Y-67681166D01*
X53099092Y-67681168D01*
X53093088Y-67684862D01*
X53088053Y-67689793D01*
X53088050Y-67689795D01*
X52968573Y-67806796D01*
X52963493Y-67811771D01*
X52865235Y-67964238D01*
X52862826Y-67970858D01*
X52862824Y-67970861D01*
X52805606Y-68128066D01*
X52803197Y-68134685D01*
X52780463Y-68314640D01*
X52798163Y-68495160D01*
X52855418Y-68667273D01*
X52859065Y-68673295D01*
X52859066Y-68673297D01*
X52944691Y-68814681D01*
X52949380Y-68822424D01*
X52954269Y-68827487D01*
X52954270Y-68827488D01*
X52998220Y-68872999D01*
X53075382Y-68952902D01*
X53227159Y-69052222D01*
X53233763Y-69054678D01*
X53233765Y-69054679D01*
X53390558Y-69112990D01*
X53390560Y-69112990D01*
X53397168Y-69115448D01*
X53480995Y-69126633D01*
X53569980Y-69138507D01*
X53569984Y-69138507D01*
X53576961Y-69139438D01*
X53584999Y-69138706D01*
X53585648Y-69138835D01*
X53591018Y-69138947D01*
X53590998Y-69139890D01*
X53654650Y-69152453D01*
X53662530Y-69156928D01*
X53798020Y-69240445D01*
X53805899Y-69245302D01*
X53968243Y-69299149D01*
X53975080Y-69299849D01*
X53975082Y-69299850D01*
X54016401Y-69304083D01*
X54069268Y-69309500D01*
X54616732Y-69309500D01*
X54619978Y-69309163D01*
X54619982Y-69309163D01*
X54654083Y-69305625D01*
X54719019Y-69298887D01*
X54787688Y-69275977D01*
X54874324Y-69247073D01*
X54874326Y-69247072D01*
X54881268Y-69244756D01*
X55026713Y-69154752D01*
X55031886Y-69149570D01*
X55037623Y-69145023D01*
X55039055Y-69146830D01*
X55091575Y-69118098D01*
X55162395Y-69123108D01*
X55198853Y-69146499D01*
X55199683Y-69145448D01*
X55216840Y-69158998D01*
X55349880Y-69241004D01*
X55363061Y-69247151D01*
X55511814Y-69296491D01*
X55525190Y-69299358D01*
X55616097Y-69308672D01*
X55621126Y-69308929D01*
X55636124Y-69304525D01*
X55637329Y-69303135D01*
X55639000Y-69295452D01*
X55639000Y-69290885D01*
X56147000Y-69290885D01*
X56151475Y-69306124D01*
X56152865Y-69307329D01*
X56160548Y-69309000D01*
X56163438Y-69309000D01*
X56169953Y-69308663D01*
X56262057Y-69299106D01*
X56275456Y-69296212D01*
X56424107Y-69246619D01*
X56437286Y-69240445D01*
X56570173Y-69158212D01*
X56581574Y-69149176D01*
X56691986Y-69038571D01*
X56700998Y-69027160D01*
X56783004Y-68894120D01*
X56789151Y-68880939D01*
X56838491Y-68732186D01*
X56841358Y-68718810D01*
X56850672Y-68627903D01*
X56851000Y-68621487D01*
X56851000Y-68598115D01*
X56846525Y-68582876D01*
X56845135Y-68581671D01*
X56837452Y-68580000D01*
X56165115Y-68580000D01*
X56149876Y-68584475D01*
X56148671Y-68585865D01*
X56147000Y-68593548D01*
X56147000Y-69290885D01*
X55639000Y-69290885D01*
X55639000Y-68053885D01*
X56147000Y-68053885D01*
X56151475Y-68069124D01*
X56152865Y-68070329D01*
X56160548Y-68072000D01*
X56832885Y-68072000D01*
X56848124Y-68067525D01*
X56849329Y-68066135D01*
X56851000Y-68058452D01*
X56851000Y-68030562D01*
X56850663Y-68024047D01*
X56841106Y-67931943D01*
X56838212Y-67918544D01*
X56788619Y-67769893D01*
X56782445Y-67756714D01*
X56700212Y-67623827D01*
X56691176Y-67612426D01*
X56580571Y-67502014D01*
X56569160Y-67493002D01*
X56436120Y-67410996D01*
X56422939Y-67404849D01*
X56274186Y-67355509D01*
X56260810Y-67352642D01*
X56169903Y-67343328D01*
X56164874Y-67343071D01*
X56149876Y-67347475D01*
X56148671Y-67348865D01*
X56147000Y-67356548D01*
X56147000Y-68053885D01*
X55639000Y-68053885D01*
X55639000Y-67361115D01*
X55634525Y-67345876D01*
X55633135Y-67344671D01*
X55625452Y-67343000D01*
X55622562Y-67343000D01*
X55616047Y-67343337D01*
X55523943Y-67352894D01*
X55510544Y-67355788D01*
X55361893Y-67405381D01*
X55348714Y-67411555D01*
X55209599Y-67497642D01*
X55208376Y-67495665D01*
X55152952Y-67518097D01*
X55083188Y-67504925D01*
X55031620Y-67456127D01*
X55014500Y-67392714D01*
X55014500Y-67138056D01*
X55015059Y-67126200D01*
X55015059Y-67126197D01*
X55016788Y-67118463D01*
X55014562Y-67047631D01*
X55014500Y-67043673D01*
X55014500Y-67014568D01*
X55013944Y-67010168D01*
X55013012Y-66998330D01*
X55012626Y-66986022D01*
X55011562Y-66952169D01*
X55005580Y-66931579D01*
X55001570Y-66912216D01*
X54999875Y-66898796D01*
X54999875Y-66898795D01*
X54998882Y-66890936D01*
X54995966Y-66883571D01*
X54995965Y-66883567D01*
X54981876Y-66847982D01*
X54978031Y-66836753D01*
X54976582Y-66831766D01*
X57782000Y-66831766D01*
X57782337Y-66838282D01*
X57792075Y-66932132D01*
X57794968Y-66945528D01*
X57845488Y-67096953D01*
X57851653Y-67110115D01*
X57935426Y-67245492D01*
X57944460Y-67256890D01*
X58057129Y-67369363D01*
X58068540Y-67378375D01*
X58204063Y-67461912D01*
X58217241Y-67468056D01*
X58368766Y-67518315D01*
X58382132Y-67521181D01*
X58474770Y-67530672D01*
X58481185Y-67531000D01*
X58505385Y-67531000D01*
X58520624Y-67526525D01*
X58521829Y-67525135D01*
X58523500Y-67517452D01*
X58523500Y-66820115D01*
X58519025Y-66804876D01*
X58517635Y-66803671D01*
X58509952Y-66802000D01*
X57800115Y-66802000D01*
X57784876Y-66806475D01*
X57783671Y-66807865D01*
X57782000Y-66815548D01*
X57782000Y-66831766D01*
X54976582Y-66831766D01*
X54970820Y-66811934D01*
X54965145Y-66792399D01*
X54954230Y-66773943D01*
X54945531Y-66756187D01*
X54943772Y-66751745D01*
X54937635Y-66736244D01*
X54910480Y-66698868D01*
X54903965Y-66688949D01*
X54884492Y-66656023D01*
X54884489Y-66656019D01*
X54880452Y-66649193D01*
X54865291Y-66634032D01*
X54852449Y-66618997D01*
X54850272Y-66616000D01*
X54839841Y-66601643D01*
X54804248Y-66572198D01*
X54795468Y-66564208D01*
X54591687Y-66360427D01*
X54557661Y-66298115D01*
X54559251Y-66275885D01*
X57782000Y-66275885D01*
X57786475Y-66291124D01*
X57787865Y-66292329D01*
X57795548Y-66294000D01*
X58505385Y-66294000D01*
X58520624Y-66289525D01*
X58521829Y-66288135D01*
X58523500Y-66280452D01*
X58523500Y-65583115D01*
X58519025Y-65567876D01*
X58517635Y-65566671D01*
X58509952Y-65565000D01*
X58481234Y-65565000D01*
X58474718Y-65565337D01*
X58380868Y-65575075D01*
X58367472Y-65577968D01*
X58216047Y-65628488D01*
X58202885Y-65634653D01*
X58067508Y-65718426D01*
X58056110Y-65727460D01*
X57943637Y-65840129D01*
X57934625Y-65851540D01*
X57851088Y-65987063D01*
X57844944Y-66000241D01*
X57794685Y-66151766D01*
X57791819Y-66165132D01*
X57782328Y-66257770D01*
X57782000Y-66264185D01*
X57782000Y-66275885D01*
X54559251Y-66275885D01*
X54562726Y-66227300D01*
X54595948Y-66182207D01*
X54593912Y-66180069D01*
X54625459Y-66150027D01*
X54725266Y-66054982D01*
X54825643Y-65903902D01*
X54870547Y-65785693D01*
X54887555Y-65740920D01*
X54887556Y-65740918D01*
X54890055Y-65734338D01*
X54892404Y-65717625D01*
X54914748Y-65558639D01*
X54914748Y-65558636D01*
X54915299Y-65554717D01*
X54915616Y-65532000D01*
X54895397Y-65351745D01*
X54881216Y-65311022D01*
X54838064Y-65187106D01*
X54838062Y-65187103D01*
X54835745Y-65180448D01*
X54829065Y-65169757D01*
X54743359Y-65032598D01*
X54739626Y-65026624D01*
X54719947Y-65006807D01*
X54616778Y-64902915D01*
X54616774Y-64902912D01*
X54611815Y-64897918D01*
X54601605Y-64891438D01*
X54522914Y-64841500D01*
X54458666Y-64800727D01*
X54429463Y-64790328D01*
X54294425Y-64742243D01*
X54294420Y-64742242D01*
X54287790Y-64739881D01*
X54280802Y-64739048D01*
X54280799Y-64739047D01*
X54157698Y-64724368D01*
X54107680Y-64718404D01*
X54100677Y-64719140D01*
X54100676Y-64719140D01*
X53934288Y-64736628D01*
X53934286Y-64736629D01*
X53927288Y-64737364D01*
X53842347Y-64766280D01*
X53762249Y-64793547D01*
X53762246Y-64793548D01*
X53755579Y-64795818D01*
X53749581Y-64799508D01*
X53749579Y-64799509D01*
X53711691Y-64822818D01*
X53645669Y-64841500D01*
X53057500Y-64841500D01*
X52989379Y-64821498D01*
X52942886Y-64767842D01*
X52931500Y-64715501D01*
X52931499Y-64513496D01*
X52931499Y-64511022D01*
X52928674Y-64475111D01*
X52926880Y-64468937D01*
X52926879Y-64468930D01*
X52888012Y-64335153D01*
X52888012Y-64264847D01*
X52926877Y-64131075D01*
X52926878Y-64131070D01*
X52928674Y-64124889D01*
X52929992Y-64108145D01*
X52931307Y-64091438D01*
X52931308Y-64091425D01*
X52931500Y-64088979D01*
X52931499Y-63711022D01*
X52931190Y-63707094D01*
X52931239Y-63706863D01*
X52931208Y-63706085D01*
X52931404Y-63706077D01*
X52945788Y-63637615D01*
X52995632Y-63587057D01*
X53056802Y-63571213D01*
X53142941Y-63571213D01*
X53211062Y-63591215D01*
X53232036Y-63608118D01*
X53751739Y-64127821D01*
X53759379Y-64136217D01*
X53763521Y-64142743D01*
X53769298Y-64148168D01*
X53813617Y-64189786D01*
X53816459Y-64192541D01*
X53836383Y-64212465D01*
X53839642Y-64214993D01*
X53848670Y-64222703D01*
X53875445Y-64247847D01*
X53875449Y-64247850D01*
X53881223Y-64253272D01*
X53888168Y-64257090D01*
X53888172Y-64257093D01*
X53899208Y-64263160D01*
X53915725Y-64274009D01*
X53931945Y-64286590D01*
X53961328Y-64299305D01*
X53972917Y-64304320D01*
X53983578Y-64309542D01*
X54022714Y-64331058D01*
X54038664Y-64335153D01*
X54042594Y-64336162D01*
X54061294Y-64342564D01*
X54080127Y-64350714D01*
X54087956Y-64351954D01*
X54087966Y-64351957D01*
X54124225Y-64357700D01*
X54135847Y-64360106D01*
X54144942Y-64362441D01*
X54179104Y-64371212D01*
X54199625Y-64371212D01*
X54219337Y-64372763D01*
X54239603Y-64375973D01*
X54247495Y-64375227D01*
X54284055Y-64371771D01*
X54295913Y-64371212D01*
X54585314Y-64371212D01*
X57126332Y-64371213D01*
X57194453Y-64391215D01*
X57215427Y-64408118D01*
X57333051Y-64525742D01*
X57340690Y-64534136D01*
X57344832Y-64540663D01*
X57350610Y-64546089D01*
X57352584Y-64548475D01*
X57380594Y-64613712D01*
X57381500Y-64628791D01*
X57381500Y-64666502D01*
X57384438Y-64703831D01*
X57403561Y-64769653D01*
X57423972Y-64839908D01*
X57430855Y-64863601D01*
X57434892Y-64870427D01*
X57511509Y-64999980D01*
X57511511Y-64999983D01*
X57515547Y-65006807D01*
X57633193Y-65124453D01*
X57640017Y-65128489D01*
X57640020Y-65128491D01*
X57714598Y-65172596D01*
X57776399Y-65209145D01*
X57784010Y-65211356D01*
X57784012Y-65211357D01*
X57836231Y-65226528D01*
X57936169Y-65255562D01*
X57942574Y-65256066D01*
X57942579Y-65256067D01*
X57971042Y-65258307D01*
X57971050Y-65258307D01*
X57973498Y-65258500D01*
X59131502Y-65258500D01*
X59133950Y-65258307D01*
X59133958Y-65258307D01*
X59162421Y-65256067D01*
X59162426Y-65256066D01*
X59168831Y-65255562D01*
X59268769Y-65226528D01*
X59320988Y-65211357D01*
X59320990Y-65211356D01*
X59328601Y-65209145D01*
X59390402Y-65172596D01*
X59464980Y-65128491D01*
X59464983Y-65128489D01*
X59471807Y-65124453D01*
X59589453Y-65006807D01*
X59591706Y-65002998D01*
X59647996Y-64962345D01*
X59718888Y-64958494D01*
X59780609Y-64993582D01*
X59787276Y-65001276D01*
X59790547Y-65006807D01*
X59908193Y-65124453D01*
X59915017Y-65128489D01*
X59915020Y-65128491D01*
X59989598Y-65172596D01*
X60051399Y-65209145D01*
X60059010Y-65211356D01*
X60059012Y-65211357D01*
X60111231Y-65226528D01*
X60211169Y-65255562D01*
X60217574Y-65256066D01*
X60217579Y-65256067D01*
X60246042Y-65258307D01*
X60246050Y-65258307D01*
X60248498Y-65258500D01*
X61406502Y-65258500D01*
X61408950Y-65258307D01*
X61408958Y-65258307D01*
X61437421Y-65256067D01*
X61437426Y-65256066D01*
X61443831Y-65255562D01*
X61515725Y-65234675D01*
X61586722Y-65234878D01*
X61646338Y-65273432D01*
X61675646Y-65338097D01*
X61665342Y-65408342D01*
X61639973Y-65444767D01*
X61416681Y-65668059D01*
X61354369Y-65702085D01*
X61283554Y-65697020D01*
X61261469Y-65686223D01*
X61260235Y-65685462D01*
X61207348Y-65652862D01*
X61176152Y-65633632D01*
X61176149Y-65633631D01*
X61169920Y-65629791D01*
X61004809Y-65575026D01*
X60997973Y-65574326D01*
X60997970Y-65574325D01*
X60946474Y-65569049D01*
X60902072Y-65564500D01*
X60302928Y-65564500D01*
X60299682Y-65564837D01*
X60299678Y-65564837D01*
X60205765Y-65574581D01*
X60205761Y-65574582D01*
X60198907Y-65575293D01*
X60192371Y-65577474D01*
X60192369Y-65577474D01*
X60127264Y-65599195D01*
X60033893Y-65630346D01*
X59885969Y-65721884D01*
X59778899Y-65829141D01*
X59716618Y-65863220D01*
X59645798Y-65858217D01*
X59600709Y-65829296D01*
X59497871Y-65726637D01*
X59486460Y-65717625D01*
X59350937Y-65634088D01*
X59337759Y-65627944D01*
X59186234Y-65577685D01*
X59172868Y-65574819D01*
X59080230Y-65565328D01*
X59073815Y-65565000D01*
X59049615Y-65565000D01*
X59034376Y-65569475D01*
X59033171Y-65570865D01*
X59031500Y-65578548D01*
X59031500Y-67512885D01*
X59035975Y-67528124D01*
X59037365Y-67529329D01*
X59045048Y-67531000D01*
X59073766Y-67531000D01*
X59080282Y-67530663D01*
X59174132Y-67520925D01*
X59187528Y-67518032D01*
X59338953Y-67467512D01*
X59352115Y-67461347D01*
X59487492Y-67377574D01*
X59498890Y-67368540D01*
X59600393Y-67266860D01*
X59662676Y-67232781D01*
X59733496Y-67237784D01*
X59778583Y-67266704D01*
X59886997Y-67374929D01*
X59893227Y-67378769D01*
X59893228Y-67378770D01*
X59971957Y-67427299D01*
X60035080Y-67466209D01*
X60200191Y-67520974D01*
X60207027Y-67521674D01*
X60207030Y-67521675D01*
X60254370Y-67526525D01*
X60302928Y-67531500D01*
X60902072Y-67531500D01*
X60905318Y-67531163D01*
X60905322Y-67531163D01*
X60999235Y-67521419D01*
X60999239Y-67521418D01*
X61006093Y-67520707D01*
X61012629Y-67518526D01*
X61012631Y-67518526D01*
X61147287Y-67473601D01*
X61171107Y-67465654D01*
X61319031Y-67374116D01*
X61340468Y-67352642D01*
X61441929Y-67251003D01*
X61443763Y-67252833D01*
X61491782Y-67218796D01*
X61562706Y-67215572D01*
X61624113Y-67251203D01*
X61656509Y-67314378D01*
X61652836Y-67376053D01*
X61619765Y-67480306D01*
X61602500Y-67634227D01*
X61602500Y-68110074D01*
X61582498Y-68178195D01*
X61565596Y-68199169D01*
X61087171Y-68677595D01*
X61024858Y-68711620D01*
X60998075Y-68714500D01*
X57973843Y-68714500D01*
X57960236Y-68713763D01*
X57928738Y-68710341D01*
X57928733Y-68710341D01*
X57922612Y-68709676D01*
X57896362Y-68711973D01*
X57872612Y-68714050D01*
X57867786Y-68714379D01*
X57865314Y-68714500D01*
X57862231Y-68714500D01*
X57850262Y-68715674D01*
X57819494Y-68718690D01*
X57818181Y-68718812D01*
X57773916Y-68722685D01*
X57725587Y-68726913D01*
X57720468Y-68728400D01*
X57715167Y-68728920D01*
X57626166Y-68755791D01*
X57625033Y-68756126D01*
X57541586Y-68780370D01*
X57541582Y-68780372D01*
X57535664Y-68782091D01*
X57530932Y-68784544D01*
X57525831Y-68786084D01*
X57520388Y-68788978D01*
X57443740Y-68829731D01*
X57442574Y-68830343D01*
X57393981Y-68855532D01*
X57360074Y-68873108D01*
X57355911Y-68876431D01*
X57351204Y-68878934D01*
X57279082Y-68937755D01*
X57278226Y-68938446D01*
X57239027Y-68969738D01*
X57236523Y-68972242D01*
X57235805Y-68972884D01*
X57231472Y-68976585D01*
X57197938Y-69003935D01*
X57194011Y-69008682D01*
X57194009Y-69008684D01*
X57168713Y-69039262D01*
X57160723Y-69048042D01*
X55210621Y-70998145D01*
X55200478Y-71007247D01*
X55170975Y-71030968D01*
X55160477Y-71043479D01*
X55138709Y-71069421D01*
X55135528Y-71073069D01*
X55133885Y-71074881D01*
X55131691Y-71077075D01*
X55104358Y-71110349D01*
X55103696Y-71111147D01*
X55043846Y-71182474D01*
X55041278Y-71187144D01*
X55037897Y-71191261D01*
X55018359Y-71227700D01*
X54994023Y-71273086D01*
X54993394Y-71274245D01*
X54951538Y-71350381D01*
X54951535Y-71350389D01*
X54948567Y-71355787D01*
X54946955Y-71360869D01*
X54944438Y-71365563D01*
X54917238Y-71454531D01*
X54916918Y-71455559D01*
X54888765Y-71544306D01*
X54888171Y-71549602D01*
X54886613Y-71554698D01*
X54878453Y-71635034D01*
X54877218Y-71647187D01*
X54877089Y-71648393D01*
X54871500Y-71698227D01*
X54871500Y-71701754D01*
X54871445Y-71702739D01*
X54870998Y-71708419D01*
X54866626Y-71751462D01*
X54867206Y-71757593D01*
X54870941Y-71797109D01*
X54871500Y-71808967D01*
X54871500Y-71925500D01*
X54851498Y-71993621D01*
X54797842Y-72040114D01*
X54745500Y-72051500D01*
X54731866Y-72051500D01*
X54669684Y-72058255D01*
X54533295Y-72109385D01*
X54416739Y-72196739D01*
X54329385Y-72313295D01*
X54278255Y-72449684D01*
X54271500Y-72511866D01*
X54271500Y-74808134D01*
X54278255Y-74870316D01*
X54329385Y-75006705D01*
X54416739Y-75123261D01*
X54533295Y-75210615D01*
X54669684Y-75261745D01*
X54731866Y-75268500D01*
X55009022Y-75268500D01*
X55077143Y-75288502D01*
X55123636Y-75342158D01*
X55133740Y-75412432D01*
X55106106Y-75474815D01*
X54998217Y-75605230D01*
X54995288Y-75610647D01*
X54995286Y-75610650D01*
X54902416Y-75782410D01*
X54902414Y-75782415D01*
X54899486Y-75787830D01*
X54838102Y-75986129D01*
X54837458Y-75992254D01*
X54837458Y-75992255D01*
X54819704Y-76161181D01*
X54816404Y-76192575D01*
X54835218Y-76399303D01*
X54836956Y-76405209D01*
X54836957Y-76405213D01*
X54855364Y-76467753D01*
X54893827Y-76598440D01*
X54896681Y-76603899D01*
X54987241Y-76777125D01*
X55001075Y-76846761D01*
X54975065Y-76912821D01*
X54917469Y-76954333D01*
X54875579Y-76961500D01*
X32629684Y-76961500D01*
X32561563Y-76941498D01*
X32515070Y-76887842D01*
X32504966Y-76817568D01*
X32534460Y-76752988D01*
X32561059Y-76729828D01*
X32659728Y-76665751D01*
X32665065Y-76661874D01*
X32903835Y-76468522D01*
X32912300Y-76456267D01*
X32905966Y-76445176D01*
X30121922Y-73661132D01*
X30844408Y-73661132D01*
X30844539Y-73662965D01*
X30848790Y-73669580D01*
X33264310Y-76085100D01*
X33277386Y-76092241D01*
X33287753Y-76084784D01*
X33481877Y-75845061D01*
X33485747Y-75839735D01*
X33495531Y-75824669D01*
X35472001Y-75824669D01*
X35472371Y-75831490D01*
X35477895Y-75882352D01*
X35481521Y-75897604D01*
X35526676Y-76018054D01*
X35535214Y-76033649D01*
X35611715Y-76135724D01*
X35624276Y-76148285D01*
X35726351Y-76224786D01*
X35741946Y-76233324D01*
X35862394Y-76278478D01*
X35877649Y-76282105D01*
X35928514Y-76287631D01*
X35935328Y-76288000D01*
X36557885Y-76288000D01*
X36573124Y-76283525D01*
X36574329Y-76282135D01*
X36576000Y-76274452D01*
X36576000Y-75202115D01*
X36571525Y-75186876D01*
X36570135Y-75185671D01*
X36562452Y-75184000D01*
X35490116Y-75184000D01*
X35474877Y-75188475D01*
X35473672Y-75189865D01*
X35472001Y-75197548D01*
X35472001Y-75824669D01*
X33495531Y-75824669D01*
X33693831Y-75519313D01*
X33697128Y-75513603D01*
X33870578Y-75173189D01*
X33873260Y-75167164D01*
X34010171Y-74810498D01*
X34012212Y-74804216D01*
X34051421Y-74657885D01*
X35472000Y-74657885D01*
X35476475Y-74673124D01*
X35477865Y-74674329D01*
X35485548Y-74676000D01*
X36557885Y-74676000D01*
X36573124Y-74671525D01*
X36574329Y-74670135D01*
X36576000Y-74662452D01*
X36576000Y-73590116D01*
X36571525Y-73574877D01*
X36570135Y-73573672D01*
X36562452Y-73572001D01*
X35935331Y-73572001D01*
X35928510Y-73572371D01*
X35877648Y-73577895D01*
X35862396Y-73581521D01*
X35741946Y-73626676D01*
X35726351Y-73635214D01*
X35624276Y-73711715D01*
X35611715Y-73724276D01*
X35535214Y-73826351D01*
X35526676Y-73841946D01*
X35481522Y-73962394D01*
X35477895Y-73977649D01*
X35472369Y-74028514D01*
X35472000Y-74035328D01*
X35472000Y-74657885D01*
X34051421Y-74657885D01*
X34111094Y-74435184D01*
X34112465Y-74428734D01*
X34172234Y-74051371D01*
X34172920Y-74044833D01*
X34192916Y-73663301D01*
X34192916Y-73656699D01*
X34172920Y-73275167D01*
X34172234Y-73268629D01*
X34112465Y-72891266D01*
X34111094Y-72884816D01*
X34012212Y-72515784D01*
X34010171Y-72509502D01*
X33873260Y-72152836D01*
X33870578Y-72146811D01*
X33697128Y-71806397D01*
X33693831Y-71800687D01*
X33485747Y-71480265D01*
X33481877Y-71474939D01*
X33288522Y-71236165D01*
X33276267Y-71227700D01*
X33265176Y-71234034D01*
X30852022Y-73647188D01*
X30844408Y-73661132D01*
X30121922Y-73661132D01*
X27695690Y-71234900D01*
X27682614Y-71227759D01*
X27672247Y-71235216D01*
X27478123Y-71474939D01*
X27474253Y-71480265D01*
X27410173Y-71578940D01*
X27356296Y-71625177D01*
X27285975Y-71634947D01*
X27221535Y-71605147D01*
X27183436Y-71545239D01*
X27178500Y-71510316D01*
X27178500Y-70863733D01*
X28047700Y-70863733D01*
X28054034Y-70874824D01*
X30467188Y-73287978D01*
X30481132Y-73295592D01*
X30482965Y-73295461D01*
X30489580Y-73291210D01*
X32905100Y-70875690D01*
X32912241Y-70862614D01*
X32904784Y-70852247D01*
X32665065Y-70658126D01*
X32659728Y-70654249D01*
X32339315Y-70446170D01*
X32333606Y-70442873D01*
X31993189Y-70269422D01*
X31987164Y-70266740D01*
X31630498Y-70129829D01*
X31624216Y-70127788D01*
X31255184Y-70028906D01*
X31248734Y-70027535D01*
X30871371Y-69967766D01*
X30864833Y-69967080D01*
X30483301Y-69947084D01*
X30476699Y-69947084D01*
X30095167Y-69967080D01*
X30088629Y-69967766D01*
X29711266Y-70027535D01*
X29704816Y-70028906D01*
X29335784Y-70127788D01*
X29329502Y-70129829D01*
X28972836Y-70266740D01*
X28966811Y-70269422D01*
X28626397Y-70442872D01*
X28620687Y-70446169D01*
X28300265Y-70654253D01*
X28294939Y-70658123D01*
X28056165Y-70851478D01*
X28047700Y-70863733D01*
X27178500Y-70863733D01*
X27178500Y-54337885D01*
X27852000Y-54337885D01*
X27856475Y-54353124D01*
X27857865Y-54354329D01*
X27865548Y-54356000D01*
X28937885Y-54356000D01*
X28953124Y-54351525D01*
X28954329Y-54350135D01*
X28956000Y-54342452D01*
X28956000Y-54337885D01*
X29464000Y-54337885D01*
X29468475Y-54353124D01*
X29469865Y-54354329D01*
X29477548Y-54356000D01*
X30549884Y-54356000D01*
X30565123Y-54351525D01*
X30566328Y-54350135D01*
X30567999Y-54342452D01*
X30567999Y-53715331D01*
X30567629Y-53708510D01*
X30562105Y-53657648D01*
X30558479Y-53642396D01*
X30513324Y-53521946D01*
X30504786Y-53506351D01*
X30428285Y-53404276D01*
X30415724Y-53391715D01*
X30313649Y-53315214D01*
X30298054Y-53306676D01*
X30177606Y-53261522D01*
X30162351Y-53257895D01*
X30111486Y-53252369D01*
X30104672Y-53252000D01*
X29482115Y-53252000D01*
X29466876Y-53256475D01*
X29465671Y-53257865D01*
X29464000Y-53265548D01*
X29464000Y-54337885D01*
X28956000Y-54337885D01*
X28956000Y-53270116D01*
X28951525Y-53254877D01*
X28950135Y-53253672D01*
X28942452Y-53252001D01*
X28315331Y-53252001D01*
X28308510Y-53252371D01*
X28257648Y-53257895D01*
X28242396Y-53261521D01*
X28121946Y-53306676D01*
X28106351Y-53315214D01*
X28004276Y-53391715D01*
X27991715Y-53404276D01*
X27915214Y-53506351D01*
X27906676Y-53521946D01*
X27861522Y-53642394D01*
X27857895Y-53657649D01*
X27852369Y-53708514D01*
X27852000Y-53715328D01*
X27852000Y-54337885D01*
X27178500Y-54337885D01*
X27178500Y-52108572D01*
X35084500Y-52108572D01*
X35084837Y-52111818D01*
X35084837Y-52111822D01*
X35087069Y-52133332D01*
X35095022Y-52209982D01*
X35148692Y-52370849D01*
X35152542Y-52377070D01*
X35152545Y-52377077D01*
X35236213Y-52512283D01*
X35251336Y-52566947D01*
X35254463Y-52566640D01*
X35272163Y-52747160D01*
X35329418Y-52919273D01*
X35333065Y-52925295D01*
X35333066Y-52925297D01*
X35413401Y-53057946D01*
X35423380Y-53074424D01*
X35549382Y-53204902D01*
X35597163Y-53236169D01*
X35692519Y-53298568D01*
X35701159Y-53304222D01*
X35707763Y-53306678D01*
X35707765Y-53306679D01*
X35864558Y-53364990D01*
X35864560Y-53364990D01*
X35871168Y-53367448D01*
X35954995Y-53378633D01*
X36043980Y-53390507D01*
X36043984Y-53390507D01*
X36050961Y-53391438D01*
X36057972Y-53390800D01*
X36057976Y-53390800D01*
X36200459Y-53377832D01*
X36231600Y-53374998D01*
X36238302Y-53372820D01*
X36238304Y-53372820D01*
X36397409Y-53321124D01*
X36397412Y-53321123D01*
X36404108Y-53318947D01*
X36500513Y-53261478D01*
X36553860Y-53229677D01*
X36553862Y-53229676D01*
X36559912Y-53226069D01*
X36691266Y-53100982D01*
X36791643Y-52949902D01*
X36848046Y-52801421D01*
X36853555Y-52786920D01*
X36853556Y-52786918D01*
X36856055Y-52780338D01*
X36857092Y-52772958D01*
X36880748Y-52604639D01*
X36880748Y-52604636D01*
X36881299Y-52600717D01*
X36881616Y-52578000D01*
X36883216Y-52578022D01*
X36900254Y-52511798D01*
X36903139Y-52507117D01*
X36987849Y-52369692D01*
X36997209Y-52341474D01*
X37039072Y-52215262D01*
X37039072Y-52215260D01*
X37041238Y-52208731D01*
X37051500Y-52108572D01*
X37051500Y-51574428D01*
X37040978Y-51473018D01*
X36987308Y-51312151D01*
X36898071Y-51167945D01*
X36873195Y-51143113D01*
X36839116Y-51080832D01*
X36844118Y-51010012D01*
X36873040Y-50964922D01*
X36893693Y-50944233D01*
X36898864Y-50939053D01*
X36987849Y-50794692D01*
X36996742Y-50767882D01*
X37039072Y-50640262D01*
X37039072Y-50640260D01*
X37041238Y-50633731D01*
X37051500Y-50533572D01*
X37051500Y-49999428D01*
X37040978Y-49898018D01*
X36987308Y-49737151D01*
X36898071Y-49592945D01*
X36863482Y-49558416D01*
X36829403Y-49496133D01*
X36826500Y-49469243D01*
X36826500Y-48839710D01*
X36846502Y-48771589D01*
X36863405Y-48750615D01*
X36904639Y-48709381D01*
X36993472Y-48562699D01*
X37044753Y-48399062D01*
X37051500Y-48325635D01*
X37051499Y-47812366D01*
X37051234Y-47809474D01*
X37045364Y-47745592D01*
X37044753Y-47738938D01*
X37012631Y-47636436D01*
X36995744Y-47582550D01*
X36995743Y-47582548D01*
X36993472Y-47575301D01*
X36904639Y-47428619D01*
X36808761Y-47332741D01*
X36774735Y-47270429D01*
X36779800Y-47199614D01*
X36808761Y-47154551D01*
X36898869Y-47064443D01*
X36908176Y-47052574D01*
X36989079Y-46918988D01*
X36995285Y-46905243D01*
X37042256Y-46755356D01*
X37044869Y-46742306D01*
X37049913Y-46687414D01*
X37046525Y-46675876D01*
X37045135Y-46674671D01*
X37037452Y-46673000D01*
X35103116Y-46673000D01*
X35087877Y-46677475D01*
X35086672Y-46678865D01*
X35085709Y-46683294D01*
X35091132Y-46742315D01*
X35093743Y-46755351D01*
X35140715Y-46905243D01*
X35146921Y-46918988D01*
X35227824Y-47052574D01*
X35237131Y-47064443D01*
X35327239Y-47154551D01*
X35361265Y-47216863D01*
X35356200Y-47287678D01*
X35327239Y-47332741D01*
X35231361Y-47428619D01*
X35142528Y-47575301D01*
X35140257Y-47582548D01*
X35140256Y-47582550D01*
X35123369Y-47636436D01*
X35091247Y-47738938D01*
X35084500Y-47812365D01*
X35084501Y-48325634D01*
X35084764Y-48328492D01*
X35084764Y-48328501D01*
X35087330Y-48356430D01*
X35091247Y-48399062D01*
X35093246Y-48405440D01*
X35093246Y-48405441D01*
X35114455Y-48473117D01*
X35142528Y-48562699D01*
X35231361Y-48709381D01*
X35272595Y-48750615D01*
X35306621Y-48812927D01*
X35309500Y-48839710D01*
X35309500Y-49469330D01*
X35289498Y-49537451D01*
X35272673Y-49558348D01*
X35237136Y-49593947D01*
X35148151Y-49738308D01*
X35145846Y-49745256D01*
X35145846Y-49745257D01*
X35118179Y-49828671D01*
X35094762Y-49899269D01*
X35084500Y-49999428D01*
X35084500Y-50533572D01*
X35084837Y-50536818D01*
X35084837Y-50536822D01*
X35085487Y-50543086D01*
X35095022Y-50634982D01*
X35148692Y-50795849D01*
X35237929Y-50940055D01*
X35262805Y-50964887D01*
X35296884Y-51027168D01*
X35291882Y-51097988D01*
X35262960Y-51143078D01*
X35237136Y-51168947D01*
X35148151Y-51313308D01*
X35145846Y-51320256D01*
X35145846Y-51320257D01*
X35097214Y-51466878D01*
X35094762Y-51474269D01*
X35084500Y-51574428D01*
X35084500Y-52108572D01*
X27178500Y-52108572D01*
X27178500Y-51057386D01*
X28047759Y-51057386D01*
X28055216Y-51067753D01*
X28294935Y-51261874D01*
X28300272Y-51265751D01*
X28620685Y-51473830D01*
X28626394Y-51477127D01*
X28966811Y-51650578D01*
X28972836Y-51653260D01*
X29329502Y-51790171D01*
X29335784Y-51792212D01*
X29704816Y-51891094D01*
X29711266Y-51892465D01*
X30088629Y-51952234D01*
X30095167Y-51952920D01*
X30476699Y-51972916D01*
X30483301Y-51972916D01*
X30864833Y-51952920D01*
X30871371Y-51952234D01*
X31248734Y-51892465D01*
X31255184Y-51891094D01*
X31624216Y-51792212D01*
X31630498Y-51790171D01*
X31987164Y-51653260D01*
X31993189Y-51650578D01*
X32333606Y-51477127D01*
X32339315Y-51473830D01*
X32659728Y-51265751D01*
X32665065Y-51261874D01*
X32903835Y-51068522D01*
X32912300Y-51056267D01*
X32905966Y-51045176D01*
X30492812Y-48632022D01*
X30478868Y-48624408D01*
X30477035Y-48624539D01*
X30470420Y-48628790D01*
X28054900Y-51044310D01*
X28047759Y-51057386D01*
X27178500Y-51057386D01*
X27178500Y-50409684D01*
X27198502Y-50341563D01*
X27252158Y-50295070D01*
X27322432Y-50284966D01*
X27387012Y-50314460D01*
X27410173Y-50341060D01*
X27474253Y-50439735D01*
X27478123Y-50445061D01*
X27671478Y-50683835D01*
X27683733Y-50692300D01*
X27694824Y-50685966D01*
X30119658Y-48261132D01*
X30844408Y-48261132D01*
X30844539Y-48262965D01*
X30848790Y-48269580D01*
X33264310Y-50685100D01*
X33277386Y-50692241D01*
X33287753Y-50684784D01*
X33481877Y-50445061D01*
X33485747Y-50439735D01*
X33693831Y-50119313D01*
X33697128Y-50113603D01*
X33870578Y-49773189D01*
X33873260Y-49767164D01*
X34010171Y-49410498D01*
X34012212Y-49404216D01*
X34111094Y-49035184D01*
X34112465Y-49028734D01*
X34172234Y-48651371D01*
X34172920Y-48644833D01*
X34192916Y-48263301D01*
X34192916Y-48256699D01*
X34172920Y-47875167D01*
X34172234Y-47868629D01*
X34112465Y-47491266D01*
X34111094Y-47484816D01*
X34012212Y-47115784D01*
X34010171Y-47109502D01*
X33873260Y-46752836D01*
X33870578Y-46746811D01*
X33697128Y-46406397D01*
X33693831Y-46400687D01*
X33531414Y-46150586D01*
X35086087Y-46150586D01*
X35089475Y-46162124D01*
X35090865Y-46163329D01*
X35098548Y-46165000D01*
X35795885Y-46165000D01*
X35811124Y-46160525D01*
X35812329Y-46159135D01*
X35814000Y-46151452D01*
X35814000Y-46146885D01*
X36322000Y-46146885D01*
X36326475Y-46162124D01*
X36327865Y-46163329D01*
X36335548Y-46165000D01*
X37032884Y-46165000D01*
X37048123Y-46160525D01*
X37049328Y-46159135D01*
X37050291Y-46154706D01*
X37049912Y-46150586D01*
X37372087Y-46150586D01*
X37375475Y-46162124D01*
X37376865Y-46163329D01*
X37384548Y-46165000D01*
X38081885Y-46165000D01*
X38097124Y-46160525D01*
X38098329Y-46159135D01*
X38100000Y-46151452D01*
X38100000Y-46146885D01*
X38608000Y-46146885D01*
X38612475Y-46162124D01*
X38613865Y-46163329D01*
X38621548Y-46165000D01*
X39318884Y-46165000D01*
X39334123Y-46160525D01*
X39335328Y-46159135D01*
X39336291Y-46154706D01*
X39330868Y-46095685D01*
X39328257Y-46082649D01*
X39281285Y-45932757D01*
X39275079Y-45919012D01*
X39194176Y-45785426D01*
X39184869Y-45773557D01*
X39074443Y-45663131D01*
X39062574Y-45653824D01*
X38928988Y-45572921D01*
X38915243Y-45566715D01*
X38765356Y-45519744D01*
X38752306Y-45517131D01*
X38688479Y-45511266D01*
X38682691Y-45511000D01*
X38626115Y-45511000D01*
X38610876Y-45515475D01*
X38609671Y-45516865D01*
X38608000Y-45524548D01*
X38608000Y-46146885D01*
X38100000Y-46146885D01*
X38100000Y-45529116D01*
X38095525Y-45513877D01*
X38094135Y-45512672D01*
X38086452Y-45511001D01*
X38025295Y-45511001D01*
X38019546Y-45511264D01*
X37955685Y-45517132D01*
X37942649Y-45519743D01*
X37792757Y-45566715D01*
X37779012Y-45572921D01*
X37645426Y-45653824D01*
X37633557Y-45663131D01*
X37523131Y-45773557D01*
X37513824Y-45785426D01*
X37432921Y-45919012D01*
X37426715Y-45932757D01*
X37379744Y-46082644D01*
X37377131Y-46095694D01*
X37372087Y-46150586D01*
X37049912Y-46150586D01*
X37044868Y-46095685D01*
X37042257Y-46082649D01*
X36995285Y-45932757D01*
X36989079Y-45919012D01*
X36908176Y-45785426D01*
X36898869Y-45773557D01*
X36788443Y-45663131D01*
X36776574Y-45653824D01*
X36642988Y-45572921D01*
X36629243Y-45566715D01*
X36479356Y-45519744D01*
X36466306Y-45517131D01*
X36402479Y-45511266D01*
X36396691Y-45511000D01*
X36340115Y-45511000D01*
X36324876Y-45515475D01*
X36323671Y-45516865D01*
X36322000Y-45524548D01*
X36322000Y-46146885D01*
X35814000Y-46146885D01*
X35814000Y-45529116D01*
X35809525Y-45513877D01*
X35808135Y-45512672D01*
X35800452Y-45511001D01*
X35739295Y-45511001D01*
X35733546Y-45511264D01*
X35669685Y-45517132D01*
X35656649Y-45519743D01*
X35506757Y-45566715D01*
X35493012Y-45572921D01*
X35359426Y-45653824D01*
X35347557Y-45663131D01*
X35237131Y-45773557D01*
X35227824Y-45785426D01*
X35146921Y-45919012D01*
X35140715Y-45932757D01*
X35093744Y-46082644D01*
X35091131Y-46095694D01*
X35086087Y-46150586D01*
X33531414Y-46150586D01*
X33485747Y-46080265D01*
X33481877Y-46074939D01*
X33288522Y-45836165D01*
X33276267Y-45827700D01*
X33265176Y-45834034D01*
X30852022Y-48247188D01*
X30844408Y-48261132D01*
X30119658Y-48261132D01*
X32905100Y-45475690D01*
X32912241Y-45462614D01*
X32904784Y-45452247D01*
X32665065Y-45258126D01*
X32659728Y-45254249D01*
X32561059Y-45190172D01*
X32514822Y-45136296D01*
X32505053Y-45065975D01*
X32534853Y-45001535D01*
X32594762Y-44963436D01*
X32629684Y-44958500D01*
X66430316Y-44958500D01*
X66498437Y-44978502D01*
G37*
%TD.AperFunction*%
%TA.AperFunction,Conductor*%
G36*
X69830356Y-74567248D02*
G01*
X69875419Y-74596209D01*
X71001824Y-75722614D01*
X71035850Y-75784926D01*
X71030785Y-75855741D01*
X71001824Y-75900804D01*
X70820804Y-76081824D01*
X70758492Y-76115850D01*
X70687677Y-76110785D01*
X70642614Y-76081824D01*
X69516209Y-74955419D01*
X69482183Y-74893107D01*
X69487248Y-74822292D01*
X69516209Y-74777229D01*
X69697229Y-74596209D01*
X69759541Y-74562183D01*
X69830356Y-74567248D01*
G37*
%TD.AperFunction*%
%TA.AperFunction,Conductor*%
G36*
X29317708Y-74567248D02*
G01*
X29362771Y-74596209D01*
X29543791Y-74777229D01*
X29577817Y-74839541D01*
X29572752Y-74910356D01*
X29543791Y-74955419D01*
X28417386Y-76081824D01*
X28355074Y-76115850D01*
X28284259Y-76110785D01*
X28239196Y-76081824D01*
X28058176Y-75900804D01*
X28024150Y-75838492D01*
X28029215Y-75767677D01*
X28058176Y-75722614D01*
X29184581Y-74596209D01*
X29246893Y-74562183D01*
X29317708Y-74567248D01*
G37*
%TD.AperFunction*%
%TA.AperFunction,Conductor*%
G36*
X30786888Y-64738148D02*
G01*
X32765259Y-66716518D01*
X34771146Y-68722405D01*
X34805172Y-68784717D01*
X34800107Y-68855532D01*
X34757560Y-68912368D01*
X34691040Y-68937179D01*
X34682051Y-68937500D01*
X34360950Y-68937500D01*
X34292829Y-68917498D01*
X34271855Y-68900595D01*
X30569457Y-65198197D01*
X30535431Y-65135885D01*
X30537994Y-65072473D01*
X30542370Y-65058069D01*
X30571529Y-64836590D01*
X30571833Y-64824162D01*
X30593495Y-64756551D01*
X30648272Y-64711384D01*
X30718772Y-64703002D01*
X30786888Y-64738148D01*
G37*
%TD.AperFunction*%
%TA.AperFunction,Conductor*%
G36*
X46066925Y-60578877D02*
G01*
X46066927Y-60578877D01*
X46073111Y-60580674D01*
X46085762Y-60581670D01*
X46106562Y-60583307D01*
X46106575Y-60583308D01*
X46109021Y-60583500D01*
X46297885Y-60583500D01*
X46486978Y-60583499D01*
X46494766Y-60582886D01*
X46516474Y-60581179D01*
X46516477Y-60581178D01*
X46522889Y-60580674D01*
X46529063Y-60578880D01*
X46529070Y-60578879D01*
X46662847Y-60540012D01*
X46733153Y-60540012D01*
X46866925Y-60578877D01*
X46866927Y-60578877D01*
X46873111Y-60580674D01*
X46885762Y-60581670D01*
X46906562Y-60583307D01*
X46906575Y-60583308D01*
X46909021Y-60583500D01*
X47097885Y-60583500D01*
X47286978Y-60583499D01*
X47294766Y-60582886D01*
X47316474Y-60581179D01*
X47316477Y-60581178D01*
X47322889Y-60580674D01*
X47329063Y-60578880D01*
X47329070Y-60578879D01*
X47462847Y-60540012D01*
X47533153Y-60540012D01*
X47666925Y-60578877D01*
X47666927Y-60578877D01*
X47673111Y-60580674D01*
X47685762Y-60581670D01*
X47706562Y-60583307D01*
X47706575Y-60583308D01*
X47709021Y-60583500D01*
X47897885Y-60583500D01*
X48086978Y-60583499D01*
X48094766Y-60582886D01*
X48116474Y-60581179D01*
X48116477Y-60581178D01*
X48122889Y-60580674D01*
X48129063Y-60578880D01*
X48129070Y-60578879D01*
X48262847Y-60540012D01*
X48333153Y-60540012D01*
X48466925Y-60578877D01*
X48466927Y-60578877D01*
X48473111Y-60580674D01*
X48485762Y-60581670D01*
X48506562Y-60583307D01*
X48506575Y-60583308D01*
X48509021Y-60583500D01*
X48697885Y-60583500D01*
X48886978Y-60583499D01*
X48894766Y-60582886D01*
X48916474Y-60581179D01*
X48916477Y-60581178D01*
X48922889Y-60580674D01*
X48929063Y-60578880D01*
X48929070Y-60578879D01*
X49062847Y-60540012D01*
X49133153Y-60540012D01*
X49266925Y-60578877D01*
X49266927Y-60578877D01*
X49273111Y-60580674D01*
X49285762Y-60581670D01*
X49306562Y-60583307D01*
X49306575Y-60583308D01*
X49309021Y-60583500D01*
X49497885Y-60583500D01*
X49686978Y-60583499D01*
X49694766Y-60582886D01*
X49716474Y-60581179D01*
X49716477Y-60581178D01*
X49722889Y-60580674D01*
X49729063Y-60578880D01*
X49729070Y-60578879D01*
X49862847Y-60540012D01*
X49933153Y-60540012D01*
X50066925Y-60578877D01*
X50066927Y-60578877D01*
X50073111Y-60580674D01*
X50085762Y-60581670D01*
X50106562Y-60583307D01*
X50106575Y-60583308D01*
X50109021Y-60583500D01*
X50114894Y-60583500D01*
X50288500Y-60583499D01*
X50356620Y-60603501D01*
X50403113Y-60657156D01*
X50414500Y-60709498D01*
X50414501Y-60803327D01*
X50414501Y-60888978D01*
X50414695Y-60891443D01*
X50416542Y-60914920D01*
X50417326Y-60924889D01*
X50419120Y-60931063D01*
X50419121Y-60931070D01*
X50457988Y-61064847D01*
X50457988Y-61135153D01*
X50422792Y-61256297D01*
X50417326Y-61275111D01*
X50416754Y-61282375D01*
X50414693Y-61308562D01*
X50414692Y-61308575D01*
X50414500Y-61311021D01*
X50414501Y-61688978D01*
X50414695Y-61691438D01*
X50414695Y-61691443D01*
X50416656Y-61716368D01*
X50417326Y-61724889D01*
X50419120Y-61731063D01*
X50419121Y-61731070D01*
X50457988Y-61864847D01*
X50457988Y-61935153D01*
X50428208Y-62037655D01*
X50417326Y-62075111D01*
X50416821Y-62081530D01*
X50414693Y-62108562D01*
X50414692Y-62108575D01*
X50414500Y-62111021D01*
X50414501Y-62488978D01*
X50417326Y-62524889D01*
X50419120Y-62531063D01*
X50419121Y-62531070D01*
X50457988Y-62664847D01*
X50457988Y-62735153D01*
X50427493Y-62840115D01*
X50417326Y-62875111D01*
X50416821Y-62881530D01*
X50414693Y-62908562D01*
X50414692Y-62908575D01*
X50414500Y-62911021D01*
X50414501Y-63288978D01*
X50414695Y-63291443D01*
X50416569Y-63315263D01*
X50417326Y-63324889D01*
X50419120Y-63331063D01*
X50419121Y-63331070D01*
X50457988Y-63464847D01*
X50457988Y-63535153D01*
X50419213Y-63668615D01*
X50417326Y-63675111D01*
X50416821Y-63681530D01*
X50414693Y-63708562D01*
X50414692Y-63708575D01*
X50414500Y-63711021D01*
X50414501Y-64088978D01*
X50414695Y-64091438D01*
X50414695Y-64091443D01*
X50416655Y-64116357D01*
X50417326Y-64124889D01*
X50419120Y-64131063D01*
X50419121Y-64131070D01*
X50457988Y-64264847D01*
X50457988Y-64335153D01*
X50419123Y-64468925D01*
X50417326Y-64475111D01*
X50416821Y-64481530D01*
X50414693Y-64508562D01*
X50414692Y-64508575D01*
X50414500Y-64511021D01*
X50414501Y-64888978D01*
X50417326Y-64924889D01*
X50419120Y-64931063D01*
X50419121Y-64931070D01*
X50457988Y-65064847D01*
X50457988Y-65135153D01*
X50422859Y-65256067D01*
X50417326Y-65275111D01*
X50416821Y-65281530D01*
X50414693Y-65308562D01*
X50414692Y-65308575D01*
X50414500Y-65311021D01*
X50414500Y-65355122D01*
X50394498Y-65423243D01*
X50340842Y-65469736D01*
X50297532Y-65478998D01*
X50297680Y-65480404D01*
X50124288Y-65498628D01*
X50124286Y-65498629D01*
X50117288Y-65499364D01*
X49945579Y-65557818D01*
X49887465Y-65593570D01*
X49797095Y-65649166D01*
X49797092Y-65649168D01*
X49791088Y-65652862D01*
X49786053Y-65657793D01*
X49786050Y-65657795D01*
X49670604Y-65770849D01*
X49661493Y-65779771D01*
X49563235Y-65932238D01*
X49560826Y-65938858D01*
X49560824Y-65938861D01*
X49513483Y-66068930D01*
X49501197Y-66102685D01*
X49478463Y-66282640D01*
X49479151Y-66289653D01*
X49479114Y-66292264D01*
X49458160Y-66360098D01*
X49403859Y-66405836D01*
X49353126Y-66416501D01*
X49309022Y-66416501D01*
X49301234Y-66417114D01*
X49279526Y-66418821D01*
X49279523Y-66418822D01*
X49273111Y-66419326D01*
X49266937Y-66421120D01*
X49266930Y-66421121D01*
X49132257Y-66460248D01*
X49061951Y-66460248D01*
X48965395Y-66432196D01*
X48951295Y-66432236D01*
X48948000Y-66439506D01*
X48948000Y-66526905D01*
X48927998Y-66595026D01*
X48911095Y-66616000D01*
X48868458Y-66658637D01*
X48864425Y-66665457D01*
X48864424Y-66665458D01*
X48806454Y-66763481D01*
X48754561Y-66811934D01*
X48684711Y-66824639D01*
X48619079Y-66797564D01*
X48589546Y-66763481D01*
X48531576Y-66665458D01*
X48531575Y-66665457D01*
X48527542Y-66658637D01*
X48484905Y-66616000D01*
X48450879Y-66553688D01*
X48448000Y-66526905D01*
X48448000Y-66445257D01*
X48444027Y-66431726D01*
X48436129Y-66430591D01*
X48334049Y-66460248D01*
X48263743Y-66460248D01*
X48129075Y-66421123D01*
X48129073Y-66421123D01*
X48122889Y-66419326D01*
X48110238Y-66418330D01*
X48089438Y-66416693D01*
X48089425Y-66416692D01*
X48086979Y-66416500D01*
X47898115Y-66416500D01*
X47709022Y-66416501D01*
X47701234Y-66417114D01*
X47679526Y-66418821D01*
X47679523Y-66418822D01*
X47673111Y-66419326D01*
X47666937Y-66421120D01*
X47666930Y-66421121D01*
X47533153Y-66459988D01*
X47462847Y-66459988D01*
X47329075Y-66421123D01*
X47329073Y-66421123D01*
X47322889Y-66419326D01*
X47310238Y-66418330D01*
X47289438Y-66416693D01*
X47289425Y-66416692D01*
X47286979Y-66416500D01*
X47098115Y-66416500D01*
X46909022Y-66416501D01*
X46901234Y-66417114D01*
X46879526Y-66418821D01*
X46879523Y-66418822D01*
X46873111Y-66419326D01*
X46866937Y-66421120D01*
X46866930Y-66421121D01*
X46733153Y-66459988D01*
X46662847Y-66459988D01*
X46529075Y-66421123D01*
X46529073Y-66421123D01*
X46522889Y-66419326D01*
X46510238Y-66418330D01*
X46489438Y-66416693D01*
X46489425Y-66416692D01*
X46486979Y-66416500D01*
X46298115Y-66416500D01*
X46109022Y-66416501D01*
X46101234Y-66417114D01*
X46079526Y-66418821D01*
X46079523Y-66418822D01*
X46073111Y-66419326D01*
X46066937Y-66421120D01*
X46066930Y-66421121D01*
X45933153Y-66459988D01*
X45862847Y-66459988D01*
X45729075Y-66421123D01*
X45729073Y-66421123D01*
X45722889Y-66419326D01*
X45710238Y-66418330D01*
X45689438Y-66416693D01*
X45689425Y-66416692D01*
X45686979Y-66416500D01*
X45498115Y-66416500D01*
X45309022Y-66416501D01*
X45301234Y-66417114D01*
X45279526Y-66418821D01*
X45279523Y-66418822D01*
X45273111Y-66419326D01*
X45266937Y-66421120D01*
X45266930Y-66421121D01*
X45133153Y-66459988D01*
X45062847Y-66459988D01*
X44929075Y-66421123D01*
X44929073Y-66421123D01*
X44922889Y-66419326D01*
X44910238Y-66418330D01*
X44889438Y-66416693D01*
X44889425Y-66416692D01*
X44886979Y-66416500D01*
X44881106Y-66416500D01*
X44707500Y-66416501D01*
X44639380Y-66396499D01*
X44592887Y-66342844D01*
X44581500Y-66290502D01*
X44581499Y-66113496D01*
X44581499Y-66111022D01*
X44580843Y-66102685D01*
X44579179Y-66081526D01*
X44579178Y-66081523D01*
X44578674Y-66075111D01*
X44576880Y-66068937D01*
X44576879Y-66068930D01*
X44538012Y-65935153D01*
X44538012Y-65864847D01*
X44576877Y-65731075D01*
X44576877Y-65731073D01*
X44578674Y-65724889D01*
X44580469Y-65702085D01*
X44581307Y-65691438D01*
X44581308Y-65691425D01*
X44581500Y-65688979D01*
X44581499Y-65311022D01*
X44578674Y-65275111D01*
X44576880Y-65268937D01*
X44576879Y-65268930D01*
X44538012Y-65135153D01*
X44538012Y-65064847D01*
X44576877Y-64931075D01*
X44576878Y-64931070D01*
X44578674Y-64924889D01*
X44579670Y-64912238D01*
X44581307Y-64891438D01*
X44581308Y-64891425D01*
X44581500Y-64888979D01*
X44581499Y-64511022D01*
X44578674Y-64475111D01*
X44576880Y-64468937D01*
X44576879Y-64468930D01*
X44538012Y-64335153D01*
X44538012Y-64264847D01*
X44576877Y-64131075D01*
X44576878Y-64131070D01*
X44578674Y-64124889D01*
X44579992Y-64108145D01*
X44581307Y-64091438D01*
X44581308Y-64091425D01*
X44581500Y-64088979D01*
X44581500Y-64017972D01*
X44601502Y-63949851D01*
X44655158Y-63903358D01*
X44668561Y-63898140D01*
X44706327Y-63885869D01*
X44779409Y-63862124D01*
X44779412Y-63862123D01*
X44786108Y-63859947D01*
X44903653Y-63789876D01*
X44935860Y-63770677D01*
X44935862Y-63770676D01*
X44941912Y-63767069D01*
X45073266Y-63641982D01*
X45173643Y-63490902D01*
X45223938Y-63358500D01*
X45235555Y-63327920D01*
X45235556Y-63327918D01*
X45238055Y-63321338D01*
X45239769Y-63309145D01*
X45262748Y-63145639D01*
X45262748Y-63145636D01*
X45263299Y-63141717D01*
X45263616Y-63119000D01*
X45243397Y-62938745D01*
X45234603Y-62913492D01*
X45186064Y-62774106D01*
X45186062Y-62774103D01*
X45183745Y-62767448D01*
X45087626Y-62613624D01*
X45078833Y-62604769D01*
X44964778Y-62489915D01*
X44964774Y-62489912D01*
X44959815Y-62484918D01*
X44806666Y-62387727D01*
X44713831Y-62354670D01*
X44665233Y-62337365D01*
X44607769Y-62295671D01*
X44581969Y-62229528D01*
X44581500Y-62218667D01*
X44581499Y-62113496D01*
X44581499Y-62111022D01*
X44579462Y-62085124D01*
X44579179Y-62081526D01*
X44579178Y-62081523D01*
X44578674Y-62075111D01*
X44576880Y-62068937D01*
X44576879Y-62068930D01*
X44538012Y-61935153D01*
X44538012Y-61864847D01*
X44576877Y-61731075D01*
X44576878Y-61731070D01*
X44578674Y-61724889D01*
X44579670Y-61712238D01*
X44581307Y-61691438D01*
X44581308Y-61691425D01*
X44581500Y-61688979D01*
X44581500Y-61644089D01*
X44601502Y-61575968D01*
X44655158Y-61529475D01*
X44696080Y-61518608D01*
X44867600Y-61502998D01*
X44874302Y-61500820D01*
X44874304Y-61500820D01*
X45033409Y-61449124D01*
X45033412Y-61449123D01*
X45040108Y-61446947D01*
X45143746Y-61385166D01*
X45189860Y-61357677D01*
X45189862Y-61357676D01*
X45195912Y-61354069D01*
X45327266Y-61228982D01*
X45427643Y-61077902D01*
X45472755Y-60959144D01*
X45489555Y-60914920D01*
X45489556Y-60914918D01*
X45492055Y-60908338D01*
X45493070Y-60901114D01*
X45516748Y-60732639D01*
X45516748Y-60732636D01*
X45517299Y-60728717D01*
X45517592Y-60707739D01*
X45538544Y-60639904D01*
X45592844Y-60594165D01*
X45643580Y-60583499D01*
X45686978Y-60583499D01*
X45694766Y-60582886D01*
X45716474Y-60581179D01*
X45716477Y-60581178D01*
X45722889Y-60580674D01*
X45729063Y-60578880D01*
X45729070Y-60578879D01*
X45862847Y-60540012D01*
X45933153Y-60540012D01*
X46066925Y-60578877D01*
G37*
%TD.AperFunction*%
%TA.AperFunction,Conductor*%
G36*
X31239171Y-60368502D02*
G01*
X31260140Y-60385400D01*
X32197596Y-61322855D01*
X32231620Y-61385166D01*
X32234500Y-61411949D01*
X32234500Y-64019050D01*
X32214498Y-64087171D01*
X32160842Y-64133664D01*
X32090568Y-64143768D01*
X32025988Y-64114274D01*
X32019405Y-64108145D01*
X30569457Y-62658197D01*
X30535431Y-62595885D01*
X30537994Y-62532473D01*
X30542370Y-62518069D01*
X30571529Y-62296590D01*
X30571611Y-62293240D01*
X30573074Y-62233365D01*
X30573074Y-62233361D01*
X30573156Y-62230000D01*
X30554852Y-62007361D01*
X30500431Y-61790702D01*
X30411354Y-61585840D01*
X30359293Y-61505366D01*
X30292822Y-61402617D01*
X30292820Y-61402614D01*
X30290014Y-61398277D01*
X30139670Y-61233051D01*
X30135619Y-61229852D01*
X30135615Y-61229848D01*
X29968414Y-61097800D01*
X29968410Y-61097798D01*
X29964359Y-61094598D01*
X29923053Y-61071796D01*
X29873084Y-61021364D01*
X29858312Y-60951921D01*
X29883428Y-60885516D01*
X29910780Y-60858909D01*
X29960562Y-60823400D01*
X30089860Y-60731173D01*
X30095994Y-60725061D01*
X30181237Y-60640115D01*
X30248096Y-60573489D01*
X30275022Y-60536018D01*
X30372060Y-60400974D01*
X30428055Y-60357326D01*
X30474383Y-60348500D01*
X31171050Y-60348500D01*
X31239171Y-60368502D01*
G37*
%TD.AperFunction*%
%TA.AperFunction,Conductor*%
G36*
X44193171Y-56812502D02*
G01*
X44214145Y-56829405D01*
X44802595Y-57417855D01*
X44836621Y-57480167D01*
X44839500Y-57506950D01*
X44839500Y-58323133D01*
X44821954Y-58387272D01*
X44786982Y-58446407D01*
X44784771Y-58454017D01*
X44754619Y-58557800D01*
X44742326Y-58600111D01*
X44741821Y-58606530D01*
X44739693Y-58633562D01*
X44739692Y-58633575D01*
X44739500Y-58636021D01*
X44739501Y-59264676D01*
X44739501Y-59449000D01*
X44719499Y-59517121D01*
X44665843Y-59563614D01*
X44613501Y-59575000D01*
X43958116Y-59575000D01*
X43942877Y-59579475D01*
X43941672Y-59580865D01*
X43940001Y-59588548D01*
X43940001Y-59815500D01*
X43919999Y-59883621D01*
X43866343Y-59930114D01*
X43814001Y-59941500D01*
X42651029Y-59941501D01*
X42634022Y-59941501D01*
X42626234Y-59942114D01*
X42604526Y-59943821D01*
X42604523Y-59943822D01*
X42598111Y-59944326D01*
X42517170Y-59967842D01*
X42462846Y-59983625D01*
X42444407Y-59988982D01*
X42437585Y-59993016D01*
X42437586Y-59993016D01*
X42385272Y-60023954D01*
X42321133Y-60041500D01*
X42293212Y-60041500D01*
X42225091Y-60021498D01*
X42178598Y-59967842D01*
X42174230Y-59956963D01*
X42135745Y-59846448D01*
X42128514Y-59834876D01*
X42043359Y-59698598D01*
X42039626Y-59692624D01*
X42020467Y-59673331D01*
X41916778Y-59568915D01*
X41916774Y-59568912D01*
X41911815Y-59563918D01*
X41758666Y-59466727D01*
X41729463Y-59456328D01*
X41594425Y-59408243D01*
X41594420Y-59408242D01*
X41587790Y-59405881D01*
X41580802Y-59405048D01*
X41580799Y-59405047D01*
X41522581Y-59398105D01*
X41457307Y-59370177D01*
X41417495Y-59311394D01*
X41411500Y-59272991D01*
X41411500Y-59092076D01*
X41421833Y-59056885D01*
X43940000Y-59056885D01*
X43944475Y-59072124D01*
X43945865Y-59073329D01*
X43953548Y-59075000D01*
X44429885Y-59075000D01*
X44445124Y-59070525D01*
X44446329Y-59069135D01*
X44448000Y-59061452D01*
X44448000Y-58095257D01*
X44444027Y-58081726D01*
X44436129Y-58080591D01*
X44327220Y-58112232D01*
X44312783Y-58118480D01*
X44188773Y-58191819D01*
X44176335Y-58201468D01*
X44074468Y-58303335D01*
X44064819Y-58315773D01*
X43991480Y-58439783D01*
X43985232Y-58454220D01*
X43944618Y-58594013D01*
X43942320Y-58606600D01*
X43940193Y-58633616D01*
X43940000Y-58638543D01*
X43940000Y-59056885D01*
X41421833Y-59056885D01*
X41431502Y-59023955D01*
X41485158Y-58977462D01*
X41526079Y-58966595D01*
X41558579Y-58963637D01*
X41565600Y-58962998D01*
X41572302Y-58960820D01*
X41572304Y-58960820D01*
X41731409Y-58909124D01*
X41731412Y-58909123D01*
X41738108Y-58906947D01*
X41893912Y-58814069D01*
X42025266Y-58688982D01*
X42125643Y-58537902D01*
X42169748Y-58421797D01*
X42187555Y-58374920D01*
X42187556Y-58374918D01*
X42190055Y-58368338D01*
X42192335Y-58352115D01*
X42214748Y-58192639D01*
X42214748Y-58192636D01*
X42215299Y-58188717D01*
X42215616Y-58166000D01*
X42195397Y-57985745D01*
X42179695Y-57940655D01*
X42138064Y-57821106D01*
X42138062Y-57821103D01*
X42135745Y-57814448D01*
X42107359Y-57769020D01*
X42043359Y-57666598D01*
X42039626Y-57660624D01*
X42034664Y-57655627D01*
X41916778Y-57536915D01*
X41916774Y-57536912D01*
X41911815Y-57531918D01*
X41889963Y-57518050D01*
X41812960Y-57469183D01*
X41758666Y-57434727D01*
X41711284Y-57417855D01*
X41594425Y-57376243D01*
X41594420Y-57376242D01*
X41587790Y-57373881D01*
X41580802Y-57373048D01*
X41580799Y-57373047D01*
X41414674Y-57353238D01*
X41407680Y-57352404D01*
X41400673Y-57353140D01*
X41397589Y-57353119D01*
X41332350Y-57334382D01*
X41331387Y-57333788D01*
X41239597Y-57277208D01*
X41196331Y-57250538D01*
X41196329Y-57250537D01*
X41190101Y-57246698D01*
X41027757Y-57192851D01*
X41020920Y-57192151D01*
X41020918Y-57192150D01*
X40979599Y-57187917D01*
X40926732Y-57182500D01*
X40379268Y-57182500D01*
X40376022Y-57182837D01*
X40376018Y-57182837D01*
X40346730Y-57185876D01*
X40276981Y-57193113D01*
X40268963Y-57195788D01*
X40121676Y-57244927D01*
X40121674Y-57244928D01*
X40114732Y-57247244D01*
X40108508Y-57251096D01*
X40108507Y-57251096D01*
X40089636Y-57262774D01*
X39969287Y-57337248D01*
X39964114Y-57342430D01*
X39958377Y-57346977D01*
X39956945Y-57345170D01*
X39904425Y-57373902D01*
X39833605Y-57368892D01*
X39797147Y-57345501D01*
X39796317Y-57346552D01*
X39779160Y-57333002D01*
X39646120Y-57250996D01*
X39632939Y-57244849D01*
X39484186Y-57195509D01*
X39470810Y-57192642D01*
X39379903Y-57183328D01*
X39374874Y-57183071D01*
X39359876Y-57187475D01*
X39358671Y-57188865D01*
X39357000Y-57196548D01*
X39357000Y-59130885D01*
X39360143Y-59141589D01*
X39362368Y-59203869D01*
X39357000Y-59228547D01*
X39357000Y-60326000D01*
X39336998Y-60394121D01*
X39283342Y-60440614D01*
X39231000Y-60452000D01*
X38163115Y-60452000D01*
X38147876Y-60456475D01*
X38146671Y-60457865D01*
X38145000Y-60465548D01*
X38145000Y-60493438D01*
X38145337Y-60499953D01*
X38154894Y-60592057D01*
X38157789Y-60605461D01*
X38170521Y-60643623D01*
X38173106Y-60714573D01*
X38136923Y-60775657D01*
X38073459Y-60807482D01*
X38050998Y-60809500D01*
X37848000Y-60809500D01*
X37779879Y-60789498D01*
X37733386Y-60735842D01*
X37722000Y-60683500D01*
X37722000Y-60640115D01*
X37717525Y-60624876D01*
X37716135Y-60623671D01*
X37708452Y-60622000D01*
X36586000Y-60622000D01*
X36517879Y-60601998D01*
X36471386Y-60548342D01*
X36460000Y-60496000D01*
X36460000Y-59228116D01*
X36455525Y-59212877D01*
X36454135Y-59211672D01*
X36434219Y-59207340D01*
X36371906Y-59173316D01*
X36348736Y-59130885D01*
X36843000Y-59130885D01*
X36847475Y-59146124D01*
X36848865Y-59147329D01*
X36868781Y-59151661D01*
X36931094Y-59185685D01*
X36965120Y-59247997D01*
X36968000Y-59274782D01*
X36968000Y-60095885D01*
X36972475Y-60111124D01*
X36973865Y-60112329D01*
X36981548Y-60114000D01*
X37703884Y-60114000D01*
X37719123Y-60109525D01*
X37720328Y-60108135D01*
X37721999Y-60100452D01*
X37721999Y-59925885D01*
X38145000Y-59925885D01*
X38149475Y-59941124D01*
X38150865Y-59942329D01*
X38158548Y-59944000D01*
X38830885Y-59944000D01*
X38846124Y-59939525D01*
X38847329Y-59938135D01*
X38849000Y-59930452D01*
X38849000Y-59233115D01*
X38845857Y-59222411D01*
X38843632Y-59160131D01*
X38849000Y-59135453D01*
X38849000Y-58438115D01*
X38844525Y-58422876D01*
X38843135Y-58421671D01*
X38835452Y-58420000D01*
X38163115Y-58420000D01*
X38147876Y-58424475D01*
X38146671Y-58425865D01*
X38145000Y-58433548D01*
X38145000Y-58461438D01*
X38145337Y-58467953D01*
X38154894Y-58560057D01*
X38157788Y-58573456D01*
X38207381Y-58722107D01*
X38213555Y-58735286D01*
X38295788Y-58868173D01*
X38304824Y-58879574D01*
X38415429Y-58989986D01*
X38426843Y-58999000D01*
X38549605Y-59074671D01*
X38597099Y-59127443D01*
X38608523Y-59197514D01*
X38580249Y-59262638D01*
X38549793Y-59289075D01*
X38425827Y-59365788D01*
X38414426Y-59374824D01*
X38304014Y-59485429D01*
X38295002Y-59496840D01*
X38212996Y-59629880D01*
X38206849Y-59643061D01*
X38157509Y-59791814D01*
X38154642Y-59805190D01*
X38145328Y-59896097D01*
X38145000Y-59902514D01*
X38145000Y-59925885D01*
X37721999Y-59925885D01*
X37721999Y-59673331D01*
X37721629Y-59666510D01*
X37716105Y-59615648D01*
X37712479Y-59600396D01*
X37667324Y-59479946D01*
X37658786Y-59464351D01*
X37582285Y-59362276D01*
X37569724Y-59349715D01*
X37467649Y-59273214D01*
X37452054Y-59264676D01*
X37331601Y-59219520D01*
X37319073Y-59216541D01*
X37257427Y-59181323D01*
X37224608Y-59118368D01*
X37231035Y-59047663D01*
X37269958Y-58995212D01*
X37277574Y-58989176D01*
X37387986Y-58878571D01*
X37396998Y-58867160D01*
X37479004Y-58734120D01*
X37485151Y-58720939D01*
X37534491Y-58572186D01*
X37537358Y-58558810D01*
X37546672Y-58467903D01*
X37547000Y-58461487D01*
X37547000Y-58438115D01*
X37542525Y-58422876D01*
X37541135Y-58421671D01*
X37533452Y-58420000D01*
X36861115Y-58420000D01*
X36845876Y-58424475D01*
X36844671Y-58425865D01*
X36843000Y-58433548D01*
X36843000Y-59130885D01*
X36348736Y-59130885D01*
X36337880Y-59111004D01*
X36335000Y-59084219D01*
X36335000Y-58038000D01*
X36355002Y-57969879D01*
X36408658Y-57923386D01*
X36461000Y-57912000D01*
X37528885Y-57912000D01*
X37544124Y-57907525D01*
X37545329Y-57906135D01*
X37547000Y-57898452D01*
X37547000Y-57893885D01*
X38145000Y-57893885D01*
X38149475Y-57909124D01*
X38150865Y-57910329D01*
X38158548Y-57912000D01*
X38830885Y-57912000D01*
X38846124Y-57907525D01*
X38847329Y-57906135D01*
X38849000Y-57898452D01*
X38849000Y-57201115D01*
X38844525Y-57185876D01*
X38843135Y-57184671D01*
X38835452Y-57183000D01*
X38832562Y-57183000D01*
X38826047Y-57183337D01*
X38733943Y-57192894D01*
X38720544Y-57195788D01*
X38571893Y-57245381D01*
X38558714Y-57251555D01*
X38425827Y-57333788D01*
X38414426Y-57342824D01*
X38304014Y-57453429D01*
X38295002Y-57464840D01*
X38212996Y-57597880D01*
X38206849Y-57611061D01*
X38157509Y-57759814D01*
X38154642Y-57773190D01*
X38145328Y-57864097D01*
X38145000Y-57870514D01*
X38145000Y-57893885D01*
X37547000Y-57893885D01*
X37547000Y-57870562D01*
X37546663Y-57864047D01*
X37537106Y-57771943D01*
X37534212Y-57758544D01*
X37484619Y-57609893D01*
X37478445Y-57596714D01*
X37396212Y-57463827D01*
X37387176Y-57452426D01*
X37276571Y-57342014D01*
X37265160Y-57333002D01*
X37151229Y-57262774D01*
X37103736Y-57210002D01*
X37092312Y-57139930D01*
X37120586Y-57074806D01*
X37152074Y-57047738D01*
X37164411Y-57040267D01*
X37279381Y-56970639D01*
X37400639Y-56849381D01*
X37404575Y-56842882D01*
X37406246Y-56840751D01*
X37464020Y-56799488D01*
X37505398Y-56792500D01*
X44125050Y-56792500D01*
X44193171Y-56812502D01*
G37*
%TD.AperFunction*%
%TA.AperFunction,Conductor*%
G36*
X50886622Y-52842553D02*
G01*
X50906715Y-52867536D01*
X50926800Y-52900313D01*
X50926804Y-52900318D01*
X50929501Y-52904719D01*
X51081147Y-53079784D01*
X51180789Y-53162508D01*
X51253463Y-53222843D01*
X51259349Y-53227730D01*
X51459322Y-53344584D01*
X51464147Y-53346426D01*
X51464148Y-53346427D01*
X51498545Y-53359562D01*
X51675694Y-53427209D01*
X51680760Y-53428240D01*
X51680761Y-53428240D01*
X51704246Y-53433018D01*
X51902656Y-53473385D01*
X52033324Y-53478176D01*
X52128949Y-53481683D01*
X52128953Y-53481683D01*
X52134113Y-53481872D01*
X52139233Y-53481216D01*
X52139235Y-53481216D01*
X52231861Y-53469350D01*
X52363847Y-53452442D01*
X52368796Y-53450957D01*
X52368802Y-53450956D01*
X52405739Y-53439874D01*
X52412789Y-53437759D01*
X52483783Y-53437343D01*
X52538090Y-53469350D01*
X52644595Y-53575855D01*
X52678621Y-53638167D01*
X52681500Y-53664950D01*
X52681500Y-59858907D01*
X52661498Y-59927028D01*
X52607842Y-59973521D01*
X52537568Y-59983625D01*
X52520347Y-59979904D01*
X52478830Y-59967842D01*
X52422347Y-59951432D01*
X52362511Y-59913219D01*
X52332834Y-59848722D01*
X52331500Y-59830435D01*
X52331500Y-57851059D01*
X52332059Y-57839203D01*
X52333789Y-57831463D01*
X52333464Y-57821106D01*
X52331562Y-57760611D01*
X52331500Y-57756653D01*
X52331500Y-57727568D01*
X52330946Y-57723179D01*
X52330013Y-57711337D01*
X52329305Y-57688789D01*
X52328562Y-57665169D01*
X52322580Y-57644579D01*
X52318570Y-57625216D01*
X52316875Y-57611796D01*
X52316875Y-57611795D01*
X52315882Y-57603936D01*
X52312966Y-57596571D01*
X52312965Y-57596567D01*
X52298874Y-57560979D01*
X52295035Y-57549769D01*
X52282145Y-57505400D01*
X52271225Y-57486935D01*
X52262534Y-57469195D01*
X52254635Y-57449244D01*
X52227482Y-57411871D01*
X52220967Y-57401952D01*
X52201493Y-57369023D01*
X52201490Y-57369019D01*
X52197453Y-57362193D01*
X52182289Y-57347029D01*
X52169448Y-57331995D01*
X52161501Y-57321057D01*
X52156841Y-57314643D01*
X52121247Y-57285197D01*
X52112468Y-57277208D01*
X50225405Y-55390145D01*
X50191379Y-55327833D01*
X50188500Y-55301050D01*
X50188500Y-53393933D01*
X50208502Y-53325812D01*
X50249773Y-53285907D01*
X50253684Y-53283991D01*
X50257893Y-53280989D01*
X50257896Y-53280987D01*
X50341699Y-53221211D01*
X50442243Y-53149494D01*
X50606303Y-52986005D01*
X50609317Y-52981811D01*
X50609326Y-52981800D01*
X50696960Y-52859844D01*
X50752954Y-52816196D01*
X50823658Y-52809750D01*
X50886622Y-52842553D01*
G37*
%TD.AperFunction*%
%TA.AperFunction,Conductor*%
G36*
X48346622Y-52842553D02*
G01*
X48366715Y-52867536D01*
X48386800Y-52900313D01*
X48386804Y-52900318D01*
X48389501Y-52904719D01*
X48541147Y-53079784D01*
X48640789Y-53162508D01*
X48713463Y-53222843D01*
X48719349Y-53227730D01*
X48806645Y-53278741D01*
X48809070Y-53280158D01*
X48857794Y-53331796D01*
X48871500Y-53388946D01*
X48871500Y-55543944D01*
X48870941Y-55555800D01*
X48869212Y-55563537D01*
X48869461Y-55571459D01*
X48871438Y-55634369D01*
X48871500Y-55638327D01*
X48871500Y-55667432D01*
X48872056Y-55671832D01*
X48872988Y-55683664D01*
X48874438Y-55729831D01*
X48876650Y-55737444D01*
X48876650Y-55737445D01*
X48880419Y-55750416D01*
X48884430Y-55769782D01*
X48887118Y-55791064D01*
X48890034Y-55798429D01*
X48890035Y-55798433D01*
X48904126Y-55834021D01*
X48907965Y-55845231D01*
X48920855Y-55889600D01*
X48931775Y-55908065D01*
X48940466Y-55925805D01*
X48948365Y-55945756D01*
X48975516Y-55983126D01*
X48982033Y-55993048D01*
X49001507Y-56025977D01*
X49001510Y-56025981D01*
X49005547Y-56032807D01*
X49020711Y-56047971D01*
X49033551Y-56063004D01*
X49046159Y-56080357D01*
X49060526Y-56092242D01*
X49081752Y-56109802D01*
X49090532Y-56117792D01*
X50977595Y-58004855D01*
X51011621Y-58067167D01*
X51014500Y-58093950D01*
X51014500Y-58094760D01*
X50994498Y-58162881D01*
X50940842Y-58209374D01*
X50870568Y-58219478D01*
X50814660Y-58195755D01*
X50814363Y-58195458D01*
X50807541Y-58191423D01*
X50807539Y-58191422D01*
X50683414Y-58118016D01*
X50683415Y-58118016D01*
X50676593Y-58113982D01*
X50662846Y-58109988D01*
X50529072Y-58071122D01*
X50529069Y-58071121D01*
X50522889Y-58069326D01*
X50509140Y-58068244D01*
X50489438Y-58066693D01*
X50489425Y-58066692D01*
X50486979Y-58066500D01*
X50462545Y-58066500D01*
X50144773Y-58066501D01*
X50076653Y-58046499D01*
X50036321Y-58004642D01*
X50022453Y-57981193D01*
X50007289Y-57966029D01*
X49994448Y-57950995D01*
X49994226Y-57950689D01*
X49981841Y-57933643D01*
X49946247Y-57904197D01*
X49937468Y-57896208D01*
X47685405Y-55644145D01*
X47651379Y-55581833D01*
X47648500Y-55555050D01*
X47648500Y-53393933D01*
X47668502Y-53325812D01*
X47709773Y-53285907D01*
X47713684Y-53283991D01*
X47717893Y-53280989D01*
X47717896Y-53280987D01*
X47801699Y-53221211D01*
X47902243Y-53149494D01*
X48066303Y-52986005D01*
X48069317Y-52981811D01*
X48069326Y-52981800D01*
X48156960Y-52859844D01*
X48212954Y-52816196D01*
X48283658Y-52809750D01*
X48346622Y-52842553D01*
G37*
%TD.AperFunction*%
%TA.AperFunction,Conductor*%
G36*
X63958250Y-52970002D02*
G01*
X63979224Y-52986905D01*
X64228595Y-53236276D01*
X64262621Y-53298588D01*
X64265500Y-53325371D01*
X64265500Y-55379500D01*
X64245498Y-55447621D01*
X64191842Y-55494114D01*
X64139500Y-55505500D01*
X62472371Y-55505500D01*
X62404250Y-55485498D01*
X62383276Y-55468595D01*
X62337212Y-55422531D01*
X62303186Y-55360219D01*
X62308251Y-55289404D01*
X62350798Y-55232568D01*
X62417318Y-55207757D01*
X62439148Y-55208092D01*
X62474094Y-55211672D01*
X62479126Y-55211929D01*
X62494124Y-55207525D01*
X62495329Y-55206135D01*
X62497000Y-55198452D01*
X62497000Y-55193885D01*
X63005000Y-55193885D01*
X63009475Y-55209124D01*
X63010865Y-55210329D01*
X63018548Y-55212000D01*
X63021438Y-55212000D01*
X63027953Y-55211663D01*
X63120057Y-55202106D01*
X63133456Y-55199212D01*
X63282107Y-55149619D01*
X63295286Y-55143445D01*
X63428173Y-55061212D01*
X63439574Y-55052176D01*
X63549986Y-54941571D01*
X63558998Y-54930160D01*
X63641004Y-54797120D01*
X63647151Y-54783939D01*
X63696491Y-54635186D01*
X63699358Y-54621810D01*
X63708672Y-54530903D01*
X63709000Y-54524487D01*
X63709000Y-54501115D01*
X63704525Y-54485876D01*
X63703135Y-54484671D01*
X63695452Y-54483000D01*
X63023115Y-54483000D01*
X63007876Y-54487475D01*
X63006671Y-54488865D01*
X63005000Y-54496548D01*
X63005000Y-55193885D01*
X62497000Y-55193885D01*
X62497000Y-54101000D01*
X62517002Y-54032879D01*
X62570658Y-53986386D01*
X62623000Y-53975000D01*
X63690885Y-53975000D01*
X63706124Y-53970525D01*
X63707329Y-53969135D01*
X63709000Y-53961452D01*
X63709000Y-53933562D01*
X63708663Y-53927047D01*
X63699106Y-53834943D01*
X63696212Y-53821544D01*
X63646619Y-53672893D01*
X63640445Y-53659714D01*
X63558212Y-53526827D01*
X63549176Y-53515426D01*
X63458910Y-53425317D01*
X63424831Y-53363034D01*
X63429834Y-53292214D01*
X63470702Y-53236584D01*
X63475977Y-53232492D01*
X63482807Y-53228453D01*
X63600453Y-53110807D01*
X63658971Y-53011860D01*
X63710863Y-52963408D01*
X63767423Y-52950000D01*
X63890129Y-52950000D01*
X63958250Y-52970002D01*
G37*
%TD.AperFunction*%
%TA.AperFunction,Conductor*%
G36*
X62106065Y-48734330D02*
G01*
X62129227Y-48745522D01*
X62207884Y-48794007D01*
X62213567Y-48796657D01*
X62266851Y-48843574D01*
X62286312Y-48911851D01*
X62265770Y-48979811D01*
X62259876Y-48988076D01*
X62257151Y-48991589D01*
X62251547Y-48997193D01*
X62166855Y-49140399D01*
X62164644Y-49148010D01*
X62164643Y-49148012D01*
X62159574Y-49165461D01*
X62120438Y-49300169D01*
X62117500Y-49337498D01*
X62117500Y-50495502D01*
X62120438Y-50532831D01*
X62146491Y-50622508D01*
X62164480Y-50684425D01*
X62166855Y-50692601D01*
X62251547Y-50835807D01*
X62257156Y-50841416D01*
X62261399Y-50846886D01*
X62287346Y-50912971D01*
X62273445Y-50982594D01*
X62235554Y-51024116D01*
X62230000Y-51036370D01*
X62230000Y-51274158D01*
X62212453Y-51338297D01*
X62166855Y-51415399D01*
X62164644Y-51423010D01*
X62164643Y-51423012D01*
X62156347Y-51451569D01*
X62120438Y-51575169D01*
X62119934Y-51581574D01*
X62119933Y-51581579D01*
X62117693Y-51610042D01*
X62117500Y-51612498D01*
X62117500Y-52319500D01*
X62097498Y-52387621D01*
X62043842Y-52434114D01*
X61991500Y-52445500D01*
X61960500Y-52445500D01*
X61892379Y-52425498D01*
X61845886Y-52371842D01*
X61834500Y-52319500D01*
X61834500Y-51612498D01*
X61834307Y-51610042D01*
X61832067Y-51581579D01*
X61832066Y-51581574D01*
X61831562Y-51575169D01*
X61795653Y-51451569D01*
X61787357Y-51423012D01*
X61787356Y-51423010D01*
X61785145Y-51415399D01*
X61739547Y-51338297D01*
X61722000Y-51274158D01*
X61722000Y-51042122D01*
X61717526Y-51026884D01*
X61708118Y-51018732D01*
X61669734Y-50959006D01*
X61669734Y-50888010D01*
X61691071Y-50846280D01*
X61694845Y-50841415D01*
X61700453Y-50835807D01*
X61704489Y-50828983D01*
X61704491Y-50828980D01*
X61781108Y-50699427D01*
X61785145Y-50692601D01*
X61787521Y-50684425D01*
X61805509Y-50622508D01*
X61831562Y-50532831D01*
X61834500Y-50495502D01*
X61834500Y-49337498D01*
X61831562Y-49300169D01*
X61829769Y-49293997D01*
X61829768Y-49293992D01*
X61807875Y-49218638D01*
X61808078Y-49147642D01*
X61811084Y-49138742D01*
X61827820Y-49094684D01*
X61836524Y-49077785D01*
X61836344Y-49077693D01*
X61836766Y-49076867D01*
X61837935Y-49075046D01*
X61840788Y-49069507D01*
X61843029Y-49066147D01*
X61846193Y-49061024D01*
X61850734Y-49055284D01*
X61881655Y-48989125D01*
X61883561Y-48985225D01*
X61886326Y-48979811D01*
X61916769Y-48920192D01*
X61918508Y-48913084D01*
X61920607Y-48907441D01*
X61922524Y-48901678D01*
X61925622Y-48895050D01*
X61936671Y-48841928D01*
X61939751Y-48827123D01*
X61973207Y-48764503D01*
X62035206Y-48729911D01*
X62106065Y-48734330D01*
G37*
%TD.AperFunction*%
%TA.AperFunction,Conductor*%
G36*
X70775741Y-45809215D02*
G01*
X70820804Y-45838176D01*
X71001824Y-46019196D01*
X71035850Y-46081508D01*
X71030785Y-46152323D01*
X71001824Y-46197386D01*
X69875419Y-47323791D01*
X69813107Y-47357817D01*
X69742292Y-47352752D01*
X69697229Y-47323791D01*
X69516209Y-47142771D01*
X69482183Y-47080459D01*
X69487248Y-47009644D01*
X69516209Y-46964581D01*
X70642614Y-45838176D01*
X70704926Y-45804150D01*
X70775741Y-45809215D01*
G37*
%TD.AperFunction*%
%TA.AperFunction,Conductor*%
G36*
X28372323Y-45809215D02*
G01*
X28417386Y-45838176D01*
X29543791Y-46964581D01*
X29577817Y-47026893D01*
X29572752Y-47097708D01*
X29543791Y-47142771D01*
X29362771Y-47323791D01*
X29300459Y-47357817D01*
X29229644Y-47352752D01*
X29184581Y-47323791D01*
X28058176Y-46197386D01*
X28024150Y-46135074D01*
X28029215Y-46064259D01*
X28058176Y-46019196D01*
X28239196Y-45838176D01*
X28301508Y-45804150D01*
X28372323Y-45809215D01*
G37*
%TD.AperFunction*%
%TD*%
%TA.AperFunction,Conductor*%
%TO.N,/VBUS*%
G36*
X68141121Y-57678002D02*
G01*
X68187614Y-57731658D01*
X68199000Y-57784000D01*
X68199000Y-68581000D01*
X68178998Y-68649121D01*
X68125342Y-68695614D01*
X68073000Y-68707000D01*
X67182000Y-68707000D01*
X67113879Y-68686998D01*
X67067386Y-68633342D01*
X67056000Y-68581000D01*
X67056000Y-57784000D01*
X67076002Y-57715879D01*
X67129658Y-57669386D01*
X67182000Y-57658000D01*
X68073000Y-57658000D01*
X68141121Y-57678002D01*
G37*
%TD.AperFunction*%
%TD*%
M02*
