%TF.GenerationSoftware,KiCad,Pcbnew,(6.0.5)*%
%TF.CreationDate,2022-06-21T13:53:18+02:00*%
%TF.ProjectId,usb-c_demo1,7573622d-635f-4646-956d-6f312e6b6963,rev?*%
%TF.SameCoordinates,Original*%
%TF.FileFunction,Paste,Top*%
%TF.FilePolarity,Positive*%
%FSLAX46Y46*%
G04 Gerber Fmt 4.6, Leading zero omitted, Abs format (unit mm)*
G04 Created by KiCad (PCBNEW (6.0.5)) date 2022-06-21 13:53:18*
%MOMM*%
%LPD*%
G01*
G04 APERTURE LIST*
G04 Aperture macros list*
%AMRoundRect*
0 Rectangle with rounded corners*
0 $1 Rounding radius*
0 $2 $3 $4 $5 $6 $7 $8 $9 X,Y pos of 4 corners*
0 Add a 4 corners polygon primitive as box body*
4,1,4,$2,$3,$4,$5,$6,$7,$8,$9,$2,$3,0*
0 Add four circle primitives for the rounded corners*
1,1,$1+$1,$2,$3*
1,1,$1+$1,$4,$5*
1,1,$1+$1,$6,$7*
1,1,$1+$1,$8,$9*
0 Add four rect primitives between the rounded corners*
20,1,$1+$1,$2,$3,$4,$5,0*
20,1,$1+$1,$4,$5,$6,$7,0*
20,1,$1+$1,$6,$7,$8,$9,0*
20,1,$1+$1,$8,$9,$2,$3,0*%
G04 Aperture macros list end*
%ADD10RoundRect,0.225000X-0.225000X-0.250000X0.225000X-0.250000X0.225000X0.250000X-0.225000X0.250000X0*%
%ADD11R,1.450000X0.600000*%
%ADD12R,1.450000X0.300000*%
%ADD13RoundRect,0.225000X-0.250000X0.225000X-0.250000X-0.225000X0.250000X-0.225000X0.250000X0.225000X0*%
%ADD14RoundRect,0.200000X0.200000X0.275000X-0.200000X0.275000X-0.200000X-0.275000X0.200000X-0.275000X0*%
%ADD15C,1.800000*%
%ADD16RoundRect,0.150000X-0.512500X-0.150000X0.512500X-0.150000X0.512500X0.150000X-0.512500X0.150000X0*%
%ADD17RoundRect,0.218750X0.381250X-0.218750X0.381250X0.218750X-0.381250X0.218750X-0.381250X-0.218750X0*%
%ADD18RoundRect,0.218750X-0.256250X0.218750X-0.256250X-0.218750X0.256250X-0.218750X0.256250X0.218750X0*%
%ADD19RoundRect,0.218750X0.256250X-0.218750X0.256250X0.218750X-0.256250X0.218750X-0.256250X-0.218750X0*%
%ADD20RoundRect,0.125000X-0.625000X-0.125000X0.625000X-0.125000X0.625000X0.125000X-0.625000X0.125000X0*%
%ADD21RoundRect,0.125000X-0.125000X-0.625000X0.125000X-0.625000X0.125000X0.625000X-0.125000X0.625000X0*%
%ADD22RoundRect,0.225000X0.225000X0.250000X-0.225000X0.250000X-0.225000X-0.250000X0.225000X-0.250000X0*%
%ADD23RoundRect,0.250000X-0.625000X0.375000X-0.625000X-0.375000X0.625000X-0.375000X0.625000X0.375000X0*%
%ADD24RoundRect,0.237500X0.250000X0.237500X-0.250000X0.237500X-0.250000X-0.237500X0.250000X-0.237500X0*%
%ADD25R,1.000000X1.300000*%
%ADD26RoundRect,0.200000X-0.200000X-0.275000X0.200000X-0.275000X0.200000X0.275000X-0.200000X0.275000X0*%
%ADD27RoundRect,0.200000X0.275000X-0.200000X0.275000X0.200000X-0.275000X0.200000X-0.275000X-0.200000X0*%
%ADD28RoundRect,0.150000X0.150000X-0.512500X0.150000X0.512500X-0.150000X0.512500X-0.150000X-0.512500X0*%
G04 APERTURE END LIST*
D10*
%TO.C,C3*%
X54343000Y-68326000D03*
X55893000Y-68326000D03*
%TD*%
D11*
%TO.C,J1*%
X64535000Y-66750000D03*
X64535000Y-65950000D03*
D12*
X64535000Y-64750000D03*
X64535000Y-63750000D03*
X64535000Y-63250000D03*
X64535000Y-62250000D03*
D11*
X64535000Y-61050000D03*
X64535000Y-60250000D03*
X64535000Y-60250000D03*
X64535000Y-61050000D03*
D12*
X64535000Y-61750000D03*
X64535000Y-62750000D03*
X64535000Y-64250000D03*
X64535000Y-65250000D03*
D11*
X64535000Y-65950000D03*
X64535000Y-66750000D03*
%TD*%
D13*
%TO.C,C10*%
X38735000Y-65265000D03*
X38735000Y-66815000D03*
%TD*%
D14*
%TO.C,R4*%
X36639000Y-56134000D03*
X34989000Y-56134000D03*
%TD*%
D13*
%TO.C,C6*%
X47498000Y-70091000D03*
X47498000Y-71641000D03*
%TD*%
D10*
%TO.C,C9*%
X61201000Y-47879000D03*
X62751000Y-47879000D03*
%TD*%
%TO.C,C8*%
X61201000Y-54229000D03*
X62751000Y-54229000D03*
%TD*%
D15*
%TO.C,J2*%
X52070000Y-49530000D03*
X52070000Y-52070000D03*
X49530000Y-49530000D03*
X49530000Y-52070000D03*
X46990000Y-49530000D03*
X46990000Y-52070000D03*
%TD*%
D16*
%TO.C,U2*%
X58552500Y-62550000D03*
X58552500Y-63500000D03*
X58552500Y-64450000D03*
X60827500Y-64450000D03*
X60827500Y-63500000D03*
X60827500Y-62550000D03*
%TD*%
D17*
%TO.C,FB1*%
X70358000Y-55926500D03*
X70358000Y-53801500D03*
%TD*%
D13*
%TO.C,C7*%
X49530000Y-70091000D03*
X49530000Y-71641000D03*
%TD*%
D18*
%TO.C,D1*%
X36068000Y-50266500D03*
X36068000Y-51841500D03*
%TD*%
D19*
%TO.C,L1*%
X51562000Y-71653500D03*
X51562000Y-70078500D03*
%TD*%
D20*
%TO.C,U1*%
X43323000Y-60700000D03*
X43323000Y-61500000D03*
X43323000Y-62300000D03*
X43323000Y-63100000D03*
X43323000Y-63900000D03*
X43323000Y-64700000D03*
X43323000Y-65500000D03*
X43323000Y-66300000D03*
D21*
X44698000Y-67675000D03*
X45498000Y-67675000D03*
X46298000Y-67675000D03*
X47098000Y-67675000D03*
X47898000Y-67675000D03*
X48698000Y-67675000D03*
X49498000Y-67675000D03*
X50298000Y-67675000D03*
D20*
X51673000Y-66300000D03*
X51673000Y-65500000D03*
X51673000Y-64700000D03*
X51673000Y-63900000D03*
X51673000Y-63100000D03*
X51673000Y-62300000D03*
X51673000Y-61500000D03*
X51673000Y-60700000D03*
D21*
X50298000Y-59325000D03*
X49498000Y-59325000D03*
X48698000Y-59325000D03*
X47898000Y-59325000D03*
X47098000Y-59325000D03*
X46298000Y-59325000D03*
X45498000Y-59325000D03*
X44698000Y-59325000D03*
%TD*%
D22*
%TO.C,C1*%
X36589000Y-58166000D03*
X35039000Y-58166000D03*
%TD*%
D23*
%TO.C,F1*%
X66802000Y-53464000D03*
X66802000Y-56264000D03*
%TD*%
D10*
%TO.C,C2*%
X35039000Y-64770000D03*
X36589000Y-64770000D03*
%TD*%
D24*
%TO.C,R5*%
X60602500Y-66548000D03*
X58777500Y-66548000D03*
%TD*%
D25*
%TO.C,Y1*%
X36714000Y-62568000D03*
X36714000Y-60368000D03*
X34914000Y-60368000D03*
X34914000Y-62568000D03*
%TD*%
D22*
%TO.C,C4*%
X40653000Y-60198000D03*
X39103000Y-60198000D03*
%TD*%
D26*
%TO.C,R1*%
X39053000Y-62484000D03*
X40703000Y-62484000D03*
%TD*%
D22*
%TO.C,C5*%
X40653000Y-58166000D03*
X39103000Y-58166000D03*
%TD*%
D27*
%TO.C,R3*%
X38354000Y-48069000D03*
X38354000Y-46419000D03*
%TD*%
D28*
%TO.C,U3*%
X61026000Y-52191500D03*
X61976000Y-52191500D03*
X62926000Y-52191500D03*
X62926000Y-49916500D03*
X61026000Y-49916500D03*
%TD*%
D18*
%TO.C,D2*%
X38354000Y-50266500D03*
X38354000Y-51841500D03*
%TD*%
D27*
%TO.C,R2*%
X36068000Y-48069000D03*
X36068000Y-46419000D03*
%TD*%
D24*
%TO.C,R6*%
X60602500Y-60452000D03*
X58777500Y-60452000D03*
%TD*%
M02*
