%TF.GenerationSoftware,KiCad,Pcbnew,(6.0.5)*%
%TF.CreationDate,2022-06-21T13:53:18+02:00*%
%TF.ProjectId,usb-c_demo1,7573622d-635f-4646-956d-6f312e6b6963,rev?*%
%TF.SameCoordinates,Original*%
%TF.FileFunction,Copper,L3,Inr*%
%TF.FilePolarity,Positive*%
%FSLAX46Y46*%
G04 Gerber Fmt 4.6, Leading zero omitted, Abs format (unit mm)*
G04 Created by KiCad (PCBNEW (6.0.5)) date 2022-06-21 13:53:18*
%MOMM*%
%LPD*%
G01*
G04 APERTURE LIST*
%TA.AperFunction,ComponentPad*%
%ADD10O,1.600000X1.000000*%
%TD*%
%TA.AperFunction,ComponentPad*%
%ADD11O,2.100000X1.000000*%
%TD*%
%TA.AperFunction,ComponentPad*%
%ADD12R,1.700000X1.700000*%
%TD*%
%TA.AperFunction,ComponentPad*%
%ADD13O,1.700000X1.700000*%
%TD*%
%TA.AperFunction,ComponentPad*%
%ADD14R,2.200000X2.200000*%
%TD*%
%TA.AperFunction,ComponentPad*%
%ADD15C,2.200000*%
%TD*%
%TA.AperFunction,ComponentPad*%
%ADD16C,6.400000*%
%TD*%
%TA.AperFunction,ComponentPad*%
%ADD17C,0.800000*%
%TD*%
%TA.AperFunction,ViaPad*%
%ADD18C,0.600000*%
%TD*%
G04 APERTURE END LIST*
D10*
%TO.N,unconnected-(J1-PadS1)*%
%TO.C,J1*%
X69630000Y-67820000D03*
D11*
X65450000Y-59180000D03*
D10*
X69630000Y-59180000D03*
D11*
X65450000Y-67820000D03*
%TD*%
D12*
%TO.N,GND*%
%TO.C,J4*%
X36830000Y-74930000D03*
D13*
%TO.N,+3V3*%
X39370000Y-74930000D03*
%TO.N,PA4*%
X41910000Y-74930000D03*
%TO.N,PA5*%
X44450000Y-74930000D03*
%TO.N,PA6*%
X46990000Y-74930000D03*
%TO.N,PA7*%
X49530000Y-74930000D03*
%TD*%
D12*
%TO.N,GND*%
%TO.C,J5*%
X29210000Y-54610000D03*
D13*
%TO.N,+3V3*%
X29210000Y-57150000D03*
%TO.N,PA0*%
X29210000Y-59690000D03*
%TO.N,PA1*%
X29210000Y-62230000D03*
%TO.N,PA2*%
X29210000Y-64770000D03*
%TO.N,PA3*%
X29210000Y-67310000D03*
%TD*%
D14*
%TO.N,/VBUS*%
%TO.C,J3*%
X55880000Y-73660000D03*
D15*
%TO.N,PIXEL*%
X58420000Y-73660000D03*
%TO.N,GND*%
X60960000Y-73660000D03*
%TD*%
D16*
%TO.N,GND*%
%TO.C,H3*%
X30480000Y-48260000D03*
D17*
X30480000Y-45860000D03*
X28080000Y-48260000D03*
X28782944Y-49957056D03*
X32177056Y-49957056D03*
X30480000Y-50660000D03*
X28782944Y-46562944D03*
X32177056Y-46562944D03*
X32880000Y-48260000D03*
%TD*%
D16*
%TO.N,GND*%
%TO.C,H1*%
X68580000Y-48260000D03*
D17*
X68580000Y-50660000D03*
X70980000Y-48260000D03*
X70277056Y-46562944D03*
X70277056Y-49957056D03*
X66180000Y-48260000D03*
X68580000Y-45860000D03*
X66882944Y-49957056D03*
X66882944Y-46562944D03*
%TD*%
%TO.N,GND*%
%TO.C,H2*%
X28080000Y-73660000D03*
X32177056Y-71962944D03*
X28782944Y-71962944D03*
X32177056Y-75357056D03*
X30480000Y-76060000D03*
X28782944Y-75357056D03*
X32880000Y-73660000D03*
D16*
X30480000Y-73660000D03*
D17*
X30480000Y-71260000D03*
%TD*%
%TO.N,GND*%
%TO.C,H4*%
X66882944Y-75357056D03*
X70277056Y-75357056D03*
X68580000Y-71260000D03*
X66882944Y-71962944D03*
X70277056Y-71962944D03*
D16*
X68580000Y-73660000D03*
D17*
X66180000Y-73660000D03*
X68580000Y-76060000D03*
X70980000Y-73660000D03*
%TD*%
D18*
%TO.N,GND*%
X47752000Y-61468000D03*
X50927000Y-67691000D03*
X48641000Y-66548000D03*
X63500000Y-66802000D03*
X56769000Y-68326000D03*
X57912000Y-66548000D03*
X63500000Y-47879000D03*
X37338000Y-58166000D03*
X47498000Y-72390000D03*
X53213000Y-73914000D03*
X35052000Y-65659000D03*
X38354000Y-60198000D03*
X33020000Y-54229000D03*
X51943000Y-54229000D03*
X37846000Y-66802000D03*
X34036000Y-62611000D03*
X57023000Y-46482000D03*
X31623000Y-65913000D03*
X31877000Y-62992000D03*
X49530000Y-72390000D03*
X63500000Y-54229000D03*
X57785000Y-53721000D03*
X34290000Y-56134000D03*
X36068000Y-45720000D03*
X47879000Y-48641000D03*
X70104000Y-61595000D03*
X48133000Y-53975000D03*
X61976000Y-51181000D03*
X63500000Y-60198000D03*
X59690000Y-61468000D03*
X38227000Y-71628000D03*
X38354000Y-58166000D03*
X46482000Y-65278000D03*
X38354000Y-45720000D03*
X56007000Y-58674000D03*
X57912000Y-60452000D03*
X37592000Y-60325000D03*
X44704000Y-58166000D03*
%TO.N,/VBUS*%
X59690000Y-69723000D03*
X61722000Y-63500000D03*
%TO.N,NRST*%
X44450000Y-63119000D03*
X50419000Y-48641000D03*
%TO.N,+3V3*%
X41402000Y-60198000D03*
X36068000Y-52578000D03*
X53594000Y-68326000D03*
X44704000Y-60706000D03*
X41402000Y-58166000D03*
X50292000Y-66294000D03*
X61087000Y-48768000D03*
X52959000Y-48641000D03*
X61214000Y-47117000D03*
X51562000Y-72390000D03*
%TO.N,PIXEL*%
X54102000Y-65532000D03*
%TD*%
%TA.AperFunction,Conductor*%
%TO.N,+3V3*%
G36*
X35449365Y-44978502D02*
G01*
X35495858Y-45032158D01*
X35505962Y-45102432D01*
X35476468Y-45167012D01*
X35469402Y-45174523D01*
X35437493Y-45205771D01*
X35339235Y-45358238D01*
X35336826Y-45364858D01*
X35336824Y-45364861D01*
X35288296Y-45498191D01*
X35277197Y-45528685D01*
X35254463Y-45708640D01*
X35272163Y-45889160D01*
X35329418Y-46061273D01*
X35333065Y-46067295D01*
X35333066Y-46067297D01*
X35375344Y-46137106D01*
X35423380Y-46216424D01*
X35428269Y-46221487D01*
X35428270Y-46221488D01*
X35499348Y-46295091D01*
X35549382Y-46346902D01*
X35701159Y-46446222D01*
X35707763Y-46448678D01*
X35707765Y-46448679D01*
X35864558Y-46506990D01*
X35864560Y-46506990D01*
X35871168Y-46509448D01*
X35954995Y-46520633D01*
X36043980Y-46532507D01*
X36043984Y-46532507D01*
X36050961Y-46533438D01*
X36057972Y-46532800D01*
X36057976Y-46532800D01*
X36200459Y-46519832D01*
X36231600Y-46516998D01*
X36238302Y-46514820D01*
X36238304Y-46514820D01*
X36397409Y-46463124D01*
X36397412Y-46463123D01*
X36404108Y-46460947D01*
X36559912Y-46368069D01*
X36691266Y-46242982D01*
X36791643Y-46091902D01*
X36837332Y-45971627D01*
X36853555Y-45928920D01*
X36853556Y-45928918D01*
X36856055Y-45922338D01*
X36857035Y-45915366D01*
X36880748Y-45746639D01*
X36880748Y-45746636D01*
X36881299Y-45742717D01*
X36881616Y-45720000D01*
X36861397Y-45539745D01*
X36859080Y-45533091D01*
X36804064Y-45375106D01*
X36804062Y-45375103D01*
X36801745Y-45368448D01*
X36705626Y-45214624D01*
X36664573Y-45173284D01*
X36630766Y-45110854D01*
X36636077Y-45040057D01*
X36678822Y-44983369D01*
X36745428Y-44958790D01*
X36753979Y-44958500D01*
X37667244Y-44958500D01*
X37735365Y-44978502D01*
X37781858Y-45032158D01*
X37791962Y-45102432D01*
X37762468Y-45167012D01*
X37755402Y-45174523D01*
X37723493Y-45205771D01*
X37625235Y-45358238D01*
X37622826Y-45364858D01*
X37622824Y-45364861D01*
X37574296Y-45498191D01*
X37563197Y-45528685D01*
X37540463Y-45708640D01*
X37558163Y-45889160D01*
X37615418Y-46061273D01*
X37619065Y-46067295D01*
X37619066Y-46067297D01*
X37661344Y-46137106D01*
X37709380Y-46216424D01*
X37714269Y-46221487D01*
X37714270Y-46221488D01*
X37785348Y-46295091D01*
X37835382Y-46346902D01*
X37987159Y-46446222D01*
X37993763Y-46448678D01*
X37993765Y-46448679D01*
X38150558Y-46506990D01*
X38150560Y-46506990D01*
X38157168Y-46509448D01*
X38240995Y-46520633D01*
X38329980Y-46532507D01*
X38329984Y-46532507D01*
X38336961Y-46533438D01*
X38343972Y-46532800D01*
X38343976Y-46532800D01*
X38486459Y-46519832D01*
X38517600Y-46516998D01*
X38524302Y-46514820D01*
X38524304Y-46514820D01*
X38660277Y-46470640D01*
X56209463Y-46470640D01*
X56227163Y-46651160D01*
X56284418Y-46823273D01*
X56288065Y-46829295D01*
X56288066Y-46829297D01*
X56347036Y-46926668D01*
X56378380Y-46978424D01*
X56383269Y-46983487D01*
X56383270Y-46983488D01*
X56426083Y-47027822D01*
X56504382Y-47108902D01*
X56656159Y-47208222D01*
X56662763Y-47210678D01*
X56662765Y-47210679D01*
X56819558Y-47268990D01*
X56819560Y-47268990D01*
X56826168Y-47271448D01*
X56909995Y-47282633D01*
X56998980Y-47294507D01*
X56998984Y-47294507D01*
X57005961Y-47295438D01*
X57012972Y-47294800D01*
X57012976Y-47294800D01*
X57155459Y-47281832D01*
X57186600Y-47278998D01*
X57193302Y-47276820D01*
X57193304Y-47276820D01*
X57352409Y-47225124D01*
X57352412Y-47225123D01*
X57359108Y-47222947D01*
X57478951Y-47151506D01*
X57508860Y-47133677D01*
X57508862Y-47133676D01*
X57514912Y-47130069D01*
X57646266Y-47004982D01*
X57746643Y-46853902D01*
X57811055Y-46684338D01*
X57812035Y-46677366D01*
X57835748Y-46508639D01*
X57835748Y-46508636D01*
X57836299Y-46504717D01*
X57836616Y-46482000D01*
X57816397Y-46301745D01*
X57814080Y-46295091D01*
X57759064Y-46137106D01*
X57759062Y-46137103D01*
X57756745Y-46130448D01*
X57660626Y-45976624D01*
X57613254Y-45928920D01*
X57537778Y-45852915D01*
X57537774Y-45852912D01*
X57532815Y-45847918D01*
X57521697Y-45840862D01*
X57473538Y-45810300D01*
X57379666Y-45750727D01*
X57304501Y-45723962D01*
X57215425Y-45692243D01*
X57215420Y-45692242D01*
X57208790Y-45689881D01*
X57201802Y-45689048D01*
X57201799Y-45689047D01*
X57078698Y-45674368D01*
X57028680Y-45668404D01*
X57021677Y-45669140D01*
X57021676Y-45669140D01*
X56855288Y-45686628D01*
X56855286Y-45686629D01*
X56848288Y-45687364D01*
X56676579Y-45745818D01*
X56670575Y-45749512D01*
X56528095Y-45837166D01*
X56528092Y-45837168D01*
X56522088Y-45840862D01*
X56517053Y-45845793D01*
X56517050Y-45845795D01*
X56432166Y-45928920D01*
X56392493Y-45967771D01*
X56294235Y-46120238D01*
X56291826Y-46126858D01*
X56291824Y-46126861D01*
X56247791Y-46247841D01*
X56232197Y-46290685D01*
X56209463Y-46470640D01*
X38660277Y-46470640D01*
X38683409Y-46463124D01*
X38683412Y-46463123D01*
X38690108Y-46460947D01*
X38845912Y-46368069D01*
X38977266Y-46242982D01*
X39077643Y-46091902D01*
X39123332Y-45971627D01*
X39139555Y-45928920D01*
X39139556Y-45928918D01*
X39142055Y-45922338D01*
X39143035Y-45915366D01*
X39166748Y-45746639D01*
X39166748Y-45746636D01*
X39167299Y-45742717D01*
X39167616Y-45720000D01*
X39147397Y-45539745D01*
X39145080Y-45533091D01*
X39090064Y-45375106D01*
X39090062Y-45375103D01*
X39087745Y-45368448D01*
X38991626Y-45214624D01*
X38950573Y-45173284D01*
X38916766Y-45110854D01*
X38922077Y-45040057D01*
X38964822Y-44983369D01*
X39031428Y-44958790D01*
X39039979Y-44958500D01*
X66429399Y-44958500D01*
X66497520Y-44978502D01*
X66544013Y-45032158D01*
X66554117Y-45102432D01*
X66524623Y-45167012D01*
X66498024Y-45190172D01*
X66397207Y-45255643D01*
X66095124Y-45500266D01*
X65820266Y-45775124D01*
X65818194Y-45777682D01*
X65818191Y-45777686D01*
X65761318Y-45847918D01*
X65575643Y-46077207D01*
X65573848Y-46079970D01*
X65573848Y-46079971D01*
X65397997Y-46350760D01*
X65363938Y-46403206D01*
X65362443Y-46406140D01*
X65362439Y-46406147D01*
X65297906Y-46532800D01*
X65187468Y-46749547D01*
X65147953Y-46852487D01*
X65058298Y-47086047D01*
X65048167Y-47112438D01*
X64947562Y-47487901D01*
X64940244Y-47534106D01*
X64887417Y-47867640D01*
X64886754Y-47871824D01*
X64866411Y-48260000D01*
X64886754Y-48648176D01*
X64887267Y-48651416D01*
X64887268Y-48651424D01*
X64893617Y-48691507D01*
X64947562Y-49032099D01*
X65048167Y-49407562D01*
X65049352Y-49410650D01*
X65049353Y-49410652D01*
X65065804Y-49453507D01*
X65187468Y-49770453D01*
X65188966Y-49773393D01*
X65287674Y-49967117D01*
X65363938Y-50116794D01*
X65365734Y-50119560D01*
X65365736Y-50119563D01*
X65493154Y-50315770D01*
X65575643Y-50442793D01*
X65623381Y-50501744D01*
X65810982Y-50733411D01*
X65820266Y-50744876D01*
X66095124Y-51019734D01*
X66397207Y-51264357D01*
X66399970Y-51266152D01*
X66399971Y-51266152D01*
X66650017Y-51428533D01*
X66723205Y-51476062D01*
X66726139Y-51477557D01*
X66726146Y-51477561D01*
X67022034Y-51628323D01*
X67069547Y-51652532D01*
X67432438Y-51791833D01*
X67807901Y-51892438D01*
X67994212Y-51921947D01*
X68188576Y-51952732D01*
X68188584Y-51952733D01*
X68191824Y-51953246D01*
X68580000Y-51973589D01*
X68968176Y-51953246D01*
X68971416Y-51952733D01*
X68971424Y-51952732D01*
X69165788Y-51921947D01*
X69352099Y-51892438D01*
X69727562Y-51791833D01*
X70090453Y-51652532D01*
X70137966Y-51628323D01*
X70433854Y-51477561D01*
X70433861Y-51477557D01*
X70436795Y-51476062D01*
X70509984Y-51428533D01*
X70760029Y-51266152D01*
X70760030Y-51266152D01*
X70762793Y-51264357D01*
X71064876Y-51019734D01*
X71339734Y-50744876D01*
X71349019Y-50733411D01*
X71536619Y-50501744D01*
X71584357Y-50442793D01*
X71649828Y-50341976D01*
X71703703Y-50295740D01*
X71774025Y-50285970D01*
X71838464Y-50315770D01*
X71876564Y-50375678D01*
X71881500Y-50410601D01*
X71881500Y-71509399D01*
X71861498Y-71577520D01*
X71807842Y-71624013D01*
X71737568Y-71634117D01*
X71672988Y-71604623D01*
X71649827Y-71578023D01*
X71649501Y-71577520D01*
X71584357Y-71477207D01*
X71462046Y-71326166D01*
X71341809Y-71177686D01*
X71341806Y-71177682D01*
X71339734Y-71175124D01*
X71064876Y-70900266D01*
X71059006Y-70895512D01*
X70765355Y-70657718D01*
X70762793Y-70655643D01*
X70579233Y-70536438D01*
X70439564Y-70445736D01*
X70439561Y-70445734D01*
X70436795Y-70443938D01*
X70433861Y-70442443D01*
X70433854Y-70442439D01*
X70093393Y-70268966D01*
X70090453Y-70267468D01*
X69727562Y-70128167D01*
X69352099Y-70027562D01*
X69148207Y-69995268D01*
X68971424Y-69967268D01*
X68971416Y-69967267D01*
X68968176Y-69966754D01*
X68580000Y-69946411D01*
X68191824Y-69966754D01*
X68188584Y-69967267D01*
X68188576Y-69967268D01*
X68011793Y-69995268D01*
X67807901Y-70027562D01*
X67432438Y-70128167D01*
X67069547Y-70267468D01*
X67066607Y-70268966D01*
X66726147Y-70442439D01*
X66726140Y-70442443D01*
X66723206Y-70443938D01*
X66720440Y-70445734D01*
X66720437Y-70445736D01*
X66399971Y-70653848D01*
X66397207Y-70655643D01*
X66394645Y-70657718D01*
X66100995Y-70895512D01*
X66095124Y-70900266D01*
X65820266Y-71175124D01*
X65818194Y-71177682D01*
X65818191Y-71177686D01*
X65697954Y-71326166D01*
X65575643Y-71477207D01*
X65573848Y-71479970D01*
X65573848Y-71479971D01*
X65397099Y-71752143D01*
X65363938Y-71803206D01*
X65362443Y-71806140D01*
X65362439Y-71806147D01*
X65234418Y-72057402D01*
X65187468Y-72149547D01*
X65158516Y-72224970D01*
X65049691Y-72508469D01*
X65048167Y-72512438D01*
X64947562Y-72887901D01*
X64940566Y-72932072D01*
X64900866Y-73182727D01*
X64886754Y-73271824D01*
X64866411Y-73660000D01*
X64886754Y-74048176D01*
X64887267Y-74051416D01*
X64887268Y-74051424D01*
X64897550Y-74116338D01*
X64947562Y-74432099D01*
X65048167Y-74807562D01*
X65049352Y-74810650D01*
X65049353Y-74810652D01*
X65069240Y-74862460D01*
X65187468Y-75170453D01*
X65188966Y-75173393D01*
X65332872Y-75455823D01*
X65363938Y-75516794D01*
X65365734Y-75519560D01*
X65365736Y-75519563D01*
X65505699Y-75735088D01*
X65575643Y-75842793D01*
X65629134Y-75908848D01*
X65784652Y-76100896D01*
X65820266Y-76144876D01*
X66095124Y-76419734D01*
X66397207Y-76664357D01*
X66399970Y-76666152D01*
X66399971Y-76666152D01*
X66498022Y-76729827D01*
X66544259Y-76783704D01*
X66554029Y-76854025D01*
X66524229Y-76918465D01*
X66464320Y-76956564D01*
X66429398Y-76961500D01*
X61962999Y-76961500D01*
X61894878Y-76941498D01*
X61848385Y-76887842D01*
X61838281Y-76817568D01*
X61852162Y-76775575D01*
X61940514Y-76612170D01*
X62001898Y-76413871D01*
X62003429Y-76399303D01*
X62022952Y-76213554D01*
X62022952Y-76213552D01*
X62023596Y-76207425D01*
X62009163Y-76048831D01*
X62005341Y-76006836D01*
X62005340Y-76006833D01*
X62004782Y-76000697D01*
X62002298Y-75992255D01*
X61952988Y-75824717D01*
X61946173Y-75801560D01*
X61850001Y-75617600D01*
X61839612Y-75604678D01*
X61766586Y-75513853D01*
X61719929Y-75455823D01*
X61715211Y-75451865D01*
X61715209Y-75451862D01*
X61584119Y-75341864D01*
X61544793Y-75282755D01*
X61543667Y-75211767D01*
X61581098Y-75151439D01*
X61616892Y-75128935D01*
X61647919Y-75116083D01*
X61687928Y-75099511D01*
X61687932Y-75099509D01*
X61692502Y-75097616D01*
X61908376Y-74965328D01*
X62092426Y-74808134D01*
X62097142Y-74804106D01*
X62100898Y-74800898D01*
X62265328Y-74608376D01*
X62397616Y-74392502D01*
X62439340Y-74291773D01*
X62492611Y-74163164D01*
X62492612Y-74163162D01*
X62494505Y-74158591D01*
X62534042Y-73993907D01*
X62552454Y-73917216D01*
X62552455Y-73917210D01*
X62553609Y-73912403D01*
X62573474Y-73660000D01*
X62553609Y-73407597D01*
X62551731Y-73399771D01*
X62498444Y-73177818D01*
X62494505Y-73161409D01*
X62480393Y-73127340D01*
X62399511Y-72932072D01*
X62399509Y-72932068D01*
X62397616Y-72927498D01*
X62265328Y-72711624D01*
X62100898Y-72519102D01*
X62093096Y-72512438D01*
X62010957Y-72442285D01*
X61908376Y-72354672D01*
X61692502Y-72222384D01*
X61687932Y-72220491D01*
X61687928Y-72220489D01*
X61463164Y-72127389D01*
X61463162Y-72127388D01*
X61458591Y-72125495D01*
X61373968Y-72105179D01*
X61217216Y-72067546D01*
X61217210Y-72067545D01*
X61212403Y-72066391D01*
X60960000Y-72046526D01*
X60707597Y-72066391D01*
X60702790Y-72067545D01*
X60702784Y-72067546D01*
X60546032Y-72105179D01*
X60461409Y-72125495D01*
X60456838Y-72127388D01*
X60456836Y-72127389D01*
X60232072Y-72220489D01*
X60232068Y-72220491D01*
X60227498Y-72222384D01*
X60011624Y-72354672D01*
X59909043Y-72442285D01*
X59826905Y-72512438D01*
X59819102Y-72519102D01*
X59815894Y-72522858D01*
X59815887Y-72522865D01*
X59785810Y-72558080D01*
X59726359Y-72596889D01*
X59655365Y-72597395D01*
X59594190Y-72558080D01*
X59564113Y-72522865D01*
X59564106Y-72522858D01*
X59560898Y-72519102D01*
X59553096Y-72512438D01*
X59470957Y-72442285D01*
X59368376Y-72354672D01*
X59152502Y-72222384D01*
X59147932Y-72220491D01*
X59147928Y-72220489D01*
X58923164Y-72127389D01*
X58923162Y-72127388D01*
X58918591Y-72125495D01*
X58833968Y-72105179D01*
X58677216Y-72067546D01*
X58677210Y-72067545D01*
X58672403Y-72066391D01*
X58420000Y-72046526D01*
X58167597Y-72066391D01*
X58162790Y-72067545D01*
X58162784Y-72067546D01*
X58006032Y-72105179D01*
X57921409Y-72125495D01*
X57916838Y-72127388D01*
X57916836Y-72127389D01*
X57692072Y-72220489D01*
X57692068Y-72220491D01*
X57687498Y-72222384D01*
X57683278Y-72224970D01*
X57562614Y-72298913D01*
X57494080Y-72317451D01*
X57426404Y-72295995D01*
X57395953Y-72267046D01*
X57389743Y-72258760D01*
X57343261Y-72196739D01*
X57226705Y-72109385D01*
X57090316Y-72058255D01*
X57028134Y-72051500D01*
X54731866Y-72051500D01*
X54669684Y-72058255D01*
X54533295Y-72109385D01*
X54416739Y-72196739D01*
X54329385Y-72313295D01*
X54278255Y-72449684D01*
X54271500Y-72511866D01*
X54271500Y-73843513D01*
X54251498Y-73911634D01*
X54243788Y-73918315D01*
X54270160Y-73975580D01*
X54271500Y-73993907D01*
X54271500Y-74808134D01*
X54278255Y-74870316D01*
X54329385Y-75006705D01*
X54416739Y-75123261D01*
X54533295Y-75210615D01*
X54669684Y-75261745D01*
X54731866Y-75268500D01*
X55009022Y-75268500D01*
X55077143Y-75288502D01*
X55123636Y-75342158D01*
X55133740Y-75412432D01*
X55106106Y-75474815D01*
X54998217Y-75605230D01*
X54995288Y-75610647D01*
X54995286Y-75610650D01*
X54902416Y-75782410D01*
X54902414Y-75782415D01*
X54899486Y-75787830D01*
X54838102Y-75986129D01*
X54837458Y-75992254D01*
X54837458Y-75992255D01*
X54819704Y-76161181D01*
X54816404Y-76192575D01*
X54835218Y-76399303D01*
X54836956Y-76405209D01*
X54836957Y-76405213D01*
X54880473Y-76553068D01*
X54893827Y-76598440D01*
X54896681Y-76603899D01*
X54987241Y-76777125D01*
X55001075Y-76846761D01*
X54975065Y-76912821D01*
X54917469Y-76954333D01*
X54875579Y-76961500D01*
X32630602Y-76961500D01*
X32562481Y-76941498D01*
X32515988Y-76887842D01*
X32505884Y-76817568D01*
X32535378Y-76752988D01*
X32561978Y-76729827D01*
X32660029Y-76666152D01*
X32660030Y-76666152D01*
X32662793Y-76664357D01*
X32964876Y-76419734D01*
X33239734Y-76144876D01*
X33275349Y-76100896D01*
X33430866Y-75908848D01*
X33484357Y-75842793D01*
X33493877Y-75828134D01*
X35471500Y-75828134D01*
X35478255Y-75890316D01*
X35529385Y-76026705D01*
X35616739Y-76143261D01*
X35733295Y-76230615D01*
X35869684Y-76281745D01*
X35931866Y-76288500D01*
X37728134Y-76288500D01*
X37790316Y-76281745D01*
X37926705Y-76230615D01*
X38043261Y-76143261D01*
X38130615Y-76026705D01*
X38145826Y-75986129D01*
X38174798Y-75908848D01*
X38217440Y-75852084D01*
X38284001Y-75827384D01*
X38353350Y-75842592D01*
X38388017Y-75870580D01*
X38413218Y-75899673D01*
X38420580Y-75906883D01*
X38584434Y-76042916D01*
X38592881Y-76048831D01*
X38776756Y-76156279D01*
X38786042Y-76160729D01*
X38985001Y-76236703D01*
X38994899Y-76239579D01*
X39098250Y-76260606D01*
X39112299Y-76259410D01*
X39116000Y-76249065D01*
X39116000Y-76248517D01*
X39624000Y-76248517D01*
X39628064Y-76262359D01*
X39641478Y-76264393D01*
X39648184Y-76263534D01*
X39658262Y-76261392D01*
X39862255Y-76200191D01*
X39871842Y-76196433D01*
X40063095Y-76102739D01*
X40071945Y-76097464D01*
X40245328Y-75973792D01*
X40253200Y-75967139D01*
X40404052Y-75816812D01*
X40410730Y-75808965D01*
X40538022Y-75631819D01*
X40539279Y-75632722D01*
X40586373Y-75589362D01*
X40656311Y-75577145D01*
X40721751Y-75604678D01*
X40749579Y-75636511D01*
X40809987Y-75735088D01*
X40956250Y-75903938D01*
X41128126Y-76046632D01*
X41321000Y-76159338D01*
X41529692Y-76239030D01*
X41534760Y-76240061D01*
X41534763Y-76240062D01*
X41629862Y-76259410D01*
X41748597Y-76283567D01*
X41753772Y-76283757D01*
X41753774Y-76283757D01*
X41966673Y-76291564D01*
X41966677Y-76291564D01*
X41971837Y-76291753D01*
X41976957Y-76291097D01*
X41976959Y-76291097D01*
X42188288Y-76264025D01*
X42188289Y-76264025D01*
X42193416Y-76263368D01*
X42198366Y-76261883D01*
X42402429Y-76200661D01*
X42402434Y-76200659D01*
X42407384Y-76199174D01*
X42607994Y-76100896D01*
X42789860Y-75971173D01*
X42948096Y-75813489D01*
X42960591Y-75796101D01*
X43078453Y-75632077D01*
X43079776Y-75633028D01*
X43126645Y-75589857D01*
X43196580Y-75577625D01*
X43262026Y-75605144D01*
X43289875Y-75636994D01*
X43349987Y-75735088D01*
X43496250Y-75903938D01*
X43668126Y-76046632D01*
X43861000Y-76159338D01*
X44069692Y-76239030D01*
X44074760Y-76240061D01*
X44074763Y-76240062D01*
X44169862Y-76259410D01*
X44288597Y-76283567D01*
X44293772Y-76283757D01*
X44293774Y-76283757D01*
X44506673Y-76291564D01*
X44506677Y-76291564D01*
X44511837Y-76291753D01*
X44516957Y-76291097D01*
X44516959Y-76291097D01*
X44728288Y-76264025D01*
X44728289Y-76264025D01*
X44733416Y-76263368D01*
X44738366Y-76261883D01*
X44942429Y-76200661D01*
X44942434Y-76200659D01*
X44947384Y-76199174D01*
X45147994Y-76100896D01*
X45329860Y-75971173D01*
X45488096Y-75813489D01*
X45500591Y-75796101D01*
X45618453Y-75632077D01*
X45619776Y-75633028D01*
X45666645Y-75589857D01*
X45736580Y-75577625D01*
X45802026Y-75605144D01*
X45829875Y-75636994D01*
X45889987Y-75735088D01*
X46036250Y-75903938D01*
X46208126Y-76046632D01*
X46401000Y-76159338D01*
X46609692Y-76239030D01*
X46614760Y-76240061D01*
X46614763Y-76240062D01*
X46709862Y-76259410D01*
X46828597Y-76283567D01*
X46833772Y-76283757D01*
X46833774Y-76283757D01*
X47046673Y-76291564D01*
X47046677Y-76291564D01*
X47051837Y-76291753D01*
X47056957Y-76291097D01*
X47056959Y-76291097D01*
X47268288Y-76264025D01*
X47268289Y-76264025D01*
X47273416Y-76263368D01*
X47278366Y-76261883D01*
X47482429Y-76200661D01*
X47482434Y-76200659D01*
X47487384Y-76199174D01*
X47687994Y-76100896D01*
X47869860Y-75971173D01*
X48028096Y-75813489D01*
X48040591Y-75796101D01*
X48158453Y-75632077D01*
X48159776Y-75633028D01*
X48206645Y-75589857D01*
X48276580Y-75577625D01*
X48342026Y-75605144D01*
X48369875Y-75636994D01*
X48429987Y-75735088D01*
X48576250Y-75903938D01*
X48748126Y-76046632D01*
X48941000Y-76159338D01*
X49149692Y-76239030D01*
X49154760Y-76240061D01*
X49154763Y-76240062D01*
X49249862Y-76259410D01*
X49368597Y-76283567D01*
X49373772Y-76283757D01*
X49373774Y-76283757D01*
X49586673Y-76291564D01*
X49586677Y-76291564D01*
X49591837Y-76291753D01*
X49596957Y-76291097D01*
X49596959Y-76291097D01*
X49808288Y-76264025D01*
X49808289Y-76264025D01*
X49813416Y-76263368D01*
X49818366Y-76261883D01*
X50022429Y-76200661D01*
X50022434Y-76200659D01*
X50027384Y-76199174D01*
X50227994Y-76100896D01*
X50409860Y-75971173D01*
X50568096Y-75813489D01*
X50580591Y-75796101D01*
X50695435Y-75636277D01*
X50698453Y-75632077D01*
X50702910Y-75623060D01*
X50795136Y-75436453D01*
X50795137Y-75436451D01*
X50797430Y-75431811D01*
X50862370Y-75218069D01*
X50891529Y-74996590D01*
X50893156Y-74930000D01*
X50874852Y-74707361D01*
X50820431Y-74490702D01*
X50731354Y-74285840D01*
X50645920Y-74153779D01*
X50612822Y-74102617D01*
X50612820Y-74102614D01*
X50610014Y-74098277D01*
X50459670Y-73933051D01*
X50455619Y-73929852D01*
X50455615Y-73929848D01*
X50421164Y-73902640D01*
X52399463Y-73902640D01*
X52417163Y-74083160D01*
X52474418Y-74255273D01*
X52478065Y-74261295D01*
X52478066Y-74261297D01*
X52560082Y-74396722D01*
X52568380Y-74410424D01*
X52694382Y-74540902D01*
X52700278Y-74544760D01*
X52803238Y-74612135D01*
X52846159Y-74640222D01*
X52852763Y-74642678D01*
X52852765Y-74642679D01*
X53009558Y-74700990D01*
X53009560Y-74700990D01*
X53016168Y-74703448D01*
X53099995Y-74714633D01*
X53188980Y-74726507D01*
X53188984Y-74726507D01*
X53195961Y-74727438D01*
X53202972Y-74726800D01*
X53202976Y-74726800D01*
X53345459Y-74713832D01*
X53376600Y-74710998D01*
X53383302Y-74708820D01*
X53383304Y-74708820D01*
X53542409Y-74657124D01*
X53542412Y-74657123D01*
X53549108Y-74654947D01*
X53704912Y-74562069D01*
X53836266Y-74436982D01*
X53936643Y-74285902D01*
X53983267Y-74163164D01*
X53998555Y-74122920D01*
X53998556Y-74122918D01*
X54001055Y-74116338D01*
X54004779Y-74089844D01*
X54020726Y-73976371D01*
X54048194Y-73915717D01*
X54024604Y-73879011D01*
X54020285Y-73857558D01*
X54007182Y-73740744D01*
X54006397Y-73733745D01*
X54002975Y-73723919D01*
X53949064Y-73569106D01*
X53949062Y-73569103D01*
X53946745Y-73562448D01*
X53850626Y-73408624D01*
X53836941Y-73394843D01*
X53727778Y-73284915D01*
X53727774Y-73284912D01*
X53722815Y-73279918D01*
X53715246Y-73275114D01*
X53600834Y-73202507D01*
X53569666Y-73182727D01*
X53509798Y-73161409D01*
X53405425Y-73124243D01*
X53405420Y-73124242D01*
X53398790Y-73121881D01*
X53391802Y-73121048D01*
X53391799Y-73121047D01*
X53268698Y-73106368D01*
X53218680Y-73100404D01*
X53211677Y-73101140D01*
X53211676Y-73101140D01*
X53045288Y-73118628D01*
X53045286Y-73118629D01*
X53038288Y-73119364D01*
X52866579Y-73177818D01*
X52850619Y-73187637D01*
X52718095Y-73269166D01*
X52718092Y-73269168D01*
X52712088Y-73272862D01*
X52707053Y-73277793D01*
X52707050Y-73277795D01*
X52587525Y-73394843D01*
X52582493Y-73399771D01*
X52484235Y-73552238D01*
X52481826Y-73558858D01*
X52481824Y-73558861D01*
X52434239Y-73689599D01*
X52422197Y-73722685D01*
X52399463Y-73902640D01*
X50421164Y-73902640D01*
X50288414Y-73797800D01*
X50288410Y-73797798D01*
X50284359Y-73794598D01*
X50248028Y-73774542D01*
X50186802Y-73740744D01*
X50088789Y-73686638D01*
X50083920Y-73684914D01*
X50083916Y-73684912D01*
X49883087Y-73613795D01*
X49883083Y-73613794D01*
X49878212Y-73612069D01*
X49873119Y-73611162D01*
X49873116Y-73611161D01*
X49663373Y-73573800D01*
X49663367Y-73573799D01*
X49658284Y-73572894D01*
X49584452Y-73571992D01*
X49440081Y-73570228D01*
X49440079Y-73570228D01*
X49434911Y-73570165D01*
X49214091Y-73603955D01*
X49001756Y-73673357D01*
X48803607Y-73776507D01*
X48799474Y-73779610D01*
X48799471Y-73779612D01*
X48629100Y-73907530D01*
X48624965Y-73910635D01*
X48470629Y-74072138D01*
X48363201Y-74229621D01*
X48308293Y-74274621D01*
X48237768Y-74282792D01*
X48174021Y-74251538D01*
X48153324Y-74227054D01*
X48072822Y-74102617D01*
X48072820Y-74102614D01*
X48070014Y-74098277D01*
X47919670Y-73933051D01*
X47915619Y-73929852D01*
X47915615Y-73929848D01*
X47748414Y-73797800D01*
X47748410Y-73797798D01*
X47744359Y-73794598D01*
X47708028Y-73774542D01*
X47646802Y-73740744D01*
X47548789Y-73686638D01*
X47543920Y-73684914D01*
X47543916Y-73684912D01*
X47343087Y-73613795D01*
X47343083Y-73613794D01*
X47338212Y-73612069D01*
X47333119Y-73611162D01*
X47333116Y-73611161D01*
X47123373Y-73573800D01*
X47123367Y-73573799D01*
X47118284Y-73572894D01*
X47044452Y-73571992D01*
X46900081Y-73570228D01*
X46900079Y-73570228D01*
X46894911Y-73570165D01*
X46674091Y-73603955D01*
X46461756Y-73673357D01*
X46263607Y-73776507D01*
X46259474Y-73779610D01*
X46259471Y-73779612D01*
X46089100Y-73907530D01*
X46084965Y-73910635D01*
X45930629Y-74072138D01*
X45823201Y-74229621D01*
X45768293Y-74274621D01*
X45697768Y-74282792D01*
X45634021Y-74251538D01*
X45613324Y-74227054D01*
X45532822Y-74102617D01*
X45532820Y-74102614D01*
X45530014Y-74098277D01*
X45379670Y-73933051D01*
X45375619Y-73929852D01*
X45375615Y-73929848D01*
X45208414Y-73797800D01*
X45208410Y-73797798D01*
X45204359Y-73794598D01*
X45168028Y-73774542D01*
X45106802Y-73740744D01*
X45008789Y-73686638D01*
X45003920Y-73684914D01*
X45003916Y-73684912D01*
X44803087Y-73613795D01*
X44803083Y-73613794D01*
X44798212Y-73612069D01*
X44793119Y-73611162D01*
X44793116Y-73611161D01*
X44583373Y-73573800D01*
X44583367Y-73573799D01*
X44578284Y-73572894D01*
X44504452Y-73571992D01*
X44360081Y-73570228D01*
X44360079Y-73570228D01*
X44354911Y-73570165D01*
X44134091Y-73603955D01*
X43921756Y-73673357D01*
X43723607Y-73776507D01*
X43719474Y-73779610D01*
X43719471Y-73779612D01*
X43549100Y-73907530D01*
X43544965Y-73910635D01*
X43390629Y-74072138D01*
X43283201Y-74229621D01*
X43228293Y-74274621D01*
X43157768Y-74282792D01*
X43094021Y-74251538D01*
X43073324Y-74227054D01*
X42992822Y-74102617D01*
X42992820Y-74102614D01*
X42990014Y-74098277D01*
X42839670Y-73933051D01*
X42835619Y-73929852D01*
X42835615Y-73929848D01*
X42668414Y-73797800D01*
X42668410Y-73797798D01*
X42664359Y-73794598D01*
X42628028Y-73774542D01*
X42566802Y-73740744D01*
X42468789Y-73686638D01*
X42463920Y-73684914D01*
X42463916Y-73684912D01*
X42263087Y-73613795D01*
X42263083Y-73613794D01*
X42258212Y-73612069D01*
X42253119Y-73611162D01*
X42253116Y-73611161D01*
X42043373Y-73573800D01*
X42043367Y-73573799D01*
X42038284Y-73572894D01*
X41964452Y-73571992D01*
X41820081Y-73570228D01*
X41820079Y-73570228D01*
X41814911Y-73570165D01*
X41594091Y-73603955D01*
X41381756Y-73673357D01*
X41183607Y-73776507D01*
X41179474Y-73779610D01*
X41179471Y-73779612D01*
X41009100Y-73907530D01*
X41004965Y-73910635D01*
X40850629Y-74072138D01*
X40743204Y-74229618D01*
X40742898Y-74230066D01*
X40687987Y-74275069D01*
X40617462Y-74283240D01*
X40553715Y-74251986D01*
X40533018Y-74227502D01*
X40452426Y-74102926D01*
X40446136Y-74094757D01*
X40302806Y-73937240D01*
X40295273Y-73930215D01*
X40128139Y-73798222D01*
X40119552Y-73792517D01*
X39933117Y-73689599D01*
X39923705Y-73685369D01*
X39722959Y-73614280D01*
X39712988Y-73611646D01*
X39641837Y-73598972D01*
X39628540Y-73600432D01*
X39624000Y-73614989D01*
X39624000Y-76248517D01*
X39116000Y-76248517D01*
X39116000Y-73613102D01*
X39112082Y-73599758D01*
X39097806Y-73597771D01*
X39059324Y-73603660D01*
X39049288Y-73606051D01*
X38846868Y-73672212D01*
X38837359Y-73676209D01*
X38648463Y-73774542D01*
X38639738Y-73780036D01*
X38469433Y-73907905D01*
X38461726Y-73914748D01*
X38384478Y-73995584D01*
X38322954Y-74031014D01*
X38252042Y-74027557D01*
X38194255Y-73986311D01*
X38175402Y-73952763D01*
X38133767Y-73841703D01*
X38130615Y-73833295D01*
X38043261Y-73716739D01*
X37926705Y-73629385D01*
X37790316Y-73578255D01*
X37728134Y-73571500D01*
X35931866Y-73571500D01*
X35869684Y-73578255D01*
X35733295Y-73629385D01*
X35616739Y-73716739D01*
X35529385Y-73833295D01*
X35478255Y-73969684D01*
X35471500Y-74031866D01*
X35471500Y-75828134D01*
X33493877Y-75828134D01*
X33554301Y-75735088D01*
X33694264Y-75519563D01*
X33694266Y-75519560D01*
X33696062Y-75516794D01*
X33727129Y-75455823D01*
X33871034Y-75173393D01*
X33872532Y-75170453D01*
X33990760Y-74862460D01*
X34010647Y-74810652D01*
X34010648Y-74810650D01*
X34011833Y-74807562D01*
X34112438Y-74432099D01*
X34162450Y-74116338D01*
X34172732Y-74051424D01*
X34172733Y-74051416D01*
X34173246Y-74048176D01*
X34193589Y-73660000D01*
X34173246Y-73271824D01*
X34159135Y-73182727D01*
X34119434Y-72932072D01*
X34112438Y-72887901D01*
X34011833Y-72512438D01*
X34010310Y-72508469D01*
X33901484Y-72224970D01*
X33872532Y-72149547D01*
X33825582Y-72057402D01*
X33697561Y-71806147D01*
X33697557Y-71806140D01*
X33696062Y-71803206D01*
X33662902Y-71752143D01*
X33574906Y-71616640D01*
X37413463Y-71616640D01*
X37431163Y-71797160D01*
X37488418Y-71969273D01*
X37492065Y-71975295D01*
X37492066Y-71975297D01*
X37547934Y-72067546D01*
X37582380Y-72124424D01*
X37587269Y-72129487D01*
X37587270Y-72129488D01*
X37658348Y-72203091D01*
X37708382Y-72254902D01*
X37860159Y-72354222D01*
X37866763Y-72356678D01*
X37866765Y-72356679D01*
X38023558Y-72414990D01*
X38023560Y-72414990D01*
X38030168Y-72417448D01*
X38113995Y-72428633D01*
X38202980Y-72440507D01*
X38202984Y-72440507D01*
X38209961Y-72441438D01*
X38216972Y-72440800D01*
X38216976Y-72440800D01*
X38359459Y-72427832D01*
X38390600Y-72424998D01*
X38397302Y-72422820D01*
X38397304Y-72422820D01*
X38533277Y-72378640D01*
X46684463Y-72378640D01*
X46702163Y-72559160D01*
X46759418Y-72731273D01*
X46763065Y-72737295D01*
X46763066Y-72737297D01*
X46773978Y-72755314D01*
X46853380Y-72886424D01*
X46979382Y-73016902D01*
X46985278Y-73020760D01*
X47106987Y-73100404D01*
X47131159Y-73116222D01*
X47137763Y-73118678D01*
X47137765Y-73118679D01*
X47294558Y-73176990D01*
X47294560Y-73176990D01*
X47301168Y-73179448D01*
X47384995Y-73190633D01*
X47473980Y-73202507D01*
X47473984Y-73202507D01*
X47480961Y-73203438D01*
X47487972Y-73202800D01*
X47487976Y-73202800D01*
X47630459Y-73189832D01*
X47661600Y-73186998D01*
X47668302Y-73184820D01*
X47668304Y-73184820D01*
X47827409Y-73133124D01*
X47827412Y-73133123D01*
X47834108Y-73130947D01*
X47989912Y-73038069D01*
X48121266Y-72912982D01*
X48221643Y-72761902D01*
X48286055Y-72592338D01*
X48287035Y-72585366D01*
X48310748Y-72416639D01*
X48310748Y-72416636D01*
X48311299Y-72412717D01*
X48311616Y-72390000D01*
X48310342Y-72378640D01*
X48716463Y-72378640D01*
X48734163Y-72559160D01*
X48791418Y-72731273D01*
X48795065Y-72737295D01*
X48795066Y-72737297D01*
X48805978Y-72755314D01*
X48885380Y-72886424D01*
X49011382Y-73016902D01*
X49017278Y-73020760D01*
X49138987Y-73100404D01*
X49163159Y-73116222D01*
X49169763Y-73118678D01*
X49169765Y-73118679D01*
X49326558Y-73176990D01*
X49326560Y-73176990D01*
X49333168Y-73179448D01*
X49416995Y-73190633D01*
X49505980Y-73202507D01*
X49505984Y-73202507D01*
X49512961Y-73203438D01*
X49519972Y-73202800D01*
X49519976Y-73202800D01*
X49662459Y-73189832D01*
X49693600Y-73186998D01*
X49700302Y-73184820D01*
X49700304Y-73184820D01*
X49859409Y-73133124D01*
X49859412Y-73133123D01*
X49866108Y-73130947D01*
X50021912Y-73038069D01*
X50153266Y-72912982D01*
X50253643Y-72761902D01*
X50318055Y-72592338D01*
X50319035Y-72585366D01*
X50342748Y-72416639D01*
X50342748Y-72416636D01*
X50343299Y-72412717D01*
X50343616Y-72390000D01*
X50323397Y-72209745D01*
X50321080Y-72203091D01*
X50266064Y-72045106D01*
X50266062Y-72045103D01*
X50263745Y-72038448D01*
X50167626Y-71884624D01*
X50120254Y-71836920D01*
X50044778Y-71760915D01*
X50044774Y-71760912D01*
X50039815Y-71755918D01*
X50028697Y-71748862D01*
X49980538Y-71718300D01*
X49886666Y-71658727D01*
X49811501Y-71631962D01*
X49722425Y-71600243D01*
X49722420Y-71600242D01*
X49715790Y-71597881D01*
X49708802Y-71597048D01*
X49708799Y-71597047D01*
X49585698Y-71582368D01*
X49535680Y-71576404D01*
X49528677Y-71577140D01*
X49528676Y-71577140D01*
X49362288Y-71594628D01*
X49362286Y-71594629D01*
X49355288Y-71595364D01*
X49183579Y-71653818D01*
X49177575Y-71657512D01*
X49035095Y-71745166D01*
X49035092Y-71745168D01*
X49029088Y-71748862D01*
X49024053Y-71753793D01*
X49024050Y-71753795D01*
X48939166Y-71836920D01*
X48899493Y-71875771D01*
X48801235Y-72028238D01*
X48798826Y-72034858D01*
X48798824Y-72034861D01*
X48755959Y-72152632D01*
X48739197Y-72198685D01*
X48716463Y-72378640D01*
X48310342Y-72378640D01*
X48291397Y-72209745D01*
X48289080Y-72203091D01*
X48234064Y-72045106D01*
X48234062Y-72045103D01*
X48231745Y-72038448D01*
X48135626Y-71884624D01*
X48088254Y-71836920D01*
X48012778Y-71760915D01*
X48012774Y-71760912D01*
X48007815Y-71755918D01*
X47996697Y-71748862D01*
X47948538Y-71718300D01*
X47854666Y-71658727D01*
X47779501Y-71631962D01*
X47690425Y-71600243D01*
X47690420Y-71600242D01*
X47683790Y-71597881D01*
X47676802Y-71597048D01*
X47676799Y-71597047D01*
X47553698Y-71582368D01*
X47503680Y-71576404D01*
X47496677Y-71577140D01*
X47496676Y-71577140D01*
X47330288Y-71594628D01*
X47330286Y-71594629D01*
X47323288Y-71595364D01*
X47151579Y-71653818D01*
X47145575Y-71657512D01*
X47003095Y-71745166D01*
X47003092Y-71745168D01*
X46997088Y-71748862D01*
X46992053Y-71753793D01*
X46992050Y-71753795D01*
X46907166Y-71836920D01*
X46867493Y-71875771D01*
X46769235Y-72028238D01*
X46766826Y-72034858D01*
X46766824Y-72034861D01*
X46723959Y-72152632D01*
X46707197Y-72198685D01*
X46684463Y-72378640D01*
X38533277Y-72378640D01*
X38556409Y-72371124D01*
X38556412Y-72371123D01*
X38563108Y-72368947D01*
X38718912Y-72276069D01*
X38850266Y-72150982D01*
X38950643Y-71999902D01*
X38996332Y-71879627D01*
X39012555Y-71836920D01*
X39012556Y-71836918D01*
X39015055Y-71830338D01*
X39018455Y-71806147D01*
X39039748Y-71654639D01*
X39039748Y-71654636D01*
X39040299Y-71650717D01*
X39040616Y-71628000D01*
X39020397Y-71447745D01*
X39018080Y-71441091D01*
X38963064Y-71283106D01*
X38963062Y-71283103D01*
X38960745Y-71276448D01*
X38864626Y-71122624D01*
X38850941Y-71108843D01*
X38741778Y-70998915D01*
X38741774Y-70998912D01*
X38736815Y-70993918D01*
X38725697Y-70986862D01*
X38677538Y-70956300D01*
X38583666Y-70896727D01*
X38554463Y-70886328D01*
X38419425Y-70838243D01*
X38419420Y-70838242D01*
X38412790Y-70835881D01*
X38405802Y-70835048D01*
X38405799Y-70835047D01*
X38282698Y-70820368D01*
X38232680Y-70814404D01*
X38225677Y-70815140D01*
X38225676Y-70815140D01*
X38059288Y-70832628D01*
X38059286Y-70832629D01*
X38052288Y-70833364D01*
X37880579Y-70891818D01*
X37818109Y-70930250D01*
X37732095Y-70983166D01*
X37732092Y-70983168D01*
X37726088Y-70986862D01*
X37721053Y-70991793D01*
X37721050Y-70991795D01*
X37601525Y-71108843D01*
X37596493Y-71113771D01*
X37498235Y-71266238D01*
X37495826Y-71272858D01*
X37495824Y-71272861D01*
X37438606Y-71430066D01*
X37436197Y-71436685D01*
X37413463Y-71616640D01*
X33574906Y-71616640D01*
X33486152Y-71479971D01*
X33486152Y-71479970D01*
X33484357Y-71477207D01*
X33362046Y-71326166D01*
X33241809Y-71177686D01*
X33241806Y-71177682D01*
X33239734Y-71175124D01*
X32964876Y-70900266D01*
X32959006Y-70895512D01*
X32665355Y-70657718D01*
X32662793Y-70655643D01*
X32479233Y-70536438D01*
X32339564Y-70445736D01*
X32339561Y-70445734D01*
X32336795Y-70443938D01*
X32333861Y-70442443D01*
X32333854Y-70442439D01*
X31993393Y-70268966D01*
X31990453Y-70267468D01*
X31627562Y-70128167D01*
X31252099Y-70027562D01*
X31048207Y-69995268D01*
X30871424Y-69967268D01*
X30871416Y-69967267D01*
X30868176Y-69966754D01*
X30480000Y-69946411D01*
X30091824Y-69966754D01*
X30088584Y-69967267D01*
X30088576Y-69967268D01*
X29911793Y-69995268D01*
X29707901Y-70027562D01*
X29332438Y-70128167D01*
X28969547Y-70267468D01*
X28966607Y-70268966D01*
X28626147Y-70442439D01*
X28626140Y-70442443D01*
X28623206Y-70443938D01*
X28620440Y-70445734D01*
X28620437Y-70445736D01*
X28299971Y-70653848D01*
X28297207Y-70655643D01*
X28294645Y-70657718D01*
X28000995Y-70895512D01*
X27995124Y-70900266D01*
X27720266Y-71175124D01*
X27718194Y-71177682D01*
X27718191Y-71177686D01*
X27597954Y-71326166D01*
X27475643Y-71477207D01*
X27410500Y-71577520D01*
X27410173Y-71578023D01*
X27356297Y-71624260D01*
X27285975Y-71634030D01*
X27221536Y-71604230D01*
X27183436Y-71544322D01*
X27178500Y-71509399D01*
X27178500Y-69711640D01*
X58876463Y-69711640D01*
X58894163Y-69892160D01*
X58951418Y-70064273D01*
X58955065Y-70070295D01*
X58955066Y-70070297D01*
X58990832Y-70129353D01*
X59045380Y-70219424D01*
X59171382Y-70349902D01*
X59323159Y-70449222D01*
X59329763Y-70451678D01*
X59329765Y-70451679D01*
X59486558Y-70509990D01*
X59486560Y-70509990D01*
X59493168Y-70512448D01*
X59576995Y-70523633D01*
X59665980Y-70535507D01*
X59665984Y-70535507D01*
X59672961Y-70536438D01*
X59679972Y-70535800D01*
X59679976Y-70535800D01*
X59822459Y-70522832D01*
X59853600Y-70519998D01*
X59860302Y-70517820D01*
X59860304Y-70517820D01*
X60019409Y-70466124D01*
X60019412Y-70466123D01*
X60026108Y-70463947D01*
X60181912Y-70371069D01*
X60313266Y-70245982D01*
X60413643Y-70094902D01*
X60462388Y-69966582D01*
X60475555Y-69931920D01*
X60475556Y-69931918D01*
X60478055Y-69925338D01*
X60479035Y-69918366D01*
X60502748Y-69749639D01*
X60502748Y-69749636D01*
X60503299Y-69745717D01*
X60503616Y-69723000D01*
X60483397Y-69542745D01*
X60481080Y-69536091D01*
X60426064Y-69378106D01*
X60426062Y-69378103D01*
X60423745Y-69371448D01*
X60327626Y-69217624D01*
X60249984Y-69139438D01*
X60204778Y-69093915D01*
X60204774Y-69093912D01*
X60199815Y-69088918D01*
X60188697Y-69081862D01*
X60135912Y-69048364D01*
X60046666Y-68991727D01*
X60007209Y-68977677D01*
X59882425Y-68933243D01*
X59882420Y-68933242D01*
X59875790Y-68930881D01*
X59868802Y-68930048D01*
X59868799Y-68930047D01*
X59745698Y-68915368D01*
X59695680Y-68909404D01*
X59688677Y-68910140D01*
X59688676Y-68910140D01*
X59522288Y-68927628D01*
X59522286Y-68927629D01*
X59515288Y-68928364D01*
X59343579Y-68986818D01*
X59337575Y-68990512D01*
X59195095Y-69078166D01*
X59195092Y-69078168D01*
X59189088Y-69081862D01*
X59184053Y-69086793D01*
X59184050Y-69086795D01*
X59130293Y-69139438D01*
X59059493Y-69208771D01*
X58961235Y-69361238D01*
X58958826Y-69367858D01*
X58958824Y-69367861D01*
X58901606Y-69525066D01*
X58899197Y-69531685D01*
X58876463Y-69711640D01*
X27178500Y-69711640D01*
X27178500Y-67276695D01*
X27847251Y-67276695D01*
X27847548Y-67281848D01*
X27847548Y-67281851D01*
X27858645Y-67474308D01*
X27860110Y-67499715D01*
X27861247Y-67504761D01*
X27861248Y-67504767D01*
X27876925Y-67574328D01*
X27909222Y-67717639D01*
X27993266Y-67924616D01*
X27995965Y-67929020D01*
X28062930Y-68038297D01*
X28109987Y-68115088D01*
X28256250Y-68283938D01*
X28428126Y-68426632D01*
X28621000Y-68539338D01*
X28829692Y-68619030D01*
X28834760Y-68620061D01*
X28834763Y-68620062D01*
X28942017Y-68641883D01*
X29048597Y-68663567D01*
X29053772Y-68663757D01*
X29053774Y-68663757D01*
X29266673Y-68671564D01*
X29266677Y-68671564D01*
X29271837Y-68671753D01*
X29276957Y-68671097D01*
X29276959Y-68671097D01*
X29488288Y-68644025D01*
X29488289Y-68644025D01*
X29493416Y-68643368D01*
X29498366Y-68641883D01*
X29702429Y-68580661D01*
X29702434Y-68580659D01*
X29707384Y-68579174D01*
X29907994Y-68480896D01*
X30089860Y-68351173D01*
X30096299Y-68344757D01*
X30236463Y-68205081D01*
X30248096Y-68193489D01*
X30307594Y-68110689D01*
X30375435Y-68016277D01*
X30378453Y-68012077D01*
X30397051Y-67974448D01*
X30475136Y-67816453D01*
X30475137Y-67816451D01*
X30477430Y-67811811D01*
X30517587Y-67679640D01*
X50113463Y-67679640D01*
X50131163Y-67860160D01*
X50188418Y-68032273D01*
X50192065Y-68038295D01*
X50192066Y-68038297D01*
X50257139Y-68145745D01*
X50282380Y-68187424D01*
X50287269Y-68192487D01*
X50287270Y-68192488D01*
X50299431Y-68205081D01*
X50408382Y-68317902D01*
X50560159Y-68417222D01*
X50566763Y-68419678D01*
X50566765Y-68419679D01*
X50723558Y-68477990D01*
X50723560Y-68477990D01*
X50730168Y-68480448D01*
X50813995Y-68491633D01*
X50902980Y-68503507D01*
X50902984Y-68503507D01*
X50909961Y-68504438D01*
X50916972Y-68503800D01*
X50916976Y-68503800D01*
X51059459Y-68490832D01*
X51090600Y-68487998D01*
X51097302Y-68485820D01*
X51097304Y-68485820D01*
X51256409Y-68434124D01*
X51256412Y-68434123D01*
X51263108Y-68431947D01*
X51367978Y-68369432D01*
X51412860Y-68342677D01*
X51412862Y-68342676D01*
X51418912Y-68339069D01*
X51444565Y-68314640D01*
X55955463Y-68314640D01*
X55973163Y-68495160D01*
X56030418Y-68667273D01*
X56034065Y-68673295D01*
X56034066Y-68673297D01*
X56119691Y-68814681D01*
X56124380Y-68822424D01*
X56129269Y-68827487D01*
X56129270Y-68827488D01*
X56144357Y-68843111D01*
X56250382Y-68952902D01*
X56402159Y-69052222D01*
X56408763Y-69054678D01*
X56408765Y-69054679D01*
X56565558Y-69112990D01*
X56565560Y-69112990D01*
X56572168Y-69115448D01*
X56655995Y-69126633D01*
X56744980Y-69138507D01*
X56744984Y-69138507D01*
X56751961Y-69139438D01*
X56758972Y-69138800D01*
X56758976Y-69138800D01*
X56901459Y-69125832D01*
X56932600Y-69122998D01*
X56939302Y-69120820D01*
X56939304Y-69120820D01*
X57098409Y-69069124D01*
X57098412Y-69069123D01*
X57105108Y-69066947D01*
X57224951Y-68995506D01*
X57254860Y-68977677D01*
X57254862Y-68977676D01*
X57260912Y-68974069D01*
X57392266Y-68848982D01*
X57492643Y-68697902D01*
X57551501Y-68542960D01*
X57554555Y-68534920D01*
X57554556Y-68534918D01*
X57557055Y-68528338D01*
X57560545Y-68503507D01*
X57581748Y-68352639D01*
X57581748Y-68352636D01*
X57582299Y-68348717D01*
X57582452Y-68337738D01*
X57582561Y-68329962D01*
X57582561Y-68329957D01*
X57582616Y-68326000D01*
X57562397Y-68145745D01*
X57560080Y-68139091D01*
X57505064Y-67981106D01*
X57505062Y-67981103D01*
X57502745Y-67974448D01*
X57406626Y-67820624D01*
X57398981Y-67812925D01*
X57283778Y-67696915D01*
X57283774Y-67696912D01*
X57278815Y-67691918D01*
X57271164Y-67687062D01*
X57219538Y-67654300D01*
X57125666Y-67594727D01*
X57068379Y-67574328D01*
X56961425Y-67536243D01*
X56961420Y-67536242D01*
X56954790Y-67533881D01*
X56947802Y-67533048D01*
X56947799Y-67533047D01*
X56819462Y-67517744D01*
X56774680Y-67512404D01*
X56767677Y-67513140D01*
X56767676Y-67513140D01*
X56601288Y-67530628D01*
X56601286Y-67530629D01*
X56594288Y-67531364D01*
X56422579Y-67589818D01*
X56406619Y-67599637D01*
X56274095Y-67681166D01*
X56274092Y-67681168D01*
X56268088Y-67684862D01*
X56263053Y-67689793D01*
X56263050Y-67689795D01*
X56143573Y-67806796D01*
X56138493Y-67811771D01*
X56040235Y-67964238D01*
X56037826Y-67970858D01*
X56037824Y-67970861D01*
X55980606Y-68128066D01*
X55978197Y-68134685D01*
X55955463Y-68314640D01*
X51444565Y-68314640D01*
X51550266Y-68213982D01*
X51650643Y-68062902D01*
X51701501Y-67929020D01*
X51712555Y-67899920D01*
X51712556Y-67899918D01*
X51715055Y-67893338D01*
X51716035Y-67886366D01*
X51739748Y-67717639D01*
X51739748Y-67717636D01*
X51740299Y-67713717D01*
X51740452Y-67702738D01*
X51740561Y-67694962D01*
X51740561Y-67694957D01*
X51740616Y-67691000D01*
X51720397Y-67510745D01*
X51716556Y-67499715D01*
X51663064Y-67346106D01*
X51663062Y-67346103D01*
X51660745Y-67339448D01*
X51564626Y-67185624D01*
X51548946Y-67169834D01*
X51441778Y-67061915D01*
X51441774Y-67061912D01*
X51436815Y-67056918D01*
X51425697Y-67049862D01*
X51377538Y-67019300D01*
X51283666Y-66959727D01*
X51254463Y-66949328D01*
X51119425Y-66901243D01*
X51119420Y-66901242D01*
X51112790Y-66898881D01*
X51105802Y-66898048D01*
X51105799Y-66898047D01*
X50982698Y-66883368D01*
X50932680Y-66877404D01*
X50925677Y-66878140D01*
X50925676Y-66878140D01*
X50759288Y-66895628D01*
X50759286Y-66895629D01*
X50752288Y-66896364D01*
X50580579Y-66954818D01*
X50533395Y-66983846D01*
X50432095Y-67046166D01*
X50432092Y-67046168D01*
X50426088Y-67049862D01*
X50421053Y-67054793D01*
X50421050Y-67054795D01*
X50337524Y-67136590D01*
X50296493Y-67176771D01*
X50198235Y-67329238D01*
X50195826Y-67335858D01*
X50195824Y-67335861D01*
X50138606Y-67493066D01*
X50136197Y-67499685D01*
X50113463Y-67679640D01*
X30517587Y-67679640D01*
X30534430Y-67624202D01*
X30540865Y-67603023D01*
X30540865Y-67603021D01*
X30542370Y-67598069D01*
X30571529Y-67376590D01*
X30572354Y-67342820D01*
X30573074Y-67313365D01*
X30573074Y-67313361D01*
X30573156Y-67310000D01*
X30554852Y-67087361D01*
X30500431Y-66870702D01*
X30465619Y-66790640D01*
X37032463Y-66790640D01*
X37050163Y-66971160D01*
X37107418Y-67143273D01*
X37111065Y-67149295D01*
X37111066Y-67149297D01*
X37195641Y-67288947D01*
X37201380Y-67298424D01*
X37206269Y-67303487D01*
X37206270Y-67303488D01*
X37237533Y-67335861D01*
X37327382Y-67428902D01*
X37333278Y-67432760D01*
X37454987Y-67512404D01*
X37479159Y-67528222D01*
X37485763Y-67530678D01*
X37485765Y-67530679D01*
X37642558Y-67588990D01*
X37642560Y-67588990D01*
X37649168Y-67591448D01*
X37732995Y-67602633D01*
X37821980Y-67614507D01*
X37821984Y-67614507D01*
X37828961Y-67615438D01*
X37835972Y-67614800D01*
X37835976Y-67614800D01*
X37978459Y-67601832D01*
X38009600Y-67598998D01*
X38016302Y-67596820D01*
X38016304Y-67596820D01*
X38175409Y-67545124D01*
X38175412Y-67545123D01*
X38182108Y-67542947D01*
X38337912Y-67450069D01*
X38469266Y-67324982D01*
X38569643Y-67173902D01*
X38614888Y-67054795D01*
X38631555Y-67010920D01*
X38631556Y-67010918D01*
X38634055Y-67004338D01*
X38635035Y-66997366D01*
X38658748Y-66828639D01*
X38658748Y-66828636D01*
X38659299Y-66824717D01*
X38659479Y-66811800D01*
X38659561Y-66805962D01*
X38659561Y-66805957D01*
X38659616Y-66802000D01*
X38639397Y-66621745D01*
X38637080Y-66615091D01*
X38609761Y-66536640D01*
X47827463Y-66536640D01*
X47845163Y-66717160D01*
X47902418Y-66889273D01*
X47906065Y-66895295D01*
X47906066Y-66895297D01*
X47971992Y-67004154D01*
X47996380Y-67044424D01*
X48001269Y-67049487D01*
X48001270Y-67049488D01*
X48016357Y-67065111D01*
X48122382Y-67174902D01*
X48274159Y-67274222D01*
X48280763Y-67276678D01*
X48280765Y-67276679D01*
X48437558Y-67334990D01*
X48437560Y-67334990D01*
X48444168Y-67337448D01*
X48527995Y-67348633D01*
X48616980Y-67360507D01*
X48616984Y-67360507D01*
X48623961Y-67361438D01*
X48630972Y-67360800D01*
X48630976Y-67360800D01*
X48773459Y-67347832D01*
X48804600Y-67344998D01*
X48811302Y-67342820D01*
X48811304Y-67342820D01*
X48970409Y-67291124D01*
X48970412Y-67291123D01*
X48977108Y-67288947D01*
X49132912Y-67196069D01*
X49264266Y-67070982D01*
X49364643Y-66919902D01*
X49416990Y-66782099D01*
X49426555Y-66756920D01*
X49426556Y-66756918D01*
X49429055Y-66750338D01*
X49432545Y-66725507D01*
X49453748Y-66574639D01*
X49453748Y-66574636D01*
X49454299Y-66570717D01*
X49454452Y-66559738D01*
X49454561Y-66551962D01*
X49454561Y-66551957D01*
X49454616Y-66548000D01*
X49453342Y-66536640D01*
X57098463Y-66536640D01*
X57116163Y-66717160D01*
X57173418Y-66889273D01*
X57177065Y-66895295D01*
X57177066Y-66895297D01*
X57242992Y-67004154D01*
X57267380Y-67044424D01*
X57272269Y-67049487D01*
X57272270Y-67049488D01*
X57287357Y-67065111D01*
X57393382Y-67174902D01*
X57545159Y-67274222D01*
X57551763Y-67276678D01*
X57551765Y-67276679D01*
X57708558Y-67334990D01*
X57708560Y-67334990D01*
X57715168Y-67337448D01*
X57798995Y-67348633D01*
X57887980Y-67360507D01*
X57887984Y-67360507D01*
X57894961Y-67361438D01*
X57901972Y-67360800D01*
X57901976Y-67360800D01*
X58044459Y-67347832D01*
X58075600Y-67344998D01*
X58082302Y-67342820D01*
X58082304Y-67342820D01*
X58241409Y-67291124D01*
X58241412Y-67291123D01*
X58248108Y-67288947D01*
X58403912Y-67196069D01*
X58535266Y-67070982D01*
X58635643Y-66919902D01*
X58684746Y-66790640D01*
X62686463Y-66790640D01*
X62704163Y-66971160D01*
X62761418Y-67143273D01*
X62765065Y-67149295D01*
X62765066Y-67149297D01*
X62849641Y-67288947D01*
X62855380Y-67298424D01*
X62860269Y-67303487D01*
X62860270Y-67303488D01*
X62891533Y-67335861D01*
X62981382Y-67428902D01*
X62987278Y-67432760D01*
X63108987Y-67512404D01*
X63133159Y-67528222D01*
X63139763Y-67530678D01*
X63139765Y-67530679D01*
X63296558Y-67588990D01*
X63296560Y-67588990D01*
X63303168Y-67591448D01*
X63386995Y-67602633D01*
X63475980Y-67614507D01*
X63475984Y-67614507D01*
X63482961Y-67615438D01*
X63489972Y-67614800D01*
X63489976Y-67614800D01*
X63632459Y-67601832D01*
X63663600Y-67598998D01*
X63733285Y-67576356D01*
X63804251Y-67574328D01*
X63865049Y-67610991D01*
X63896375Y-67674703D01*
X63897530Y-67709359D01*
X63886645Y-67812925D01*
X63887933Y-67827075D01*
X63901951Y-67981106D01*
X63904570Y-68009888D01*
X63906308Y-68015794D01*
X63906309Y-68015798D01*
X63934237Y-68110689D01*
X63960410Y-68199619D01*
X63963263Y-68205077D01*
X63963265Y-68205081D01*
X63970459Y-68218841D01*
X64052040Y-68374890D01*
X64175968Y-68529025D01*
X64180692Y-68532989D01*
X64190455Y-68541181D01*
X64327474Y-68656154D01*
X64332872Y-68659121D01*
X64332877Y-68659125D01*
X64414093Y-68703773D01*
X64500787Y-68751433D01*
X64506654Y-68753294D01*
X64506656Y-68753295D01*
X64683436Y-68809373D01*
X64689306Y-68811235D01*
X64843227Y-68828500D01*
X66049769Y-68828500D01*
X66052825Y-68828200D01*
X66052832Y-68828200D01*
X66111736Y-68822424D01*
X66196833Y-68814080D01*
X66202734Y-68812298D01*
X66202736Y-68812298D01*
X66276053Y-68790162D01*
X66386169Y-68756916D01*
X66560796Y-68664066D01*
X66647062Y-68593709D01*
X66709287Y-68542960D01*
X66709290Y-68542957D01*
X66714062Y-68539065D01*
X66744854Y-68501844D01*
X66836201Y-68391425D01*
X66836203Y-68391421D01*
X66840130Y-68386675D01*
X66934198Y-68212701D01*
X66992682Y-68023768D01*
X67006391Y-67893338D01*
X67012711Y-67833204D01*
X67012711Y-67833202D01*
X67013355Y-67827075D01*
X67012067Y-67812925D01*
X68316645Y-67812925D01*
X68317933Y-67827075D01*
X68331951Y-67981106D01*
X68334570Y-68009888D01*
X68336308Y-68015794D01*
X68336309Y-68015798D01*
X68364237Y-68110689D01*
X68390410Y-68199619D01*
X68393263Y-68205077D01*
X68393265Y-68205081D01*
X68400459Y-68218841D01*
X68482040Y-68374890D01*
X68605968Y-68529025D01*
X68610692Y-68532989D01*
X68620455Y-68541181D01*
X68757474Y-68656154D01*
X68762872Y-68659121D01*
X68762877Y-68659125D01*
X68844093Y-68703773D01*
X68930787Y-68751433D01*
X68936654Y-68753294D01*
X68936656Y-68753295D01*
X69113436Y-68809373D01*
X69119306Y-68811235D01*
X69273227Y-68828500D01*
X69979769Y-68828500D01*
X69982825Y-68828200D01*
X69982832Y-68828200D01*
X70041736Y-68822424D01*
X70126833Y-68814080D01*
X70132734Y-68812298D01*
X70132736Y-68812298D01*
X70206053Y-68790162D01*
X70316169Y-68756916D01*
X70490796Y-68664066D01*
X70577062Y-68593709D01*
X70639287Y-68542960D01*
X70639290Y-68542957D01*
X70644062Y-68539065D01*
X70674854Y-68501844D01*
X70766201Y-68391425D01*
X70766203Y-68391421D01*
X70770130Y-68386675D01*
X70864198Y-68212701D01*
X70922682Y-68023768D01*
X70936391Y-67893338D01*
X70942711Y-67833204D01*
X70942711Y-67833202D01*
X70943355Y-67827075D01*
X70930076Y-67681166D01*
X70925989Y-67636251D01*
X70925988Y-67636248D01*
X70925430Y-67630112D01*
X70921112Y-67615438D01*
X70889101Y-67506675D01*
X70869590Y-67440381D01*
X70860940Y-67423834D01*
X70811801Y-67329841D01*
X70777960Y-67265110D01*
X70654032Y-67110975D01*
X70647727Y-67105684D01*
X70606370Y-67070982D01*
X70502526Y-66983846D01*
X70497128Y-66980879D01*
X70497123Y-66980875D01*
X70334608Y-66891533D01*
X70334609Y-66891533D01*
X70329213Y-66888567D01*
X70323346Y-66886706D01*
X70323344Y-66886705D01*
X70146564Y-66830627D01*
X70146563Y-66830627D01*
X70140694Y-66828765D01*
X69986773Y-66811500D01*
X69280231Y-66811500D01*
X69277175Y-66811800D01*
X69277168Y-66811800D01*
X69218660Y-66817537D01*
X69133167Y-66825920D01*
X69127266Y-66827702D01*
X69127264Y-66827702D01*
X69053947Y-66849838D01*
X68943831Y-66883084D01*
X68769204Y-66975934D01*
X68710728Y-67023626D01*
X68620713Y-67097040D01*
X68620710Y-67097043D01*
X68615938Y-67100935D01*
X68612011Y-67105682D01*
X68612009Y-67105684D01*
X68493799Y-67248575D01*
X68493797Y-67248579D01*
X68489870Y-67253325D01*
X68395802Y-67427299D01*
X68337318Y-67616232D01*
X68336674Y-67622357D01*
X68336674Y-67622358D01*
X68329874Y-67687062D01*
X68316645Y-67812925D01*
X67012067Y-67812925D01*
X67000076Y-67681166D01*
X66995989Y-67636251D01*
X66995988Y-67636248D01*
X66995430Y-67630112D01*
X66991112Y-67615438D01*
X66959101Y-67506675D01*
X66939590Y-67440381D01*
X66930940Y-67423834D01*
X66881801Y-67329841D01*
X66847960Y-67265110D01*
X66724032Y-67110975D01*
X66667171Y-67063263D01*
X66627846Y-67004154D01*
X66626720Y-66933167D01*
X66643952Y-66895920D01*
X66716442Y-66789255D01*
X66720277Y-66783612D01*
X66787530Y-66615466D01*
X66788644Y-66608738D01*
X66788645Y-66608734D01*
X66815993Y-66443539D01*
X66815993Y-66443536D01*
X66817108Y-66436802D01*
X66815674Y-66409424D01*
X66807987Y-66262766D01*
X66807630Y-66255953D01*
X66805327Y-66247590D01*
X66761352Y-66087941D01*
X66759539Y-66081359D01*
X66675078Y-65921164D01*
X66670673Y-65915951D01*
X66670670Y-65915947D01*
X66562594Y-65788057D01*
X66562590Y-65788053D01*
X66558187Y-65782843D01*
X66552762Y-65778695D01*
X66419743Y-65676994D01*
X66419739Y-65676991D01*
X66414322Y-65672850D01*
X66285094Y-65612590D01*
X66256369Y-65599195D01*
X66256366Y-65599194D01*
X66250192Y-65596315D01*
X66243544Y-65594829D01*
X66243541Y-65594828D01*
X66078494Y-65557936D01*
X66078495Y-65557936D01*
X66073457Y-65556810D01*
X66067912Y-65556500D01*
X65934756Y-65556500D01*
X65931359Y-65556869D01*
X65921537Y-65557936D01*
X65799963Y-65571143D01*
X65716609Y-65599195D01*
X65634796Y-65626728D01*
X65634794Y-65626729D01*
X65628325Y-65628906D01*
X65473095Y-65722177D01*
X65468138Y-65726865D01*
X65468135Y-65726867D01*
X65346473Y-65841918D01*
X65341515Y-65846607D01*
X65337683Y-65852245D01*
X65337680Y-65852249D01*
X65260704Y-65965516D01*
X65239723Y-65996388D01*
X65172470Y-66164534D01*
X65171356Y-66171262D01*
X65171355Y-66171266D01*
X65145137Y-66329637D01*
X65142892Y-66343198D01*
X65143249Y-66350015D01*
X65143249Y-66350019D01*
X65148804Y-66455998D01*
X65152370Y-66524047D01*
X65154181Y-66530620D01*
X65154181Y-66530623D01*
X65187625Y-66652040D01*
X65186431Y-66723027D01*
X65147048Y-66782099D01*
X65081981Y-66810501D01*
X65066149Y-66811500D01*
X64850231Y-66811500D01*
X64847175Y-66811800D01*
X64847168Y-66811800D01*
X64788660Y-66817537D01*
X64703167Y-66825920D01*
X64697266Y-66827702D01*
X64697264Y-66827702D01*
X64623947Y-66849838D01*
X64513831Y-66883084D01*
X64508392Y-66885976D01*
X64508387Y-66885978D01*
X64497168Y-66891943D01*
X64427630Y-66906262D01*
X64361390Y-66880713D01*
X64319478Y-66823408D01*
X64312801Y-66794736D01*
X64310843Y-66777275D01*
X64293397Y-66621745D01*
X64291080Y-66615091D01*
X64236064Y-66457106D01*
X64236062Y-66457103D01*
X64233745Y-66450448D01*
X64137626Y-66296624D01*
X64128835Y-66287771D01*
X64014778Y-66172915D01*
X64014774Y-66172912D01*
X64009815Y-66167918D01*
X64001688Y-66162760D01*
X63950538Y-66130300D01*
X63856666Y-66070727D01*
X63795961Y-66049111D01*
X63692425Y-66012243D01*
X63692420Y-66012242D01*
X63685790Y-66009881D01*
X63678802Y-66009048D01*
X63678799Y-66009047D01*
X63549171Y-65993590D01*
X63505680Y-65988404D01*
X63498677Y-65989140D01*
X63498676Y-65989140D01*
X63332288Y-66006628D01*
X63332286Y-66006629D01*
X63325288Y-66007364D01*
X63153579Y-66065818D01*
X63138409Y-66075151D01*
X63005095Y-66157166D01*
X63005092Y-66157168D01*
X62999088Y-66160862D01*
X62994053Y-66165793D01*
X62994050Y-66165795D01*
X62879150Y-66278314D01*
X62869493Y-66287771D01*
X62771235Y-66440238D01*
X62768826Y-66446858D01*
X62768824Y-66446861D01*
X62723744Y-66570717D01*
X62709197Y-66610685D01*
X62686463Y-66790640D01*
X58684746Y-66790640D01*
X58687990Y-66782099D01*
X58697555Y-66756920D01*
X58697556Y-66756918D01*
X58700055Y-66750338D01*
X58703545Y-66725507D01*
X58724748Y-66574639D01*
X58724748Y-66574636D01*
X58725299Y-66570717D01*
X58725452Y-66559738D01*
X58725561Y-66551962D01*
X58725561Y-66551957D01*
X58725616Y-66548000D01*
X58705397Y-66367745D01*
X58703080Y-66361091D01*
X58648064Y-66203106D01*
X58648062Y-66203103D01*
X58645745Y-66196448D01*
X58590706Y-66108366D01*
X58553359Y-66048598D01*
X58549626Y-66042624D01*
X58540554Y-66033488D01*
X58426778Y-65918915D01*
X58426774Y-65918912D01*
X58421815Y-65913918D01*
X58414164Y-65909062D01*
X58362538Y-65876300D01*
X58268666Y-65816727D01*
X58207961Y-65795111D01*
X58104425Y-65758243D01*
X58104420Y-65758242D01*
X58097790Y-65755881D01*
X58090802Y-65755048D01*
X58090799Y-65755047D01*
X57962462Y-65739744D01*
X57917680Y-65734404D01*
X57910677Y-65735140D01*
X57910676Y-65735140D01*
X57744288Y-65752628D01*
X57744286Y-65752629D01*
X57737288Y-65753364D01*
X57565579Y-65811818D01*
X57509031Y-65846607D01*
X57417095Y-65903166D01*
X57417092Y-65903168D01*
X57411088Y-65906862D01*
X57406053Y-65911793D01*
X57406050Y-65911795D01*
X57291150Y-66024314D01*
X57281493Y-66033771D01*
X57183235Y-66186238D01*
X57180826Y-66192858D01*
X57180824Y-66192861D01*
X57123623Y-66350019D01*
X57121197Y-66356685D01*
X57098463Y-66536640D01*
X49453342Y-66536640D01*
X49434397Y-66367745D01*
X49432080Y-66361091D01*
X49377064Y-66203106D01*
X49377062Y-66203103D01*
X49374745Y-66196448D01*
X49319706Y-66108366D01*
X49282359Y-66048598D01*
X49278626Y-66042624D01*
X49269554Y-66033488D01*
X49155778Y-65918915D01*
X49155774Y-65918912D01*
X49150815Y-65913918D01*
X49143164Y-65909062D01*
X49091538Y-65876300D01*
X48997666Y-65816727D01*
X48936961Y-65795111D01*
X48833425Y-65758243D01*
X48833420Y-65758242D01*
X48826790Y-65755881D01*
X48819802Y-65755048D01*
X48819799Y-65755047D01*
X48691462Y-65739744D01*
X48646680Y-65734404D01*
X48639677Y-65735140D01*
X48639676Y-65735140D01*
X48473288Y-65752628D01*
X48473286Y-65752629D01*
X48466288Y-65753364D01*
X48294579Y-65811818D01*
X48238031Y-65846607D01*
X48146095Y-65903166D01*
X48146092Y-65903168D01*
X48140088Y-65906862D01*
X48135053Y-65911793D01*
X48135050Y-65911795D01*
X48020150Y-66024314D01*
X48010493Y-66033771D01*
X47912235Y-66186238D01*
X47909826Y-66192858D01*
X47909824Y-66192861D01*
X47852623Y-66350019D01*
X47850197Y-66356685D01*
X47827463Y-66536640D01*
X38609761Y-66536640D01*
X38582064Y-66457106D01*
X38582062Y-66457103D01*
X38579745Y-66450448D01*
X38483626Y-66296624D01*
X38474835Y-66287771D01*
X38360778Y-66172915D01*
X38360774Y-66172912D01*
X38355815Y-66167918D01*
X38347688Y-66162760D01*
X38296538Y-66130300D01*
X38202666Y-66070727D01*
X38141961Y-66049111D01*
X38038425Y-66012243D01*
X38038420Y-66012242D01*
X38031790Y-66009881D01*
X38024802Y-66009048D01*
X38024799Y-66009047D01*
X37895171Y-65993590D01*
X37851680Y-65988404D01*
X37844677Y-65989140D01*
X37844676Y-65989140D01*
X37678288Y-66006628D01*
X37678286Y-66006629D01*
X37671288Y-66007364D01*
X37499579Y-66065818D01*
X37484409Y-66075151D01*
X37351095Y-66157166D01*
X37351092Y-66157168D01*
X37345088Y-66160862D01*
X37340053Y-66165793D01*
X37340050Y-66165795D01*
X37225150Y-66278314D01*
X37215493Y-66287771D01*
X37117235Y-66440238D01*
X37114826Y-66446858D01*
X37114824Y-66446861D01*
X37069744Y-66570717D01*
X37055197Y-66610685D01*
X37032463Y-66790640D01*
X30465619Y-66790640D01*
X30411354Y-66665840D01*
X30327771Y-66536640D01*
X30292822Y-66482617D01*
X30292820Y-66482614D01*
X30290014Y-66478277D01*
X30139670Y-66313051D01*
X30135619Y-66309852D01*
X30135615Y-66309848D01*
X29968414Y-66177800D01*
X29968410Y-66177798D01*
X29964359Y-66174598D01*
X29923053Y-66151796D01*
X29873084Y-66101364D01*
X29858312Y-66031921D01*
X29883428Y-65965516D01*
X29910780Y-65938909D01*
X29963029Y-65901640D01*
X30809463Y-65901640D01*
X30827163Y-66082160D01*
X30884418Y-66254273D01*
X30888065Y-66260295D01*
X30888066Y-66260297D01*
X30972641Y-66399947D01*
X30978380Y-66409424D01*
X30983269Y-66414487D01*
X30983270Y-66414488D01*
X31014533Y-66446861D01*
X31104382Y-66539902D01*
X31116757Y-66548000D01*
X31223232Y-66617675D01*
X31256159Y-66639222D01*
X31262763Y-66641678D01*
X31262765Y-66641679D01*
X31419558Y-66699990D01*
X31419560Y-66699990D01*
X31426168Y-66702448D01*
X31509995Y-66713633D01*
X31598980Y-66725507D01*
X31598984Y-66725507D01*
X31605961Y-66726438D01*
X31612972Y-66725800D01*
X31612976Y-66725800D01*
X31755459Y-66712832D01*
X31786600Y-66709998D01*
X31793302Y-66707820D01*
X31793304Y-66707820D01*
X31952409Y-66656124D01*
X31952412Y-66656123D01*
X31959108Y-66653947D01*
X32092148Y-66574639D01*
X32108860Y-66564677D01*
X32108862Y-66564676D01*
X32114912Y-66561069D01*
X32246266Y-66435982D01*
X32346643Y-66284902D01*
X32394237Y-66159612D01*
X32408555Y-66121920D01*
X32408556Y-66121918D01*
X32411055Y-66115338D01*
X32414545Y-66090507D01*
X32435748Y-65939639D01*
X32435748Y-65939636D01*
X32436299Y-65935717D01*
X32436452Y-65924738D01*
X32436561Y-65916962D01*
X32436561Y-65916957D01*
X32436616Y-65913000D01*
X32416397Y-65732745D01*
X32412717Y-65722177D01*
X32386761Y-65647640D01*
X34238463Y-65647640D01*
X34256163Y-65828160D01*
X34313418Y-66000273D01*
X34317065Y-66006295D01*
X34317066Y-66006297D01*
X34368243Y-66090800D01*
X34407380Y-66155424D01*
X34412269Y-66160487D01*
X34412270Y-66160488D01*
X34431414Y-66180312D01*
X34533382Y-66285902D01*
X34571242Y-66310677D01*
X34652232Y-66363675D01*
X34685159Y-66385222D01*
X34691763Y-66387678D01*
X34691765Y-66387679D01*
X34848558Y-66445990D01*
X34848560Y-66445990D01*
X34855168Y-66448448D01*
X34938995Y-66459633D01*
X35027980Y-66471507D01*
X35027984Y-66471507D01*
X35034961Y-66472438D01*
X35041972Y-66471800D01*
X35041976Y-66471800D01*
X35184459Y-66458832D01*
X35215600Y-66455998D01*
X35222302Y-66453820D01*
X35222304Y-66453820D01*
X35381409Y-66402124D01*
X35381412Y-66402123D01*
X35388108Y-66399947D01*
X35507126Y-66328998D01*
X35537860Y-66310677D01*
X35537862Y-66310676D01*
X35543912Y-66307069D01*
X35675266Y-66181982D01*
X35775643Y-66030902D01*
X35822762Y-65906862D01*
X35837555Y-65867920D01*
X35837556Y-65867918D01*
X35840055Y-65861338D01*
X35841035Y-65854366D01*
X35864748Y-65685639D01*
X35864748Y-65685636D01*
X35865299Y-65681717D01*
X35865616Y-65659000D01*
X35845397Y-65478745D01*
X35843075Y-65472077D01*
X35788064Y-65314106D01*
X35788062Y-65314103D01*
X35785745Y-65307448D01*
X35760246Y-65266640D01*
X45668463Y-65266640D01*
X45686163Y-65447160D01*
X45743418Y-65619273D01*
X45747065Y-65625295D01*
X45747066Y-65625297D01*
X45827581Y-65758243D01*
X45837380Y-65774424D01*
X45842269Y-65779487D01*
X45842270Y-65779488D01*
X45895727Y-65834844D01*
X45963382Y-65904902D01*
X45970826Y-65909773D01*
X46098912Y-65993590D01*
X46115159Y-66004222D01*
X46121763Y-66006678D01*
X46121765Y-66006679D01*
X46278558Y-66064990D01*
X46278560Y-66064990D01*
X46285168Y-66067448D01*
X46368995Y-66078633D01*
X46457980Y-66090507D01*
X46457984Y-66090507D01*
X46464961Y-66091438D01*
X46471972Y-66090800D01*
X46471976Y-66090800D01*
X46614459Y-66077832D01*
X46645600Y-66074998D01*
X46652302Y-66072820D01*
X46652304Y-66072820D01*
X46811409Y-66021124D01*
X46811412Y-66021123D01*
X46818108Y-66018947D01*
X46952373Y-65938909D01*
X46967860Y-65929677D01*
X46967862Y-65929676D01*
X46973912Y-65926069D01*
X47105266Y-65800982D01*
X47205643Y-65649902D01*
X47254746Y-65520640D01*
X53288463Y-65520640D01*
X53306163Y-65701160D01*
X53363418Y-65873273D01*
X53367065Y-65879295D01*
X53367066Y-65879297D01*
X53451641Y-66018947D01*
X53457380Y-66028424D01*
X53462269Y-66033487D01*
X53462270Y-66033488D01*
X53514855Y-66087941D01*
X53583382Y-66158902D01*
X53635277Y-66192861D01*
X53718912Y-66247590D01*
X53735159Y-66258222D01*
X53741763Y-66260678D01*
X53741765Y-66260679D01*
X53898558Y-66318990D01*
X53898560Y-66318990D01*
X53905168Y-66321448D01*
X53988995Y-66332633D01*
X54077980Y-66344507D01*
X54077984Y-66344507D01*
X54084961Y-66345438D01*
X54091972Y-66344800D01*
X54091976Y-66344800D01*
X54234459Y-66331832D01*
X54265600Y-66328998D01*
X54272302Y-66326820D01*
X54272304Y-66326820D01*
X54431409Y-66275124D01*
X54431412Y-66275123D01*
X54438108Y-66272947D01*
X54566436Y-66196448D01*
X54587860Y-66183677D01*
X54587862Y-66183676D01*
X54593912Y-66180069D01*
X54725266Y-66054982D01*
X54825643Y-65903902D01*
X54869649Y-65788057D01*
X54887555Y-65740920D01*
X54887556Y-65740918D01*
X54890055Y-65734338D01*
X54892258Y-65718661D01*
X54914748Y-65558639D01*
X54914748Y-65558636D01*
X54915299Y-65554717D01*
X54915616Y-65532000D01*
X54895397Y-65351745D01*
X54893080Y-65345091D01*
X54838064Y-65187106D01*
X54838062Y-65187103D01*
X54835745Y-65180448D01*
X54785625Y-65100238D01*
X54743359Y-65032598D01*
X54739626Y-65026624D01*
X54725941Y-65012843D01*
X54616778Y-64902915D01*
X54616774Y-64902912D01*
X54611815Y-64897918D01*
X54600697Y-64890862D01*
X54530380Y-64846238D01*
X54458666Y-64800727D01*
X54429463Y-64790328D01*
X54294425Y-64742243D01*
X54294420Y-64742242D01*
X54287790Y-64739881D01*
X54280802Y-64739048D01*
X54280799Y-64739047D01*
X54157698Y-64724368D01*
X54107680Y-64718404D01*
X54100677Y-64719140D01*
X54100676Y-64719140D01*
X53934288Y-64736628D01*
X53934286Y-64736629D01*
X53927288Y-64737364D01*
X53755579Y-64795818D01*
X53749575Y-64799512D01*
X53607095Y-64887166D01*
X53607092Y-64887168D01*
X53601088Y-64890862D01*
X53596053Y-64895793D01*
X53596050Y-64895795D01*
X53476525Y-65012843D01*
X53471493Y-65017771D01*
X53373235Y-65170238D01*
X53370826Y-65176858D01*
X53370824Y-65176861D01*
X53324600Y-65303861D01*
X53311197Y-65340685D01*
X53288463Y-65520640D01*
X47254746Y-65520640D01*
X47270055Y-65480338D01*
X47271868Y-65467438D01*
X47294748Y-65304639D01*
X47294748Y-65304636D01*
X47295299Y-65300717D01*
X47295452Y-65289738D01*
X47295561Y-65281962D01*
X47295561Y-65281957D01*
X47295616Y-65278000D01*
X47275397Y-65097745D01*
X47273080Y-65091091D01*
X47218064Y-64933106D01*
X47218062Y-64933103D01*
X47215745Y-64926448D01*
X47165625Y-64846238D01*
X47123359Y-64778598D01*
X47119626Y-64772624D01*
X47105941Y-64758843D01*
X46996778Y-64648915D01*
X46996774Y-64648912D01*
X46991815Y-64643918D01*
X46980697Y-64636862D01*
X46847797Y-64552522D01*
X46838666Y-64546727D01*
X46762785Y-64519707D01*
X46674425Y-64488243D01*
X46674420Y-64488242D01*
X46667790Y-64485881D01*
X46660802Y-64485048D01*
X46660799Y-64485047D01*
X46537698Y-64470368D01*
X46487680Y-64464404D01*
X46480677Y-64465140D01*
X46480676Y-64465140D01*
X46314288Y-64482628D01*
X46314286Y-64482629D01*
X46307288Y-64483364D01*
X46135579Y-64541818D01*
X46129575Y-64545512D01*
X45987095Y-64633166D01*
X45987092Y-64633168D01*
X45981088Y-64636862D01*
X45976053Y-64641793D01*
X45976050Y-64641795D01*
X45856525Y-64758843D01*
X45851493Y-64763771D01*
X45753235Y-64916238D01*
X45750826Y-64922858D01*
X45750824Y-64922861D01*
X45701612Y-65058069D01*
X45691197Y-65086685D01*
X45668463Y-65266640D01*
X35760246Y-65266640D01*
X35701481Y-65172596D01*
X35693359Y-65159598D01*
X35689626Y-65153624D01*
X35675941Y-65139843D01*
X35566778Y-65029915D01*
X35566774Y-65029912D01*
X35561815Y-65024918D01*
X35550697Y-65017862D01*
X35459071Y-64959715D01*
X35408666Y-64927727D01*
X35338986Y-64902915D01*
X35244425Y-64869243D01*
X35244420Y-64869242D01*
X35237790Y-64866881D01*
X35230802Y-64866048D01*
X35230799Y-64866047D01*
X35107698Y-64851368D01*
X35057680Y-64845404D01*
X35050677Y-64846140D01*
X35050676Y-64846140D01*
X34884288Y-64863628D01*
X34884286Y-64863629D01*
X34877288Y-64864364D01*
X34705579Y-64922818D01*
X34654005Y-64954547D01*
X34557095Y-65014166D01*
X34557092Y-65014168D01*
X34551088Y-65017862D01*
X34546053Y-65022793D01*
X34546050Y-65022795D01*
X34426525Y-65139843D01*
X34421493Y-65144771D01*
X34323235Y-65297238D01*
X34320826Y-65303858D01*
X34320824Y-65303861D01*
X34266235Y-65453844D01*
X34261197Y-65467685D01*
X34238463Y-65647640D01*
X32386761Y-65647640D01*
X32359064Y-65568106D01*
X32359062Y-65568103D01*
X32356745Y-65561448D01*
X32260626Y-65407624D01*
X32246941Y-65393843D01*
X32137778Y-65283915D01*
X32137774Y-65283912D01*
X32132815Y-65278918D01*
X32125164Y-65274062D01*
X32073538Y-65241300D01*
X31979666Y-65181727D01*
X31930759Y-65164312D01*
X31815425Y-65123243D01*
X31815420Y-65123242D01*
X31808790Y-65120881D01*
X31801802Y-65120048D01*
X31801799Y-65120047D01*
X31673462Y-65104744D01*
X31628680Y-65099404D01*
X31621677Y-65100140D01*
X31621676Y-65100140D01*
X31455288Y-65117628D01*
X31455286Y-65117629D01*
X31448288Y-65118364D01*
X31276579Y-65176818D01*
X31214109Y-65215250D01*
X31128095Y-65268166D01*
X31128092Y-65268168D01*
X31122088Y-65271862D01*
X31117053Y-65276793D01*
X31117050Y-65276795D01*
X31002450Y-65389020D01*
X30992493Y-65398771D01*
X30894235Y-65551238D01*
X30891826Y-65557858D01*
X30891824Y-65557861D01*
X30837235Y-65707844D01*
X30832197Y-65721685D01*
X30809463Y-65901640D01*
X29963029Y-65901640D01*
X29972834Y-65894646D01*
X30089860Y-65811173D01*
X30145595Y-65755633D01*
X30238590Y-65662962D01*
X30248096Y-65653489D01*
X30255408Y-65643314D01*
X30375435Y-65476277D01*
X30378453Y-65472077D01*
X30387465Y-65453844D01*
X30475136Y-65276453D01*
X30475137Y-65276451D01*
X30477430Y-65271811D01*
X30529588Y-65100140D01*
X30540865Y-65063023D01*
X30540865Y-65063021D01*
X30542370Y-65058069D01*
X30571529Y-64836590D01*
X30573156Y-64770000D01*
X30554852Y-64547361D01*
X30500431Y-64330702D01*
X30411354Y-64125840D01*
X30290014Y-63938277D01*
X30139670Y-63773051D01*
X30135619Y-63769852D01*
X30135615Y-63769848D01*
X29968414Y-63637800D01*
X29968410Y-63637798D01*
X29964359Y-63634598D01*
X29923053Y-63611796D01*
X29873084Y-63561364D01*
X29858312Y-63491921D01*
X29883428Y-63425516D01*
X29910780Y-63398909D01*
X29976618Y-63351947D01*
X30089860Y-63271173D01*
X30102007Y-63259069D01*
X30207292Y-63154151D01*
X30248096Y-63113489D01*
X30307594Y-63030689D01*
X30343557Y-62980640D01*
X31063463Y-62980640D01*
X31081163Y-63161160D01*
X31138418Y-63333273D01*
X31142065Y-63339295D01*
X31142066Y-63339297D01*
X31218980Y-63466297D01*
X31232380Y-63488424D01*
X31237269Y-63493487D01*
X31237270Y-63493488D01*
X31269283Y-63526638D01*
X31358382Y-63618902D01*
X31434270Y-63668562D01*
X31485886Y-63702338D01*
X31510159Y-63718222D01*
X31516763Y-63720678D01*
X31516765Y-63720679D01*
X31673558Y-63778990D01*
X31673560Y-63778990D01*
X31680168Y-63781448D01*
X31763995Y-63792633D01*
X31852980Y-63804507D01*
X31852984Y-63804507D01*
X31859961Y-63805438D01*
X31866972Y-63804800D01*
X31866976Y-63804800D01*
X32009459Y-63791832D01*
X32040600Y-63788998D01*
X32047302Y-63786820D01*
X32047304Y-63786820D01*
X32206409Y-63735124D01*
X32206412Y-63735123D01*
X32213108Y-63732947D01*
X32309513Y-63675478D01*
X32362860Y-63643677D01*
X32362862Y-63643676D01*
X32368912Y-63640069D01*
X32500266Y-63514982D01*
X32600643Y-63363902D01*
X32647041Y-63241760D01*
X32662555Y-63200920D01*
X32662556Y-63200918D01*
X32665055Y-63194338D01*
X32666035Y-63187366D01*
X32689748Y-63018639D01*
X32689748Y-63018636D01*
X32690299Y-63014717D01*
X32690616Y-62992000D01*
X32670397Y-62811745D01*
X32668080Y-62805091D01*
X32613064Y-62647106D01*
X32613062Y-62647103D01*
X32610745Y-62640448D01*
X32585246Y-62599640D01*
X33222463Y-62599640D01*
X33240163Y-62780160D01*
X33297418Y-62952273D01*
X33301065Y-62958295D01*
X33301066Y-62958297D01*
X33318845Y-62987653D01*
X33391380Y-63107424D01*
X33396269Y-63112487D01*
X33396270Y-63112488D01*
X33449727Y-63167844D01*
X33517382Y-63237902D01*
X33593271Y-63287562D01*
X33652912Y-63326590D01*
X33669159Y-63337222D01*
X33675763Y-63339678D01*
X33675765Y-63339679D01*
X33832558Y-63397990D01*
X33832560Y-63397990D01*
X33839168Y-63400448D01*
X33922995Y-63411633D01*
X34011980Y-63423507D01*
X34011984Y-63423507D01*
X34018961Y-63424438D01*
X34025972Y-63423800D01*
X34025976Y-63423800D01*
X34168459Y-63410832D01*
X34199600Y-63407998D01*
X34206302Y-63405820D01*
X34206304Y-63405820D01*
X34365409Y-63354124D01*
X34365412Y-63354123D01*
X34372108Y-63351947D01*
X34468513Y-63294478D01*
X34521860Y-63262677D01*
X34521862Y-63262676D01*
X34527912Y-63259069D01*
X34659266Y-63133982D01*
X34676768Y-63107640D01*
X43636463Y-63107640D01*
X43654163Y-63288160D01*
X43711418Y-63460273D01*
X43715065Y-63466295D01*
X43715066Y-63466297D01*
X43751610Y-63526638D01*
X43805380Y-63615424D01*
X43810269Y-63620487D01*
X43810270Y-63620488D01*
X43863727Y-63675844D01*
X43931382Y-63745902D01*
X43969242Y-63770677D01*
X44066912Y-63834590D01*
X44083159Y-63845222D01*
X44089763Y-63847678D01*
X44089765Y-63847679D01*
X44246558Y-63905990D01*
X44246560Y-63905990D01*
X44253168Y-63908448D01*
X44336995Y-63919633D01*
X44425980Y-63931507D01*
X44425984Y-63931507D01*
X44432961Y-63932438D01*
X44439972Y-63931800D01*
X44439976Y-63931800D01*
X44582459Y-63918832D01*
X44613600Y-63915998D01*
X44620302Y-63913820D01*
X44620304Y-63913820D01*
X44779409Y-63862124D01*
X44779412Y-63862123D01*
X44786108Y-63859947D01*
X44905126Y-63788998D01*
X44935860Y-63770677D01*
X44935862Y-63770676D01*
X44941912Y-63767069D01*
X45073266Y-63641982D01*
X45173643Y-63490902D01*
X45174502Y-63488640D01*
X60908463Y-63488640D01*
X60926163Y-63669160D01*
X60983418Y-63841273D01*
X60987065Y-63847295D01*
X60987066Y-63847297D01*
X61044794Y-63942617D01*
X61077380Y-63996424D01*
X61203382Y-64126902D01*
X61355159Y-64226222D01*
X61361763Y-64228678D01*
X61361765Y-64228679D01*
X61518558Y-64286990D01*
X61518560Y-64286990D01*
X61525168Y-64289448D01*
X61608995Y-64300633D01*
X61697980Y-64312507D01*
X61697984Y-64312507D01*
X61704961Y-64313438D01*
X61711972Y-64312800D01*
X61711976Y-64312800D01*
X61860251Y-64299305D01*
X61885600Y-64296998D01*
X61892302Y-64294820D01*
X61892304Y-64294820D01*
X62051409Y-64243124D01*
X62051412Y-64243123D01*
X62058108Y-64240947D01*
X62213912Y-64148069D01*
X62345266Y-64022982D01*
X62445643Y-63871902D01*
X62490289Y-63754373D01*
X62507555Y-63708920D01*
X62507556Y-63708918D01*
X62510055Y-63702338D01*
X62511035Y-63695366D01*
X62534748Y-63526639D01*
X62534748Y-63526636D01*
X62535299Y-63522717D01*
X62535616Y-63500000D01*
X62515397Y-63319745D01*
X62513080Y-63313091D01*
X62458064Y-63155106D01*
X62458062Y-63155103D01*
X62455745Y-63148448D01*
X62387349Y-63038990D01*
X62363359Y-63000598D01*
X62359626Y-62994624D01*
X62353110Y-62988062D01*
X62236778Y-62870915D01*
X62236774Y-62870912D01*
X62231815Y-62865918D01*
X62220697Y-62858862D01*
X62172538Y-62828300D01*
X62078666Y-62768727D01*
X62029759Y-62751312D01*
X61914425Y-62710243D01*
X61914420Y-62710242D01*
X61907790Y-62707881D01*
X61900802Y-62707048D01*
X61900799Y-62707047D01*
X61777698Y-62692368D01*
X61727680Y-62686404D01*
X61720677Y-62687140D01*
X61720676Y-62687140D01*
X61554288Y-62704628D01*
X61554286Y-62704629D01*
X61547288Y-62705364D01*
X61375579Y-62763818D01*
X61349016Y-62780160D01*
X61227095Y-62855166D01*
X61227092Y-62855168D01*
X61221088Y-62858862D01*
X61216053Y-62863793D01*
X61216050Y-62863795D01*
X61096525Y-62980843D01*
X61091493Y-62985771D01*
X60993235Y-63138238D01*
X60990826Y-63144858D01*
X60990824Y-63144861D01*
X60936235Y-63294844D01*
X60931197Y-63308685D01*
X60908463Y-63488640D01*
X45174502Y-63488640D01*
X45233487Y-63333364D01*
X45235555Y-63327920D01*
X45235556Y-63327918D01*
X45238055Y-63321338D01*
X45239833Y-63308685D01*
X45262748Y-63145639D01*
X45262748Y-63145636D01*
X45263299Y-63141717D01*
X45263616Y-63119000D01*
X45243397Y-62938745D01*
X45241075Y-62932077D01*
X45186064Y-62774106D01*
X45186062Y-62774103D01*
X45183745Y-62767448D01*
X45133625Y-62687238D01*
X45091359Y-62619598D01*
X45087626Y-62613624D01*
X45081110Y-62607062D01*
X44964778Y-62489915D01*
X44964774Y-62489912D01*
X44959815Y-62484918D01*
X44948697Y-62477862D01*
X44865032Y-62424767D01*
X44806666Y-62387727D01*
X44736986Y-62362915D01*
X44642425Y-62329243D01*
X44642420Y-62329242D01*
X44635790Y-62326881D01*
X44628802Y-62326048D01*
X44628799Y-62326047D01*
X44505698Y-62311368D01*
X44455680Y-62305404D01*
X44448677Y-62306140D01*
X44448676Y-62306140D01*
X44282288Y-62323628D01*
X44282286Y-62323629D01*
X44275288Y-62324364D01*
X44103579Y-62382818D01*
X44087619Y-62392637D01*
X43955095Y-62474166D01*
X43955092Y-62474168D01*
X43949088Y-62477862D01*
X43944053Y-62482793D01*
X43944050Y-62482795D01*
X43824525Y-62599843D01*
X43819493Y-62604771D01*
X43721235Y-62757238D01*
X43718826Y-62763858D01*
X43718824Y-62763861D01*
X43661606Y-62921066D01*
X43659197Y-62927685D01*
X43636463Y-63107640D01*
X34676768Y-63107640D01*
X34759643Y-62982902D01*
X34810501Y-62849020D01*
X34821555Y-62819920D01*
X34821556Y-62819918D01*
X34824055Y-62813338D01*
X34825833Y-62800685D01*
X34848748Y-62637639D01*
X34848748Y-62637636D01*
X34849299Y-62633717D01*
X34849616Y-62611000D01*
X34829397Y-62430745D01*
X34825556Y-62419715D01*
X34772064Y-62266106D01*
X34772062Y-62266103D01*
X34769745Y-62259448D01*
X34719625Y-62179238D01*
X34677359Y-62111598D01*
X34673626Y-62105624D01*
X34653544Y-62085401D01*
X34550778Y-61981915D01*
X34550774Y-61981912D01*
X34545815Y-61976918D01*
X34534697Y-61969862D01*
X34486538Y-61939300D01*
X34392666Y-61879727D01*
X34363463Y-61869328D01*
X34228425Y-61821243D01*
X34228420Y-61821242D01*
X34221790Y-61818881D01*
X34214802Y-61818048D01*
X34214799Y-61818047D01*
X34085171Y-61802590D01*
X34041680Y-61797404D01*
X34034677Y-61798140D01*
X34034676Y-61798140D01*
X33868288Y-61815628D01*
X33868286Y-61815629D01*
X33861288Y-61816364D01*
X33689579Y-61874818D01*
X33683575Y-61878512D01*
X33541095Y-61966166D01*
X33541092Y-61966168D01*
X33535088Y-61969862D01*
X33530053Y-61974793D01*
X33530050Y-61974795D01*
X33412577Y-62089834D01*
X33405493Y-62096771D01*
X33307235Y-62249238D01*
X33304826Y-62255858D01*
X33304824Y-62255861D01*
X33247606Y-62413066D01*
X33245197Y-62419685D01*
X33222463Y-62599640D01*
X32585246Y-62599640D01*
X32514626Y-62486624D01*
X32455094Y-62426675D01*
X32391778Y-62362915D01*
X32391774Y-62362912D01*
X32386815Y-62357918D01*
X32375697Y-62350862D01*
X32305380Y-62306238D01*
X32233666Y-62260727D01*
X32184759Y-62243312D01*
X32069425Y-62202243D01*
X32069420Y-62202242D01*
X32062790Y-62199881D01*
X32055802Y-62199048D01*
X32055799Y-62199047D01*
X31932698Y-62184368D01*
X31882680Y-62178404D01*
X31875677Y-62179140D01*
X31875676Y-62179140D01*
X31709288Y-62196628D01*
X31709286Y-62196629D01*
X31702288Y-62197364D01*
X31530579Y-62255818D01*
X31490448Y-62280507D01*
X31382095Y-62347166D01*
X31382092Y-62347168D01*
X31376088Y-62350862D01*
X31371053Y-62355793D01*
X31371050Y-62355795D01*
X31298670Y-62426675D01*
X31246493Y-62477771D01*
X31148235Y-62630238D01*
X31145826Y-62636858D01*
X31145824Y-62636861D01*
X31091235Y-62786844D01*
X31086197Y-62800685D01*
X31063463Y-62980640D01*
X30343557Y-62980640D01*
X30375435Y-62936277D01*
X30378453Y-62932077D01*
X30413017Y-62862143D01*
X30475136Y-62736453D01*
X30475137Y-62736451D01*
X30477430Y-62731811D01*
X30542370Y-62518069D01*
X30571529Y-62296590D01*
X30572435Y-62259512D01*
X30573074Y-62233365D01*
X30573074Y-62233361D01*
X30573156Y-62230000D01*
X30554852Y-62007361D01*
X30500431Y-61790702D01*
X30411354Y-61585840D01*
X30327771Y-61456640D01*
X46938463Y-61456640D01*
X46956163Y-61637160D01*
X47013418Y-61809273D01*
X47017065Y-61815295D01*
X47017066Y-61815297D01*
X47093980Y-61942297D01*
X47107380Y-61964424D01*
X47112269Y-61969487D01*
X47112270Y-61969488D01*
X47124271Y-61981915D01*
X47233382Y-62094902D01*
X47239278Y-62098760D01*
X47360987Y-62178404D01*
X47385159Y-62194222D01*
X47391763Y-62196678D01*
X47391765Y-62196679D01*
X47548558Y-62254990D01*
X47548560Y-62254990D01*
X47555168Y-62257448D01*
X47638995Y-62268633D01*
X47727980Y-62280507D01*
X47727984Y-62280507D01*
X47734961Y-62281438D01*
X47741972Y-62280800D01*
X47741976Y-62280800D01*
X47884459Y-62267832D01*
X47915600Y-62264998D01*
X47922302Y-62262820D01*
X47922304Y-62262820D01*
X48081409Y-62211124D01*
X48081412Y-62211123D01*
X48088108Y-62208947D01*
X48243912Y-62116069D01*
X48375266Y-61990982D01*
X48475643Y-61839902D01*
X48540055Y-61670338D01*
X48541035Y-61663366D01*
X48564748Y-61494639D01*
X48564748Y-61494636D01*
X48565299Y-61490717D01*
X48565616Y-61468000D01*
X48564342Y-61456640D01*
X58876463Y-61456640D01*
X58894163Y-61637160D01*
X58951418Y-61809273D01*
X58955065Y-61815295D01*
X58955066Y-61815297D01*
X59031980Y-61942297D01*
X59045380Y-61964424D01*
X59050269Y-61969487D01*
X59050270Y-61969488D01*
X59062271Y-61981915D01*
X59171382Y-62094902D01*
X59177278Y-62098760D01*
X59298987Y-62178404D01*
X59323159Y-62194222D01*
X59329763Y-62196678D01*
X59329765Y-62196679D01*
X59486558Y-62254990D01*
X59486560Y-62254990D01*
X59493168Y-62257448D01*
X59576995Y-62268633D01*
X59665980Y-62280507D01*
X59665984Y-62280507D01*
X59672961Y-62281438D01*
X59679972Y-62280800D01*
X59679976Y-62280800D01*
X59822459Y-62267832D01*
X59853600Y-62264998D01*
X59860302Y-62262820D01*
X59860304Y-62262820D01*
X60019409Y-62211124D01*
X60019412Y-62211123D01*
X60026108Y-62208947D01*
X60181912Y-62116069D01*
X60313266Y-61990982D01*
X60413643Y-61839902D01*
X60478055Y-61670338D01*
X60479035Y-61663366D01*
X60490240Y-61583640D01*
X69290463Y-61583640D01*
X69308163Y-61764160D01*
X69365418Y-61936273D01*
X69369065Y-61942295D01*
X69369066Y-61942297D01*
X69411596Y-62012522D01*
X69459380Y-62091424D01*
X69464269Y-62096487D01*
X69464270Y-62096488D01*
X69485027Y-62117982D01*
X69585382Y-62221902D01*
X69633741Y-62253547D01*
X69712987Y-62305404D01*
X69737159Y-62321222D01*
X69743763Y-62323678D01*
X69743765Y-62323679D01*
X69900558Y-62381990D01*
X69900560Y-62381990D01*
X69907168Y-62384448D01*
X69990995Y-62395633D01*
X70079980Y-62407507D01*
X70079984Y-62407507D01*
X70086961Y-62408438D01*
X70093972Y-62407800D01*
X70093976Y-62407800D01*
X70236459Y-62394832D01*
X70267600Y-62391998D01*
X70274302Y-62389820D01*
X70274304Y-62389820D01*
X70433409Y-62338124D01*
X70433412Y-62338123D01*
X70440108Y-62335947D01*
X70559951Y-62264506D01*
X70589860Y-62246677D01*
X70589862Y-62246676D01*
X70595912Y-62243069D01*
X70727266Y-62117982D01*
X70827643Y-61966902D01*
X70882974Y-61821243D01*
X70889555Y-61803920D01*
X70889556Y-61803918D01*
X70892055Y-61797338D01*
X70893655Y-61785954D01*
X70916748Y-61621639D01*
X70916748Y-61621636D01*
X70917299Y-61617717D01*
X70917616Y-61595000D01*
X70897397Y-61414745D01*
X70895080Y-61408091D01*
X70840064Y-61250106D01*
X70840062Y-61250103D01*
X70837745Y-61243448D01*
X70781473Y-61153393D01*
X70745359Y-61095598D01*
X70741626Y-61089624D01*
X70723923Y-61071797D01*
X70618778Y-60965915D01*
X70618774Y-60965912D01*
X70613815Y-60960918D01*
X70605688Y-60955760D01*
X70536825Y-60912059D01*
X70460666Y-60863727D01*
X70421209Y-60849677D01*
X70296425Y-60805243D01*
X70296420Y-60805242D01*
X70289790Y-60802881D01*
X70282802Y-60802048D01*
X70282799Y-60802047D01*
X70153171Y-60786590D01*
X70109680Y-60781404D01*
X70102677Y-60782140D01*
X70102676Y-60782140D01*
X69936288Y-60799628D01*
X69936286Y-60799629D01*
X69929288Y-60800364D01*
X69757579Y-60858818D01*
X69751575Y-60862512D01*
X69609095Y-60950166D01*
X69609092Y-60950168D01*
X69603088Y-60953862D01*
X69598053Y-60958793D01*
X69598050Y-60958795D01*
X69484464Y-61070027D01*
X69473493Y-61080771D01*
X69375235Y-61233238D01*
X69372826Y-61239858D01*
X69372824Y-61239861D01*
X69326039Y-61368401D01*
X69313197Y-61403685D01*
X69290463Y-61583640D01*
X60490240Y-61583640D01*
X60502748Y-61494639D01*
X60502748Y-61494636D01*
X60503299Y-61490717D01*
X60503616Y-61468000D01*
X60483397Y-61287745D01*
X60479942Y-61277823D01*
X60426064Y-61123106D01*
X60426062Y-61123103D01*
X60423745Y-61116448D01*
X60373894Y-61036669D01*
X60331359Y-60968598D01*
X60327626Y-60962624D01*
X60318554Y-60953488D01*
X60204778Y-60838915D01*
X60204774Y-60838912D01*
X60199815Y-60833918D01*
X60191688Y-60828760D01*
X60140538Y-60796300D01*
X60046666Y-60736727D01*
X59985961Y-60715111D01*
X59882425Y-60678243D01*
X59882420Y-60678242D01*
X59875790Y-60675881D01*
X59868802Y-60675048D01*
X59868799Y-60675047D01*
X59739171Y-60659590D01*
X59695680Y-60654404D01*
X59688677Y-60655140D01*
X59688676Y-60655140D01*
X59522288Y-60672628D01*
X59522286Y-60672629D01*
X59515288Y-60673364D01*
X59343579Y-60731818D01*
X59313012Y-60750623D01*
X59195095Y-60823166D01*
X59195092Y-60823168D01*
X59189088Y-60826862D01*
X59184053Y-60831793D01*
X59184050Y-60831795D01*
X59066577Y-60946834D01*
X59059493Y-60953771D01*
X58961235Y-61106238D01*
X58958826Y-61112858D01*
X58958824Y-61112861D01*
X58901606Y-61270066D01*
X58899197Y-61276685D01*
X58876463Y-61456640D01*
X48564342Y-61456640D01*
X48545397Y-61287745D01*
X48541942Y-61277823D01*
X48488064Y-61123106D01*
X48488062Y-61123103D01*
X48485745Y-61116448D01*
X48435894Y-61036669D01*
X48393359Y-60968598D01*
X48389626Y-60962624D01*
X48380554Y-60953488D01*
X48266778Y-60838915D01*
X48266774Y-60838912D01*
X48261815Y-60833918D01*
X48253688Y-60828760D01*
X48202538Y-60796300D01*
X48108666Y-60736727D01*
X48047961Y-60715111D01*
X47944425Y-60678243D01*
X47944420Y-60678242D01*
X47937790Y-60675881D01*
X47930802Y-60675048D01*
X47930799Y-60675047D01*
X47801171Y-60659590D01*
X47757680Y-60654404D01*
X47750677Y-60655140D01*
X47750676Y-60655140D01*
X47584288Y-60672628D01*
X47584286Y-60672629D01*
X47577288Y-60673364D01*
X47405579Y-60731818D01*
X47375012Y-60750623D01*
X47257095Y-60823166D01*
X47257092Y-60823168D01*
X47251088Y-60826862D01*
X47246053Y-60831793D01*
X47246050Y-60831795D01*
X47128577Y-60946834D01*
X47121493Y-60953771D01*
X47023235Y-61106238D01*
X47020826Y-61112858D01*
X47020824Y-61112861D01*
X46963606Y-61270066D01*
X46961197Y-61276685D01*
X46938463Y-61456640D01*
X30327771Y-61456640D01*
X30319270Y-61443500D01*
X30292822Y-61402617D01*
X30292820Y-61402614D01*
X30290014Y-61398277D01*
X30139670Y-61233051D01*
X30135619Y-61229852D01*
X30135615Y-61229848D01*
X29968414Y-61097800D01*
X29968410Y-61097798D01*
X29964359Y-61094598D01*
X29923053Y-61071796D01*
X29873084Y-61021364D01*
X29858312Y-60951921D01*
X29883428Y-60885516D01*
X29910780Y-60858909D01*
X29971776Y-60815401D01*
X30089860Y-60731173D01*
X30145595Y-60675633D01*
X30244435Y-60577137D01*
X30248096Y-60573489D01*
X30255408Y-60563314D01*
X30375435Y-60396277D01*
X30378453Y-60392077D01*
X30387465Y-60373844D01*
X30417219Y-60313640D01*
X36778463Y-60313640D01*
X36796163Y-60494160D01*
X36853418Y-60666273D01*
X36857065Y-60672295D01*
X36857066Y-60672297D01*
X36938422Y-60806632D01*
X36947380Y-60821424D01*
X36952269Y-60826487D01*
X36952270Y-60826488D01*
X36974664Y-60849677D01*
X37073382Y-60951902D01*
X37142719Y-60997275D01*
X37202920Y-61036669D01*
X37225159Y-61051222D01*
X37231763Y-61053678D01*
X37231765Y-61053679D01*
X37388558Y-61111990D01*
X37388560Y-61111990D01*
X37395168Y-61114448D01*
X37478995Y-61125633D01*
X37567980Y-61137507D01*
X37567984Y-61137507D01*
X37574961Y-61138438D01*
X37581972Y-61137800D01*
X37581976Y-61137800D01*
X37724459Y-61124832D01*
X37755600Y-61121998D01*
X37762302Y-61119820D01*
X37762304Y-61119820D01*
X37921409Y-61068124D01*
X37921412Y-61068123D01*
X37928108Y-61065947D01*
X38045347Y-60996058D01*
X38114103Y-60978358D01*
X38143512Y-60984163D01*
X38143730Y-60983288D01*
X38150565Y-60984992D01*
X38157168Y-60987448D01*
X38164149Y-60988379D01*
X38164151Y-60988380D01*
X38329980Y-61010507D01*
X38329984Y-61010507D01*
X38336961Y-61011438D01*
X38343972Y-61010800D01*
X38343976Y-61010800D01*
X38492581Y-60997275D01*
X38517600Y-60994998D01*
X38524302Y-60992820D01*
X38524304Y-60992820D01*
X38683409Y-60941124D01*
X38683412Y-60941123D01*
X38690108Y-60938947D01*
X38809951Y-60867506D01*
X38839860Y-60849677D01*
X38839862Y-60849676D01*
X38845912Y-60846069D01*
X38977266Y-60720982D01*
X39077643Y-60569902D01*
X39126746Y-60440640D01*
X57098463Y-60440640D01*
X57116163Y-60621160D01*
X57173418Y-60793273D01*
X57177065Y-60799295D01*
X57177066Y-60799297D01*
X57261641Y-60938947D01*
X57267380Y-60948424D01*
X57272269Y-60953487D01*
X57272270Y-60953488D01*
X57304283Y-60986638D01*
X57393382Y-61078902D01*
X57545159Y-61178222D01*
X57551763Y-61180678D01*
X57551765Y-61180679D01*
X57708558Y-61238990D01*
X57708560Y-61238990D01*
X57715168Y-61241448D01*
X57798995Y-61252633D01*
X57887980Y-61264507D01*
X57887984Y-61264507D01*
X57894961Y-61265438D01*
X57901972Y-61264800D01*
X57901976Y-61264800D01*
X58044459Y-61251832D01*
X58075600Y-61248998D01*
X58082302Y-61246820D01*
X58082304Y-61246820D01*
X58241409Y-61195124D01*
X58241412Y-61195123D01*
X58248108Y-61192947D01*
X58367126Y-61121998D01*
X58397860Y-61103677D01*
X58397862Y-61103676D01*
X58403912Y-61100069D01*
X58535266Y-60974982D01*
X58635643Y-60823902D01*
X58690974Y-60678243D01*
X58697555Y-60660920D01*
X58697556Y-60660918D01*
X58700055Y-60654338D01*
X58701035Y-60647366D01*
X58724748Y-60478639D01*
X58724748Y-60478636D01*
X58725299Y-60474717D01*
X58725616Y-60452000D01*
X58705397Y-60271745D01*
X58703080Y-60265091D01*
X58675761Y-60186640D01*
X62686463Y-60186640D01*
X62704163Y-60367160D01*
X62761418Y-60539273D01*
X62765065Y-60545295D01*
X62765066Y-60545297D01*
X62845581Y-60678243D01*
X62855380Y-60694424D01*
X62981382Y-60824902D01*
X63133159Y-60924222D01*
X63139763Y-60926678D01*
X63139765Y-60926679D01*
X63296558Y-60984990D01*
X63296560Y-60984990D01*
X63303168Y-60987448D01*
X63386995Y-60998633D01*
X63475980Y-61010507D01*
X63475984Y-61010507D01*
X63482961Y-61011438D01*
X63489972Y-61010800D01*
X63489976Y-61010800D01*
X63638581Y-60997275D01*
X63663600Y-60994998D01*
X63670302Y-60992820D01*
X63670304Y-60992820D01*
X63829409Y-60941124D01*
X63829412Y-60941123D01*
X63836108Y-60938947D01*
X63955951Y-60867506D01*
X63985860Y-60849677D01*
X63985862Y-60849676D01*
X63991912Y-60846069D01*
X64123266Y-60720982D01*
X64223643Y-60569902D01*
X64288055Y-60400338D01*
X64291167Y-60378197D01*
X64312748Y-60224639D01*
X64312748Y-60224636D01*
X64313299Y-60220717D01*
X64313354Y-60216757D01*
X64313658Y-60212809D01*
X64315383Y-60212942D01*
X64334280Y-60151800D01*
X64388590Y-60106073D01*
X64459000Y-60096966D01*
X64489182Y-60107298D01*
X64489722Y-60106037D01*
X64495392Y-60108467D01*
X64500787Y-60111433D01*
X64506654Y-60113294D01*
X64506656Y-60113295D01*
X64613554Y-60147205D01*
X64689306Y-60171235D01*
X64843227Y-60188500D01*
X65064777Y-60188500D01*
X65132898Y-60208502D01*
X65179391Y-60262158D01*
X65189495Y-60332432D01*
X65181766Y-60361292D01*
X65172470Y-60384534D01*
X65171356Y-60391262D01*
X65171355Y-60391266D01*
X65144007Y-60556461D01*
X65142892Y-60563198D01*
X65143249Y-60570015D01*
X65143249Y-60570019D01*
X65151061Y-60719072D01*
X65152370Y-60744047D01*
X65154181Y-60750620D01*
X65154181Y-60750623D01*
X65185335Y-60863727D01*
X65200461Y-60918641D01*
X65284922Y-61078836D01*
X65289327Y-61084049D01*
X65289330Y-61084053D01*
X65397406Y-61211943D01*
X65397410Y-61211947D01*
X65401813Y-61217157D01*
X65407237Y-61221304D01*
X65407238Y-61221305D01*
X65540257Y-61323006D01*
X65540261Y-61323009D01*
X65545678Y-61327150D01*
X65632372Y-61367576D01*
X65703631Y-61400805D01*
X65703634Y-61400806D01*
X65709808Y-61403685D01*
X65716456Y-61405171D01*
X65716459Y-61405172D01*
X65822421Y-61428857D01*
X65886543Y-61443190D01*
X65892088Y-61443500D01*
X66025244Y-61443500D01*
X66160037Y-61428857D01*
X66278190Y-61389094D01*
X66325204Y-61373272D01*
X66325206Y-61373271D01*
X66331675Y-61371094D01*
X66486905Y-61277823D01*
X66491862Y-61273135D01*
X66491865Y-61273133D01*
X66613527Y-61158082D01*
X66613529Y-61158080D01*
X66618485Y-61153393D01*
X66622317Y-61147755D01*
X66622320Y-61147751D01*
X66716442Y-61009255D01*
X66720277Y-61003612D01*
X66787530Y-60835466D01*
X66788644Y-60828738D01*
X66788645Y-60828734D01*
X66815993Y-60663539D01*
X66815993Y-60663536D01*
X66817108Y-60656802D01*
X66816614Y-60647366D01*
X66807987Y-60482766D01*
X66807630Y-60475953D01*
X66801033Y-60452000D01*
X66761352Y-60307941D01*
X66759539Y-60301359D01*
X66675078Y-60141164D01*
X66652628Y-60114598D01*
X66623937Y-60049657D01*
X66634910Y-59979514D01*
X66669232Y-59935628D01*
X66709282Y-59902964D01*
X66709286Y-59902960D01*
X66714062Y-59899065D01*
X66722368Y-59889025D01*
X66836201Y-59751425D01*
X66836203Y-59751421D01*
X66840130Y-59746675D01*
X66934198Y-59572701D01*
X66992682Y-59383768D01*
X66994786Y-59363749D01*
X67012711Y-59193204D01*
X67012711Y-59193202D01*
X67013355Y-59187075D01*
X67012067Y-59172925D01*
X68316645Y-59172925D01*
X68319277Y-59201841D01*
X68327831Y-59295834D01*
X68334570Y-59369888D01*
X68336308Y-59375794D01*
X68336309Y-59375798D01*
X68360958Y-59459547D01*
X68390410Y-59559619D01*
X68393263Y-59565077D01*
X68393265Y-59565081D01*
X68405675Y-59588818D01*
X68482040Y-59734890D01*
X68605968Y-59889025D01*
X68610692Y-59892989D01*
X68617933Y-59899065D01*
X68757474Y-60016154D01*
X68762872Y-60019121D01*
X68762877Y-60019125D01*
X68881454Y-60084312D01*
X68930787Y-60111433D01*
X68936654Y-60113294D01*
X68936656Y-60113295D01*
X69043554Y-60147205D01*
X69119306Y-60171235D01*
X69273227Y-60188500D01*
X69979769Y-60188500D01*
X69982825Y-60188200D01*
X69982832Y-60188200D01*
X70041340Y-60182463D01*
X70126833Y-60174080D01*
X70132734Y-60172298D01*
X70132736Y-60172298D01*
X70235856Y-60141164D01*
X70316169Y-60116916D01*
X70490796Y-60024066D01*
X70596604Y-59937771D01*
X70639287Y-59902960D01*
X70639290Y-59902957D01*
X70644062Y-59899065D01*
X70652368Y-59889025D01*
X70766201Y-59751425D01*
X70766203Y-59751421D01*
X70770130Y-59746675D01*
X70864198Y-59572701D01*
X70922682Y-59383768D01*
X70924786Y-59363749D01*
X70942711Y-59193204D01*
X70942711Y-59193202D01*
X70943355Y-59187075D01*
X70927720Y-59015273D01*
X70925989Y-58996251D01*
X70925988Y-58996248D01*
X70925430Y-58990112D01*
X70915503Y-58956380D01*
X70885505Y-58854457D01*
X70869590Y-58800381D01*
X70865681Y-58792902D01*
X70808282Y-58683111D01*
X70777960Y-58625110D01*
X70654032Y-58470975D01*
X70647727Y-58465684D01*
X70539558Y-58374920D01*
X70502526Y-58343846D01*
X70497128Y-58340879D01*
X70497123Y-58340875D01*
X70334608Y-58251533D01*
X70334609Y-58251533D01*
X70329213Y-58248567D01*
X70323346Y-58246706D01*
X70323344Y-58246705D01*
X70146564Y-58190627D01*
X70146563Y-58190627D01*
X70140694Y-58188765D01*
X69986773Y-58171500D01*
X69280231Y-58171500D01*
X69277175Y-58171800D01*
X69277168Y-58171800D01*
X69218660Y-58177537D01*
X69133167Y-58185920D01*
X69127266Y-58187702D01*
X69127264Y-58187702D01*
X69053947Y-58209838D01*
X68943831Y-58243084D01*
X68769204Y-58335934D01*
X68721403Y-58374920D01*
X68620713Y-58457040D01*
X68620710Y-58457043D01*
X68615938Y-58460935D01*
X68612011Y-58465682D01*
X68612009Y-58465684D01*
X68493799Y-58608575D01*
X68493797Y-58608579D01*
X68489870Y-58613325D01*
X68395802Y-58787299D01*
X68337318Y-58976232D01*
X68336674Y-58982357D01*
X68336674Y-58982358D01*
X68332582Y-59021297D01*
X68316645Y-59172925D01*
X67012067Y-59172925D01*
X66997720Y-59015273D01*
X66995989Y-58996251D01*
X66995988Y-58996248D01*
X66995430Y-58990112D01*
X66985503Y-58956380D01*
X66955505Y-58854457D01*
X66939590Y-58800381D01*
X66935681Y-58792902D01*
X66878282Y-58683111D01*
X66847960Y-58625110D01*
X66724032Y-58470975D01*
X66717727Y-58465684D01*
X66609558Y-58374920D01*
X66572526Y-58343846D01*
X66567128Y-58340879D01*
X66567123Y-58340875D01*
X66404608Y-58251533D01*
X66404609Y-58251533D01*
X66399213Y-58248567D01*
X66393346Y-58246706D01*
X66393344Y-58246705D01*
X66216564Y-58190627D01*
X66216563Y-58190627D01*
X66210694Y-58188765D01*
X66056773Y-58171500D01*
X64850231Y-58171500D01*
X64847175Y-58171800D01*
X64847168Y-58171800D01*
X64788660Y-58177537D01*
X64703167Y-58185920D01*
X64697266Y-58187702D01*
X64697264Y-58187702D01*
X64623947Y-58209838D01*
X64513831Y-58243084D01*
X64339204Y-58335934D01*
X64291403Y-58374920D01*
X64190713Y-58457040D01*
X64190710Y-58457043D01*
X64185938Y-58460935D01*
X64182011Y-58465682D01*
X64182009Y-58465684D01*
X64063799Y-58608575D01*
X64063797Y-58608579D01*
X64059870Y-58613325D01*
X63965802Y-58787299D01*
X63907318Y-58976232D01*
X63906674Y-58982357D01*
X63906674Y-58982358D01*
X63902582Y-59021297D01*
X63886645Y-59172925D01*
X63889277Y-59201841D01*
X63897426Y-59291390D01*
X63883681Y-59361044D01*
X63834459Y-59412208D01*
X63765390Y-59428639D01*
X63729680Y-59421509D01*
X63711250Y-59414947D01*
X63692424Y-59408243D01*
X63692422Y-59408243D01*
X63685790Y-59405881D01*
X63678802Y-59405048D01*
X63678799Y-59405047D01*
X63549699Y-59389653D01*
X63505680Y-59384404D01*
X63498677Y-59385140D01*
X63498676Y-59385140D01*
X63332288Y-59402628D01*
X63332286Y-59402629D01*
X63325288Y-59403364D01*
X63153579Y-59461818D01*
X63137619Y-59471637D01*
X63005095Y-59553166D01*
X63005092Y-59553168D01*
X62999088Y-59556862D01*
X62994053Y-59561793D01*
X62994050Y-59561795D01*
X62874525Y-59678843D01*
X62869493Y-59683771D01*
X62771235Y-59836238D01*
X62768826Y-59842858D01*
X62768824Y-59842861D01*
X62720694Y-59975098D01*
X62709197Y-60006685D01*
X62686463Y-60186640D01*
X58675761Y-60186640D01*
X58648064Y-60107106D01*
X58648062Y-60107103D01*
X58645745Y-60100448D01*
X58564146Y-59969861D01*
X58553359Y-59952598D01*
X58549626Y-59946624D01*
X58540835Y-59937771D01*
X58426778Y-59822915D01*
X58426774Y-59822912D01*
X58421815Y-59817918D01*
X58410697Y-59810862D01*
X58362538Y-59780300D01*
X58268666Y-59720727D01*
X58239463Y-59710328D01*
X58104425Y-59662243D01*
X58104420Y-59662242D01*
X58097790Y-59659881D01*
X58090802Y-59659048D01*
X58090799Y-59659047D01*
X57967698Y-59644368D01*
X57917680Y-59638404D01*
X57910677Y-59639140D01*
X57910676Y-59639140D01*
X57744288Y-59656628D01*
X57744286Y-59656629D01*
X57737288Y-59657364D01*
X57565579Y-59715818D01*
X57524234Y-59741254D01*
X57417095Y-59807166D01*
X57417092Y-59807168D01*
X57411088Y-59810862D01*
X57406053Y-59815793D01*
X57406050Y-59815795D01*
X57286525Y-59932843D01*
X57281493Y-59937771D01*
X57183235Y-60090238D01*
X57180826Y-60096858D01*
X57180824Y-60096861D01*
X57135744Y-60220717D01*
X57121197Y-60260685D01*
X57098463Y-60440640D01*
X39126746Y-60440640D01*
X39142055Y-60400338D01*
X39145167Y-60378197D01*
X39166748Y-60224639D01*
X39166748Y-60224636D01*
X39167299Y-60220717D01*
X39167616Y-60198000D01*
X39147397Y-60017745D01*
X39145080Y-60011091D01*
X39090064Y-59853106D01*
X39090062Y-59853103D01*
X39087745Y-59846448D01*
X39028369Y-59751425D01*
X38995359Y-59698598D01*
X38991626Y-59692624D01*
X38977941Y-59678843D01*
X38868778Y-59568915D01*
X38868774Y-59568912D01*
X38863815Y-59563918D01*
X38852697Y-59556862D01*
X38782380Y-59512238D01*
X38710666Y-59466727D01*
X38634785Y-59439707D01*
X38546425Y-59408243D01*
X38546420Y-59408242D01*
X38539790Y-59405881D01*
X38532802Y-59405048D01*
X38532799Y-59405047D01*
X38403699Y-59389653D01*
X38359680Y-59384404D01*
X38352677Y-59385140D01*
X38352676Y-59385140D01*
X38186288Y-59402628D01*
X38186286Y-59402629D01*
X38179288Y-59403364D01*
X38007579Y-59461818D01*
X37991619Y-59471637D01*
X37901592Y-59527022D01*
X37833091Y-59545681D01*
X37793305Y-59538405D01*
X37784424Y-59535243D01*
X37784422Y-59535243D01*
X37777790Y-59532881D01*
X37597680Y-59511404D01*
X37590677Y-59512140D01*
X37590676Y-59512140D01*
X37424288Y-59529628D01*
X37424286Y-59529629D01*
X37417288Y-59530364D01*
X37245579Y-59588818D01*
X37239575Y-59592512D01*
X37097095Y-59680166D01*
X37097092Y-59680168D01*
X37091088Y-59683862D01*
X37086053Y-59688793D01*
X37086050Y-59688795D01*
X36966525Y-59805843D01*
X36961493Y-59810771D01*
X36863235Y-59963238D01*
X36860826Y-59969858D01*
X36860824Y-59969861D01*
X36809296Y-60111433D01*
X36801197Y-60133685D01*
X36778463Y-60313640D01*
X30417219Y-60313640D01*
X30475136Y-60196453D01*
X30475137Y-60196451D01*
X30477430Y-60191811D01*
X30529896Y-60019125D01*
X30540865Y-59983023D01*
X30540865Y-59983021D01*
X30542370Y-59978069D01*
X30571529Y-59756590D01*
X30573156Y-59690000D01*
X30554852Y-59467361D01*
X30500431Y-59250702D01*
X30411354Y-59045840D01*
X30362515Y-58970347D01*
X30292822Y-58862617D01*
X30292820Y-58862614D01*
X30290014Y-58858277D01*
X30139670Y-58693051D01*
X30135619Y-58689852D01*
X30135615Y-58689848D01*
X29968414Y-58557800D01*
X29968410Y-58557798D01*
X29964359Y-58554598D01*
X29922569Y-58531529D01*
X29872598Y-58481097D01*
X29857826Y-58411654D01*
X29882942Y-58345248D01*
X29910294Y-58318641D01*
X30085328Y-58193792D01*
X30093200Y-58187139D01*
X30125812Y-58154640D01*
X36524463Y-58154640D01*
X36542163Y-58335160D01*
X36599418Y-58507273D01*
X36603065Y-58513295D01*
X36603066Y-58513297D01*
X36667873Y-58620306D01*
X36693380Y-58662424D01*
X36698269Y-58667487D01*
X36698270Y-58667488D01*
X36726644Y-58696870D01*
X36819382Y-58792902D01*
X36885871Y-58836411D01*
X36946886Y-58876338D01*
X36971159Y-58892222D01*
X36977763Y-58894678D01*
X36977765Y-58894679D01*
X37134558Y-58952990D01*
X37134560Y-58952990D01*
X37141168Y-58955448D01*
X37224995Y-58966633D01*
X37313980Y-58978507D01*
X37313984Y-58978507D01*
X37320961Y-58979438D01*
X37327972Y-58978800D01*
X37327976Y-58978800D01*
X37470459Y-58965832D01*
X37501600Y-58962998D01*
X37508302Y-58960820D01*
X37508304Y-58960820D01*
X37667409Y-58909124D01*
X37667412Y-58909123D01*
X37674108Y-58906947D01*
X37694688Y-58894679D01*
X37782072Y-58842588D01*
X37850827Y-58824888D01*
X37915581Y-58845384D01*
X37981263Y-58888365D01*
X37981271Y-58888369D01*
X37987159Y-58892222D01*
X37993763Y-58894678D01*
X38150558Y-58952990D01*
X38150560Y-58952990D01*
X38157168Y-58955448D01*
X38240995Y-58966633D01*
X38329980Y-58978507D01*
X38329984Y-58978507D01*
X38336961Y-58979438D01*
X38343972Y-58978800D01*
X38343976Y-58978800D01*
X38486459Y-58965832D01*
X38517600Y-58962998D01*
X38524302Y-58960820D01*
X38524304Y-58960820D01*
X38683409Y-58909124D01*
X38683412Y-58909123D01*
X38690108Y-58906947D01*
X38793381Y-58845384D01*
X38839860Y-58817677D01*
X38839862Y-58817676D01*
X38845912Y-58814069D01*
X38977266Y-58688982D01*
X39077643Y-58537902D01*
X39142055Y-58368338D01*
X39143035Y-58361366D01*
X39166748Y-58192639D01*
X39166748Y-58192636D01*
X39167299Y-58188717D01*
X39167616Y-58166000D01*
X39166342Y-58154640D01*
X43890463Y-58154640D01*
X43908163Y-58335160D01*
X43965418Y-58507273D01*
X43969065Y-58513295D01*
X43969066Y-58513297D01*
X44033873Y-58620306D01*
X44059380Y-58662424D01*
X44064269Y-58667487D01*
X44064270Y-58667488D01*
X44092644Y-58696870D01*
X44185382Y-58792902D01*
X44251871Y-58836411D01*
X44312886Y-58876338D01*
X44337159Y-58892222D01*
X44343763Y-58894678D01*
X44343765Y-58894679D01*
X44500558Y-58952990D01*
X44500560Y-58952990D01*
X44507168Y-58955448D01*
X44590995Y-58966633D01*
X44679980Y-58978507D01*
X44679984Y-58978507D01*
X44686961Y-58979438D01*
X44693972Y-58978800D01*
X44693976Y-58978800D01*
X44836459Y-58965832D01*
X44867600Y-58962998D01*
X44874302Y-58960820D01*
X44874304Y-58960820D01*
X45033409Y-58909124D01*
X45033412Y-58909123D01*
X45040108Y-58906947D01*
X45143381Y-58845384D01*
X45189860Y-58817677D01*
X45189862Y-58817676D01*
X45195912Y-58814069D01*
X45327266Y-58688982D01*
X45344768Y-58662640D01*
X55193463Y-58662640D01*
X55211163Y-58843160D01*
X55268418Y-59015273D01*
X55272065Y-59021295D01*
X55272066Y-59021297D01*
X55289807Y-59050590D01*
X55362380Y-59170424D01*
X55367269Y-59175487D01*
X55367270Y-59175488D01*
X55388027Y-59196982D01*
X55488382Y-59300902D01*
X55494278Y-59304760D01*
X55615987Y-59384404D01*
X55640159Y-59400222D01*
X55646763Y-59402678D01*
X55646765Y-59402679D01*
X55803558Y-59460990D01*
X55803560Y-59460990D01*
X55810168Y-59463448D01*
X55893995Y-59474633D01*
X55982980Y-59486507D01*
X55982984Y-59486507D01*
X55989961Y-59487438D01*
X55996972Y-59486800D01*
X55996976Y-59486800D01*
X56139459Y-59473832D01*
X56170600Y-59470998D01*
X56177302Y-59468820D01*
X56177304Y-59468820D01*
X56336409Y-59417124D01*
X56336412Y-59417123D01*
X56343108Y-59414947D01*
X56498912Y-59322069D01*
X56630266Y-59196982D01*
X56730643Y-59045902D01*
X56789021Y-58892222D01*
X56792555Y-58882920D01*
X56792556Y-58882918D01*
X56795055Y-58876338D01*
X56796035Y-58869366D01*
X56819748Y-58700639D01*
X56819748Y-58700636D01*
X56820299Y-58696717D01*
X56820616Y-58674000D01*
X56800397Y-58493745D01*
X56798080Y-58487091D01*
X56743064Y-58329106D01*
X56743062Y-58329103D01*
X56740745Y-58322448D01*
X56696433Y-58251533D01*
X56648359Y-58174598D01*
X56644626Y-58168624D01*
X56638110Y-58162062D01*
X56521778Y-58044915D01*
X56521774Y-58044912D01*
X56516815Y-58039918D01*
X56505697Y-58032862D01*
X56425038Y-57981675D01*
X56363666Y-57942727D01*
X56334463Y-57932328D01*
X56199425Y-57884243D01*
X56199420Y-57884242D01*
X56192790Y-57881881D01*
X56185802Y-57881048D01*
X56185799Y-57881047D01*
X56062698Y-57866368D01*
X56012680Y-57860404D01*
X56005677Y-57861140D01*
X56005676Y-57861140D01*
X55839288Y-57878628D01*
X55839286Y-57878629D01*
X55832288Y-57879364D01*
X55660579Y-57937818D01*
X55654575Y-57941512D01*
X55512095Y-58029166D01*
X55512092Y-58029168D01*
X55506088Y-58032862D01*
X55501053Y-58037793D01*
X55501050Y-58037795D01*
X55381525Y-58154843D01*
X55376493Y-58159771D01*
X55278235Y-58312238D01*
X55275826Y-58318858D01*
X55275824Y-58318861D01*
X55259411Y-58363955D01*
X55216197Y-58482685D01*
X55193463Y-58662640D01*
X45344768Y-58662640D01*
X45427643Y-58537902D01*
X45492055Y-58368338D01*
X45493035Y-58361366D01*
X45516748Y-58192639D01*
X45516748Y-58192636D01*
X45517299Y-58188717D01*
X45517616Y-58166000D01*
X45497397Y-57985745D01*
X45495080Y-57979091D01*
X45440064Y-57821106D01*
X45440062Y-57821103D01*
X45437745Y-57814448D01*
X45427662Y-57798312D01*
X45345359Y-57666598D01*
X45341626Y-57660624D01*
X45327771Y-57646672D01*
X45218778Y-57536915D01*
X45218774Y-57536912D01*
X45213815Y-57531918D01*
X45202697Y-57524862D01*
X45073560Y-57442910D01*
X45060666Y-57434727D01*
X45024818Y-57421962D01*
X44896425Y-57376243D01*
X44896420Y-57376242D01*
X44889790Y-57373881D01*
X44882802Y-57373048D01*
X44882799Y-57373047D01*
X44759698Y-57358368D01*
X44709680Y-57352404D01*
X44702677Y-57353140D01*
X44702676Y-57353140D01*
X44536288Y-57370628D01*
X44536286Y-57370629D01*
X44529288Y-57371364D01*
X44357579Y-57429818D01*
X44295109Y-57468250D01*
X44209095Y-57521166D01*
X44209092Y-57521168D01*
X44203088Y-57524862D01*
X44198053Y-57529793D01*
X44198050Y-57529795D01*
X44174920Y-57552446D01*
X44073493Y-57651771D01*
X43975235Y-57804238D01*
X43972826Y-57810858D01*
X43972824Y-57810861D01*
X43925271Y-57941512D01*
X43913197Y-57974685D01*
X43890463Y-58154640D01*
X39166342Y-58154640D01*
X39147397Y-57985745D01*
X39145080Y-57979091D01*
X39090064Y-57821106D01*
X39090062Y-57821103D01*
X39087745Y-57814448D01*
X39077662Y-57798312D01*
X38995359Y-57666598D01*
X38991626Y-57660624D01*
X38977771Y-57646672D01*
X38868778Y-57536915D01*
X38868774Y-57536912D01*
X38863815Y-57531918D01*
X38852697Y-57524862D01*
X38723560Y-57442910D01*
X38710666Y-57434727D01*
X38674818Y-57421962D01*
X38546425Y-57376243D01*
X38546420Y-57376242D01*
X38539790Y-57373881D01*
X38532802Y-57373048D01*
X38532799Y-57373047D01*
X38409698Y-57358368D01*
X38359680Y-57352404D01*
X38352677Y-57353140D01*
X38352676Y-57353140D01*
X38186288Y-57370628D01*
X38186286Y-57370629D01*
X38179288Y-57371364D01*
X38007579Y-57429818D01*
X37911822Y-57488729D01*
X37843323Y-57507386D01*
X37778288Y-57487795D01*
X37707560Y-57442910D01*
X37694666Y-57434727D01*
X37658818Y-57421962D01*
X37530425Y-57376243D01*
X37530420Y-57376242D01*
X37523790Y-57373881D01*
X37516802Y-57373048D01*
X37516799Y-57373047D01*
X37393698Y-57358368D01*
X37343680Y-57352404D01*
X37336677Y-57353140D01*
X37336676Y-57353140D01*
X37170288Y-57370628D01*
X37170286Y-57370629D01*
X37163288Y-57371364D01*
X36991579Y-57429818D01*
X36929109Y-57468250D01*
X36843095Y-57521166D01*
X36843092Y-57521168D01*
X36837088Y-57524862D01*
X36832053Y-57529793D01*
X36832050Y-57529795D01*
X36808920Y-57552446D01*
X36707493Y-57651771D01*
X36609235Y-57804238D01*
X36606826Y-57810858D01*
X36606824Y-57810861D01*
X36559271Y-57941512D01*
X36547197Y-57974685D01*
X36524463Y-58154640D01*
X30125812Y-58154640D01*
X30244052Y-58036812D01*
X30250730Y-58028965D01*
X30375003Y-57856020D01*
X30380313Y-57847183D01*
X30474670Y-57656267D01*
X30478469Y-57646672D01*
X30540377Y-57442910D01*
X30542555Y-57432837D01*
X30543986Y-57421962D01*
X30541775Y-57407778D01*
X30528617Y-57404000D01*
X27893225Y-57404000D01*
X27879694Y-57407973D01*
X27878257Y-57417966D01*
X27908565Y-57552446D01*
X27911645Y-57562275D01*
X27991770Y-57759603D01*
X27996413Y-57768794D01*
X28107694Y-57950388D01*
X28113777Y-57958699D01*
X28253213Y-58119667D01*
X28260580Y-58126883D01*
X28424434Y-58262916D01*
X28432881Y-58268831D01*
X28501969Y-58309203D01*
X28550693Y-58360842D01*
X28563764Y-58430625D01*
X28537033Y-58496396D01*
X28496584Y-58529752D01*
X28483607Y-58536507D01*
X28479474Y-58539610D01*
X28479471Y-58539612D01*
X28315901Y-58662424D01*
X28304965Y-58670635D01*
X28239346Y-58739301D01*
X28172539Y-58809211D01*
X28150629Y-58832138D01*
X28147715Y-58836410D01*
X28147714Y-58836411D01*
X28109642Y-58892222D01*
X28024743Y-59016680D01*
X27977716Y-59117992D01*
X27942804Y-59193204D01*
X27930688Y-59219305D01*
X27870989Y-59434570D01*
X27847251Y-59656695D01*
X27847548Y-59661848D01*
X27847548Y-59661851D01*
X27853011Y-59756590D01*
X27860110Y-59879715D01*
X27861247Y-59884761D01*
X27861248Y-59884767D01*
X27881119Y-59972939D01*
X27909222Y-60097639D01*
X27960791Y-60224639D01*
X27982761Y-60278744D01*
X27993266Y-60304616D01*
X28010312Y-60332432D01*
X28097504Y-60474717D01*
X28109987Y-60495088D01*
X28256250Y-60663938D01*
X28428126Y-60806632D01*
X28474821Y-60833918D01*
X28501445Y-60849476D01*
X28550169Y-60901114D01*
X28563240Y-60970897D01*
X28536509Y-61036669D01*
X28496055Y-61070027D01*
X28483607Y-61076507D01*
X28479474Y-61079610D01*
X28479471Y-61079612D01*
X28309100Y-61207530D01*
X28304965Y-61210635D01*
X28294769Y-61221305D01*
X28154989Y-61367576D01*
X28150629Y-61372138D01*
X28147715Y-61376410D01*
X28147714Y-61376411D01*
X28124341Y-61410675D01*
X28024743Y-61556680D01*
X27930688Y-61759305D01*
X27870989Y-61974570D01*
X27870440Y-61979707D01*
X27869456Y-61988913D01*
X27847251Y-62196695D01*
X27847548Y-62201848D01*
X27847548Y-62201851D01*
X27858512Y-62391998D01*
X27860110Y-62419715D01*
X27861247Y-62424761D01*
X27861248Y-62424767D01*
X27874326Y-62482795D01*
X27909222Y-62637639D01*
X27960458Y-62763818D01*
X27982761Y-62818744D01*
X27993266Y-62844616D01*
X27995965Y-62849020D01*
X28097504Y-63014717D01*
X28109987Y-63035088D01*
X28256250Y-63203938D01*
X28428126Y-63346632D01*
X28457680Y-63363902D01*
X28501445Y-63389476D01*
X28550169Y-63441114D01*
X28563240Y-63510897D01*
X28536509Y-63576669D01*
X28496055Y-63610027D01*
X28483607Y-63616507D01*
X28479474Y-63619610D01*
X28479471Y-63619612D01*
X28309100Y-63747530D01*
X28304965Y-63750635D01*
X28301393Y-63754373D01*
X28198424Y-63862124D01*
X28150629Y-63912138D01*
X28024743Y-64096680D01*
X27930688Y-64299305D01*
X27870989Y-64514570D01*
X27847251Y-64736695D01*
X27847548Y-64741848D01*
X27847548Y-64741851D01*
X27858576Y-64933106D01*
X27860110Y-64959715D01*
X27861247Y-64964761D01*
X27861248Y-64964767D01*
X27874326Y-65022795D01*
X27909222Y-65177639D01*
X27959504Y-65301469D01*
X27982761Y-65358744D01*
X27993266Y-65384616D01*
X28001940Y-65398771D01*
X28098639Y-65556569D01*
X28109987Y-65575088D01*
X28256250Y-65743938D01*
X28428126Y-65886632D01*
X28473250Y-65913000D01*
X28501445Y-65929476D01*
X28550169Y-65981114D01*
X28563240Y-66050897D01*
X28536509Y-66116669D01*
X28496055Y-66150027D01*
X28483607Y-66156507D01*
X28479474Y-66159610D01*
X28479471Y-66159612D01*
X28309100Y-66287530D01*
X28304965Y-66290635D01*
X28301393Y-66294373D01*
X28171679Y-66430111D01*
X28150629Y-66452138D01*
X28147715Y-66456410D01*
X28147714Y-66456411D01*
X28101576Y-66524047D01*
X28024743Y-66636680D01*
X27987386Y-66717160D01*
X27939298Y-66820757D01*
X27930688Y-66839305D01*
X27870989Y-67054570D01*
X27870440Y-67059707D01*
X27869456Y-67068913D01*
X27847251Y-67276695D01*
X27178500Y-67276695D01*
X27178500Y-55508134D01*
X27851500Y-55508134D01*
X27858255Y-55570316D01*
X27909385Y-55706705D01*
X27996739Y-55823261D01*
X28113295Y-55910615D01*
X28121704Y-55913767D01*
X28121705Y-55913768D01*
X28230960Y-55954726D01*
X28287725Y-55997367D01*
X28312425Y-56063929D01*
X28297218Y-56133278D01*
X28277825Y-56159759D01*
X28154590Y-56288717D01*
X28148104Y-56296727D01*
X28028098Y-56472649D01*
X28023000Y-56481623D01*
X27933338Y-56674783D01*
X27929775Y-56684470D01*
X27874389Y-56884183D01*
X27875912Y-56892607D01*
X27888292Y-56896000D01*
X30528344Y-56896000D01*
X30541875Y-56892027D01*
X30543180Y-56882947D01*
X30501214Y-56715875D01*
X30497894Y-56706124D01*
X30412972Y-56510814D01*
X30408105Y-56501739D01*
X30292426Y-56322926D01*
X30286136Y-56314757D01*
X30142293Y-56156677D01*
X30125739Y-56122640D01*
X33476463Y-56122640D01*
X33494163Y-56303160D01*
X33551418Y-56475273D01*
X33555065Y-56481295D01*
X33555066Y-56481297D01*
X33565978Y-56499314D01*
X33645380Y-56630424D01*
X33771382Y-56760902D01*
X33923159Y-56860222D01*
X33929763Y-56862678D01*
X33929765Y-56862679D01*
X34086558Y-56920990D01*
X34086560Y-56920990D01*
X34093168Y-56923448D01*
X34176995Y-56934633D01*
X34265980Y-56946507D01*
X34265984Y-56946507D01*
X34272961Y-56947438D01*
X34279972Y-56946800D01*
X34279976Y-56946800D01*
X34422459Y-56933832D01*
X34453600Y-56930998D01*
X34460302Y-56928820D01*
X34460304Y-56928820D01*
X34619409Y-56877124D01*
X34619412Y-56877123D01*
X34626108Y-56874947D01*
X34781912Y-56782069D01*
X34913266Y-56656982D01*
X35013643Y-56505902D01*
X35078055Y-56336338D01*
X35081088Y-56314757D01*
X35102748Y-56160639D01*
X35102748Y-56160636D01*
X35103299Y-56156717D01*
X35103616Y-56134000D01*
X35083397Y-55953745D01*
X35081080Y-55947091D01*
X35026064Y-55789106D01*
X35026062Y-55789103D01*
X35023745Y-55782448D01*
X34927626Y-55628624D01*
X34877071Y-55577715D01*
X34804778Y-55504915D01*
X34804774Y-55504912D01*
X34799815Y-55499918D01*
X34788697Y-55492862D01*
X34740538Y-55462300D01*
X34646666Y-55402727D01*
X34617463Y-55392328D01*
X34482425Y-55344243D01*
X34482420Y-55344242D01*
X34475790Y-55341881D01*
X34468802Y-55341048D01*
X34468799Y-55341047D01*
X34345698Y-55326368D01*
X34295680Y-55320404D01*
X34288677Y-55321140D01*
X34288676Y-55321140D01*
X34122288Y-55338628D01*
X34122286Y-55338629D01*
X34115288Y-55339364D01*
X33943579Y-55397818D01*
X33937575Y-55401512D01*
X33795095Y-55489166D01*
X33795092Y-55489168D01*
X33789088Y-55492862D01*
X33784053Y-55497793D01*
X33784050Y-55497795D01*
X33702439Y-55577715D01*
X33659493Y-55619771D01*
X33561235Y-55772238D01*
X33558826Y-55778858D01*
X33558824Y-55778861D01*
X33509722Y-55913767D01*
X33499197Y-55942685D01*
X33476463Y-56122640D01*
X30125739Y-56122640D01*
X30111241Y-56092831D01*
X30119635Y-56022333D01*
X30164812Y-55967564D01*
X30191256Y-55953895D01*
X30298297Y-55913767D01*
X30306705Y-55910615D01*
X30423261Y-55823261D01*
X30510615Y-55706705D01*
X30561745Y-55570316D01*
X30568500Y-55508134D01*
X30568500Y-54217640D01*
X32206463Y-54217640D01*
X32224163Y-54398160D01*
X32281418Y-54570273D01*
X32285065Y-54576295D01*
X32285066Y-54576297D01*
X32369641Y-54715947D01*
X32375380Y-54725424D01*
X32380269Y-54730487D01*
X32380270Y-54730488D01*
X32413065Y-54764448D01*
X32501382Y-54855902D01*
X32653159Y-54955222D01*
X32659763Y-54957678D01*
X32659765Y-54957679D01*
X32816558Y-55015990D01*
X32816560Y-55015990D01*
X32823168Y-55018448D01*
X32906995Y-55029633D01*
X32995980Y-55041507D01*
X32995984Y-55041507D01*
X33002961Y-55042438D01*
X33009972Y-55041800D01*
X33009976Y-55041800D01*
X33152459Y-55028832D01*
X33183600Y-55025998D01*
X33190302Y-55023820D01*
X33190304Y-55023820D01*
X33349409Y-54972124D01*
X33349412Y-54972123D01*
X33356108Y-54969947D01*
X33511912Y-54877069D01*
X33643266Y-54751982D01*
X33743643Y-54600902D01*
X33808055Y-54431338D01*
X33809035Y-54424366D01*
X33832748Y-54255639D01*
X33832748Y-54255636D01*
X33833299Y-54251717D01*
X33833616Y-54229000D01*
X33813397Y-54048745D01*
X33811080Y-54042091D01*
X33756064Y-53884106D01*
X33756062Y-53884103D01*
X33753745Y-53877448D01*
X33657626Y-53723624D01*
X33651110Y-53717062D01*
X33534778Y-53599915D01*
X33534774Y-53599912D01*
X33529815Y-53594918D01*
X33518697Y-53587862D01*
X33438038Y-53536675D01*
X33376666Y-53497727D01*
X33347463Y-53487328D01*
X33212425Y-53439243D01*
X33212420Y-53439242D01*
X33205790Y-53436881D01*
X33198802Y-53436048D01*
X33198799Y-53436047D01*
X33075698Y-53421368D01*
X33025680Y-53415404D01*
X33018677Y-53416140D01*
X33018676Y-53416140D01*
X32852288Y-53433628D01*
X32852286Y-53433629D01*
X32845288Y-53434364D01*
X32673579Y-53492818D01*
X32633472Y-53517492D01*
X32525095Y-53584166D01*
X32525092Y-53584168D01*
X32519088Y-53587862D01*
X32514053Y-53592793D01*
X32514050Y-53592795D01*
X32394525Y-53709843D01*
X32389493Y-53714771D01*
X32291235Y-53867238D01*
X32288826Y-53873858D01*
X32288824Y-53873861D01*
X32243744Y-53997717D01*
X32229197Y-54037685D01*
X32206463Y-54217640D01*
X30568500Y-54217640D01*
X30568500Y-53711866D01*
X30561745Y-53649684D01*
X30510615Y-53513295D01*
X30423261Y-53396739D01*
X30306705Y-53309385D01*
X30210745Y-53273411D01*
X41767977Y-53273411D01*
X41768177Y-53278740D01*
X41768177Y-53278741D01*
X41770699Y-53345915D01*
X41776945Y-53512274D01*
X41792805Y-53587862D01*
X41821572Y-53724962D01*
X41826030Y-53746211D01*
X41913829Y-53968533D01*
X42037832Y-54172883D01*
X42041329Y-54176913D01*
X42189706Y-54347902D01*
X42194493Y-54353419D01*
X42198619Y-54356802D01*
X42198623Y-54356806D01*
X42257210Y-54404844D01*
X42379333Y-54504978D01*
X42383969Y-54507617D01*
X42383972Y-54507619D01*
X42482299Y-54563590D01*
X42587066Y-54623227D01*
X42811753Y-54704784D01*
X42817002Y-54705733D01*
X42817005Y-54705734D01*
X43042885Y-54746580D01*
X43042893Y-54746581D01*
X43046969Y-54747318D01*
X43065359Y-54748185D01*
X43070544Y-54748430D01*
X43070551Y-54748430D01*
X43072032Y-54748500D01*
X43240012Y-54748500D01*
X43418175Y-54733383D01*
X43423339Y-54732043D01*
X43423343Y-54732042D01*
X43644375Y-54674673D01*
X43644380Y-54674671D01*
X43649540Y-54673332D01*
X43771904Y-54618211D01*
X43862619Y-54577347D01*
X43862622Y-54577346D01*
X43867480Y-54575157D01*
X43874735Y-54570273D01*
X43951432Y-54518637D01*
X44065762Y-54441666D01*
X44104362Y-54404844D01*
X44165100Y-54346902D01*
X44238718Y-54276674D01*
X44254369Y-54255639D01*
X44378216Y-54089182D01*
X44381402Y-54084900D01*
X44389844Y-54068297D01*
X44443054Y-53963640D01*
X47319463Y-53963640D01*
X47337163Y-54144160D01*
X47394418Y-54316273D01*
X47398065Y-54322295D01*
X47398066Y-54322297D01*
X47482641Y-54461947D01*
X47488380Y-54471424D01*
X47493269Y-54476487D01*
X47493270Y-54476488D01*
X47526065Y-54510448D01*
X47614382Y-54601902D01*
X47652242Y-54626677D01*
X47723539Y-54673332D01*
X47766159Y-54701222D01*
X47772763Y-54703678D01*
X47772765Y-54703679D01*
X47929558Y-54761990D01*
X47929560Y-54761990D01*
X47936168Y-54764448D01*
X48019995Y-54775633D01*
X48108980Y-54787507D01*
X48108984Y-54787507D01*
X48115961Y-54788438D01*
X48122972Y-54787800D01*
X48122976Y-54787800D01*
X48265459Y-54774832D01*
X48296600Y-54771998D01*
X48303302Y-54769820D01*
X48303304Y-54769820D01*
X48462409Y-54718124D01*
X48462412Y-54718123D01*
X48469108Y-54715947D01*
X48624912Y-54623069D01*
X48756266Y-54497982D01*
X48856643Y-54346902D01*
X48905746Y-54217640D01*
X51129463Y-54217640D01*
X51147163Y-54398160D01*
X51204418Y-54570273D01*
X51208065Y-54576295D01*
X51208066Y-54576297D01*
X51292641Y-54715947D01*
X51298380Y-54725424D01*
X51303269Y-54730487D01*
X51303270Y-54730488D01*
X51336065Y-54764448D01*
X51424382Y-54855902D01*
X51576159Y-54955222D01*
X51582763Y-54957678D01*
X51582765Y-54957679D01*
X51739558Y-55015990D01*
X51739560Y-55015990D01*
X51746168Y-55018448D01*
X51829995Y-55029633D01*
X51918980Y-55041507D01*
X51918984Y-55041507D01*
X51925961Y-55042438D01*
X51932972Y-55041800D01*
X51932976Y-55041800D01*
X52075459Y-55028832D01*
X52106600Y-55025998D01*
X52113302Y-55023820D01*
X52113304Y-55023820D01*
X52272409Y-54972124D01*
X52272412Y-54972123D01*
X52279108Y-54969947D01*
X52434912Y-54877069D01*
X52566266Y-54751982D01*
X52666643Y-54600902D01*
X52731055Y-54431338D01*
X52732035Y-54424366D01*
X52755748Y-54255639D01*
X52755748Y-54255636D01*
X52756299Y-54251717D01*
X52756616Y-54229000D01*
X52736397Y-54048745D01*
X52734080Y-54042091D01*
X52679064Y-53884106D01*
X52679062Y-53884103D01*
X52676745Y-53877448D01*
X52580626Y-53723624D01*
X52574110Y-53717062D01*
X52566740Y-53709640D01*
X56971463Y-53709640D01*
X56989163Y-53890160D01*
X57046418Y-54062273D01*
X57050065Y-54068295D01*
X57050066Y-54068297D01*
X57110644Y-54168323D01*
X57140380Y-54217424D01*
X57145269Y-54222487D01*
X57145270Y-54222488D01*
X57177284Y-54255639D01*
X57266382Y-54347902D01*
X57342270Y-54397562D01*
X57409669Y-54441666D01*
X57418159Y-54447222D01*
X57424763Y-54449678D01*
X57424765Y-54449679D01*
X57581558Y-54507990D01*
X57581560Y-54507990D01*
X57588168Y-54510448D01*
X57671995Y-54521633D01*
X57760980Y-54533507D01*
X57760984Y-54533507D01*
X57767961Y-54534438D01*
X57774972Y-54533800D01*
X57774976Y-54533800D01*
X57917459Y-54520832D01*
X57948600Y-54517998D01*
X57955302Y-54515820D01*
X57955304Y-54515820D01*
X58114409Y-54464124D01*
X58114412Y-54464123D01*
X58121108Y-54461947D01*
X58217513Y-54404478D01*
X58270860Y-54372677D01*
X58270862Y-54372676D01*
X58276912Y-54369069D01*
X58408266Y-54243982D01*
X58425768Y-54217640D01*
X62686463Y-54217640D01*
X62704163Y-54398160D01*
X62761418Y-54570273D01*
X62765065Y-54576295D01*
X62765066Y-54576297D01*
X62849641Y-54715947D01*
X62855380Y-54725424D01*
X62860269Y-54730487D01*
X62860270Y-54730488D01*
X62893065Y-54764448D01*
X62981382Y-54855902D01*
X63133159Y-54955222D01*
X63139763Y-54957678D01*
X63139765Y-54957679D01*
X63296558Y-55015990D01*
X63296560Y-55015990D01*
X63303168Y-55018448D01*
X63386995Y-55029633D01*
X63475980Y-55041507D01*
X63475984Y-55041507D01*
X63482961Y-55042438D01*
X63489972Y-55041800D01*
X63489976Y-55041800D01*
X63632459Y-55028832D01*
X63663600Y-55025998D01*
X63670302Y-55023820D01*
X63670304Y-55023820D01*
X63829409Y-54972124D01*
X63829412Y-54972123D01*
X63836108Y-54969947D01*
X63991912Y-54877069D01*
X64123266Y-54751982D01*
X64223643Y-54600902D01*
X64288055Y-54431338D01*
X64289035Y-54424366D01*
X64312748Y-54255639D01*
X64312748Y-54255636D01*
X64313299Y-54251717D01*
X64313616Y-54229000D01*
X64293397Y-54048745D01*
X64291080Y-54042091D01*
X64236064Y-53884106D01*
X64236062Y-53884103D01*
X64233745Y-53877448D01*
X64137626Y-53723624D01*
X64131110Y-53717062D01*
X64014778Y-53599915D01*
X64014774Y-53599912D01*
X64009815Y-53594918D01*
X63998697Y-53587862D01*
X63918038Y-53536675D01*
X63856666Y-53497727D01*
X63827463Y-53487328D01*
X63692425Y-53439243D01*
X63692420Y-53439242D01*
X63685790Y-53436881D01*
X63678802Y-53436048D01*
X63678799Y-53436047D01*
X63555698Y-53421368D01*
X63505680Y-53415404D01*
X63498677Y-53416140D01*
X63498676Y-53416140D01*
X63332288Y-53433628D01*
X63332286Y-53433629D01*
X63325288Y-53434364D01*
X63153579Y-53492818D01*
X63113472Y-53517492D01*
X63005095Y-53584166D01*
X63005092Y-53584168D01*
X62999088Y-53587862D01*
X62994053Y-53592793D01*
X62994050Y-53592795D01*
X62874525Y-53709843D01*
X62869493Y-53714771D01*
X62771235Y-53867238D01*
X62768826Y-53873858D01*
X62768824Y-53873861D01*
X62723744Y-53997717D01*
X62709197Y-54037685D01*
X62686463Y-54217640D01*
X58425768Y-54217640D01*
X58508643Y-54092902D01*
X58557746Y-53963640D01*
X58570555Y-53929920D01*
X58570556Y-53929918D01*
X58573055Y-53923338D01*
X58574035Y-53916366D01*
X58597748Y-53747639D01*
X58597748Y-53747636D01*
X58598299Y-53743717D01*
X58598616Y-53721000D01*
X58578397Y-53540745D01*
X58576080Y-53534091D01*
X58521064Y-53376106D01*
X58521062Y-53376103D01*
X58518745Y-53369448D01*
X58422626Y-53215624D01*
X58408941Y-53201843D01*
X58299778Y-53091915D01*
X58299774Y-53091912D01*
X58294815Y-53086918D01*
X58283697Y-53079862D01*
X58207252Y-53031349D01*
X58141666Y-52989727D01*
X58112463Y-52979328D01*
X57977425Y-52931243D01*
X57977420Y-52931242D01*
X57970790Y-52928881D01*
X57963802Y-52928048D01*
X57963799Y-52928047D01*
X57840698Y-52913368D01*
X57790680Y-52907404D01*
X57783677Y-52908140D01*
X57783676Y-52908140D01*
X57617288Y-52925628D01*
X57617286Y-52925629D01*
X57610288Y-52926364D01*
X57438579Y-52984818D01*
X57432575Y-52988512D01*
X57290095Y-53076166D01*
X57290092Y-53076168D01*
X57284088Y-53079862D01*
X57279053Y-53084793D01*
X57279050Y-53084795D01*
X57159525Y-53201843D01*
X57154493Y-53206771D01*
X57056235Y-53359238D01*
X57053826Y-53365858D01*
X57053824Y-53365861D01*
X56998635Y-53517492D01*
X56994197Y-53529685D01*
X56971463Y-53709640D01*
X52566740Y-53709640D01*
X52457778Y-53599915D01*
X52457774Y-53599912D01*
X52452815Y-53594918D01*
X52441697Y-53587862D01*
X52361038Y-53536675D01*
X52299666Y-53497727D01*
X52270463Y-53487328D01*
X52135425Y-53439243D01*
X52135420Y-53439242D01*
X52128790Y-53436881D01*
X52121802Y-53436048D01*
X52121799Y-53436047D01*
X51998698Y-53421368D01*
X51948680Y-53415404D01*
X51941677Y-53416140D01*
X51941676Y-53416140D01*
X51775288Y-53433628D01*
X51775286Y-53433629D01*
X51768288Y-53434364D01*
X51596579Y-53492818D01*
X51556472Y-53517492D01*
X51448095Y-53584166D01*
X51448092Y-53584168D01*
X51442088Y-53587862D01*
X51437053Y-53592793D01*
X51437050Y-53592795D01*
X51317525Y-53709843D01*
X51312493Y-53714771D01*
X51214235Y-53867238D01*
X51211826Y-53873858D01*
X51211824Y-53873861D01*
X51166744Y-53997717D01*
X51152197Y-54037685D01*
X51129463Y-54217640D01*
X48905746Y-54217640D01*
X48921055Y-54177338D01*
X48922322Y-54168323D01*
X48945748Y-54001639D01*
X48945748Y-54001636D01*
X48946299Y-53997717D01*
X48946616Y-53975000D01*
X48926397Y-53794745D01*
X48924080Y-53788091D01*
X48869064Y-53630106D01*
X48869062Y-53630103D01*
X48866745Y-53623448D01*
X48770626Y-53469624D01*
X48756941Y-53455843D01*
X48647778Y-53345915D01*
X48647774Y-53345912D01*
X48642815Y-53340918D01*
X48631697Y-53333862D01*
X48544839Y-53278741D01*
X48489666Y-53243727D01*
X48460463Y-53233328D01*
X48325425Y-53185243D01*
X48325420Y-53185242D01*
X48318790Y-53182881D01*
X48311802Y-53182048D01*
X48311799Y-53182047D01*
X48188698Y-53167368D01*
X48138680Y-53161404D01*
X48131677Y-53162140D01*
X48131676Y-53162140D01*
X47965288Y-53179628D01*
X47965286Y-53179629D01*
X47958288Y-53180364D01*
X47786579Y-53238818D01*
X47754985Y-53258255D01*
X47638095Y-53330166D01*
X47638092Y-53330168D01*
X47632088Y-53333862D01*
X47627053Y-53338793D01*
X47627050Y-53338795D01*
X47507525Y-53455843D01*
X47502493Y-53460771D01*
X47404235Y-53613238D01*
X47401826Y-53619858D01*
X47401824Y-53619861D01*
X47344606Y-53777066D01*
X47342197Y-53783685D01*
X47319463Y-53963640D01*
X44443054Y-53963640D01*
X44487314Y-53876586D01*
X44487314Y-53876585D01*
X44489733Y-53871828D01*
X44535752Y-53723624D01*
X44559032Y-53648651D01*
X44559033Y-53648645D01*
X44560616Y-53643548D01*
X44580895Y-53490547D01*
X44591323Y-53411873D01*
X44591323Y-53411869D01*
X44592023Y-53406589D01*
X44589293Y-53333862D01*
X44587023Y-53273411D01*
X44583055Y-53167726D01*
X44544677Y-52984818D01*
X44535067Y-52939016D01*
X44535066Y-52939013D01*
X44533970Y-52933789D01*
X44446171Y-52711467D01*
X44322168Y-52507117D01*
X44232103Y-52403326D01*
X44169007Y-52330614D01*
X44169005Y-52330612D01*
X44165507Y-52326581D01*
X44161381Y-52323198D01*
X44161377Y-52323194D01*
X43984795Y-52178407D01*
X43980667Y-52175022D01*
X43976031Y-52172383D01*
X43976028Y-52172381D01*
X43777577Y-52059416D01*
X43772934Y-52056773D01*
X43548247Y-51975216D01*
X43542998Y-51974267D01*
X43542995Y-51974266D01*
X43317115Y-51933420D01*
X43317107Y-51933419D01*
X43313031Y-51932682D01*
X43294641Y-51931815D01*
X43289456Y-51931570D01*
X43289449Y-51931570D01*
X43287968Y-51931500D01*
X43119988Y-51931500D01*
X42941825Y-51946617D01*
X42936661Y-51947957D01*
X42936657Y-51947958D01*
X42715625Y-52005327D01*
X42715620Y-52005329D01*
X42710460Y-52006668D01*
X42705594Y-52008860D01*
X42497381Y-52102653D01*
X42497378Y-52102654D01*
X42492520Y-52104843D01*
X42294238Y-52238334D01*
X42121282Y-52403326D01*
X41978598Y-52595100D01*
X41870267Y-52808172D01*
X41839455Y-52907404D01*
X41800968Y-53031349D01*
X41800967Y-53031355D01*
X41799384Y-53036452D01*
X41792977Y-53084795D01*
X41769986Y-53258255D01*
X41767977Y-53273411D01*
X30210745Y-53273411D01*
X30170316Y-53258255D01*
X30108134Y-53251500D01*
X28311866Y-53251500D01*
X28249684Y-53258255D01*
X28113295Y-53309385D01*
X27996739Y-53396739D01*
X27909385Y-53513295D01*
X27858255Y-53649684D01*
X27851500Y-53711866D01*
X27851500Y-55508134D01*
X27178500Y-55508134D01*
X27178500Y-50410601D01*
X27198502Y-50342480D01*
X27252158Y-50295987D01*
X27322432Y-50285883D01*
X27387012Y-50315377D01*
X27410172Y-50341976D01*
X27475643Y-50442793D01*
X27523381Y-50501744D01*
X27710982Y-50733411D01*
X27720266Y-50744876D01*
X27995124Y-51019734D01*
X28297207Y-51264357D01*
X28299970Y-51266152D01*
X28299971Y-51266152D01*
X28550017Y-51428533D01*
X28623205Y-51476062D01*
X28626139Y-51477557D01*
X28626146Y-51477561D01*
X28922034Y-51628323D01*
X28969547Y-51652532D01*
X29332438Y-51791833D01*
X29707901Y-51892438D01*
X29894212Y-51921947D01*
X30088576Y-51952732D01*
X30088584Y-51952733D01*
X30091824Y-51953246D01*
X30480000Y-51973589D01*
X30868176Y-51953246D01*
X30871416Y-51952733D01*
X30871424Y-51952732D01*
X31065788Y-51921947D01*
X31252099Y-51892438D01*
X31627562Y-51791833D01*
X31990453Y-51652532D01*
X32037966Y-51628323D01*
X32333854Y-51477561D01*
X32333861Y-51477557D01*
X32336795Y-51476062D01*
X32409984Y-51428533D01*
X32660029Y-51266152D01*
X32660030Y-51266152D01*
X32662793Y-51264357D01*
X32964876Y-51019734D01*
X33239734Y-50744876D01*
X33249019Y-50733411D01*
X54467977Y-50733411D01*
X54476945Y-50972274D01*
X54480598Y-50989685D01*
X54521572Y-51184962D01*
X54526030Y-51206211D01*
X54613829Y-51428533D01*
X54737832Y-51632883D01*
X54741329Y-51636913D01*
X54889706Y-51807902D01*
X54894493Y-51813419D01*
X54898619Y-51816802D01*
X54898623Y-51816806D01*
X54989821Y-51891583D01*
X55079333Y-51964978D01*
X55083969Y-51967617D01*
X55083972Y-51967619D01*
X55156422Y-52008860D01*
X55287066Y-52083227D01*
X55511753Y-52164784D01*
X55517002Y-52165733D01*
X55517005Y-52165734D01*
X55742885Y-52206580D01*
X55742893Y-52206581D01*
X55746969Y-52207318D01*
X55765359Y-52208185D01*
X55770544Y-52208430D01*
X55770551Y-52208430D01*
X55772032Y-52208500D01*
X55940012Y-52208500D01*
X56118175Y-52193383D01*
X56123339Y-52192043D01*
X56123343Y-52192042D01*
X56344375Y-52134673D01*
X56344380Y-52134671D01*
X56349540Y-52133332D01*
X56466636Y-52080584D01*
X56562619Y-52037347D01*
X56562622Y-52037346D01*
X56567480Y-52035157D01*
X56765762Y-51901666D01*
X56775436Y-51892438D01*
X56864052Y-51807902D01*
X56938718Y-51736674D01*
X57081402Y-51544900D01*
X57089844Y-51528297D01*
X57187314Y-51336586D01*
X57187314Y-51336585D01*
X57189733Y-51331828D01*
X57235336Y-51184962D01*
X57240094Y-51169640D01*
X61162463Y-51169640D01*
X61180163Y-51350160D01*
X61237418Y-51522273D01*
X61241065Y-51528295D01*
X61241066Y-51528297D01*
X61315398Y-51651034D01*
X61331380Y-51677424D01*
X61457382Y-51807902D01*
X61463278Y-51811760D01*
X61600669Y-51901666D01*
X61609159Y-51907222D01*
X61615763Y-51909678D01*
X61615765Y-51909679D01*
X61772558Y-51967990D01*
X61772560Y-51967990D01*
X61779168Y-51970448D01*
X61862995Y-51981633D01*
X61951980Y-51993507D01*
X61951984Y-51993507D01*
X61958961Y-51994438D01*
X61965972Y-51993800D01*
X61965976Y-51993800D01*
X62108459Y-51980832D01*
X62139600Y-51977998D01*
X62146302Y-51975820D01*
X62146304Y-51975820D01*
X62305409Y-51924124D01*
X62305412Y-51924123D01*
X62312108Y-51921947D01*
X62467912Y-51829069D01*
X62599266Y-51703982D01*
X62699643Y-51552902D01*
X62746887Y-51428533D01*
X62761555Y-51389920D01*
X62761556Y-51389918D01*
X62764055Y-51383338D01*
X62765035Y-51376366D01*
X62788748Y-51207639D01*
X62788748Y-51207636D01*
X62789299Y-51203717D01*
X62789616Y-51181000D01*
X62769397Y-51000745D01*
X62767080Y-50994091D01*
X62712064Y-50836106D01*
X62712062Y-50836103D01*
X62709745Y-50829448D01*
X62613626Y-50675624D01*
X62571355Y-50633057D01*
X62490778Y-50551915D01*
X62490774Y-50551912D01*
X62485815Y-50546918D01*
X62474697Y-50539862D01*
X62398252Y-50491349D01*
X62332666Y-50449727D01*
X62303463Y-50439328D01*
X62168425Y-50391243D01*
X62168420Y-50391242D01*
X62161790Y-50388881D01*
X62154802Y-50388048D01*
X62154799Y-50388047D01*
X62031698Y-50373368D01*
X61981680Y-50367404D01*
X61974677Y-50368140D01*
X61974676Y-50368140D01*
X61808288Y-50385628D01*
X61808286Y-50385629D01*
X61801288Y-50386364D01*
X61629579Y-50444818D01*
X61623575Y-50448512D01*
X61481095Y-50536166D01*
X61481092Y-50536168D01*
X61475088Y-50539862D01*
X61470053Y-50544793D01*
X61470050Y-50544795D01*
X61350525Y-50661843D01*
X61345493Y-50666771D01*
X61247235Y-50819238D01*
X61244826Y-50825858D01*
X61244824Y-50825861D01*
X61228077Y-50871873D01*
X61185197Y-50989685D01*
X61162463Y-51169640D01*
X57240094Y-51169640D01*
X57259032Y-51108651D01*
X57259033Y-51108645D01*
X57260616Y-51103548D01*
X57292023Y-50866589D01*
X57283055Y-50627726D01*
X57244252Y-50442793D01*
X57235067Y-50399016D01*
X57235066Y-50399013D01*
X57233970Y-50393789D01*
X57146171Y-50171467D01*
X57022168Y-49967117D01*
X56932103Y-49863326D01*
X56869007Y-49790614D01*
X56869005Y-49790612D01*
X56865507Y-49786581D01*
X56861381Y-49783198D01*
X56861377Y-49783194D01*
X56684795Y-49638407D01*
X56680667Y-49635022D01*
X56676031Y-49632383D01*
X56676028Y-49632381D01*
X56477577Y-49519416D01*
X56472934Y-49516773D01*
X56248247Y-49435216D01*
X56242998Y-49434267D01*
X56242995Y-49434266D01*
X56017115Y-49393420D01*
X56017107Y-49393419D01*
X56013031Y-49392682D01*
X55994641Y-49391815D01*
X55989456Y-49391570D01*
X55989449Y-49391570D01*
X55987968Y-49391500D01*
X55819988Y-49391500D01*
X55641825Y-49406617D01*
X55636661Y-49407957D01*
X55636657Y-49407958D01*
X55415625Y-49465327D01*
X55415620Y-49465329D01*
X55410460Y-49466668D01*
X55405594Y-49468860D01*
X55197381Y-49562653D01*
X55197378Y-49562654D01*
X55192520Y-49564843D01*
X54994238Y-49698334D01*
X54821282Y-49863326D01*
X54678598Y-50055100D01*
X54676182Y-50059851D01*
X54676180Y-50059855D01*
X54647231Y-50116794D01*
X54570267Y-50268172D01*
X54547350Y-50341977D01*
X54500968Y-50491349D01*
X54500967Y-50491355D01*
X54499384Y-50496452D01*
X54492977Y-50544795D01*
X54476299Y-50670627D01*
X54467977Y-50733411D01*
X33249019Y-50733411D01*
X33436619Y-50501744D01*
X33484357Y-50442793D01*
X33566846Y-50315770D01*
X33694264Y-50119563D01*
X33694266Y-50119560D01*
X33696062Y-50116794D01*
X33772327Y-49967117D01*
X33871034Y-49773393D01*
X33872532Y-49770453D01*
X33994196Y-49453507D01*
X34010647Y-49410652D01*
X34010648Y-49410650D01*
X34011833Y-49407562D01*
X34112438Y-49032099D01*
X34166383Y-48691507D01*
X34172732Y-48651424D01*
X34172733Y-48651416D01*
X34173246Y-48648176D01*
X34193589Y-48260000D01*
X34190099Y-48193411D01*
X41767977Y-48193411D01*
X41768177Y-48198740D01*
X41768177Y-48198741D01*
X41769212Y-48226297D01*
X41776945Y-48432274D01*
X41780598Y-48449685D01*
X41821572Y-48644962D01*
X41826030Y-48666211D01*
X41913829Y-48888533D01*
X42037832Y-49092883D01*
X42041329Y-49096913D01*
X42189706Y-49267902D01*
X42194493Y-49273419D01*
X42198619Y-49276802D01*
X42198623Y-49276806D01*
X42297629Y-49357985D01*
X42379333Y-49424978D01*
X42383969Y-49427617D01*
X42383972Y-49427619D01*
X42456422Y-49468860D01*
X42587066Y-49543227D01*
X42811753Y-49624784D01*
X42817002Y-49625733D01*
X42817005Y-49625734D01*
X43042885Y-49666580D01*
X43042893Y-49666581D01*
X43046969Y-49667318D01*
X43065359Y-49668185D01*
X43070544Y-49668430D01*
X43070551Y-49668430D01*
X43072032Y-49668500D01*
X43240012Y-49668500D01*
X43418175Y-49653383D01*
X43423339Y-49652043D01*
X43423343Y-49652042D01*
X43644375Y-49594673D01*
X43644380Y-49594671D01*
X43649540Y-49593332D01*
X43766636Y-49540584D01*
X43862619Y-49497347D01*
X43862622Y-49497346D01*
X43867480Y-49495157D01*
X44065762Y-49361666D01*
X44238718Y-49196674D01*
X44381402Y-49004900D01*
X44389844Y-48988297D01*
X44487314Y-48796586D01*
X44487314Y-48796585D01*
X44489733Y-48791828D01*
X44535360Y-48644886D01*
X44540094Y-48629640D01*
X47065463Y-48629640D01*
X47083163Y-48810160D01*
X47140418Y-48982273D01*
X47144065Y-48988295D01*
X47144066Y-48988297D01*
X47204644Y-49088323D01*
X47234380Y-49137424D01*
X47360382Y-49267902D01*
X47366278Y-49271760D01*
X47503669Y-49361666D01*
X47512159Y-49367222D01*
X47518763Y-49369678D01*
X47518765Y-49369679D01*
X47675558Y-49427990D01*
X47675560Y-49427990D01*
X47682168Y-49430448D01*
X47765995Y-49441633D01*
X47854980Y-49453507D01*
X47854984Y-49453507D01*
X47861961Y-49454438D01*
X47868972Y-49453800D01*
X47868976Y-49453800D01*
X48011459Y-49440832D01*
X48042600Y-49437998D01*
X48049302Y-49435820D01*
X48049304Y-49435820D01*
X48208409Y-49384124D01*
X48208412Y-49384123D01*
X48215108Y-49381947D01*
X48370912Y-49289069D01*
X48502266Y-49163982D01*
X48602643Y-49012902D01*
X48649887Y-48888533D01*
X48664555Y-48849920D01*
X48664556Y-48849918D01*
X48667055Y-48843338D01*
X48668035Y-48836366D01*
X48691748Y-48667639D01*
X48691748Y-48667636D01*
X48692299Y-48663717D01*
X48692616Y-48641000D01*
X48691342Y-48629640D01*
X49605463Y-48629640D01*
X49623163Y-48810160D01*
X49680418Y-48982273D01*
X49684065Y-48988295D01*
X49684066Y-48988297D01*
X49744644Y-49088323D01*
X49774380Y-49137424D01*
X49900382Y-49267902D01*
X49906278Y-49271760D01*
X50043669Y-49361666D01*
X50052159Y-49367222D01*
X50058763Y-49369678D01*
X50058765Y-49369679D01*
X50215558Y-49427990D01*
X50215560Y-49427990D01*
X50222168Y-49430448D01*
X50305995Y-49441633D01*
X50394980Y-49453507D01*
X50394984Y-49453507D01*
X50401961Y-49454438D01*
X50408972Y-49453800D01*
X50408976Y-49453800D01*
X50551459Y-49440832D01*
X50582600Y-49437998D01*
X50589302Y-49435820D01*
X50589304Y-49435820D01*
X50748409Y-49384124D01*
X50748412Y-49384123D01*
X50755108Y-49381947D01*
X50910912Y-49289069D01*
X51042266Y-49163982D01*
X51142643Y-49012902D01*
X51189887Y-48888533D01*
X51204555Y-48849920D01*
X51204556Y-48849918D01*
X51207055Y-48843338D01*
X51208035Y-48836366D01*
X51231748Y-48667639D01*
X51231748Y-48667636D01*
X51232299Y-48663717D01*
X51232616Y-48641000D01*
X51212397Y-48460745D01*
X51210080Y-48454091D01*
X51155064Y-48296106D01*
X51155062Y-48296103D01*
X51152745Y-48289448D01*
X51056626Y-48135624D01*
X51009254Y-48087920D01*
X50933778Y-48011915D01*
X50933774Y-48011912D01*
X50928815Y-48006918D01*
X50917697Y-47999862D01*
X50841252Y-47951349D01*
X50775666Y-47909727D01*
X50700501Y-47882962D01*
X50657472Y-47867640D01*
X62686463Y-47867640D01*
X62704163Y-48048160D01*
X62761418Y-48220273D01*
X62765065Y-48226295D01*
X62765066Y-48226297D01*
X62829005Y-48331873D01*
X62855380Y-48375424D01*
X62860269Y-48380487D01*
X62860270Y-48380488D01*
X62931348Y-48454091D01*
X62981382Y-48505902D01*
X63133159Y-48605222D01*
X63139763Y-48607678D01*
X63139765Y-48607679D01*
X63296558Y-48665990D01*
X63296560Y-48665990D01*
X63303168Y-48668448D01*
X63386995Y-48679633D01*
X63475980Y-48691507D01*
X63475984Y-48691507D01*
X63482961Y-48692438D01*
X63489972Y-48691800D01*
X63489976Y-48691800D01*
X63632459Y-48678832D01*
X63663600Y-48675998D01*
X63670302Y-48673820D01*
X63670304Y-48673820D01*
X63829409Y-48622124D01*
X63829412Y-48622123D01*
X63836108Y-48619947D01*
X63991912Y-48527069D01*
X64123266Y-48401982D01*
X64223643Y-48250902D01*
X64269332Y-48130627D01*
X64285555Y-48087920D01*
X64285556Y-48087918D01*
X64288055Y-48081338D01*
X64289035Y-48074366D01*
X64312748Y-47905639D01*
X64312748Y-47905636D01*
X64313299Y-47901717D01*
X64313616Y-47879000D01*
X64293397Y-47698745D01*
X64291080Y-47692091D01*
X64236064Y-47534106D01*
X64236062Y-47534103D01*
X64233745Y-47527448D01*
X64137626Y-47373624D01*
X64087678Y-47323326D01*
X64014778Y-47249915D01*
X64014774Y-47249912D01*
X64009815Y-47244918D01*
X63998697Y-47237862D01*
X63879180Y-47162015D01*
X63856666Y-47147727D01*
X63817209Y-47133677D01*
X63692425Y-47089243D01*
X63692420Y-47089242D01*
X63685790Y-47086881D01*
X63678802Y-47086048D01*
X63678799Y-47086047D01*
X63555698Y-47071368D01*
X63505680Y-47065404D01*
X63498677Y-47066140D01*
X63498676Y-47066140D01*
X63332288Y-47083628D01*
X63332286Y-47083629D01*
X63325288Y-47084364D01*
X63153579Y-47142818D01*
X63122375Y-47162015D01*
X63005095Y-47234166D01*
X63005092Y-47234168D01*
X62999088Y-47237862D01*
X62994053Y-47242793D01*
X62994050Y-47242795D01*
X62874525Y-47359843D01*
X62869493Y-47364771D01*
X62771235Y-47517238D01*
X62768826Y-47523858D01*
X62768824Y-47523861D01*
X62729659Y-47631467D01*
X62709197Y-47687685D01*
X62686463Y-47867640D01*
X50657472Y-47867640D01*
X50611425Y-47851243D01*
X50611420Y-47851242D01*
X50604790Y-47848881D01*
X50597802Y-47848048D01*
X50597799Y-47848047D01*
X50474698Y-47833368D01*
X50424680Y-47827404D01*
X50417677Y-47828140D01*
X50417676Y-47828140D01*
X50251288Y-47845628D01*
X50251286Y-47845629D01*
X50244288Y-47846364D01*
X50072579Y-47904818D01*
X50066575Y-47908512D01*
X49924095Y-47996166D01*
X49924092Y-47996168D01*
X49918088Y-47999862D01*
X49913053Y-48004793D01*
X49913050Y-48004795D01*
X49793525Y-48121843D01*
X49788493Y-48126771D01*
X49690235Y-48279238D01*
X49687826Y-48285858D01*
X49687824Y-48285861D01*
X49643791Y-48406841D01*
X49628197Y-48449685D01*
X49605463Y-48629640D01*
X48691342Y-48629640D01*
X48672397Y-48460745D01*
X48670080Y-48454091D01*
X48615064Y-48296106D01*
X48615062Y-48296103D01*
X48612745Y-48289448D01*
X48516626Y-48135624D01*
X48469254Y-48087920D01*
X48393778Y-48011915D01*
X48393774Y-48011912D01*
X48388815Y-48006918D01*
X48377697Y-47999862D01*
X48301252Y-47951349D01*
X48235666Y-47909727D01*
X48160501Y-47882962D01*
X48071425Y-47851243D01*
X48071420Y-47851242D01*
X48064790Y-47848881D01*
X48057802Y-47848048D01*
X48057799Y-47848047D01*
X47934698Y-47833368D01*
X47884680Y-47827404D01*
X47877677Y-47828140D01*
X47877676Y-47828140D01*
X47711288Y-47845628D01*
X47711286Y-47845629D01*
X47704288Y-47846364D01*
X47532579Y-47904818D01*
X47526575Y-47908512D01*
X47384095Y-47996166D01*
X47384092Y-47996168D01*
X47378088Y-47999862D01*
X47373053Y-48004793D01*
X47373050Y-48004795D01*
X47253525Y-48121843D01*
X47248493Y-48126771D01*
X47150235Y-48279238D01*
X47147826Y-48285858D01*
X47147824Y-48285861D01*
X47103791Y-48406841D01*
X47088197Y-48449685D01*
X47065463Y-48629640D01*
X44540094Y-48629640D01*
X44559032Y-48568651D01*
X44559033Y-48568645D01*
X44560616Y-48563548D01*
X44582030Y-48401982D01*
X44591323Y-48331873D01*
X44591323Y-48331869D01*
X44592023Y-48326589D01*
X44589472Y-48258629D01*
X44588031Y-48220273D01*
X44583055Y-48087726D01*
X44544677Y-47904818D01*
X44535067Y-47859016D01*
X44535066Y-47859013D01*
X44533970Y-47853789D01*
X44446171Y-47631467D01*
X44322168Y-47427117D01*
X44232103Y-47323326D01*
X44169007Y-47250614D01*
X44169005Y-47250612D01*
X44165507Y-47246581D01*
X44161381Y-47243198D01*
X44161377Y-47243194D01*
X43984795Y-47098407D01*
X43980667Y-47095022D01*
X43976031Y-47092383D01*
X43976028Y-47092381D01*
X43799613Y-46991960D01*
X43772934Y-46976773D01*
X43548247Y-46895216D01*
X43542998Y-46894267D01*
X43542995Y-46894266D01*
X43317115Y-46853420D01*
X43317107Y-46853419D01*
X43313031Y-46852682D01*
X43294641Y-46851815D01*
X43289456Y-46851570D01*
X43289449Y-46851570D01*
X43287968Y-46851500D01*
X43119988Y-46851500D01*
X42941825Y-46866617D01*
X42936661Y-46867957D01*
X42936657Y-46867958D01*
X42715625Y-46925327D01*
X42715620Y-46925329D01*
X42710460Y-46926668D01*
X42705594Y-46928860D01*
X42497381Y-47022653D01*
X42497378Y-47022654D01*
X42492520Y-47024843D01*
X42294238Y-47158334D01*
X42121282Y-47323326D01*
X41978598Y-47515100D01*
X41976182Y-47519851D01*
X41976180Y-47519855D01*
X41888611Y-47692091D01*
X41870267Y-47728172D01*
X41839455Y-47827404D01*
X41800968Y-47951349D01*
X41800967Y-47951355D01*
X41799384Y-47956452D01*
X41792977Y-48004795D01*
X41776299Y-48130627D01*
X41767977Y-48193411D01*
X34190099Y-48193411D01*
X34173246Y-47871824D01*
X34172584Y-47867640D01*
X34119756Y-47534106D01*
X34112438Y-47487901D01*
X34011833Y-47112438D01*
X34001703Y-47086047D01*
X33912047Y-46852487D01*
X33872532Y-46749547D01*
X33762094Y-46532800D01*
X33697561Y-46406147D01*
X33697557Y-46406140D01*
X33696062Y-46403206D01*
X33662004Y-46350760D01*
X33486152Y-46079971D01*
X33486152Y-46079970D01*
X33484357Y-46077207D01*
X33298682Y-45847918D01*
X33241809Y-45777686D01*
X33241806Y-45777682D01*
X33239734Y-45775124D01*
X32964876Y-45500266D01*
X32662793Y-45255643D01*
X32561978Y-45190173D01*
X32515741Y-45136296D01*
X32505971Y-45065975D01*
X32535771Y-45001535D01*
X32595680Y-44963436D01*
X32630602Y-44958500D01*
X35381244Y-44958500D01*
X35449365Y-44978502D01*
G37*
%TD.AperFunction*%
%TD*%
M02*
