%TF.GenerationSoftware,KiCad,Pcbnew,(6.0.5)*%
%TF.CreationDate,2022-06-21T13:53:18+02:00*%
%TF.ProjectId,usb-c_demo1,7573622d-635f-4646-956d-6f312e6b6963,rev?*%
%TF.SameCoordinates,Original*%
%TF.FileFunction,Legend,Bot*%
%TF.FilePolarity,Positive*%
%FSLAX46Y46*%
G04 Gerber Fmt 4.6, Leading zero omitted, Abs format (unit mm)*
G04 Created by KiCad (PCBNEW (6.0.5)) date 2022-06-21 13:53:18*
%MOMM*%
%LPD*%
G01*
G04 APERTURE LIST*
%ADD10C,0.150000*%
%ADD11C,0.120000*%
G04 APERTURE END LIST*
D10*
X55331761Y-63020380D02*
X55807952Y-63020380D01*
X55807952Y-62020380D01*
X54569857Y-63020380D02*
X54569857Y-62496571D01*
X54617476Y-62401333D01*
X54712714Y-62353714D01*
X54903190Y-62353714D01*
X54998428Y-62401333D01*
X54569857Y-62972761D02*
X54665095Y-63020380D01*
X54903190Y-63020380D01*
X54998428Y-62972761D01*
X55046047Y-62877523D01*
X55046047Y-62782285D01*
X54998428Y-62687047D01*
X54903190Y-62639428D01*
X54665095Y-62639428D01*
X54569857Y-62591809D01*
X53665095Y-62353714D02*
X53665095Y-63020380D01*
X54093666Y-62353714D02*
X54093666Y-62877523D01*
X54046047Y-62972761D01*
X53950809Y-63020380D01*
X53807952Y-63020380D01*
X53712714Y-62972761D01*
X53665095Y-62925142D01*
X53188904Y-63020380D02*
X53188904Y-62353714D01*
X53188904Y-62544190D02*
X53141285Y-62448952D01*
X53093666Y-62401333D01*
X52998428Y-62353714D01*
X52903190Y-62353714D01*
X52188904Y-62972761D02*
X52284142Y-63020380D01*
X52474619Y-63020380D01*
X52569857Y-62972761D01*
X52617476Y-62877523D01*
X52617476Y-62496571D01*
X52569857Y-62401333D01*
X52474619Y-62353714D01*
X52284142Y-62353714D01*
X52188904Y-62401333D01*
X52141285Y-62496571D01*
X52141285Y-62591809D01*
X52617476Y-62687047D01*
X51712714Y-62353714D02*
X51712714Y-63020380D01*
X51712714Y-62448952D02*
X51665095Y-62401333D01*
X51569857Y-62353714D01*
X51427000Y-62353714D01*
X51331761Y-62401333D01*
X51284142Y-62496571D01*
X51284142Y-63020380D01*
X50950809Y-62353714D02*
X50569857Y-62353714D01*
X50807952Y-62020380D02*
X50807952Y-62877523D01*
X50760333Y-62972761D01*
X50665095Y-63020380D01*
X50569857Y-63020380D01*
X49141285Y-62496571D02*
X49474619Y-62496571D01*
X49474619Y-63020380D02*
X49474619Y-62020380D01*
X48998428Y-62020380D01*
X48617476Y-63020380D02*
X48617476Y-62353714D01*
X48617476Y-62020380D02*
X48665095Y-62068000D01*
X48617476Y-62115619D01*
X48569857Y-62068000D01*
X48617476Y-62020380D01*
X48617476Y-62115619D01*
X47712714Y-63020380D02*
X47712714Y-62496571D01*
X47760333Y-62401333D01*
X47855571Y-62353714D01*
X48046047Y-62353714D01*
X48141285Y-62401333D01*
X47712714Y-62972761D02*
X47807952Y-63020380D01*
X48046047Y-63020380D01*
X48141285Y-62972761D01*
X48188904Y-62877523D01*
X48188904Y-62782285D01*
X48141285Y-62687047D01*
X48046047Y-62639428D01*
X47807952Y-62639428D01*
X47712714Y-62591809D01*
X46807952Y-62972761D02*
X46903190Y-63020380D01*
X47093666Y-63020380D01*
X47188904Y-62972761D01*
X47236523Y-62925142D01*
X47284142Y-62829904D01*
X47284142Y-62544190D01*
X47236523Y-62448952D01*
X47188904Y-62401333D01*
X47093666Y-62353714D01*
X46903190Y-62353714D01*
X46807952Y-62401333D01*
X46379380Y-63020380D02*
X46379380Y-62020380D01*
X46284142Y-62639428D02*
X45998428Y-63020380D01*
X45998428Y-62353714D02*
X46379380Y-62734666D01*
X52641285Y-63725619D02*
X52593666Y-63678000D01*
X52498428Y-63630380D01*
X52260333Y-63630380D01*
X52165095Y-63678000D01*
X52117476Y-63725619D01*
X52069857Y-63820857D01*
X52069857Y-63916095D01*
X52117476Y-64058952D01*
X52688904Y-64630380D01*
X52069857Y-64630380D01*
X51450809Y-63630380D02*
X51355571Y-63630380D01*
X51260333Y-63678000D01*
X51212714Y-63725619D01*
X51165095Y-63820857D01*
X51117476Y-64011333D01*
X51117476Y-64249428D01*
X51165095Y-64439904D01*
X51212714Y-64535142D01*
X51260333Y-64582761D01*
X51355571Y-64630380D01*
X51450809Y-64630380D01*
X51546047Y-64582761D01*
X51593666Y-64535142D01*
X51641285Y-64439904D01*
X51688904Y-64249428D01*
X51688904Y-64011333D01*
X51641285Y-63820857D01*
X51593666Y-63725619D01*
X51546047Y-63678000D01*
X51450809Y-63630380D01*
X50736523Y-63725619D02*
X50688904Y-63678000D01*
X50593666Y-63630380D01*
X50355571Y-63630380D01*
X50260333Y-63678000D01*
X50212714Y-63725619D01*
X50165095Y-63820857D01*
X50165095Y-63916095D01*
X50212714Y-64058952D01*
X50784142Y-64630380D01*
X50165095Y-64630380D01*
X49784142Y-63725619D02*
X49736523Y-63678000D01*
X49641285Y-63630380D01*
X49403190Y-63630380D01*
X49307952Y-63678000D01*
X49260333Y-63725619D01*
X49212714Y-63820857D01*
X49212714Y-63916095D01*
X49260333Y-64058952D01*
X49831761Y-64630380D01*
X49212714Y-64630380D01*
X48497523Y-67565380D02*
X48497523Y-68374904D01*
X48449904Y-68470142D01*
X48402285Y-68517761D01*
X48307047Y-68565380D01*
X48116571Y-68565380D01*
X48021333Y-68517761D01*
X47973714Y-68470142D01*
X47926095Y-68374904D01*
X47926095Y-67565380D01*
X47497523Y-68517761D02*
X47354666Y-68565380D01*
X47116571Y-68565380D01*
X47021333Y-68517761D01*
X46973714Y-68470142D01*
X46926095Y-68374904D01*
X46926095Y-68279666D01*
X46973714Y-68184428D01*
X47021333Y-68136809D01*
X47116571Y-68089190D01*
X47307047Y-68041571D01*
X47402285Y-67993952D01*
X47449904Y-67946333D01*
X47497523Y-67851095D01*
X47497523Y-67755857D01*
X47449904Y-67660619D01*
X47402285Y-67613000D01*
X47307047Y-67565380D01*
X47068952Y-67565380D01*
X46926095Y-67613000D01*
X46164190Y-68041571D02*
X46021333Y-68089190D01*
X45973714Y-68136809D01*
X45926095Y-68232047D01*
X45926095Y-68374904D01*
X45973714Y-68470142D01*
X46021333Y-68517761D01*
X46116571Y-68565380D01*
X46497523Y-68565380D01*
X46497523Y-67565380D01*
X46164190Y-67565380D01*
X46068952Y-67613000D01*
X46021333Y-67660619D01*
X45973714Y-67755857D01*
X45973714Y-67851095D01*
X46021333Y-67946333D01*
X46068952Y-67993952D01*
X46164190Y-68041571D01*
X46497523Y-68041571D01*
X45497523Y-68184428D02*
X44735619Y-68184428D01*
X43688000Y-68470142D02*
X43735619Y-68517761D01*
X43878476Y-68565380D01*
X43973714Y-68565380D01*
X44116571Y-68517761D01*
X44211809Y-68422523D01*
X44259428Y-68327285D01*
X44307047Y-68136809D01*
X44307047Y-67993952D01*
X44259428Y-67803476D01*
X44211809Y-67708238D01*
X44116571Y-67613000D01*
X43973714Y-67565380D01*
X43878476Y-67565380D01*
X43735619Y-67613000D01*
X43688000Y-67660619D01*
X42497523Y-68565380D02*
X42497523Y-67565380D01*
X42259428Y-67565380D01*
X42116571Y-67613000D01*
X42021333Y-67708238D01*
X41973714Y-67803476D01*
X41926095Y-67993952D01*
X41926095Y-68136809D01*
X41973714Y-68327285D01*
X42021333Y-68422523D01*
X42116571Y-68517761D01*
X42259428Y-68565380D01*
X42497523Y-68565380D01*
X41116571Y-68517761D02*
X41211809Y-68565380D01*
X41402285Y-68565380D01*
X41497523Y-68517761D01*
X41545142Y-68422523D01*
X41545142Y-68041571D01*
X41497523Y-67946333D01*
X41402285Y-67898714D01*
X41211809Y-67898714D01*
X41116571Y-67946333D01*
X41068952Y-68041571D01*
X41068952Y-68136809D01*
X41545142Y-68232047D01*
X40640380Y-68565380D02*
X40640380Y-67898714D01*
X40640380Y-67993952D02*
X40592761Y-67946333D01*
X40497523Y-67898714D01*
X40354666Y-67898714D01*
X40259428Y-67946333D01*
X40211809Y-68041571D01*
X40211809Y-68565380D01*
X40211809Y-68041571D02*
X40164190Y-67946333D01*
X40068952Y-67898714D01*
X39926095Y-67898714D01*
X39830857Y-67946333D01*
X39783238Y-68041571D01*
X39783238Y-68565380D01*
X39164190Y-68565380D02*
X39259428Y-68517761D01*
X39307047Y-68470142D01*
X39354666Y-68374904D01*
X39354666Y-68089190D01*
X39307047Y-67993952D01*
X39259428Y-67946333D01*
X39164190Y-67898714D01*
X39021333Y-67898714D01*
X38926095Y-67946333D01*
X38878476Y-67993952D01*
X38830857Y-68089190D01*
X38830857Y-68374904D01*
X38878476Y-68470142D01*
X38926095Y-68517761D01*
X39021333Y-68565380D01*
X39164190Y-68565380D01*
X49664190Y-70127761D02*
X49521333Y-70175380D01*
X49283238Y-70175380D01*
X49188000Y-70127761D01*
X49140380Y-70080142D01*
X49092761Y-69984904D01*
X49092761Y-69889666D01*
X49140380Y-69794428D01*
X49188000Y-69746809D01*
X49283238Y-69699190D01*
X49473714Y-69651571D01*
X49568952Y-69603952D01*
X49616571Y-69556333D01*
X49664190Y-69461095D01*
X49664190Y-69365857D01*
X49616571Y-69270619D01*
X49568952Y-69223000D01*
X49473714Y-69175380D01*
X49235619Y-69175380D01*
X49092761Y-69223000D01*
X48807047Y-69175380D02*
X48235619Y-69175380D01*
X48521333Y-70175380D02*
X48521333Y-69175380D01*
X47902285Y-70175380D02*
X47902285Y-69175380D01*
X47568952Y-69889666D01*
X47235619Y-69175380D01*
X47235619Y-70175380D01*
X46854666Y-69175380D02*
X46235619Y-69175380D01*
X46568952Y-69556333D01*
X46426095Y-69556333D01*
X46330857Y-69603952D01*
X46283238Y-69651571D01*
X46235619Y-69746809D01*
X46235619Y-69984904D01*
X46283238Y-70080142D01*
X46330857Y-70127761D01*
X46426095Y-70175380D01*
X46711809Y-70175380D01*
X46807047Y-70127761D01*
X46854666Y-70080142D01*
X45854666Y-69270619D02*
X45807047Y-69223000D01*
X45711809Y-69175380D01*
X45473714Y-69175380D01*
X45378476Y-69223000D01*
X45330857Y-69270619D01*
X45283238Y-69365857D01*
X45283238Y-69461095D01*
X45330857Y-69603952D01*
X45902285Y-70175380D01*
X45283238Y-70175380D01*
X44330857Y-69223000D02*
X44426095Y-69175380D01*
X44568952Y-69175380D01*
X44711809Y-69223000D01*
X44807047Y-69318238D01*
X44854666Y-69413476D01*
X44902285Y-69603952D01*
X44902285Y-69746809D01*
X44854666Y-69937285D01*
X44807047Y-70032523D01*
X44711809Y-70127761D01*
X44568952Y-70175380D01*
X44473714Y-70175380D01*
X44330857Y-70127761D01*
X44283238Y-70080142D01*
X44283238Y-69746809D01*
X44473714Y-69746809D01*
X43426095Y-69508714D02*
X43426095Y-70175380D01*
X43664190Y-69127761D02*
X43902285Y-69842047D01*
X43283238Y-69842047D01*
X42997523Y-69175380D02*
X42378476Y-69175380D01*
X42711809Y-69556333D01*
X42568952Y-69556333D01*
X42473714Y-69603952D01*
X42426095Y-69651571D01*
X42378476Y-69746809D01*
X42378476Y-69984904D01*
X42426095Y-70080142D01*
X42473714Y-70127761D01*
X42568952Y-70175380D01*
X42854666Y-70175380D01*
X42949904Y-70127761D01*
X42997523Y-70080142D01*
X41426095Y-70175380D02*
X41997523Y-70175380D01*
X41711809Y-70175380D02*
X41711809Y-69175380D01*
X41807047Y-69318238D01*
X41902285Y-69413476D01*
X41997523Y-69461095D01*
X40997523Y-70175380D02*
X40997523Y-69175380D01*
X40426095Y-70175380D02*
X40854666Y-69603952D01*
X40426095Y-69175380D02*
X40997523Y-69746809D01*
X39664190Y-69651571D02*
X39521333Y-69699190D01*
X39473714Y-69746809D01*
X39426095Y-69842047D01*
X39426095Y-69984904D01*
X39473714Y-70080142D01*
X39521333Y-70127761D01*
X39616571Y-70175380D01*
X39997523Y-70175380D01*
X39997523Y-69175380D01*
X39664190Y-69175380D01*
X39568952Y-69223000D01*
X39521333Y-69270619D01*
X39473714Y-69365857D01*
X39473714Y-69461095D01*
X39521333Y-69556333D01*
X39568952Y-69603952D01*
X39664190Y-69651571D01*
X39997523Y-69651571D01*
X39140380Y-69175380D02*
X38568952Y-69175380D01*
X38854666Y-70175380D02*
X38854666Y-69175380D01*
X37807047Y-69175380D02*
X37997523Y-69175380D01*
X38092761Y-69223000D01*
X38140380Y-69270619D01*
X38235619Y-69413476D01*
X38283238Y-69603952D01*
X38283238Y-69984904D01*
X38235619Y-70080142D01*
X38188000Y-70127761D01*
X38092761Y-70175380D01*
X37902285Y-70175380D01*
X37807047Y-70127761D01*
X37759428Y-70080142D01*
X37711809Y-69984904D01*
X37711809Y-69746809D01*
X37759428Y-69651571D01*
X37807047Y-69603952D01*
X37902285Y-69556333D01*
X38092761Y-69556333D01*
X38188000Y-69603952D01*
X38235619Y-69651571D01*
X38283238Y-69746809D01*
X45759428Y-71785380D02*
X46092761Y-71309190D01*
X46330857Y-71785380D02*
X46330857Y-70785380D01*
X45949904Y-70785380D01*
X45854666Y-70833000D01*
X45807047Y-70880619D01*
X45759428Y-70975857D01*
X45759428Y-71118714D01*
X45807047Y-71213952D01*
X45854666Y-71261571D01*
X45949904Y-71309190D01*
X46330857Y-71309190D01*
X44949904Y-71737761D02*
X45045142Y-71785380D01*
X45235619Y-71785380D01*
X45330857Y-71737761D01*
X45378476Y-71642523D01*
X45378476Y-71261571D01*
X45330857Y-71166333D01*
X45235619Y-71118714D01*
X45045142Y-71118714D01*
X44949904Y-71166333D01*
X44902285Y-71261571D01*
X44902285Y-71356809D01*
X45378476Y-71452047D01*
X44568952Y-71118714D02*
X44330857Y-71785380D01*
X44092761Y-71118714D01*
X42426095Y-71785380D02*
X42997523Y-71785380D01*
X42711809Y-71785380D02*
X42711809Y-70785380D01*
X42807047Y-70928238D01*
X42902285Y-71023476D01*
X42997523Y-71071095D01*
X41997523Y-71690142D02*
X41949904Y-71737761D01*
X41997523Y-71785380D01*
X42045142Y-71737761D01*
X41997523Y-71690142D01*
X41997523Y-71785380D01*
X41330857Y-70785380D02*
X41235619Y-70785380D01*
X41140380Y-70833000D01*
X41092761Y-70880619D01*
X41045142Y-70975857D01*
X40997523Y-71166333D01*
X40997523Y-71404428D01*
X41045142Y-71594904D01*
X41092761Y-71690142D01*
X41140380Y-71737761D01*
X41235619Y-71785380D01*
X41330857Y-71785380D01*
X41426095Y-71737761D01*
X41473714Y-71690142D01*
X41521333Y-71594904D01*
X41568952Y-71404428D01*
X41568952Y-71166333D01*
X41521333Y-70975857D01*
X41473714Y-70880619D01*
X41426095Y-70833000D01*
X41330857Y-70785380D01*
D11*
%TO.C,J2*%
X55880000Y-55880000D02*
X43180000Y-55880000D01*
X40640000Y-53340000D02*
X40640000Y-48260000D01*
X43180000Y-45720000D02*
X55880000Y-45720000D01*
X58420000Y-48260000D02*
X58420000Y-53340000D01*
X43180000Y-45720000D02*
G75*
G03*
X40640000Y-48260000I1J-2540001D01*
G01*
X55880000Y-55880000D02*
G75*
G03*
X58420000Y-53340000I0J2540000D01*
G01*
X40640000Y-53340000D02*
G75*
G03*
X43180000Y-55880000I2540000J0D01*
G01*
X58420000Y-48260000D02*
G75*
G03*
X55880000Y-45720000I-2540001J-1D01*
G01*
%TD*%
M02*
