%TF.GenerationSoftware,KiCad,Pcbnew,(6.0.5)*%
%TF.CreationDate,2022-06-21T13:53:18+02:00*%
%TF.ProjectId,usb-c_demo1,7573622d-635f-4646-956d-6f312e6b6963,rev?*%
%TF.SameCoordinates,Original*%
%TF.FileFunction,Soldermask,Bot*%
%TF.FilePolarity,Negative*%
%FSLAX46Y46*%
G04 Gerber Fmt 4.6, Leading zero omitted, Abs format (unit mm)*
G04 Created by KiCad (PCBNEW (6.0.5)) date 2022-06-21 13:53:18*
%MOMM*%
%LPD*%
G01*
G04 APERTURE LIST*
%ADD10C,0.650000*%
%ADD11O,1.600000X1.000000*%
%ADD12O,2.100000X1.000000*%
%ADD13R,1.700000X1.700000*%
%ADD14O,1.700000X1.700000*%
%ADD15O,1.800000X1.800000*%
%ADD16C,1.100000*%
%ADD17R,2.200000X2.200000*%
%ADD18C,2.200000*%
%ADD19C,6.400000*%
%ADD20C,0.800000*%
G04 APERTURE END LIST*
D10*
%TO.C,J1*%
X65980000Y-60610000D03*
X65980000Y-66390000D03*
D11*
X69630000Y-67820000D03*
D12*
X65450000Y-59180000D03*
D11*
X69630000Y-59180000D03*
D12*
X65450000Y-67820000D03*
%TD*%
D13*
%TO.C,J4*%
X36830000Y-74930000D03*
D14*
X39370000Y-74930000D03*
X41910000Y-74930000D03*
X44450000Y-74930000D03*
X46990000Y-74930000D03*
X49530000Y-74930000D03*
%TD*%
D15*
%TO.C,J2*%
X55880000Y-50800000D03*
X43180000Y-53340000D03*
X43180000Y-48260000D03*
%TD*%
D13*
%TO.C,J5*%
X29210000Y-54610000D03*
D14*
X29210000Y-57150000D03*
X29210000Y-59690000D03*
X29210000Y-62230000D03*
X29210000Y-64770000D03*
X29210000Y-67310000D03*
%TD*%
D16*
%TO.C,J3*%
X60960000Y-76200000D03*
X58420000Y-76200000D03*
X55880000Y-76200000D03*
D17*
X55880000Y-73660000D03*
D18*
X58420000Y-73660000D03*
X60960000Y-73660000D03*
%TD*%
D19*
%TO.C,H3*%
X30480000Y-48260000D03*
D20*
X30480000Y-45860000D03*
X28080000Y-48260000D03*
X28782944Y-49957056D03*
X32177056Y-49957056D03*
X30480000Y-50660000D03*
X28782944Y-46562944D03*
X32177056Y-46562944D03*
X32880000Y-48260000D03*
%TD*%
D19*
%TO.C,H1*%
X68580000Y-48260000D03*
D20*
X68580000Y-50660000D03*
X70980000Y-48260000D03*
X70277056Y-46562944D03*
X70277056Y-49957056D03*
X66180000Y-48260000D03*
X68580000Y-45860000D03*
X66882944Y-49957056D03*
X66882944Y-46562944D03*
%TD*%
%TO.C,H2*%
X28080000Y-73660000D03*
X32177056Y-71962944D03*
X28782944Y-71962944D03*
X32177056Y-75357056D03*
X30480000Y-76060000D03*
X28782944Y-75357056D03*
X32880000Y-73660000D03*
D19*
X30480000Y-73660000D03*
D20*
X30480000Y-71260000D03*
%TD*%
%TO.C,H4*%
X66882944Y-75357056D03*
X70277056Y-75357056D03*
X68580000Y-71260000D03*
X66882944Y-71962944D03*
X70277056Y-71962944D03*
D19*
X68580000Y-73660000D03*
D20*
X66180000Y-73660000D03*
X68580000Y-76060000D03*
X70980000Y-73660000D03*
%TD*%
M02*
