M48
; DRILL file {KiCad (6.0.5)} date Tue 21 Jun 2022 13:53:15 CEST
; FORMAT={-:-/ absolute / inch / decimal}
; #@! TF.CreationDate,2022-06-21T13:53:15+02:00
; #@! TF.GenerationSoftware,Kicad,Pcbnew,(6.0.5)
; #@! TF.FileFunction,Plated,1,4,PTH
FMAT,2
INCH
; #@! TA.AperFunction,Plated,PTH,ViaDrill
T1C0.0118
; #@! TA.AperFunction,Plated,PTH,ComponentDrill
T2C0.0197
; #@! TA.AperFunction,Plated,PTH,ComponentDrill
T3C0.0236
; #@! TA.AperFunction,Plated,PTH,ComponentDrill
T4C0.0394
; #@! TA.AperFunction,Plated,PTH,ComponentDrill
T5C0.0433
; #@! TA.AperFunction,Plated,PTH,ComponentDrill
T6C0.1260
%
G90
G05
T1
X1.245Y-2.595
X1.255Y-2.48
X1.3Y-2.135
X1.34Y-2.465
X1.35Y-2.21
X1.38Y-2.585
X1.42Y-1.8
X1.42Y-2.07
X1.47Y-2.29
X1.48Y-2.375
X1.49Y-2.63
X1.505Y-2.82
X1.51Y-1.8
X1.51Y-2.29
X1.51Y-2.37
X1.63Y-2.29
X1.63Y-2.37
X1.75Y-2.485
X1.76Y-2.29
X1.76Y-2.39
X1.83Y-2.57
X1.87Y-2.85
X1.88Y-2.42
X1.885Y-1.915
X1.895Y-2.125
X1.915Y-2.62
X1.95Y-2.85
X1.98Y-2.61
X1.985Y-1.915
X2.005Y-2.665
X2.03Y-2.85
X2.045Y-2.135
X2.085Y-1.915
X2.095Y-2.91
X2.11Y-2.69
X2.13Y-2.58
X2.205Y-2.31
X2.235Y-2.69
X2.245Y-1.83
X2.275Y-2.115
X2.28Y-2.38
X2.28Y-2.62
X2.35Y-2.42
X2.35Y-2.745
X2.405Y-1.92
X2.41Y-1.855
X2.43Y-2.5
X2.44Y-2.015
X2.5Y-1.885
X2.5Y-2.135
X2.5Y-2.37
X2.5Y-2.63
X2.76Y-2.425
T2
X1.1055Y-1.9
X1.1055Y-2.9
X1.1332Y-1.8332
X1.1332Y-1.9668
X1.1332Y-2.8332
X1.1332Y-2.9668
X1.2Y-1.8055
X1.2Y-1.9945
X1.2Y-2.8055
X1.2Y-2.9945
X1.2668Y-1.8332
X1.2668Y-1.9668
X1.2668Y-2.8332
X1.2668Y-2.9668
X1.2945Y-1.9
X1.2945Y-2.9
X2.6055Y-1.9
X2.6055Y-2.9
X2.6332Y-1.8332
X2.6332Y-1.9668
X2.6332Y-2.8332
X2.6332Y-2.9668
X2.7Y-1.8055
X2.7Y-1.9945
X2.7Y-2.8055
X2.7Y-2.9945
X2.7668Y-1.8332
X2.7668Y-1.9668
X2.7668Y-2.8332
X2.7668Y-2.9668
X2.7945Y-1.9
X2.7945Y-2.9
T4
X1.15Y-2.15
X1.15Y-2.25
X1.15Y-2.35
X1.15Y-2.45
X1.15Y-2.55
X1.15Y-2.65
X1.45Y-2.95
X1.55Y-2.95
X1.65Y-2.95
X1.75Y-2.95
X1.85Y-2.95
X1.95Y-2.95
T5
X2.2Y-2.9
X2.3Y-2.9
X2.4Y-2.9
T6
X1.2Y-1.9
X1.2Y-2.9
X2.7Y-1.9
X2.7Y-2.9
T3
G00X2.5551Y-2.3299
M15
G01X2.5984Y-2.3299
M16
G05
G00X2.5551Y-2.6701
M15
G01X2.5984Y-2.6701
M16
G05
G00X2.7295Y-2.3299
M15
G01X2.7531Y-2.3299
M16
G05
G00X2.7295Y-2.6701
M15
G01X2.7531Y-2.6701
M16
G05
T0
M30
